  0
SECTION
  2
ENTITIES
  0
POLYLINE
  8
0
 10
0
 20
0
 39
0
 70
1
 66
1
  0
VERTEX
  8
0
 10
0
 20
0
 42
-0
  0
VERTEX
  8
0
 10
700
 20
0
 42
-0
  0
VERTEX
  8
0
 10
700
 20
400
 42
-0
  0
VERTEX
  8
0
 10
0
 20
400
 42
-0
  0
SEQEND
  0
POLYLINE
  8
0
 10
0
 20
0
 39
0
 70
1
 66
1
  0
VERTEX
  8
0
 10
230
 20
350
 42
0
  0
VERTEX
  8
0
 10
236.51178026199341
 20
350
 42
-0.35743856430053711
  0
VERTEX
  8
0
 10
258.06403732299805
 20
350
 42
0
  0
VERTEX
  8
0
 10
301.93596649169922
 20
350
 42
-0.35743856430053711
  0
VERTEX
  8
0
 10
323.48822021484375
 20
350
 42
0
  0
VERTEX
  8
0
 10
330
 20
350
 42
0
  0
VERTEX
  8
0
 10
330
 20
390
 42
0
  0
VERTEX
  8
0
 10
323.48822021484375
 20
390
 42
-0.35743856430053711
  0
VERTEX
  8
0
 10
301.93596649169922
 20
390
 42
0
  0
VERTEX
  8
0
 10
258.06403732299805
 20
390
 42
-0.35743856430053711
  0
VERTEX
  8
0
 10
236.51178026199341
 20
390
 42
0
  0
VERTEX
  8
0
 10
230
 20
390
 42
-0
  0
SEQEND
  0
POLYLINE
  8
0
 10
0
 20
0
 39
0
 70
1
 66
1
  0
VERTEX
  8
0
 10
269
 20
370
 42
-1
  0
VERTEX
  8
0
 10
291
 20
370
 42
-1
  0
SEQEND
  0
POLYLINE
  8
0
 10
0
 20
0
 39
0
 70
1
 66
1
  0
VERTEX
  8
0
 10
530
 20
110
 42
0
  0
VERTEX
  8
0
 10
530
 20
103.48821973800659
 42
-0.35743856430053711
  0
VERTEX
  8
0
 10
530
 20
81.935962677001953
 42
0
  0
VERTEX
  8
0
 10
530
 20
38.064033508300781
 42
-0.35743856430053711
  0
VERTEX
  8
0
 10
530
 20
16.51177978515625
 42
0
  0
VERTEX
  8
0
 10
530
 20
10
 42
0
  0
VERTEX
  8
0
 10
570
 20
10
 42
0
  0
VERTEX
  8
0
 10
570
 20
16.51177978515625
 42
-0.35743856430053711
  0
VERTEX
  8
0
 10
570
 20
38.064033508300781
 42
0
  0
VERTEX
  8
0
 10
570
 20
81.935962677001953
 42
-0.35743856430053711
  0
VERTEX
  8
0
 10
570
 20
103.48821973800659
 42
0
  0
VERTEX
  8
0
 10
570
 20
110
 42
-0
  0
SEQEND
  0
POLYLINE
  8
0
 10
0
 20
0
 39
0
 70
1
 66
1
  0
VERTEX
  8
0
 10
550
 20
71
 42
-1
  0
VERTEX
  8
0
 10
550
 20
49
 42
-1
  0
SEQEND
  0
POLYLINE
  8
0
 10
0
 20
0
 39
0
 70
1
 66
1
  0
VERTEX
  8
0
 10
680
 20
55
 42
0
  0
VERTEX
  8
0
 10
680
 20
345
 42
1
  0
VERTEX
  8
0
 10
590
 20
345
 42
0
  0
VERTEX
  8
0
 10
590
 20
55
 42
1
  0
SEQEND
  0
POLYLINE
  8
0
 10
0
 20
0
 39
0
 70
1
 66
1
  0
VERTEX
  8
0
 10
635
 20
71.024993896484375
 42
-1
  0
VERTEX
  8
0
 10
635
 20
38.975006103515625
 42
-1
  0
SEQEND
  0
POLYLINE
  8
0
 10
0
 20
0
 39
0
 70
1
 66
1
  0
VERTEX
  8
0
 10
635
 20
361.02499961853027
 42
-1
  0
VERTEX
  8
0
 10
635
 20
328.97499847412109
 42
-1
  0
SEQEND
  0
POLYLINE
  8
0
 10
0
 20
0
 39
0
 70
1
 66
1
  0
VERTEX
  8
0
 10
270
 20
10
 42
0
  0
VERTEX
  8
0
 10
390
 20
10
 42
0
  0
VERTEX
  8
0
 10
390
 20
70
 42
1
  0
VERTEX
  8
0
 10
270
 20
70
 42
0
  0
SEQEND
  0
POLYLINE
  8
0
 10
0
 20
0
 39
0
 70
1
 66
1
  0
VERTEX
  8
0
 10
305
 20
70
 42
-1
  0
VERTEX
  8
0
 10
355
 20
70
 42
-1
  0
SEQEND
  0
POLYLINE
  8
0
 10
0
 20
0
 39
0
 70
1
 66
1
  0
VERTEX
  8
0
 10
140
 20
10
 42
0
  0
VERTEX
  8
0
 10
260
 20
10
 42
0
  0
VERTEX
  8
0
 10
260
 20
70
 42
1
  0
VERTEX
  8
0
 10
140
 20
70
 42
0
  0
SEQEND
  0
POLYLINE
  8
0
 10
0
 20
0
 39
0
 70
1
 66
1
  0
VERTEX
  8
0
 10
175
 20
70
 42
-1
  0
VERTEX
  8
0
 10
225
 20
70
 42
-1
  0
SEQEND
  0
POLYLINE
  8
0
 10
0
 20
0
 39
0
 70
1
 66
1
  0
VERTEX
  8
0
 10
10
 20
10
 42
0
  0
VERTEX
  8
0
 10
130
 20
10
 42
0
  0
VERTEX
  8
0
 10
130
 20
70
 42
1
  0
VERTEX
  8
0
 10
10
 20
70
 42
0
  0
SEQEND
  0
POLYLINE
  8
0
 10
0
 20
0
 39
0
 70
1
 66
1
  0
VERTEX
  8
0
 10
45
 20
70
 42
-1
  0
VERTEX
  8
0
 10
95
 20
70
 42
-1
  0
SEQEND
  0
POLYLINE
  8
0
 10
0
 20
0
 39
0
 70
1
 66
1
  0
VERTEX
  8
0
 10
120
 20
350
 42
0
  0
VERTEX
  8
0
 10
126.51178026199341
 20
350
 42
-0.35743856430053711
  0
VERTEX
  8
0
 10
148.06403732299805
 20
350
 42
0
  0
VERTEX
  8
0
 10
191.93596649169922
 20
350
 42
-0.35743856430053711
  0
VERTEX
  8
0
 10
213.48822021484375
 20
350
 42
0
  0
VERTEX
  8
0
 10
220
 20
350
 42
0
  0
VERTEX
  8
0
 10
220
 20
390
 42
0
  0
VERTEX
  8
0
 10
213.48822021484375
 20
390
 42
-0.35743856430053711
  0
VERTEX
  8
0
 10
191.93596649169922
 20
390
 42
0
  0
VERTEX
  8
0
 10
148.06403732299805
 20
390
 42
-0.35743856430053711
  0
VERTEX
  8
0
 10
126.51178026199341
 20
390
 42
0
  0
VERTEX
  8
0
 10
120
 20
390
 42
-0
  0
SEQEND
  0
POLYLINE
  8
0
 10
0
 20
0
 39
0
 70
1
 66
1
  0
VERTEX
  8
0
 10
159
 20
370
 42
-1
  0
VERTEX
  8
0
 10
181
 20
370
 42
-1
  0
SEQEND
  0
POLYLINE
  8
0
 10
0
 20
0
 39
0
 70
1
 66
1
  0
VERTEX
  8
0
 10
10
 20
350
 42
0
  0
VERTEX
  8
0
 10
16.511780261993408
 20
350
 42
-0.35743856430053711
  0
VERTEX
  8
0
 10
38.064037322998047
 20
350
 42
0
  0
VERTEX
  8
0
 10
81.935966491699219
 20
350
 42
-0.35743856430053711
  0
VERTEX
  8
0
 10
103.48822021484375
 20
350
 42
0
  0
VERTEX
  8
0
 10
110
 20
350
 42
0
  0
VERTEX
  8
0
 10
110
 20
390
 42
0
  0
VERTEX
  8
0
 10
103.48822021484375
 20
390
 42
-0.35743856430053711
  0
VERTEX
  8
0
 10
81.935966491699219
 20
390
 42
0
  0
VERTEX
  8
0
 10
38.064037322998047
 20
390
 42
-0.35743856430053711
  0
VERTEX
  8
0
 10
16.511780261993408
 20
390
 42
0
  0
VERTEX
  8
0
 10
10.000000000000002
 20
390
 42
-0
  0
SEQEND
  0
POLYLINE
  8
0
 10
0
 20
0
 39
0
 70
1
 66
1
  0
VERTEX
  8
0
 10
49
 20
370
 42
-1
  0
VERTEX
  8
0
 10
71
 20
370
 42
-1
  0
SEQEND
  0
POLYLINE
  8
0
 10
0
 20
0
 39
0
 70
1
 66
1
  0
VERTEX
  8
0
 10
460
 20
140
 42
0
  0
VERTEX
  8
0
 10
580
 20
140
 42
0
  0
VERTEX
  8
0
 10
580
 20
200
 42
1
  0
VERTEX
  8
0
 10
460
 20
200
 42
0
  0
SEQEND
  0
POLYLINE
  8
0
 10
0
 20
0
 39
0
 70
1
 66
1
  0
VERTEX
  8
0
 10
495
 20
200
 42
-1
  0
VERTEX
  8
0
 10
545
 20
200
 42
-1
  0
SEQEND
  0
POLYLINE
  8
0
 10
0
 20
0
 39
0
 70
1
 66
1
  0
VERTEX
  8
0
 10
40
 20
140
 42
0
  0
VERTEX
  8
0
 10
420
 20
140
 42
1
  0
VERTEX
  8
0
 10
420
 20
200
 42
0
  0
VERTEX
  8
0
 10
40
 20
200
 42
1
  0
SEQEND
  0
POLYLINE
  8
0
 10
0
 20
0
 39
0
 70
1
 66
1
  0
VERTEX
  8
0
 10
40
 20
180
 42
0
  0
VERTEX
  8
0
 10
420
 20
180
 42
-1
  0
VERTEX
  8
0
 10
420
 20
160
 42
-0
  0
VERTEX
  8
0
 10
40
 20
160
 42
-1
  0
SEQEND
  0
POLYLINE
  8
0
 10
0
 20
0
 39
0
 70
1
 66
1
  0
VERTEX
  8
0
 10
460
 20
270
 42
0
  0
VERTEX
  8
0
 10
580
 20
270
 42
0
  0
VERTEX
  8
0
 10
580
 20
330
 42
1
  0
VERTEX
  8
0
 10
460
 20
330
 42
0
  0
SEQEND
  0
POLYLINE
  8
0
 10
0
 20
0
 39
0
 70
1
 66
1
  0
VERTEX
  8
0
 10
495
 20
330
 42
-1
  0
VERTEX
  8
0
 10
545
 20
330
 42
-1
  0
SEQEND
  0
POLYLINE
  8
0
 10
0
 20
0
 39
0
 70
1
 66
1
  0
VERTEX
  8
0
 10
40
 20
210
 42
0
  0
VERTEX
  8
0
 10
420
 20
210
 42
1
  0
VERTEX
  8
0
 10
420
 20
270
 42
0
  0
VERTEX
  8
0
 10
40
 20
270
 42
1
  0
SEQEND
  0
POLYLINE
  8
0
 10
0
 20
0
 39
0
 70
1
 66
1
  0
VERTEX
  8
0
 10
40
 20
250
 42
0
  0
VERTEX
  8
0
 10
420
 20
250
 42
-1
  0
VERTEX
  8
0
 10
420
 20
230
 42
-0
  0
VERTEX
  8
0
 10
40
 20
230
 42
-1
  0
SEQEND
  0
POLYLINE
  8
0
 10
0
 20
0
 39
0
 70
1
 66
1
  0
VERTEX
  8
0
 10
400
 20
10
 42
0
  0
VERTEX
  8
0
 10
520
 20
10
 42
0
  0
VERTEX
  8
0
 10
520
 20
70
 42
1
  0
VERTEX
  8
0
 10
400
 20
70
 42
0
  0
SEQEND
  0
POLYLINE
  8
0
 10
0
 20
0
 39
0
 70
1
 66
1
  0
VERTEX
  8
0
 10
435
 20
70
 42
-1
  0
VERTEX
  8
0
 10
485
 20
70
 42
-1
  0
SEQEND
  0
POLYLINE
  8
0
 10
0
 20
0
 39
0
 70
1
 66
1
  0
VERTEX
  8
0
 10
40
 20
280
 42
0
  0
VERTEX
  8
0
 10
420
 20
280
 42
1
  0
VERTEX
  8
0
 10
420
 20
340
 42
0
  0
VERTEX
  8
0
 10
40
 20
340
 42
1
  0
SEQEND
  0
POLYLINE
  8
0
 10
0
 20
0
 39
0
 70
1
 66
1
  0
VERTEX
  8
0
 10
40
 20
320
 42
0
  0
VERTEX
  8
0
 10
420
 20
320
 42
-1
  0
VERTEX
  8
0
 10
420
 20
300
 42
-0
  0
VERTEX
  8
0
 10
40
 20
300
 42
-1
  0
SEQEND
  0
POLYLINE
  8
0
 10
0
 20
0
 39
0
 70
1
 66
1
  0
VERTEX
  8
0
 10
340
 20
350
 42
0
  0
VERTEX
  8
0
 10
346.51178026199341
 20
350
 42
-0.35743856430053711
  0
VERTEX
  8
0
 10
368.06403732299805
 20
350
 42
0
  0
VERTEX
  8
0
 10
411.93596649169922
 20
350
 42
-0.35743856430053711
  0
VERTEX
  8
0
 10
433.48822021484375
 20
350
 42
0
  0
VERTEX
  8
0
 10
440
 20
350
 42
0
  0
VERTEX
  8
0
 10
440
 20
390
 42
0
  0
VERTEX
  8
0
 10
433.48822021484375
 20
390
 42
-0.35743856430053711
  0
VERTEX
  8
0
 10
411.93596649169922
 20
390
 42
0
  0
VERTEX
  8
0
 10
368.06403732299805
 20
390
 42
-0.35743856430053711
  0
VERTEX
  8
0
 10
346.51178026199341
 20
390
 42
0
  0
VERTEX
  8
0
 10
340
 20
390
 42
-0
  0
SEQEND
  0
POLYLINE
  8
0
 10
0
 20
0
 39
0
 70
1
 66
1
  0
VERTEX
  8
0
 10
379
 20
370
 42
-1
  0
VERTEX
  8
0
 10
401
 20
370
 42
-1
  0
SEQEND
  0
ENDSEC
  0
EOF
