  0
SECTION
  2
ENTITIES
  0
POLYLINE
  8
0
 10
0
 20
0
 39
0
 70
1
 66
1
  0
VERTEX
  8
0
 10
0
 20
0
 42
-0
  0
VERTEX
  8
0
 10
700
 20
0
 42
-0
  0
VERTEX
  8
0
 10
700
 20
400
 42
-0
  0
VERTEX
  8
0
 10
0
 20
400
 42
-0
  0
SEQEND
  0
POLYLINE
  8
0
 10
0
 20
0
 39
0
 70
1
 66
1
  0
VERTEX
  8
0
 10
205.17999999999998
 20
290.18000000000001
 42
-0
  0
VERTEX
  8
0
 10
205.18000000000001
 20
10.180000000000012
 42
-0
  0
VERTEX
  8
0
 10
10.180000000000017
 20
10.18
 42
-0
  0
VERTEX
  8
0
 10
10.18
 20
290.18000000000001
 42
-0
  0
SEQEND
  0
POLYLINE
  8
0
 10
0
 20
0
 39
0
 70
1
 66
1
  0
VERTEX
  8
0
 10
110.18000000000001
 20
168.28000610351563
 42
1
  0
VERTEX
  8
0
 10
110.18000000000001
 20
268.38001220703126
 42
1
  0
SEQEND
  0
POLYLINE
  8
0
 10
0
 20
0
 39
0
 70
1
 66
1
  0
VERTEX
  8
0
 10
110.18000000000002
 20
59.13000076293946
 42
1
  0
VERTEX
  8
0
 10
110.18000000000001
 20
141.23000305175782
 42
1
  0
SEQEND
  0
POLYLINE
  8
0
 10
0
 20
0
 39
0
 70
1
 66
1
  0
VERTEX
  8
0
 10
410.41999999999996
 20
290.18000000000001
 42
-0
  0
VERTEX
  8
0
 10
410.42000000000002
 20
10.180000000000012
 42
-0
  0
VERTEX
  8
0
 10
215.42000000000002
 20
10.18
 42
-0
  0
VERTEX
  8
0
 10
215.41999999999999
 20
290.18000000000001
 42
-0
  0
SEQEND
  0
POLYLINE
  8
0
 10
0
 20
0
 39
0
 70
1
 66
1
  0
VERTEX
  8
0
 10
315.42000000000002
 20
168.28000610351563
 42
1
  0
VERTEX
  8
0
 10
315.42000000000002
 20
268.38001220703126
 42
1
  0
SEQEND
  0
POLYLINE
  8
0
 10
0
 20
0
 39
0
 70
1
 66
1
  0
VERTEX
  8
0
 10
315.42000000000002
 20
59.13000076293946
 42
1
  0
VERTEX
  8
0
 10
315.42000000000002
 20
141.23000305175782
 42
1
  0
SEQEND
  0
POLYLINE
  8
0
 10
0
 20
0
 39
0
 70
1
 66
1
  0
VERTEX
  8
0
 10
615.65999999999997
 20
290.18000000000001
 42
-0
  0
VERTEX
  8
0
 10
615.65999999999997
 20
10.180000000000012
 42
-0
  0
VERTEX
  8
0
 10
420.65999999999997
 20
10.18
 42
-0
  0
VERTEX
  8
0
 10
420.65999999999997
 20
290.18000000000001
 42
-0
  0
SEQEND
  0
POLYLINE
  8
0
 10
0
 20
0
 39
0
 70
1
 66
1
  0
VERTEX
  8
0
 10
520.65999999999997
 20
168.28000610351563
 42
1
  0
VERTEX
  8
0
 10
520.65999999999997
 20
268.38001220703126
 42
1
  0
SEQEND
  0
POLYLINE
  8
0
 10
0
 20
0
 39
0
 70
1
 66
1
  0
VERTEX
  8
0
 10
520.65999999999997
 20
59.13000076293946
 42
1
  0
VERTEX
  8
0
 10
520.65999999999997
 20
141.23000305175782
 42
1
  0
SEQEND
  0
POLYLINE
  8
0
 10
0
 20
0
 39
0
 70
1
 66
1
  0
VERTEX
  8
0
 10
90.180000000000007
 20
300.25999999999999
 42
-0
  0
VERTEX
  8
0
 10
40.180000000000007
 20
300.25999999999999
 42
-1
  0
VERTEX
  8
0
 10
40.180000000000007
 20
360.25999999999999
 42
0
  0
VERTEX
  8
0
 10
90.180000000000007
 20
360.25999999999999
 42
-1
  0
SEQEND
  0
POLYLINE
  8
0
 10
0
 20
0
 39
0
 70
1
 66
1
  0
VERTEX
  8
0
 10
79.180000000000007
 20
330.25999999999999
 42
1
  0
VERTEX
  8
0
 10
51.180000000000007
 20
330.25999999999999
 42
1
  0
SEQEND
  0
POLYLINE
  8
0
 10
0
 20
0
 39
0
 70
1
 66
1
  0
VERTEX
  8
0
 10
204.27999999999997
 20
329.38
 42
-0
  0
VERTEX
  8
0
 10
154.27999999999997
 20
329.38
 42
-1
  0
VERTEX
  8
0
 10
154.27999999999997
 20
389.38
 42
0
  0
VERTEX
  8
0
 10
204.27999999999997
 20
389.38
 42
-1
  0
SEQEND
  0
POLYLINE
  8
0
 10
0
 20
0
 39
0
 70
1
 66
1
  0
VERTEX
  8
0
 10
193.27999999999997
 20
359.38
 42
1
  0
VERTEX
  8
0
 10
165.27999999999997
 20
359.38
 42
1
  0
SEQEND
  0
POLYLINE
  8
0
 10
0
 20
0
 39
0
 70
1
 66
1
  0
VERTEX
  8
0
 10
318.38
 20
300.25999999999999
 42
-0
  0
VERTEX
  8
0
 10
268.38
 20
300.25999999999999
 42
-1
  0
VERTEX
  8
0
 10
268.38
 20
360.25999999999999
 42
0
  0
VERTEX
  8
0
 10
318.38
 20
360.25999999999999
 42
-1
  0
SEQEND
  0
POLYLINE
  8
0
 10
0
 20
0
 39
0
 70
1
 66
1
  0
VERTEX
  8
0
 10
307.38
 20
330.25999999999999
 42
1
  0
VERTEX
  8
0
 10
279.38
 20
330.25999999999999
 42
1
  0
SEQEND
  0
POLYLINE
  8
0
 10
0
 20
0
 39
0
 70
1
 66
1
  0
VERTEX
  8
0
 10
403.26930503841061
 20
380.00641539961646
 42
-0.54433101415634155
  0
VERTEX
  8
0
 10
418.76470838360558
 20
369.94358231897797
 42
0
  0
VERTEX
  8
0
 10
418.70229921586883
 20
340.54977093636637
 42
-0.29505917429924011
  0
VERTEX
  8
0
 10
400.96262398042711
 20
313.23307315131228
 42
0
  0
VERTEX
  8
0
 10
374.13542862924777
 20
301.2205214018789
 42
-0.54433095455169678
  0
VERTEX
  8
0
 10
358.64002476464452
 20
311.28335368269882
 42
-0
  0
VERTEX
  8
0
 10
358.70243537110707
 20
340.67716640524338
 42
-0.29505914449691772
  0
VERTEX
  8
0
 10
376.44210612946006
 20
367.99386254924809
 42
0
  0
SEQEND
  0
POLYLINE
  8
0
 10
0
 20
0
 39
0
 70
1
 66
1
  0
VERTEX
  8
0
 10
405.47577812907105
 20
329.72068778144614
 42
1
  0
VERTEX
  8
0
 10
371.92895605799561
 20
351.50624981986778
 42
1
  0
SEQEND
  0
POLYLINE
  8
0
 10
0
 20
0
 39
0
 70
1
 66
1
  0
VERTEX
  8
0
 10
473.54930503841058
 20
380.00641539961646
 42
-0.54433101415634155
  0
VERTEX
  8
0
 10
489.04470838360555
 20
369.94358231897797
 42
0
  0
VERTEX
  8
0
 10
488.98229921586881
 20
340.54977093636637
 42
-0.29505917429924011
  0
VERTEX
  8
0
 10
471.24262398042708
 20
313.23307315131228
 42
0
  0
VERTEX
  8
0
 10
444.41542862924774
 20
301.2205214018789
 42
-0.54433095455169678
  0
VERTEX
  8
0
 10
428.9200247646445
 20
311.28335368269882
 42
-0
  0
VERTEX
  8
0
 10
428.98243537110704
 20
340.67716640524338
 42
-0.29505914449691772
  0
VERTEX
  8
0
 10
446.72210612946003
 20
367.99386254924809
 42
0
  0
SEQEND
  0
POLYLINE
  8
0
 10
0
 20
0
 39
0
 70
1
 66
1
  0
VERTEX
  8
0
 10
475.75577812907102
 20
329.72068778144614
 42
1
  0
VERTEX
  8
0
 10
442.20895605799558
 20
351.50624981986778
 42
1
  0
SEQEND
  0
POLYLINE
  8
0
 10
0
 20
0
 39
0
 70
1
 66
1
  0
VERTEX
  8
0
 10
543.82930503841067
 20
380.00641539961646
 42
-0.54433101415634155
  0
VERTEX
  8
0
 10
559.32470838360564
 20
369.94358231897797
 42
0
  0
VERTEX
  8
0
 10
559.26229921586889
 20
340.54977093636637
 42
-0.29505917429924011
  0
VERTEX
  8
0
 10
541.52262398042717
 20
313.23307315131228
 42
0
  0
VERTEX
  8
0
 10
514.69542862924777
 20
301.2205214018789
 42
-0.54433095455169678
  0
VERTEX
  8
0
 10
499.20002476464458
 20
311.28335368269882
 42
-0
  0
VERTEX
  8
0
 10
499.26243537110713
 20
340.67716640524338
 42
-0.29505914449691772
  0
VERTEX
  8
0
 10
517.00210612946012
 20
367.99386254924809
 42
0
  0
SEQEND
  0
POLYLINE
  8
0
 10
0
 20
0
 39
0
 70
1
 66
1
  0
VERTEX
  8
0
 10
546.0357781290711
 20
329.72068778144614
 42
1
  0
VERTEX
  8
0
 10
512.48895605799567
 20
351.50624981986778
 42
1
  0
SEQEND
  0
POLYLINE
  8
0
 10
0
 20
0
 39
0
 70
1
 66
1
  0
VERTEX
  8
0
 10
614.10930503841064
 20
380.00641539961646
 42
-0.54433101415634155
  0
VERTEX
  8
0
 10
629.60470838360561
 20
369.94358231897797
 42
0
  0
VERTEX
  8
0
 10
629.54229921586887
 20
340.54977093636637
 42
-0.29505917429924011
  0
VERTEX
  8
0
 10
611.80262398042714
 20
313.23307315131228
 42
0
  0
VERTEX
  8
0
 10
584.97542862924774
 20
301.2205214018789
 42
-0.54433095455169678
  0
VERTEX
  8
0
 10
569.48002476464455
 20
311.28335368269882
 42
-0
  0
VERTEX
  8
0
 10
569.5424353711071
 20
340.67716640524338
 42
-0.29505914449691772
  0
VERTEX
  8
0
 10
587.28210612946009
 20
367.99386254924809
 42
0
  0
SEQEND
  0
POLYLINE
  8
0
 10
0
 20
0
 39
0
 70
1
 66
1
  0
VERTEX
  8
0
 10
616.31577812907108
 20
329.72068778144614
 42
1
  0
VERTEX
  8
0
 10
582.76895605799564
 20
351.50624981986778
 42
1
  0
SEQEND
  0
POLYLINE
  8
0
 10
0
 20
0
 39
0
 70
1
 66
1
  0
VERTEX
  8
0
 10
670.5293050384106
 20
89.926415399616459
 42
-0.54433101415634155
  0
VERTEX
  8
0
 10
686.02470838360557
 20
79.863582318977976
 42
0
  0
VERTEX
  8
0
 10
685.96229921586882
 20
50.469770936366402
 42
-0.29505917429924011
  0
VERTEX
  8
0
 10
668.2226239804271
 20
23.153073151312253
 42
0
  0
VERTEX
  8
0
 10
641.39542862924782
 20
11.140521401878896
 42
-0.54433095455169678
  0
VERTEX
  8
0
 10
625.90002476464451
 20
21.203353682698815
 42
-0
  0
VERTEX
  8
0
 10
625.96243537110706
 20
50.597166405243385
 42
-0.29505914449691772
  0
VERTEX
  8
0
 10
643.70210612946005
 20
77.913862549248094
 42
0
  0
SEQEND
  0
POLYLINE
  8
0
 10
0
 20
0
 39
0
 70
1
 66
1
  0
VERTEX
  8
0
 10
672.73577812907104
 20
39.640687781446147
 42
1
  0
VERTEX
  8
0
 10
639.1889560579956
 20
61.426249819867778
 42
1
  0
SEQEND
  0
POLYLINE
  8
0
 10
0
 20
0
 39
0
 70
1
 66
1
  0
VERTEX
  8
0
 10
670.5293050384106
 20
167.06641539961646
 42
-0.54433101415634155
  0
VERTEX
  8
0
 10
686.02470838360557
 20
157.00358231897798
 42
0
  0
VERTEX
  8
0
 10
685.96229921586882
 20
127.60977093636639
 42
-0.29505917429924011
  0
VERTEX
  8
0
 10
668.2226239804271
 20
100.29307315131224
 42
0
  0
VERTEX
  8
0
 10
641.39542862924782
 20
88.280521401878886
 42
-0.54433095455169678
  0
VERTEX
  8
0
 10
625.90002476464451
 20
98.343353682698805
 42
-0
  0
VERTEX
  8
0
 10
625.96243537110706
 20
127.73716640524337
 42
-0.29505914449691772
  0
VERTEX
  8
0
 10
643.70210612946005
 20
155.05386254924809
 42
0
  0
SEQEND
  0
POLYLINE
  8
0
 10
0
 20
0
 39
0
 70
1
 66
1
  0
VERTEX
  8
0
 10
672.73577812907104
 20
116.78068778144613
 42
1
  0
VERTEX
  8
0
 10
639.1889560579956
 20
138.56624981986778
 42
1
  0
SEQEND
  0
POLYLINE
  8
0
 10
0
 20
0
 39
0
 70
1
 66
1
  0
VERTEX
  8
0
 10
670.5293050384106
 20
244.20641539961645
 42
-0.54433101415634155
  0
VERTEX
  8
0
 10
686.02470838360557
 20
234.14358231897796
 42
0
  0
VERTEX
  8
0
 10
685.96229921586882
 20
204.74977093636639
 42
-0.29505917429924011
  0
VERTEX
  8
0
 10
668.2226239804271
 20
177.43307315131224
 42
0
  0
VERTEX
  8
0
 10
641.39542862924782
 20
165.42052140187889
 42
-0.54433095455169678
  0
VERTEX
  8
0
 10
625.90002476464451
 20
175.48335368269881
 42
-0
  0
VERTEX
  8
0
 10
625.96243537110706
 20
204.87716640524337
 42
-0.29505914449691772
  0
VERTEX
  8
0
 10
643.70210612946005
 20
232.19386254924808
 42
0
  0
SEQEND
  0
POLYLINE
  8
0
 10
0
 20
0
 39
0
 70
1
 66
1
  0
VERTEX
  8
0
 10
672.73577812907104
 20
193.92068778144613
 42
1
  0
VERTEX
  8
0
 10
639.1889560579956
 20
215.70624981986776
 42
1
  0
SEQEND
  0
POLYLINE
  8
0
 10
0
 20
0
 39
0
 70
1
 66
1
  0
VERTEX
  8
0
 10
670.5293050384106
 20
321.34641539961649
 42
-0.54433101415634155
  0
VERTEX
  8
0
 10
686.02470838360557
 20
311.28358231897801
 42
0
  0
VERTEX
  8
0
 10
685.96229921586882
 20
281.8897709363664
 42
-0.29505917429924011
  0
VERTEX
  8
0
 10
668.2226239804271
 20
254.57307315131226
 42
0
  0
VERTEX
  8
0
 10
641.39542862924782
 20
242.5605214018789
 42
-0.54433095455169678
  0
VERTEX
  8
0
 10
625.90002476464451
 20
252.62335368269882
 42
-0
  0
VERTEX
  8
0
 10
625.96243537110706
 20
282.01716640524342
 42
-0.29505914449691772
  0
VERTEX
  8
0
 10
643.70210612946005
 20
309.33386254924812
 42
0
  0
SEQEND
  0
POLYLINE
  8
0
 10
0
 20
0
 39
0
 70
1
 66
1
  0
VERTEX
  8
0
 10
672.73577812907104
 20
271.06068778144618
 42
1
  0
VERTEX
  8
0
 10
639.1889560579956
 20
292.84624981986781
 42
1
  0
SEQEND
  0
ENDSEC
  0
EOF
