  0
SECTION
  2
ENTITIES
  0
POLYLINE
  8
0
 10
0
 20
0
 39
0
 70
1
 66
1
  0
VERTEX
  8
0
 10
0
 20
0
 42
-0
  0
VERTEX
  8
0
 10
1500
 20
0
 42
-0
  0
VERTEX
  8
0
 10
1500
 20
900
 42
-0
  0
VERTEX
  8
0
 10
0
 20
900
 42
-0
  0
SEQEND
  0
POLYLINE
  8
0
 10
0
 20
0
 39
0
 70
1
 66
1
  0
VERTEX
  8
0
 10
962.00000286102295
 20
510
 42
-0
  0
VERTEX
  8
0
 10
1064.0000057220459
 20
510
 42
-0
  0
VERTEX
  8
0
 10
1064.0000057220459
 20
880.00000953674316
 42
-0
  0
VERTEX
  8
0
 10
962.00000286102295
 20
880.00000953674316
 42
-0
  0
SEQEND
  0
POLYLINE
  8
0
 10
0
 20
0
 39
0
 70
1
 66
1
  0
VERTEX
  8
0
 10
1000.0000057220459
 20
811.00000953674316
 42
-1
  0
VERTEX
  8
0
 10
1026.0000057220459
 20
811.00000953674316
 42
-1
  0
SEQEND
  0
POLYLINE
  8
0
 10
0
 20
0
 39
0
 70
1
 66
1
  0
VERTEX
  8
0
 10
340
 20
10
 42
0
  0
VERTEX
  8
0
 10
340
 20
500
 42
0
  0
VERTEX
  8
0
 10
180
 20
500
 42
0
  0
VERTEX
  8
0
 10
180.00000000000003
 20
10
 42
0
  0
SEQEND
  0
POLYLINE
  8
0
 10
0
 20
0
 39
0
 70
1
 66
1
  0
VERTEX
  8
0
 10
250
 20
490
 42
-0
  0
VERTEX
  8
0
 10
270
 20
490
 42
-1
  0
VERTEX
  8
0
 10
270
 20
440
 42
0
  0
VERTEX
  8
0
 10
250
 20
440
 42
-1
  0
SEQEND
  0
POLYLINE
  8
0
 10
0
 20
0
 39
0
 70
1
 66
1
  0
VERTEX
  8
0
 10
952.00000286102295
 20
840
 42
0
  0
VERTEX
  8
0
 10
462.00000286102295
 20
840
 42
0
  0
VERTEX
  8
0
 10
462.00000286102295
 20
680
 42
0
  0
VERTEX
  8
0
 10
952.00000286102295
 20
680
 42
0
  0
SEQEND
  0
POLYLINE
  8
0
 10
0
 20
0
 39
0
 70
1
 66
1
  0
VERTEX
  8
0
 10
472.00000286102295
 20
750
 42
-0
  0
VERTEX
  8
0
 10
472.00000286102295
 20
770
 42
-1
  0
VERTEX
  8
0
 10
522.00000286102295
 20
770
 42
0
  0
VERTEX
  8
0
 10
522.00000286102295
 20
750
 42
-1
  0
SEQEND
  0
POLYLINE
  8
0
 10
0
 20
0
 39
0
 70
1
 66
1
  0
VERTEX
  8
0
 10
1484.0000057220459
 20
70
 42
0
  0
VERTEX
  8
0
 10
1484.0000057220459
 20
860
 42
0
  0
VERTEX
  8
0
 10
1424.0000057220459
 20
860
 42
0
  0
VERTEX
  8
0
 10
1424.0000057220459
 20
10
 42
0
  0
VERTEX
  8
0
 10
1459.0000057220459
 20
10
 42
-0
  0
SEQEND
  0
POLYLINE
  8
0
 10
0
 20
0
 39
0
 70
1
 66
1
  0
VERTEX
  8
0
 10
1454.0000057220459
 20
820.5
 42
-1
  0
VERTEX
  8
0
 10
1454.0000057220459
 20
803.5
 42
-1
  0
SEQEND
  0
POLYLINE
  8
0
 10
0
 20
0
 39
0
 70
1
 66
1
  0
VERTEX
  8
0
 10
1454.0000057220459
 20
220.5
 42
-1
  0
VERTEX
  8
0
 10
1454.0000057220459
 20
203.5
 42
-1
  0
SEQEND
  0
POLYLINE
  8
0
 10
0
 20
0
 39
0
 70
1
 66
1
  0
VERTEX
  8
0
 10
180
 20
510
 42
-0
  0
VERTEX
  8
0
 10
282.00000286102295
 20
510
 42
-0
  0
VERTEX
  8
0
 10
282.00000286102295
 20
880.00000953674316
 42
-0
  0
VERTEX
  8
0
 10
180
 20
880.00000953674316
 42
-0
  0
SEQEND
  0
POLYLINE
  8
0
 10
0
 20
0
 39
0
 70
1
 66
1
  0
VERTEX
  8
0
 10
218.00000286102295
 20
811.00000953674316
 42
-1
  0
VERTEX
  8
0
 10
244.00000286102295
 20
811.00000953674316
 42
-1
  0
SEQEND
  0
POLYLINE
  8
0
 10
0
 20
0
 39
0
 70
1
 66
1
  0
VERTEX
  8
0
 10
850
 20
10
 42
0
  0
VERTEX
  8
0
 10
850
 20
500
 42
0
  0
VERTEX
  8
0
 10
690
 20
500
 42
0
  0
VERTEX
  8
0
 10
690
 20
10
 42
0
  0
SEQEND
  0
POLYLINE
  8
0
 10
0
 20
0
 39
0
 70
1
 66
1
  0
VERTEX
  8
0
 10
760
 20
490
 42
-0
  0
VERTEX
  8
0
 10
780
 20
490
 42
-1
  0
VERTEX
  8
0
 10
780
 20
440
 42
0
  0
VERTEX
  8
0
 10
760
 20
440
 42
-1
  0
SEQEND
  0
POLYLINE
  8
0
 10
0
 20
0
 39
0
 70
1
 66
1
  0
VERTEX
  8
0
 10
1234.0000057220459
 20
395
 42
0
  0
VERTEX
  8
0
 10
1234.0000057220459
 20
885
 42
0
  0
VERTEX
  8
0
 10
1074.0000057220459
 20
885
 42
0
  0
VERTEX
  8
0
 10
1074.0000057220459
 20
395
 42
0
  0
SEQEND
  0
POLYLINE
  8
0
 10
0
 20
0
 39
0
 70
1
 66
1
  0
VERTEX
  8
0
 10
1144.0000057220459
 20
875
 42
-0
  0
VERTEX
  8
0
 10
1164.0000057220459
 20
875
 42
-1
  0
VERTEX
  8
0
 10
1164.0000057220459
 20
825
 42
0
  0
VERTEX
  8
0
 10
1144.0000057220459
 20
825
 42
-1
  0
SEQEND
  0
POLYLINE
  8
0
 10
0
 20
0
 39
0
 70
1
 66
1
  0
VERTEX
  8
0
 10
680
 20
10
 42
0
  0
VERTEX
  8
0
 10
680
 20
500
 42
0
  0
VERTEX
  8
0
 10
520
 20
500
 42
0
  0
VERTEX
  8
0
 10
520
 20
10
 42
0
  0
SEQEND
  0
POLYLINE
  8
0
 10
0
 20
0
 39
0
 70
1
 66
1
  0
VERTEX
  8
0
 10
590
 20
490
 42
-0
  0
VERTEX
  8
0
 10
610
 20
490
 42
-1
  0
VERTEX
  8
0
 10
610
 20
440
 42
0
  0
VERTEX
  8
0
 10
590
 20
440
 42
-1
  0
SEQEND
  0
POLYLINE
  8
0
 10
0
 20
0
 39
0
 70
1
 66
1
  0
VERTEX
  8
0
 10
1404.0000057220459
 20
10
 42
0
  0
VERTEX
  8
0
 10
1404.0000057220459
 20
500
 42
0
  0
VERTEX
  8
0
 10
1244.0000057220459
 20
500
 42
0
  0
VERTEX
  8
0
 10
1244.0000057220459
 20
10
 42
0
  0
SEQEND
  0
POLYLINE
  8
0
 10
0
 20
0
 39
0
 70
1
 66
1
  0
VERTEX
  8
0
 10
1314.0000057220459
 20
490
 42
-0
  0
VERTEX
  8
0
 10
1334.0000057220459
 20
490
 42
-1
  0
VERTEX
  8
0
 10
1334.0000057220459
 20
440
 42
0
  0
VERTEX
  8
0
 10
1314.0000057220459
 20
440
 42
-1
  0
SEQEND
  0
POLYLINE
  8
0
 10
0
 20
0
 39
0
 70
1
 66
1
  0
VERTEX
  8
0
 10
510
 20
10
 42
0
  0
VERTEX
  8
0
 10
510
 20
500
 42
0
  0
VERTEX
  8
0
 10
350
 20
500
 42
0
  0
VERTEX
  8
0
 10
350.00000000000006
 20
10
 42
0
  0
SEQEND
  0
POLYLINE
  8
0
 10
0
 20
0
 39
0
 70
1
 66
1
  0
VERTEX
  8
0
 10
420
 20
490
 42
-0
  0
VERTEX
  8
0
 10
440
 20
490
 42
-1
  0
VERTEX
  8
0
 10
440
 20
440
 42
0
  0
VERTEX
  8
0
 10
420
 20
440
 42
-1
  0
SEQEND
  0
POLYLINE
  8
0
 10
0
 20
0
 39
0
 70
1
 66
1
  0
VERTEX
  8
0
 10
170.00000000000003
 20
330
 42
0
  0
VERTEX
  8
0
 10
170
 20
820
 42
0
  0
VERTEX
  8
0
 10
10
 20
820
 42
0
  0
VERTEX
  8
0
 10
10.00000000000003
 20
330
 42
0
  0
SEQEND
  0
POLYLINE
  8
0
 10
0
 20
0
 39
0
 70
1
 66
1
  0
VERTEX
  8
0
 10
80
 20
810
 42
-0
  0
VERTEX
  8
0
 10
100
 20
810
 42
-1
  0
VERTEX
  8
0
 10
100
 20
760
 42
0
  0
VERTEX
  8
0
 10
80
 20
760
 42
-1
  0
SEQEND
  0
POLYLINE
  8
0
 10
0
 20
0
 39
0
 70
1
 66
1
  0
VERTEX
  8
0
 10
1020
 20
10
 42
0
  0
VERTEX
  8
0
 10
1020
 20
500
 42
0
  0
VERTEX
  8
0
 10
860
 20
500
 42
0
  0
VERTEX
  8
0
 10
860
 20
10
 42
0
  0
SEQEND
  0
POLYLINE
  8
0
 10
0
 20
0
 39
0
 70
1
 66
1
  0
VERTEX
  8
0
 10
930
 20
490
 42
-0
  0
VERTEX
  8
0
 10
950
 20
490
 42
-1
  0
VERTEX
  8
0
 10
950
 20
440
 42
0
  0
VERTEX
  8
0
 10
930
 20
440
 42
-1
  0
SEQEND
  0
POLYLINE
  8
0
 10
0
 20
0
 39
0
 70
1
 66
1
  0
VERTEX
  8
0
 10
452.00000286102295
 20
510
 42
0
  0
VERTEX
  8
0
 10
452.00000286102295
 20
820
 42
0
  0
VERTEX
  8
0
 10
292.00000286102295
 20
820
 42
0
  0
VERTEX
  8
0
 10
292.00000286102295
 20
510
 42
0
  0
SEQEND
  0
POLYLINE
  8
0
 10
0
 20
0
 39
0
 70
1
 66
1
  0
VERTEX
  8
0
 10
372.00000286102295
 20
610
 42
-1
  0
VERTEX
  8
0
 10
372.00000286102295
 20
570
 42
-1
  0
SEQEND
  0
POLYLINE
  8
0
 10
0
 20
0
 39
0
 70
1
 66
1
  0
VERTEX
  8
0
 10
372.00000286102295
 20
760
 42
-1
  0
VERTEX
  8
0
 10
372.00000286102295
 20
720
 42
-1
  0
SEQEND
  0
POLYLINE
  8
0
 10
0
 20
0
 39
0
 70
1
 66
1
  0
VERTEX
  8
0
 10
952.00000286102295
 20
670
 42
0
  0
VERTEX
  8
0
 10
462.00000286102295
 20
670
 42
0
  0
VERTEX
  8
0
 10
462.00000286102295
 20
510
 42
0
  0
VERTEX
  8
0
 10
952.00000286102295
 20
510
 42
0
  0
SEQEND
  0
POLYLINE
  8
0
 10
0
 20
0
 39
0
 70
1
 66
1
  0
VERTEX
  8
0
 10
472.00000286102295
 20
580
 42
-0
  0
VERTEX
  8
0
 10
472.00000286102295
 20
600
 42
-1
  0
VERTEX
  8
0
 10
522.00000286102295
 20
600
 42
0
  0
VERTEX
  8
0
 10
522.00000286102295
 20
580
 42
-1
  0
SEQEND
  0
POLYLINE
  8
0
 10
0
 20
0
 39
0
 70
1
 66
1
  0
VERTEX
  8
0
 10
170.00000000000003
 20
10
 42
0
  0
VERTEX
  8
0
 10
170
 20
320
 42
0
  0
VERTEX
  8
0
 10
10
 20
320
 42
0
  0
VERTEX
  8
0
 10
10.00000000000002
 20
10
 42
0
  0
SEQEND
  0
POLYLINE
  8
0
 10
0
 20
0
 39
0
 70
1
 66
1
  0
VERTEX
  8
0
 10
90.000000000000014
 20
110
 42
-1
  0
VERTEX
  8
0
 10
90.000000000000014
 20
70
 42
-1
  0
SEQEND
  0
POLYLINE
  8
0
 10
0
 20
0
 39
0
 70
1
 66
1
  0
VERTEX
  8
0
 10
90
 20
260
 42
-1
  0
VERTEX
  8
0
 10
90
 20
220
 42
-1
  0
SEQEND
  0
POLYLINE
  8
0
 10
0
 20
0
 39
0
 70
1
 66
1
  0
VERTEX
  8
0
 10
1200
 20
75
 42
0
  0
VERTEX
  8
0
 10
1200
 20
385
 42
0
  0
VERTEX
  8
0
 10
1030
 20
385
 42
0
  0
VERTEX
  8
0
 10
1030
 20
10
 42
0
  0
SEQEND
  0
POLYLINE
  8
0
 10
0
 20
0
 39
0
 70
1
 66
1
  0
VERTEX
  8
0
 10
1155
 20
329
 42
-1
  0
VERTEX
  8
0
 10
1155
 20
311
 42
-1
  0
SEQEND
  0
POLYLINE
  8
0
 10
0
 20
0
 39
0
 70
1
 66
1
  0
VERTEX
  8
0
 10
1155
 20
147
 42
-1
  0
VERTEX
  8
0
 10
1155
 20
129
 42
-1
  0
SEQEND
  0
POLYLINE
  8
0
 10
0
 20
0
 39
0
 70
1
 66
1
  0
VERTEX
  8
0
 10
1414.0000057220459
 20
575
 42
0
  0
VERTEX
  8
0
 10
1414.0000057220459
 20
885
 42
0
  0
VERTEX
  8
0
 10
1244.0000057220459
 20
885
 42
0
  0
VERTEX
  8
0
 10
1244.0000057220459
 20
510
 42
0
  0
SEQEND
  0
POLYLINE
  8
0
 10
0
 20
0
 39
0
 70
1
 66
1
  0
VERTEX
  8
0
 10
1369.0000057220459
 20
829
 42
-1
  0
VERTEX
  8
0
 10
1369.0000057220459
 20
811
 42
-1
  0
SEQEND
  0
POLYLINE
  8
0
 10
0
 20
0
 39
0
 70
1
 66
1
  0
VERTEX
  8
0
 10
1369.0000057220459
 20
647
 42
-1
  0
VERTEX
  8
0
 10
1369.0000057220459
 20
629
 42
-1
  0
SEQEND
  0
ENDSEC
  0
EOF
