  0
SECTION
  2
ENTITIES
  0
POLYLINE
  8
0
 10
0
 20
0
 39
0
 70
1
 66
1
  0
VERTEX
  8
0
 10
0
 20
0
 42
-0
  0
VERTEX
  8
0
 10
800
 20
0
 42
-0
  0
VERTEX
  8
0
 10
800
 20
600
 42
-0
  0
VERTEX
  8
0
 10
0
 20
600
 42
-0
  0
SEQEND
  0
POLYLINE
  8
0
 10
0
 20
0
 39
0
 70
1
 66
1
  0
VERTEX
  8
0
 10
34.681700820922877
 20
316.12
 42
-0
  0
VERTEX
  8
0
 10
161.96049987792972
 20
134.34704315185547
 42
-0.15391500294208527
  0
VERTEX
  8
0
 10
166.12000000000003
 20
121.15478240966799
 42
-0
  0
VERTEX
  8
0
 10
166.12000000000003
 20
74.44028198242188
 42
-0.31529900431632996
  0
VERTEX
  8
0
 10
150.9864703369141
 20
52.827351684570317
 42
-0
  0
VERTEX
  8
0
 10
33.648980255127
 20
10.120000000000003
 42
-0
  0
VERTEX
  8
0
 10
10.120000000000044
 20
10.120000000000001
 42
-0
  0
VERTEX
  8
0
 10
10.120000000000026
 20
316.12
 42
-0
  0
SEQEND
  0
POLYLINE
  8
0
 10
0
 20
0
 39
0
 70
1
 66
1
  0
VERTEX
  8
0
 10
113.12000000000005
 20
63.620000000000005
 42
1
  0
VERTEX
  8
0
 10
113.12000000000003
 20
132.62
 42
1
  0
SEQEND
  0
POLYLINE
  8
0
 10
0
 20
0
 39
0
 70
1
 66
1
  0
VERTEX
  8
0
 10
141.5582991790852
 20
181.77120000000002
 42
-0
  0
VERTEX
  8
0
 10
14.279500122078389
 20
363.54415684814455
 42
-0.15391500294208527
  0
VERTEX
  8
0
 10
10.120000000008076
 20
376.73641759033205
 42
-0
  0
VERTEX
  8
0
 10
10.120000000008076
 20
423.45091801757815
 42
-0.31529900431632996
  0
VERTEX
  8
0
 10
25.253529663094014
 20
445.06384831542971
 42
-0
  0
VERTEX
  8
0
 10
142.59101974488112
 20
487.77120000000002
 42
-0
  0
VERTEX
  8
0
 10
166.12000000000808
 20
487.77120000000002
 42
-0
  0
VERTEX
  8
0
 10
166.12000000000805
 20
181.77120000000002
 42
-0
  0
SEQEND
  0
POLYLINE
  8
0
 10
0
 20
0
 39
0
 70
1
 66
1
  0
VERTEX
  8
0
 10
63.120000000008076
 20
434.27120000000002
 42
1
  0
VERTEX
  8
0
 10
63.120000000008062
 20
365.27120000000002
 42
1
  0
SEQEND
  0
POLYLINE
  8
0
 10
0
 20
0
 39
0
 70
1
 66
1
  0
VERTEX
  8
0
 10
200.86836748758955
 20
316.12
 42
-0
  0
VERTEX
  8
0
 10
328.14716654459642
 20
134.34704315185547
 42
-0.15391500294208527
  0
VERTEX
  8
0
 10
332.30666666666673
 20
121.15478240966799
 42
-0
  0
VERTEX
  8
0
 10
332.30666666666673
 20
74.44028198242188
 42
-0.31529900431632996
  0
VERTEX
  8
0
 10
317.17313700358079
 20
52.827351684570317
 42
-0
  0
VERTEX
  8
0
 10
199.83564692179368
 20
10.120000000000003
 42
-0
  0
VERTEX
  8
0
 10
176.30666666666673
 20
10.120000000000001
 42
-0
  0
VERTEX
  8
0
 10
176.3066666666667
 20
316.12
 42
-0
  0
SEQEND
  0
POLYLINE
  8
0
 10
0
 20
0
 39
0
 70
1
 66
1
  0
VERTEX
  8
0
 10
279.30666666666673
 20
63.620000000000005
 42
1
  0
VERTEX
  8
0
 10
279.30666666666673
 20
132.62
 42
1
  0
SEQEND
  0
POLYLINE
  8
0
 10
0
 20
0
 39
0
 70
1
 66
1
  0
VERTEX
  8
0
 10
307.74496584575195
 20
181.77120000000002
 42
-0
  0
VERTEX
  8
0
 10
180.46616678874511
 20
363.54415684814455
 42
-0.15391500294208527
  0
VERTEX
  8
0
 10
176.3066666666748
 20
376.73641759033205
 42
-0
  0
VERTEX
  8
0
 10
176.3066666666748
 20
423.45091801757815
 42
-0.31529900431632996
  0
VERTEX
  8
0
 10
191.44019632976074
 20
445.06384831542971
 42
-0
  0
VERTEX
  8
0
 10
308.77768641154785
 20
487.77120000000002
 42
-0
  0
VERTEX
  8
0
 10
332.3066666666748
 20
487.77120000000002
 42
-0
  0
VERTEX
  8
0
 10
332.3066666666748
 20
181.77120000000002
 42
-0
  0
SEQEND
  0
POLYLINE
  8
0
 10
0
 20
0
 39
0
 70
1
 66
1
  0
VERTEX
  8
0
 10
229.3066666666748
 20
434.27120000000002
 42
1
  0
VERTEX
  8
0
 10
229.3066666666748
 20
365.27120000000002
 42
1
  0
SEQEND
  0
POLYLINE
  8
0
 10
0
 20
0
 39
0
 70
1
 66
1
  0
VERTEX
  8
0
 10
367.05503415425625
 20
316.12
 42
-0
  0
VERTEX
  8
0
 10
494.33383321126308
 20
134.34704315185547
 42
-0.15391500294208527
  0
VERTEX
  8
0
 10
498.4933333333334
 20
121.15478240966799
 42
-0
  0
VERTEX
  8
0
 10
498.4933333333334
 20
74.44028198242188
 42
-0.31529900431632996
  0
VERTEX
  8
0
 10
483.35980367024746
 20
52.827351684570317
 42
-0
  0
VERTEX
  8
0
 10
366.02231358846035
 20
10.120000000000003
 42
-0
  0
VERTEX
  8
0
 10
342.4933333333334
 20
10.120000000000001
 42
-0
  0
VERTEX
  8
0
 10
342.4933333333334
 20
316.12
 42
-0
  0
SEQEND
  0
POLYLINE
  8
0
 10
0
 20
0
 39
0
 70
1
 66
1
  0
VERTEX
  8
0
 10
445.4933333333334
 20
63.620000000000005
 42
1
  0
VERTEX
  8
0
 10
445.4933333333334
 20
132.62
 42
1
  0
SEQEND
  0
POLYLINE
  8
0
 10
0
 20
0
 39
0
 70
1
 66
1
  0
VERTEX
  8
0
 10
473.93163251241856
 20
181.77120000000002
 42
-0
  0
VERTEX
  8
0
 10
346.65283345541172
 20
363.54415684814455
 42
-0.15391500294208527
  0
VERTEX
  8
0
 10
342.49333333334141
 20
376.73641759033205
 42
-0
  0
VERTEX
  8
0
 10
342.49333333334141
 20
423.45091801757815
 42
-0.31529900431632996
  0
VERTEX
  8
0
 10
357.62686299642735
 20
445.06384831542971
 42
-0
  0
VERTEX
  8
0
 10
474.96435307821446
 20
487.77120000000002
 42
-0
  0
VERTEX
  8
0
 10
498.49333333334141
 20
487.77120000000002
 42
-0
  0
VERTEX
  8
0
 10
498.49333333334141
 20
181.77120000000002
 42
-0
  0
SEQEND
  0
POLYLINE
  8
0
 10
0
 20
0
 39
0
 70
1
 66
1
  0
VERTEX
  8
0
 10
395.49333333334141
 20
434.27120000000002
 42
1
  0
VERTEX
  8
0
 10
395.49333333334141
 20
365.27120000000002
 42
1
  0
SEQEND
  0
POLYLINE
  8
0
 10
0
 20
0
 39
0
 70
1
 66
1
  0
VERTEX
  8
0
 10
521.43847915649417
 20
473.48505757649741
 42
0
  0
VERTEX
  8
0
 10
459.72000000000003
 20
559.23333333333335
 42
0
  0
VERTEX
  8
0
 10
557.43848297119143
 20
589.85129330952964
 42
0
  0
VERTEX
  8
0
 10
720.4384753417969
 20
589.85129330952964
 42
0
  0
VERTEX
  8
0
 10
720.4384753417969
 20
360.73333333333335
 42
0
  0
VERTEX
  8
0
 10
521.43847915649417
 20
360.73333333333335
 42
0
  0
SEQEND
  0
POLYLINE
  8
0
 10
0
 20
0
 39
0
 70
1
 66
1
  0
VERTEX
  8
0
 10
490.5792395782471
 20
548.84789727528891
 42
-0
  0
VERTEX
  8
0
 10
533.9682604980469
 20
484.02974294026694
 42
0
  0
VERTEX
  8
0
 10
533.9682604980469
 20
559.23333333333335
 42
0
  0
SEQEND
  0
POLYLINE
  8
0
 10
0
 20
0
 39
0
 70
1
 66
1
  0
VERTEX
  8
0
 10
533.9682604980469
 20
438.20724080403647
 42
0
  0
VERTEX
  8
0
 10
533.9682604980469
 20
375.20724080403647
 42
0
  0
VERTEX
  8
0
 10
590.3673083496094
 20
375.20724080403647
 42
0
  0
SEQEND
  0
POLYLINE
  8
0
 10
0
 20
0
 39
0
 70
1
 66
1
  0
VERTEX
  8
0
 10
625.04623573303229
 20
71.838479156494145
 42
0
  0
VERTEX
  8
0
 10
539.29795997619635
 20
10.120000000000001
 42
0
  0
VERTEX
  8
0
 10
508.68000000000006
 20
107.83848297119141
 42
0
  0
VERTEX
  8
0
 10
508.68000000000006
 20
270.83847534179688
 42
0
  0
VERTEX
  8
0
 10
737.79795997619635
 20
270.83847534179688
 42
0
  0
VERTEX
  8
0
 10
737.79795997619635
 20
71.838479156494159
 42
0
  0
SEQEND
  0
POLYLINE
  8
0
 10
0
 20
0
 39
0
 70
1
 66
1
  0
VERTEX
  8
0
 10
549.68339603424079
 20
40.979239578247075
 42
-0
  0
VERTEX
  8
0
 10
614.50155036926276
 20
84.36826049804688
 42
0
  0
VERTEX
  8
0
 10
539.29795997619635
 20
84.36826049804688
 42
0
  0
SEQEND
  0
POLYLINE
  8
0
 10
0
 20
0
 39
0
 70
1
 66
1
  0
VERTEX
  8
0
 10
660.32405250549323
 20
84.368260498046894
 42
0
  0
VERTEX
  8
0
 10
723.32405250549323
 20
84.368260498046894
 42
0
  0
VERTEX
  8
0
 10
723.32405250549323
 20
140.76730834960938
 42
0
  0
SEQEND
  0
POLYLINE
  8
0
 10
0
 20
0
 39
0
 70
1
 66
1
  0
VERTEX
  8
0
 10
140.12
 20
497.80000000000001
 42
-0
  0
VERTEX
  8
0
 10
10.120000000000005
 20
497.80000000000001
 42
0
  0
VERTEX
  8
0
 10
10.120000000000005
 20
557.79999999999995
 42
0
  0
VERTEX
  8
0
 10
140.12
 20
557.79999999999995
 42
0
  0
SEQEND
  0
POLYLINE
  8
0
 10
0
 20
0
 39
0
 70
1
 66
1
  0
VERTEX
  8
0
 10
131.06801712036133
 20
527.79999999999995
 42
1
  0
VERTEX
  8
0
 10
105.06801712036133
 20
527.79999999999995
 42
1
  0
SEQEND
  0
POLYLINE
  8
0
 10
0
 20
0
 39
0
 70
1
 66
1
  0
VERTEX
  8
0
 10
280.27999999999997
 20
497.80000000000001
 42
-0
  0
VERTEX
  8
0
 10
150.27999999999997
 20
497.80000000000001
 42
0
  0
VERTEX
  8
0
 10
150.27999999999997
 20
557.79999999999995
 42
0
  0
VERTEX
  8
0
 10
280.27999999999997
 20
557.79999999999995
 42
0
  0
SEQEND
  0
POLYLINE
  8
0
 10
0
 20
0
 39
0
 70
1
 66
1
  0
VERTEX
  8
0
 10
271.2280171203613
 20
527.79999999999995
 42
1
  0
VERTEX
  8
0
 10
245.2280171203613
 20
527.79999999999995
 42
1
  0
SEQEND
  0
POLYLINE
  8
0
 10
0
 20
0
 39
0
 70
1
 66
1
  0
VERTEX
  8
0
 10
420.44
 20
497.80000000000001
 42
-0
  0
VERTEX
  8
0
 10
290.44
 20
497.80000000000001
 42
0
  0
VERTEX
  8
0
 10
290.44
 20
557.79999999999995
 42
0
  0
VERTEX
  8
0
 10
420.44
 20
557.79999999999995
 42
0
  0
SEQEND
  0
POLYLINE
  8
0
 10
0
 20
0
 39
0
 70
1
 66
1
  0
VERTEX
  8
0
 10
411.38801712036133
 20
527.79999999999995
 42
1
  0
VERTEX
  8
0
 10
385.38801712036133
 20
527.79999999999995
 42
1
  0
SEQEND
  0
POLYLINE
  8
0
 10
0
 20
0
 39
0
 70
1
 66
1
  0
VERTEX
  8
0
 10
638.68000000000006
 20
280.83999999999997
 42
-0
  0
VERTEX
  8
0
 10
508.68000000000006
 20
280.83999999999997
 42
0
  0
VERTEX
  8
0
 10
508.68000000000006
 20
340.83999999999997
 42
0
  0
VERTEX
  8
0
 10
638.68000000000006
 20
340.83999999999997
 42
0
  0
SEQEND
  0
POLYLINE
  8
0
 10
0
 20
0
 39
0
 70
1
 66
1
  0
VERTEX
  8
0
 10
629.62801712036139
 20
310.83999999999997
 42
1
  0
VERTEX
  8
0
 10
603.62801712036139
 20
310.83999999999997
 42
1
  0
SEQEND
  0
POLYLINE
  8
0
 10
0
 20
0
 39
0
 70
1
 66
1
  0
VERTEX
  8
0
 10
778.84000000000003
 20
280.83999999999997
 42
-0
  0
VERTEX
  8
0
 10
648.84000000000003
 20
280.83999999999997
 42
0
  0
VERTEX
  8
0
 10
648.84000000000003
 20
340.83999999999997
 42
0
  0
VERTEX
  8
0
 10
778.84000000000003
 20
340.83999999999997
 42
0
  0
SEQEND
  0
POLYLINE
  8
0
 10
0
 20
0
 39
0
 70
1
 66
1
  0
VERTEX
  8
0
 10
769.78801712036136
 20
310.83999999999997
 42
1
  0
VERTEX
  8
0
 10
743.78801712036136
 20
310.83999999999997
 42
1
  0
SEQEND
  0
POLYLINE
  8
0
 10
0
 20
0
 39
0
 70
1
 66
1
  0
VERTEX
  8
0
 10
712.4666666666667
 20
10.120000000000001
 42
-0
  0
VERTEX
  8
0
 10
705.95488640467329
 20
10.120000000000001
 42
0.35743856430053711
  0
VERTEX
  8
0
 10
684.40262934366865
 20
10.120000000000005
 42
-0
  0
VERTEX
  8
0
 10
640.53070017496748
 20
10.120000000000001
 42
0.35743856430053711
  0
VERTEX
  8
0
 10
618.97844645182295
 20
10.120000000000005
 42
-0
  0
VERTEX
  8
0
 10
612.4666666666667
 20
10.120000000000001
 42
-0
  0
VERTEX
  8
0
 10
612.4666666666667
 20
50.120000000000005
 42
-0
  0
VERTEX
  8
0
 10
618.97844645182295
 20
50.120000000000005
 42
0.35743856430053711
  0
VERTEX
  8
0
 10
640.53070017496748
 20
50.120000000000005
 42
-0
  0
VERTEX
  8
0
 10
684.40262934366865
 20
50.120000000000005
 42
0.35743856430053711
  0
VERTEX
  8
0
 10
705.95488640467329
 20
50.120000000000005
 42
-0
  0
VERTEX
  8
0
 10
712.4666666666667
 20
50.120000000000005
 42
0
  0
SEQEND
  0
POLYLINE
  8
0
 10
0
 20
0
 39
0
 70
1
 66
1
  0
VERTEX
  8
0
 10
673.4666666666667
 20
30.120000000000001
 42
1
  0
VERTEX
  8
0
 10
651.4666666666667
 20
30.120000000000001
 42
1
  0
SEQEND
  0
POLYLINE
  8
0
 10
0
 20
0
 39
0
 70
1
 66
1
  0
VERTEX
  8
0
 10
730.54666666666662
 20
350.92000000000002
 42
-0
  0
VERTEX
  8
0
 10
730.54666666666662
 20
357.43178026199342
 42
0.35743856430053711
  0
VERTEX
  8
0
 10
730.54666666666662
 20
378.98403732299806
 42
-0
  0
VERTEX
  8
0
 10
730.54666666666662
 20
422.85596649169923
 42
0.35743856430053711
  0
VERTEX
  8
0
 10
730.54666666666662
 20
444.40822021484377
 42
-0
  0
VERTEX
  8
0
 10
730.54666666666662
 20
450.92000000000002
 42
-0
  0
VERTEX
  8
0
 10
770.54666666666662
 20
450.92000000000002
 42
-0
  0
VERTEX
  8
0
 10
770.54666666666662
 20
444.40822021484377
 42
0.35743856430053711
  0
VERTEX
  8
0
 10
770.54666666666662
 20
422.85596649169923
 42
-0
  0
VERTEX
  8
0
 10
770.54666666666662
 20
378.98403732299806
 42
0.35743856430053711
  0
VERTEX
  8
0
 10
770.54666666666662
 20
357.43178026199342
 42
-0
  0
VERTEX
  8
0
 10
770.54666666666662
 20
350.92000000000002
 42
0
  0
SEQEND
  0
POLYLINE
  8
0
 10
0
 20
0
 39
0
 70
1
 66
1
  0
VERTEX
  8
0
 10
750.54666666666662
 20
389.92000000000002
 42
1
  0
VERTEX
  8
0
 10
750.54666666666662
 20
411.92000000000002
 42
1
  0
SEQEND
  0
POLYLINE
  8
0
 10
0
 20
0
 39
0
 70
1
 66
1
  0
VERTEX
  8
0
 10
730.54666666666662
 20
461
 42
-0
  0
VERTEX
  8
0
 10
730.54666666666662
 20
467.51178026199341
 42
0.35743856430053711
  0
VERTEX
  8
0
 10
730.54666666666662
 20
489.06403732299805
 42
-0
  0
VERTEX
  8
0
 10
730.54666666666662
 20
532.93596649169922
 42
0.35743856430053711
  0
VERTEX
  8
0
 10
730.54666666666662
 20
554.48822021484375
 42
-0
  0
VERTEX
  8
0
 10
730.54666666666662
 20
561
 42
-0
  0
VERTEX
  8
0
 10
770.54666666666662
 20
561
 42
-0
  0
VERTEX
  8
0
 10
770.54666666666662
 20
554.48822021484375
 42
0.35743856430053711
  0
VERTEX
  8
0
 10
770.54666666666662
 20
532.93596649169922
 42
-0
  0
VERTEX
  8
0
 10
770.54666666666662
 20
489.06403732299805
 42
0.35743856430053711
  0
VERTEX
  8
0
 10
770.54666666666662
 20
467.51178026199341
 42
-0
  0
VERTEX
  8
0
 10
770.54666666666662
 20
461
 42
0
  0
SEQEND
  0
POLYLINE
  8
0
 10
0
 20
0
 39
0
 70
1
 66
1
  0
VERTEX
  8
0
 10
750.54666666666662
 20
500
 42
1
  0
VERTEX
  8
0
 10
750.54666666666662
 20
522
 42
1
  0
SEQEND
  0
POLYLINE
  8
0
 10
0
 20
0
 39
0
 70
1
 66
1
  0
VERTEX
  8
0
 10
747.93333333333328
 20
10.120000000000001
 42
-0
  0
VERTEX
  8
0
 10
747.93333333333328
 20
16.631780261993409
 42
0.35743856430053711
  0
VERTEX
  8
0
 10
747.93333333333328
 20
38.184037322998051
 42
-0
  0
VERTEX
  8
0
 10
747.93333333333328
 20
82.055966491699223
 42
0.35743856430053711
  0
VERTEX
  8
0
 10
747.93333333333328
 20
103.60822021484375
 42
-0
  0
VERTEX
  8
0
 10
747.93333333333328
 20
110.12
 42
-0
  0
VERTEX
  8
0
 10
787.93333333333328
 20
110.12
 42
-0
  0
VERTEX
  8
0
 10
787.93333333333328
 20
103.60822021484375
 42
0.35743856430053711
  0
VERTEX
  8
0
 10
787.93333333333328
 20
82.055966491699223
 42
-0
  0
VERTEX
  8
0
 10
787.93333333333328
 20
38.184037322998051
 42
0.35743856430053711
  0
VERTEX
  8
0
 10
787.93333333333328
 20
16.631780261993413
 42
-0
  0
VERTEX
  8
0
 10
787.93333333333328
 20
10.120000000000006
 42
0
  0
SEQEND
  0
POLYLINE
  8
0
 10
0
 20
0
 39
0
 70
1
 66
1
  0
VERTEX
  8
0
 10
767.93333333333328
 20
49.120000000000005
 42
1
  0
VERTEX
  8
0
 10
767.93333333333328
 20
71.120000000000005
 42
1
  0
SEQEND
  0
POLYLINE
  8
0
 10
0
 20
0
 39
0
 70
1
 66
1
  0
VERTEX
  8
0
 10
747.93333333333328
 20
120.2
 42
-0
  0
VERTEX
  8
0
 10
747.93333333333328
 20
126.71178026199341
 42
0.35743856430053711
  0
VERTEX
  8
0
 10
747.93333333333328
 20
148.26403732299804
 42
-0
  0
VERTEX
  8
0
 10
747.93333333333328
 20
192.13596649169921
 42
0.35743856430053711
  0
VERTEX
  8
0
 10
747.93333333333328
 20
213.68822021484374
 42
-0
  0
VERTEX
  8
0
 10
747.93333333333328
 20
220.19999999999999
 42
-0
  0
VERTEX
  8
0
 10
787.93333333333328
 20
220.19999999999999
 42
-0
  0
VERTEX
  8
0
 10
787.93333333333328
 20
213.68822021484374
 42
0.35743856430053711
  0
VERTEX
  8
0
 10
787.93333333333328
 20
192.13596649169921
 42
-0
  0
VERTEX
  8
0
 10
787.93333333333328
 20
148.26403732299806
 42
0.35743856430053711
  0
VERTEX
  8
0
 10
787.93333333333328
 20
126.71178026199341
 42
-0
  0
VERTEX
  8
0
 10
787.93333333333328
 20
120.2
 42
0
  0
SEQEND
  0
POLYLINE
  8
0
 10
0
 20
0
 39
0
 70
1
 66
1
  0
VERTEX
  8
0
 10
767.93333333333328
 20
159.19999999999999
 42
1
  0
VERTEX
  8
0
 10
767.93333333333328
 20
181.19999999999999
 42
1
  0
SEQEND
  0
ENDSEC
  0
EOF
