  0
SECTION
  2
ENTITIES
  0
POLYLINE
  8
0
 10
0
 20
0
 39
0
 70
1
 66
1
  0
VERTEX
  8
0
 10
0
 20
0
 42
-0
  0
VERTEX
  8
0
 10
800
 20
0
 42
-0
  0
VERTEX
  8
0
 10
800
 20
500
 42
-0
  0
VERTEX
  8
0
 10
0
 20
500
 42
-0
  0
SEQEND
  0
POLYLINE
  8
0
 10
0
 20
0
 39
0
 70
1
 66
1
  0
VERTEX
  8
0
 10
205
 20
10
 42
0
  0
VERTEX
  8
0
 10
385
 20
10
 42
0
  0
VERTEX
  8
0
 10
385
 20
200
 42
0
  0
VERTEX
  8
0
 10
205
 20
200
 42
0
  0
SEQEND
  0
POLYLINE
  8
0
 10
0
 20
0
 39
0
 70
1
 66
1
  0
VERTEX
  8
0
 10
276
 20
156.92214202880859
 42
-1
  0
VERTEX
  8
0
 10
314
 20
156.92214202880859
 42
-1
  0
SEQEND
  0
POLYLINE
  8
0
 10
0
 20
0
 39
0
 70
1
 66
1
  0
VERTEX
  8
0
 10
276
 20
93.042446136474609
 42
0
  0
VERTEX
  8
0
 10
314
 20
93.042446136474609
 42
0
  0
VERTEX
  8
0
 10
314
 20
43.042442321777344
 42
0
  0
VERTEX
  8
0
 10
276
 20
43.042442321777344
 42
0
  0
SEQEND
  0
POLYLINE
  8
0
 10
0
 20
0
 39
0
 70
1
 66
1
  0
VERTEX
  8
0
 10
485
 20
210
 42
0
  0
VERTEX
  8
0
 10
610
 20
210
 42
0
  0
VERTEX
  8
0
 10
610
 20
390
 42
0
  0
VERTEX
  8
0
 10
485
 20
390
 42
0
  0
SEQEND
  0
POLYLINE
  8
0
 10
0
 20
0
 39
0
 70
1
 66
1
  0
VERTEX
  8
0
 10
537.47104835510254
 20
375.33538818359375
 42
-0.066269710659980774
  0
VERTEX
  8
0
 10
557.52895224094391
 20
375.33538818359375
 42
0
  0
VERTEX
  8
0
 10
557.52895224094391
 20
224.66461563110352
 42
-0.066269710659980774
  0
VERTEX
  8
0
 10
537.47104835510254
 20
224.66461563110352
 42
-0
  0
SEQEND
  0
POLYLINE
  8
0
 10
0
 20
0
 39
0
 70
1
 66
1
  0
VERTEX
  8
0
 10
395
 20
10
 42
0
  0
VERTEX
  8
0
 10
575
 20
10
 42
0
  0
VERTEX
  8
0
 10
575
 20
200
 42
0
  0
VERTEX
  8
0
 10
395
 20
200
 42
0
  0
SEQEND
  0
POLYLINE
  8
0
 10
0
 20
0
 39
0
 70
1
 66
1
  0
VERTEX
  8
0
 10
466
 20
156.92214202880859
 42
-1
  0
VERTEX
  8
0
 10
504
 20
156.92214202880859
 42
-1
  0
SEQEND
  0
POLYLINE
  8
0
 10
0
 20
0
 39
0
 70
1
 66
1
  0
VERTEX
  8
0
 10
466
 20
93.042446136474609
 42
0
  0
VERTEX
  8
0
 10
504
 20
93.042446136474609
 42
0
  0
VERTEX
  8
0
 10
504
 20
43.042442321777344
 42
0
  0
VERTEX
  8
0
 10
466
 20
43.042442321777344
 42
0
  0
SEQEND
  0
POLYLINE
  8
0
 10
0
 20
0
 39
0
 70
1
 66
1
  0
VERTEX
  8
0
 10
205
 20
210
 42
0
  0
VERTEX
  8
0
 10
385
 20
210
 42
0
  0
VERTEX
  8
0
 10
385
 20
400
 42
0
  0
VERTEX
  8
0
 10
205
 20
400
 42
0
  0
SEQEND
  0
POLYLINE
  8
0
 10
0
 20
0
 39
0
 70
1
 66
1
  0
VERTEX
  8
0
 10
276
 20
356.92214202880859
 42
-1
  0
VERTEX
  8
0
 10
314
 20
356.92214202880859
 42
-1
  0
SEQEND
  0
POLYLINE
  8
0
 10
0
 20
0
 39
0
 70
1
 66
1
  0
VERTEX
  8
0
 10
276
 20
293.04244613647461
 42
0
  0
VERTEX
  8
0
 10
314
 20
293.04244613647461
 42
0
  0
VERTEX
  8
0
 10
314
 20
243.04244232177734
 42
0
  0
VERTEX
  8
0
 10
276
 20
243.04244232177734
 42
0
  0
SEQEND
  0
POLYLINE
  8
0
 10
0
 20
0
 39
0
 70
1
 66
1
  0
VERTEX
  8
0
 10
385
 20
410
 42
0
  0
VERTEX
  8
0
 10
560
 20
410
 42
-0
  0
VERTEX
  8
0
 10
560
 20
476.03795623779297
 42
-0
  0
VERTEX
  8
0
 10
541.11772155761719
 20
490
 42
-0
  0
VERTEX
  8
0
 10
487.28678894042969
 20
490
 42
0
  0
VERTEX
  8
0
 10
472.5
 20
479.06626129150391
 42
-0
  0
VERTEX
  8
0
 10
457.71321105957031
 20
490
 42
-0
  0
VERTEX
  8
0
 10
403.88227462768555
 20
490
 42
0
  0
VERTEX
  8
0
 10
385
 20
476.03795623779297
 42
-0
  0
SEQEND
  0
POLYLINE
  8
0
 10
0
 20
0
 39
0
 70
1
 66
1
  0
VERTEX
  8
0
 10
401.5
 20
425.59434223175049
 42
0
  0
VERTEX
  8
0
 10
401.5
 20
470.59434127807617
 42
0
  0
VERTEX
  8
0
 10
431.5
 20
470.59434127807617
 42
0
  0
VERTEX
  8
0
 10
431.5
 20
447.59434127807617
 42
0
  0
VERTEX
  8
0
 10
513.5
 20
447.59434127807617
 42
-0
  0
VERTEX
  8
0
 10
513.5
 20
470.59434127807617
 42
-0
  0
VERTEX
  8
0
 10
543.5
 20
470.59434127807617
 42
-0
  0
VERTEX
  8
0
 10
543.5
 20
425.59434223175049
 42
-0
  0
SEQEND
  0
POLYLINE
  8
0
 10
0
 20
0
 39
0
 70
1
 66
1
  0
VERTEX
  8
0
 10
10
 20
10
 42
0
  0
VERTEX
  8
0
 10
195
 20
10
 42
0
  0
VERTEX
  8
0
 10
195
 20
355
 42
0
  0
VERTEX
  8
0
 10
10
 20
355
 42
0
  0
SEQEND
  0
POLYLINE
  8
0
 10
0
 20
0
 39
0
 70
1
 66
1
  0
VERTEX
  8
0
 10
35.645082473754883
 20
102.5
 42
-0
  0
VERTEX
  8
0
 10
35.645082473754883
 20
262.5
 42
-0
  0
VERTEX
  8
0
 10
75.64508056640625
 20
262.5
 42
-0
  0
VERTEX
  8
0
 10
75.64508056640625
 20
102.5
 42
-0
  0
SEQEND
  0
POLYLINE
  8
0
 10
0
 20
0
 39
0
 70
1
 66
1
  0
VERTEX
  8
0
 10
710
 20
385
 42
0
  0
VERTEX
  8
0
 10
710
 20
210
 42
-0
  0
VERTEX
  8
0
 10
776.03795623779297
 20
210
 42
-0
  0
VERTEX
  8
0
 10
790
 20
228.88227844238281
 42
-0
  0
VERTEX
  8
0
 10
790
 20
282.71321105957031
 42
0
  0
VERTEX
  8
0
 10
779.06626129150391
 20
297.5
 42
-0
  0
VERTEX
  8
0
 10
790
 20
312.28678894042969
 42
-0
  0
VERTEX
  8
0
 10
790
 20
366.11772537231445
 42
0
  0
VERTEX
  8
0
 10
776.03795623779297
 20
385
 42
-0
  0
SEQEND
  0
POLYLINE
  8
0
 10
0
 20
0
 39
0
 70
1
 66
1
  0
VERTEX
  8
0
 10
725.59434223175049
 20
368.5
 42
0
  0
VERTEX
  8
0
 10
770.59434127807617
 20
368.5
 42
0
  0
VERTEX
  8
0
 10
770.59434127807617
 20
338.5
 42
0
  0
VERTEX
  8
0
 10
747.59434127807617
 20
338.5
 42
0
  0
VERTEX
  8
0
 10
747.59434127807617
 20
256.5
 42
-0
  0
VERTEX
  8
0
 10
770.59434127807617
 20
256.5
 42
-0
  0
VERTEX
  8
0
 10
770.59434127807617
 20
226.5
 42
-0
  0
VERTEX
  8
0
 10
725.59434223175049
 20
226.5
 42
-0
  0
SEQEND
  0
POLYLINE
  8
0
 10
0
 20
0
 39
0
 70
1
 66
1
  0
VERTEX
  8
0
 10
200
 20
410
 42
0
  0
VERTEX
  8
0
 10
375
 20
410
 42
-0
  0
VERTEX
  8
0
 10
375
 20
476.03795623779297
 42
-0
  0
VERTEX
  8
0
 10
356.11772155761719
 20
490
 42
-0
  0
VERTEX
  8
0
 10
302.28678894042969
 20
490
 42
0
  0
VERTEX
  8
0
 10
287.5
 20
479.06626129150391
 42
-0
  0
VERTEX
  8
0
 10
272.71321105957031
 20
490
 42
-0
  0
VERTEX
  8
0
 10
218.88227462768555
 20
490
 42
0
  0
VERTEX
  8
0
 10
200
 20
476.03795623779297
 42
-0
  0
SEQEND
  0
POLYLINE
  8
0
 10
0
 20
0
 39
0
 70
1
 66
1
  0
VERTEX
  8
0
 10
216.5
 20
425.59434223175049
 42
0
  0
VERTEX
  8
0
 10
216.5
 20
470.59434127807617
 42
0
  0
VERTEX
  8
0
 10
246.5
 20
470.59434127807617
 42
0
  0
VERTEX
  8
0
 10
246.5
 20
447.59434127807617
 42
0
  0
VERTEX
  8
0
 10
328.5
 20
447.59434127807617
 42
-0
  0
VERTEX
  8
0
 10
328.5
 20
470.59434127807617
 42
-0
  0
VERTEX
  8
0
 10
358.5
 20
470.59434127807617
 42
-0
  0
VERTEX
  8
0
 10
358.5
 20
425.59434223175049
 42
-0
  0
SEQEND
  0
POLYLINE
  8
0
 10
0
 20
0
 39
0
 70
1
 66
1
  0
VERTEX
  8
0
 10
10
 20
490
 42
0
  0
VERTEX
  8
0
 10
10.000000000000007
 20
365
 42
0
  0
VERTEX
  8
0
 10
190
 20
365
 42
0
  0
VERTEX
  8
0
 10
190
 20
490
 42
0
  0
SEQEND
  0
POLYLINE
  8
0
 10
0
 20
0
 39
0
 70
1
 66
1
  0
VERTEX
  8
0
 10
175.33538818359375
 20
437.52895164489746
 42
-0.066269710659980774
  0
VERTEX
  8
0
 10
175.33538818359375
 20
417.47104775905609
 42
0
  0
VERTEX
  8
0
 10
24.664615631103519
 20
417.47104775905609
 42
-0.066269710659980774
  0
VERTEX
  8
0
 10
24.664615631103519
 20
437.52895164489746
 42
-0
  0
SEQEND
  0
POLYLINE
  8
0
 10
0
 20
0
 39
0
 70
1
 66
1
  0
VERTEX
  8
0
 10
585
 20
10
 42
0
  0
VERTEX
  8
0
 10
765
 20
10
 42
0
  0
VERTEX
  8
0
 10
765
 20
200
 42
0
  0
VERTEX
  8
0
 10
585
 20
200
 42
0
  0
SEQEND
  0
POLYLINE
  8
0
 10
0
 20
0
 39
0
 70
1
 66
1
  0
VERTEX
  8
0
 10
656
 20
156.92214202880859
 42
-1
  0
VERTEX
  8
0
 10
694
 20
156.92214202880859
 42
-1
  0
SEQEND
  0
POLYLINE
  8
0
 10
0
 20
0
 39
0
 70
1
 66
1
  0
VERTEX
  8
0
 10
656
 20
93.042446136474609
 42
0
  0
VERTEX
  8
0
 10
694
 20
93.042446136474609
 42
0
  0
VERTEX
  8
0
 10
694
 20
43.042442321777344
 42
0
  0
VERTEX
  8
0
 10
656
 20
43.042442321777344
 42
0
  0
SEQEND
  0
POLYLINE
  8
0
 10
0
 20
0
 39
0
 70
1
 66
1
  0
VERTEX
  8
0
 10
570
 20
400
 42
0
  0
VERTEX
  8
0
 10
745
 20
400
 42
-0
  0
VERTEX
  8
0
 10
745
 20
466.03795623779297
 42
-0
  0
VERTEX
  8
0
 10
726.11772155761719
 20
480
 42
-0
  0
VERTEX
  8
0
 10
672.28678894042969
 20
480
 42
0
  0
VERTEX
  8
0
 10
657.5
 20
469.06626129150391
 42
-0
  0
VERTEX
  8
0
 10
642.71321105957031
 20
480
 42
-0
  0
VERTEX
  8
0
 10
588.88227462768555
 20
480
 42
0
  0
VERTEX
  8
0
 10
570
 20
466.03795623779297
 42
-0
  0
SEQEND
  0
POLYLINE
  8
0
 10
0
 20
0
 39
0
 70
1
 66
1
  0
VERTEX
  8
0
 10
586.5
 20
415.59434223175049
 42
0
  0
VERTEX
  8
0
 10
586.5
 20
460.59434127807617
 42
0
  0
VERTEX
  8
0
 10
616.5
 20
460.59434127807617
 42
0
  0
VERTEX
  8
0
 10
616.5
 20
437.59434127807617
 42
0
  0
VERTEX
  8
0
 10
698.5
 20
437.59434127807617
 42
-0
  0
VERTEX
  8
0
 10
698.5
 20
460.59434127807617
 42
-0
  0
VERTEX
  8
0
 10
728.5
 20
460.59434127807617
 42
-0
  0
VERTEX
  8
0
 10
728.5
 20
415.59434223175049
 42
-0
  0
SEQEND
  0
POLYLINE
  8
0
 10
0
 20
0
 39
0
 70
1
 66
1
  0
VERTEX
  8
0
 10
395
 20
385
 42
0
  0
VERTEX
  8
0
 10
395
 20
210
 42
-0
  0
VERTEX
  8
0
 10
461.03795623779297
 20
210
 42
-0
  0
VERTEX
  8
0
 10
475
 20
228.88227844238281
 42
-0
  0
VERTEX
  8
0
 10
475
 20
282.71321105957031
 42
0
  0
VERTEX
  8
0
 10
464.06626129150391
 20
297.5
 42
-0
  0
VERTEX
  8
0
 10
475
 20
312.28678894042969
 42
-0
  0
VERTEX
  8
0
 10
475
 20
366.11772537231445
 42
0
  0
VERTEX
  8
0
 10
461.03795623779297
 20
385
 42
-0
  0
SEQEND
  0
POLYLINE
  8
0
 10
0
 20
0
 39
0
 70
1
 66
1
  0
VERTEX
  8
0
 10
410.59434223175049
 20
368.5
 42
0
  0
VERTEX
  8
0
 10
455.59434127807617
 20
368.5
 42
0
  0
VERTEX
  8
0
 10
455.59434127807617
 20
338.5
 42
0
  0
VERTEX
  8
0
 10
432.59434127807617
 20
338.5
 42
0
  0
VERTEX
  8
0
 10
432.59434127807617
 20
256.5
 42
-0
  0
VERTEX
  8
0
 10
455.59434127807617
 20
256.5
 42
-0
  0
VERTEX
  8
0
 10
455.59434127807617
 20
226.5
 42
-0
  0
VERTEX
  8
0
 10
410.59434223175049
 20
226.5
 42
-0
  0
SEQEND
  0
POLYLINE
  8
0
 10
0
 20
0
 39
0
 70
1
 66
1
  0
VERTEX
  8
0
 10
620
 20
385
 42
0
  0
VERTEX
  8
0
 10
620
 20
210
 42
-0
  0
VERTEX
  8
0
 10
686.03795623779297
 20
210
 42
-0
  0
VERTEX
  8
0
 10
700
 20
228.88227844238281
 42
-0
  0
VERTEX
  8
0
 10
700
 20
282.71321105957031
 42
0
  0
VERTEX
  8
0
 10
689.06626129150391
 20
297.5
 42
-0
  0
VERTEX
  8
0
 10
700
 20
312.28678894042969
 42
-0
  0
VERTEX
  8
0
 10
700
 20
366.11772537231445
 42
0
  0
VERTEX
  8
0
 10
686.03795623779297
 20
385
 42
-0
  0
SEQEND
  0
POLYLINE
  8
0
 10
0
 20
0
 39
0
 70
1
 66
1
  0
VERTEX
  8
0
 10
635.59434223175049
 20
368.5
 42
0
  0
VERTEX
  8
0
 10
680.59434127807617
 20
368.5
 42
0
  0
VERTEX
  8
0
 10
680.59434127807617
 20
338.5
 42
0
  0
VERTEX
  8
0
 10
657.59434127807617
 20
338.5
 42
0
  0
VERTEX
  8
0
 10
657.59434127807617
 20
256.5
 42
-0
  0
VERTEX
  8
0
 10
680.59434127807617
 20
256.5
 42
-0
  0
VERTEX
  8
0
 10
680.59434127807617
 20
226.5
 42
-0
  0
VERTEX
  8
0
 10
635.59434223175049
 20
226.5
 42
-0
  0
SEQEND
  0
ENDSEC
  0
EOF
