  0
SECTION
  2
ENTITIES
  0
POLYLINE
  8
0
 10
0
 20
0
 39
0
 70
1
 66
1
  0
VERTEX
  8
0
 10
0
 20
0
 42
-0
  0
VERTEX
  8
0
 10
1000
 20
0
 42
-0
  0
VERTEX
  8
0
 10
1000
 20
600
 42
-0
  0
VERTEX
  8
0
 10
0
 20
600
 42
-0
  0
SEQEND
  0
POLYLINE
  8
0
 10
0
 20
0
 39
0
 70
1
 66
1
  0
VERTEX
  8
0
 10
729.9999931888749
 20
450
 42
0
  0
VERTEX
  8
0
 10
813.9999931888749
 20
450
 42
0
  0
VERTEX
  8
0
 10
813.9999931888749
 20
564
 42
0
  0
VERTEX
  8
0
 10
729.9999931888749
 20
564
 42
0
  0
SEQEND
  0
POLYLINE
  8
0
 10
0
 20
0
 39
0
 70
1
 66
1
  0
VERTEX
  8
0
 10
749.4999931888749
 20
507
 42
-1
  0
VERTEX
  8
0
 10
794.4999931888749
 20
507
 42
-1
  0
SEQEND
  0
POLYLINE
  8
0
 10
0
 20
0
 39
0
 70
1
 66
1
  0
VERTEX
  8
0
 10
152.99999618530273
 20
517
 42
0
  0
VERTEX
  8
0
 10
223.99999618530273
 20
517
 42
0
  0
VERTEX
  8
0
 10
223.99999618530273
 20
578.99999618530273
 42
0
  0
VERTEX
  8
0
 10
152.99999618530273
 20
578.99999618530273
 42
1
  0
SEQEND
  0
POLYLINE
  8
0
 10
0
 20
0
 39
0
 70
1
 66
1
  0
VERTEX
  8
0
 10
140.49999618530273
 20
547.99999618530273
 42
-1
  0
VERTEX
  8
0
 10
165.49999618530273
 20
547.99999618530273
 42
-1
  0
SEQEND
  0
POLYLINE
  8
0
 10
0
 20
0
 39
0
 70
1
 66
1
  0
VERTEX
  8
0
 10
919.99999545924993
 20
381
 42
0
  0
VERTEX
  8
0
 10
919.99999545924993
 20
310
 42
0
  0
VERTEX
  8
0
 10
981.99999164455267
 20
310
 42
0
  0
VERTEX
  8
0
 10
981.99999164455267
 20
381
 42
1
  0
SEQEND
  0
POLYLINE
  8
0
 10
0
 20
0
 39
0
 70
1
 66
1
  0
VERTEX
  8
0
 10
950.99999164455267
 20
393.5
 42
-1
  0
VERTEX
  8
0
 10
950.99999164455267
 20
368.5
 42
-1
  0
SEQEND
  0
POLYLINE
  8
0
 10
0
 20
0
 39
0
 70
1
 66
1
  0
VERTEX
  8
0
 10
40.999998092651367
 20
517
 42
0
  0
VERTEX
  8
0
 10
111.99999809265137
 20
517
 42
0
  0
VERTEX
  8
0
 10
111.99999809265137
 20
578.99999618530273
 42
0
  0
VERTEX
  8
0
 10
40.999998092651367
 20
578.99999618530273
 42
1
  0
SEQEND
  0
POLYLINE
  8
0
 10
0
 20
0
 39
0
 70
1
 66
1
  0
VERTEX
  8
0
 10
28.499998092651367
 20
547.99999618530273
 42
-1
  0
VERTEX
  8
0
 10
53.499998092651367
 20
547.99999618530273
 42
-1
  0
SEQEND
  0
POLYLINE
  8
0
 10
0
 20
0
 39
0
 70
1
 66
1
  0
VERTEX
  8
0
 10
779.99999772962497
 20
300
 42
0
  0
VERTEX
  8
0
 10
779.99999772962497
 20
10
 42
0
  0
VERTEX
  8
0
 10
966.99999772962497
 20
10
 42
0
  0
VERTEX
  8
0
 10
976.99999772962497
 20
20
 42
0
  0
VERTEX
  8
0
 10
976.99999772962497
 20
290
 42
0
  0
VERTEX
  8
0
 10
966.99999772962497
 20
300
 42
0
  0
SEQEND
  0
POLYLINE
  8
0
 10
0
 20
0
 39
0
 70
1
 66
1
  0
VERTEX
  8
0
 10
911.99999772962497
 20
170.5
 42
-1
  0
VERTEX
  8
0
 10
911.99999772962497
 20
139.5
 42
-1
  0
SEQEND
  0
POLYLINE
  8
0
 10
0
 20
0
 39
0
 70
1
 66
1
  0
VERTEX
  8
0
 10
10
 20
310
 42
0
  0
VERTEX
  8
0
 10
300
 20
310
 42
0
  0
VERTEX
  8
0
 10
300
 20
497
 42
0
  0
VERTEX
  8
0
 10
290
 20
507
 42
0
  0
VERTEX
  8
0
 10
20
 20
507
 42
0
  0
VERTEX
  8
0
 10
10
 20
497
 42
0
  0
SEQEND
  0
POLYLINE
  8
0
 10
0
 20
0
 39
0
 70
1
 66
1
  0
VERTEX
  8
0
 10
139.5
 20
442
 42
-1
  0
VERTEX
  8
0
 10
170.5
 20
442
 42
-1
  0
SEQEND
  0
POLYLINE
  8
0
 10
0
 20
0
 39
0
 70
1
 66
1
  0
VERTEX
  8
0
 10
589
 20
14
 42
0.41421356797218323
  0
VERTEX
  8
0
 10
593
 20
10
 42
0
  0
VERTEX
  8
0
 10
740
 20
10
 42
0.41421356797218323
  0
VERTEX
  8
0
 10
744
 20
14
 42
0
  0
VERTEX
  8
0
 10
744
 20
216
 42
0.41421356797218323
  0
VERTEX
  8
0
 10
740
 20
220
 42
0
  0
VERTEX
  8
0
 10
593
 20
220
 42
0.41421356797218323
  0
VERTEX
  8
0
 10
589
 20
216
 42
0
  0
SEQEND
  0
POLYLINE
  8
0
 10
0
 20
0
 39
0
 70
1
 66
1
  0
VERTEX
  8
0
 10
715
 20
174.38466644287109
 42
0
  0
VERTEX
  8
0
 10
715
 20
99.199996948242202
 42
-0.41421356797218323
  0
VERTEX
  8
0
 10
713.80000305175781
 20
98.000000000000014
 42
0
  0
VERTEX
  8
0
 10
664.19999694824219
 20
98
 42
-0.41421356797218323
  0
VERTEX
  8
0
 10
663
 20
99.199996948242188
 42
-0
  0
VERTEX
  8
0
 10
663.00000762939453
 20
174.38467025756836
 42
-0.21597428619861603
  0
SEQEND
  0
POLYLINE
  8
0
 10
0
 20
0
 39
0
 70
1
 66
1
  0
VERTEX
  8
0
 10
888.7163769604748
 20
579.99937670613178
 42
1
  0
VERTEX
  8
0
 10
889.28360714689995
 20
450.00061648274311
 42
1
  0
SEQEND
  0
POLYLINE
  8
0
 10
0
 20
0
 39
0
 70
1
 66
1
  0
VERTEX
  8
0
 10
888.86909277989696
 20
544.99971049214253
 42
-1
  0
VERTEX
  8
0
 10
889.1308913274778
 20
485.00028269673237
 42
-1
  0
SEQEND
  0
POLYLINE
  8
0
 10
0
 20
0
 39
0
 70
1
 66
1
  0
VERTEX
  8
0
 10
614.99999772962497
 20
234
 42
0.41421356797218323
  0
VERTEX
  8
0
 10
618.99999772962497
 20
230
 42
0
  0
VERTEX
  8
0
 10
765.99999772962497
 20
230
 42
0.41421356797218323
  0
VERTEX
  8
0
 10
769.99999772962497
 20
234
 42
0
  0
VERTEX
  8
0
 10
769.99999772962497
 20
436
 42
0.41421356797218323
  0
VERTEX
  8
0
 10
765.99999772962497
 20
440
 42
0
  0
VERTEX
  8
0
 10
618.99999772962497
 20
440
 42
0.41421356797218323
  0
VERTEX
  8
0
 10
614.99999772962497
 20
436
 42
0
  0
SEQEND
  0
POLYLINE
  8
0
 10
0
 20
0
 39
0
 70
1
 66
1
  0
VERTEX
  8
0
 10
740.99999772962497
 20
394.38466644287109
 42
0
  0
VERTEX
  8
0
 10
740.99999772962497
 20
319.19999694824219
 42
-0.41421356797218323
  0
VERTEX
  8
0
 10
739.80000078138278
 20
318
 42
0
  0
VERTEX
  8
0
 10
690.19999467786715
 20
318
 42
-0.41421356797218323
  0
VERTEX
  8
0
 10
688.99999772962497
 20
319.19999694824219
 42
-0
  0
VERTEX
  8
0
 10
689.0000053590195
 20
394.38467025756836
 42
-0.21597428619861603
  0
SEQEND
  0
POLYLINE
  8
0
 10
0
 20
0
 39
0
 70
1
 66
1
  0
VERTEX
  8
0
 10
449.99999772962497
 20
234
 42
0.41421356797218323
  0
VERTEX
  8
0
 10
453.99999772962497
 20
230
 42
0
  0
VERTEX
  8
0
 10
600.99999772962497
 20
230
 42
0.41421356797218323
  0
VERTEX
  8
0
 10
604.99999772962497
 20
234
 42
0
  0
VERTEX
  8
0
 10
604.99999772962497
 20
436
 42
0.41421356797218323
  0
VERTEX
  8
0
 10
600.99999772962497
 20
440
 42
0
  0
VERTEX
  8
0
 10
453.99999772962497
 20
440
 42
0.41421356797218323
  0
VERTEX
  8
0
 10
449.99999772962497
 20
436
 42
0
  0
SEQEND
  0
POLYLINE
  8
0
 10
0
 20
0
 39
0
 70
1
 66
1
  0
VERTEX
  8
0
 10
575.99999772962497
 20
394.38466644287109
 42
0
  0
VERTEX
  8
0
 10
575.99999772962497
 20
319.19999694824219
 42
-0.41421356797218323
  0
VERTEX
  8
0
 10
574.80000078138278
 20
318
 42
0
  0
VERTEX
  8
0
 10
525.19999467786715
 20
318
 42
-0.41421356797218323
  0
VERTEX
  8
0
 10
523.99999772962497
 20
319.19999694824219
 42
-0
  0
VERTEX
  8
0
 10
524.0000053590195
 20
394.38467025756836
 42
-0.21597428619861603
  0
SEQEND
  0
POLYLINE
  8
0
 10
0
 20
0
 39
0
 70
1
 66
1
  0
VERTEX
  8
0
 10
424
 20
14
 42
0.41421356797218323
  0
VERTEX
  8
0
 10
428
 20
10
 42
0
  0
VERTEX
  8
0
 10
575
 20
10
 42
0.41421356797218323
  0
VERTEX
  8
0
 10
579
 20
14
 42
0
  0
VERTEX
  8
0
 10
579
 20
216
 42
0.41421356797218323
  0
VERTEX
  8
0
 10
575
 20
220
 42
0
  0
VERTEX
  8
0
 10
428
 20
220
 42
0.41421356797218323
  0
VERTEX
  8
0
 10
424
 20
216
 42
0
  0
SEQEND
  0
POLYLINE
  8
0
 10
0
 20
0
 39
0
 70
1
 66
1
  0
VERTEX
  8
0
 10
550
 20
174.38466644287109
 42
0
  0
VERTEX
  8
0
 10
550
 20
99.199996948242202
 42
-0.41421356797218323
  0
VERTEX
  8
0
 10
548.80000305175781
 20
98.000000000000014
 42
0
  0
VERTEX
  8
0
 10
499.19999694824219
 20
98
 42
-0.41421356797218323
  0
VERTEX
  8
0
 10
498
 20
99.199996948242188
 42
-0
  0
VERTEX
  8
0
 10
498.00000762939453
 20
174.38467025756836
 42
-0.21597428619861603
  0
SEQEND
  0
POLYLINE
  8
0
 10
0
 20
0
 39
0
 70
1
 66
1
  0
VERTEX
  8
0
 10
10
 20
300
 42
0
  0
VERTEX
  8
0
 10
10.000000000000018
 20
10
 42
0
  0
VERTEX
  8
0
 10
197.00000000000003
 20
10
 42
0
  0
VERTEX
  8
0
 10
207.00000000000003
 20
20
 42
0
  0
VERTEX
  8
0
 10
207
 20
290
 42
0
  0
VERTEX
  8
0
 10
197
 20
300
 42
0
  0
SEQEND
  0
POLYLINE
  8
0
 10
0
 20
0
 39
0
 70
1
 66
1
  0
VERTEX
  8
0
 10
142
 20
170.5
 42
-1
  0
VERTEX
  8
0
 10
142
 20
139.5
 42
-1
  0
SEQEND
  0
POLYLINE
  8
0
 10
0
 20
0
 39
0
 70
1
 66
1
  0
VERTEX
  8
0
 10
217
 20
300
 42
0
  0
VERTEX
  8
0
 10
217.00000000000003
 20
10
 42
0
  0
VERTEX
  8
0
 10
404
 20
10
 42
0
  0
VERTEX
  8
0
 10
414
 20
20
 42
0
  0
VERTEX
  8
0
 10
414
 20
290
 42
0
  0
VERTEX
  8
0
 10
404
 20
300
 42
0
  0
SEQEND
  0
POLYLINE
  8
0
 10
0
 20
0
 39
0
 70
1
 66
1
  0
VERTEX
  8
0
 10
349
 20
170.5
 42
-1
  0
VERTEX
  8
0
 10
349
 20
139.5
 42
-1
  0
SEQEND
  0
POLYLINE
  8
0
 10
0
 20
0
 39
0
 70
1
 66
1
  0
VERTEX
  8
0
 10
374.71638377159991
 20
439.99937897650682
 42
1
  0
VERTEX
  8
0
 10
375.28361395802506
 20
310.00061875311815
 42
1
  0
SEQEND
  0
POLYLINE
  8
0
 10
0
 20
0
 39
0
 70
1
 66
1
  0
VERTEX
  8
0
 10
374.86909959102206
 20
404.99971276251756
 42
-1
  0
VERTEX
  8
0
 10
375.1308981386029
 20
345.0002849671074
 42
-1
  0
SEQEND
  0
POLYLINE
  8
0
 10
0
 20
0
 39
0
 70
1
 66
1
  0
VERTEX
  8
0
 10
514.71638150122487
 20
579.99937897650682
 42
1
  0
VERTEX
  8
0
 10
515.28361168765002
 20
450.00061875311815
 42
1
  0
SEQEND
  0
POLYLINE
  8
0
 10
0
 20
0
 39
0
 70
1
 66
1
  0
VERTEX
  8
0
 10
514.86909732064703
 20
544.99971276251756
 42
-1
  0
VERTEX
  8
0
 10
515.13089586822787
 20
485.0002849671074
 42
-1
  0
SEQEND
  0
POLYLINE
  8
0
 10
0
 20
0
 39
0
 70
1
 66
1
  0
VERTEX
  8
0
 10
844.71638150122487
 20
439.99937897650682
 42
1
  0
VERTEX
  8
0
 10
845.28361168765002
 20
310.00061875311815
 42
1
  0
SEQEND
  0
POLYLINE
  8
0
 10
0
 20
0
 39
0
 70
1
 66
1
  0
VERTEX
  8
0
 10
844.86909732064703
 20
404.99971276251756
 42
-1
  0
VERTEX
  8
0
 10
845.13089586822787
 20
345.0002849671074
 42
-1
  0
SEQEND
  0
POLYLINE
  8
0
 10
0
 20
0
 39
0
 70
1
 66
1
  0
VERTEX
  8
0
 10
374.71638377159991
 20
579.99937670613178
 42
1
  0
VERTEX
  8
0
 10
375.28361395802506
 20
450.00061648274311
 42
1
  0
SEQEND
  0
POLYLINE
  8
0
 10
0
 20
0
 39
0
 70
1
 66
1
  0
VERTEX
  8
0
 10
374.86909959102206
 20
544.99971049214253
 42
-1
  0
VERTEX
  8
0
 10
375.1308981386029
 20
485.00028269673237
 42
-1
  0
SEQEND
  0
POLYLINE
  8
0
 10
0
 20
0
 39
0
 70
1
 66
1
  0
VERTEX
  8
0
 10
654.71637923084984
 20
579.99937897650682
 42
1
  0
VERTEX
  8
0
 10
655.28360941727499
 20
450.00061875311815
 42
1
  0
SEQEND
  0
POLYLINE
  8
0
 10
0
 20
0
 39
0
 70
1
 66
1
  0
VERTEX
  8
0
 10
654.86909505027199
 20
544.99971276251756
 42
-1
  0
VERTEX
  8
0
 10
655.13089359785283
 20
485.0002849671074
 42
-1
  0
SEQEND
  0
ENDSEC
  0
EOF
