  0
SECTION
  2
ENTITIES
  0
POLYLINE
  8
0
 10
0
 20
0
 39
0
 70
1
 66
1
  0
VERTEX
  8
0
 10
0
 20
0
 42
-0
  0
VERTEX
  8
0
 10
700
 20
0
 42
-0
  0
VERTEX
  8
0
 10
700
 20
300
 42
-0
  0
VERTEX
  8
0
 10
0
 20
300
 42
-0
  0
SEQEND
  0
POLYLINE
  8
0
 10
0
 20
0
 39
0
 70
1
 66
1
  0
VERTEX
  8
0
 10
167.20000000000229
 20
10.200000000002287
 42
-0
  0
VERTEX
  8
0
 10
13.200000000002291
 20
10.200000000002287
 42
-0.41421398520469666
  0
VERTEX
  8
0
 10
10.200000000002291
 20
13.200000000002287
 42
-0
  0
VERTEX
  8
0
 10
10.200000000002291
 20
167.20000000000229
 42
-0.41421398520469666
  0
VERTEX
  8
0
 10
13.200000000002291
 20
170.20000000000229
 42
-0
  0
VERTEX
  8
0
 10
167.20000000000229
 20
170.20000000000229
 42
-0.41421398520469666
  0
VERTEX
  8
0
 10
170.20000000000229
 20
167.20000000000229
 42
-0
  0
VERTEX
  8
0
 10
170.20000000000229
 20
13.200000000002287
 42
-0.41421398520469666
  0
SEQEND
  0
POLYLINE
  8
0
 10
0
 20
0
 39
0
 70
1
 66
1
  0
VERTEX
  8
0
 10
39.700000000002291
 20
140.70000000000229
 42
0
  0
VERTEX
  8
0
 10
39.700000000002291
 20
39.700000000002291
 42
0
  0
VERTEX
  8
0
 10
140.70000000000229
 20
39.700000000002291
 42
0
  0
VERTEX
  8
0
 10
140.70000000000229
 20
140.70000000000229
 42
0
  0
SEQEND
  0
POLYLINE
  8
0
 10
0
 20
0
 39
0
 70
1
 66
1
  0
VERTEX
  8
0
 10
337.40000000000231
 20
10.200000000002287
 42
-0
  0
VERTEX
  8
0
 10
183.40000000000231
 20
10.200000000002287
 42
-0.41421398520469666
  0
VERTEX
  8
0
 10
180.40000000000231
 20
13.200000000002287
 42
-0
  0
VERTEX
  8
0
 10
180.40000000000231
 20
167.20000000000229
 42
-0.41421398520469666
  0
VERTEX
  8
0
 10
183.40000000000231
 20
170.20000000000229
 42
-0
  0
VERTEX
  8
0
 10
337.40000000000231
 20
170.20000000000229
 42
-0.41421398520469666
  0
VERTEX
  8
0
 10
340.40000000000231
 20
167.20000000000229
 42
-0
  0
VERTEX
  8
0
 10
340.40000000000231
 20
13.200000000002287
 42
-0.41421398520469666
  0
SEQEND
  0
POLYLINE
  8
0
 10
0
 20
0
 39
0
 70
1
 66
1
  0
VERTEX
  8
0
 10
209.90000000000231
 20
140.70000000000229
 42
0
  0
VERTEX
  8
0
 10
209.90000000000231
 20
39.700000000002291
 42
0
  0
VERTEX
  8
0
 10
310.90000000000231
 20
39.700000000002291
 42
0
  0
VERTEX
  8
0
 10
310.90000000000231
 20
140.70000000000229
 42
0
  0
SEQEND
  0
POLYLINE
  8
0
 10
0
 20
0
 39
0
 70
1
 66
1
  0
VERTEX
  8
0
 10
507.6000000000023
 20
10.200000000002287
 42
-0
  0
VERTEX
  8
0
 10
353.6000000000023
 20
10.200000000002287
 42
-0.41421398520469666
  0
VERTEX
  8
0
 10
350.6000000000023
 20
13.200000000002287
 42
-0
  0
VERTEX
  8
0
 10
350.6000000000023
 20
167.20000000000229
 42
-0.41421398520469666
  0
VERTEX
  8
0
 10
353.6000000000023
 20
170.20000000000229
 42
-0
  0
VERTEX
  8
0
 10
507.6000000000023
 20
170.20000000000229
 42
-0.41421398520469666
  0
VERTEX
  8
0
 10
510.6000000000023
 20
167.20000000000229
 42
-0
  0
VERTEX
  8
0
 10
510.6000000000023
 20
13.200000000002287
 42
-0.41421398520469666
  0
SEQEND
  0
POLYLINE
  8
0
 10
0
 20
0
 39
0
 70
1
 66
1
  0
VERTEX
  8
0
 10
380.1000000000023
 20
140.70000000000229
 42
0
  0
VERTEX
  8
0
 10
380.1000000000023
 20
39.700000000002291
 42
0
  0
VERTEX
  8
0
 10
481.1000000000023
 20
39.700000000002291
 42
0
  0
VERTEX
  8
0
 10
481.1000000000023
 20
140.70000000000229
 42
0
  0
SEQEND
  0
POLYLINE
  8
0
 10
0
 20
0
 39
0
 70
1
 66
1
  0
VERTEX
  8
0
 10
10.200000000000003
 20
280.30000000000001
 42
-0
  0
VERTEX
  8
0
 10
110.2
 20
280.30000000000001
 42
-0
  0
VERTEX
  8
0
 10
110.2
 20
230.30000000000001
 42
-1
  0
VERTEX
  8
0
 10
10.200000000000003
 20
230.30000000000001
 42
-0
  0
SEQEND
  0
POLYLINE
  8
0
 10
0
 20
0
 39
0
 70
1
 66
1
  0
VERTEX
  8
0
 10
70.700000000000003
 20
230.30000000000001
 42
1
  0
VERTEX
  8
0
 10
49.700000000000003
 20
230.30000000000001
 42
1
  0
SEQEND
  0
POLYLINE
  8
0
 10
0
 20
0
 39
0
 70
1
 66
1
  0
VERTEX
  8
0
 10
120.40000000000001
 20
280.30000000000001
 42
-0
  0
VERTEX
  8
0
 10
220.40000000000001
 20
280.30000000000001
 42
-0
  0
VERTEX
  8
0
 10
220.40000000000001
 20
230.30000000000001
 42
-1
  0
VERTEX
  8
0
 10
120.40000000000001
 20
230.30000000000001
 42
-0
  0
SEQEND
  0
POLYLINE
  8
0
 10
0
 20
0
 39
0
 70
1
 66
1
  0
VERTEX
  8
0
 10
180.90000000000001
 20
230.30000000000001
 42
1
  0
VERTEX
  8
0
 10
159.90000000000001
 20
230.30000000000001
 42
1
  0
SEQEND
  0
POLYLINE
  8
0
 10
0
 20
0
 39
0
 70
1
 66
1
  0
VERTEX
  8
0
 10
230.59999999999999
 20
180.30000000000001
 42
-0
  0
VERTEX
  8
0
 10
230.59999999999999
 20
280.30000000000001
 42
0
  0
VERTEX
  8
0
 10
249.59999999999999
 20
280.30000000000001
 42
1
  0
VERTEX
  8
0
 10
281.59999999999997
 20
280.30000000000001
 42
0
  0
VERTEX
  8
0
 10
300.60000000000002
 20
280.30000000000001
 42
0
  0
VERTEX
  8
0
 10
300.60000000000002
 20
180.30000000000001
 42
0
  0
SEQEND
  0
POLYLINE
  8
0
 10
0
 20
0
 39
0
 70
1
 66
1
  0
VERTEX
  8
0
 10
249.59999999999999
 20
234.82441406250001
 42
1
  0
VERTEX
  8
0
 10
249.59999999999999
 20
254.82441406250001
 42
1
  0
SEQEND
  0
POLYLINE
  8
0
 10
0
 20
0
 39
0
 70
1
 66
1
  0
VERTEX
  8
0
 10
310.80000000000001
 20
180.30000000000001
 42
-0
  0
VERTEX
  8
0
 10
310.80000000000001
 20
280.30000000000001
 42
0
  0
VERTEX
  8
0
 10
329.80000000000001
 20
280.30000000000001
 42
1
  0
VERTEX
  8
0
 10
361.80000000000001
 20
280.30000000000001
 42
0
  0
VERTEX
  8
0
 10
380.80000000000001
 20
280.30000000000001
 42
0
  0
VERTEX
  8
0
 10
380.80000000000001
 20
180.30000000000001
 42
0
  0
SEQEND
  0
POLYLINE
  8
0
 10
0
 20
0
 39
0
 70
1
 66
1
  0
VERTEX
  8
0
 10
329.80000000000001
 20
234.82441406250001
 42
1
  0
VERTEX
  8
0
 10
329.80000000000001
 20
254.82441406250001
 42
1
  0
SEQEND
  0
POLYLINE
  8
0
 10
0
 20
0
 39
0
 70
1
 66
1
  0
VERTEX
  8
0
 10
391
 20
180.30000000000001
 42
-0
  0
VERTEX
  8
0
 10
391
 20
280.30000000000001
 42
0
  0
VERTEX
  8
0
 10
410
 20
280.30000000000001
 42
1
  0
VERTEX
  8
0
 10
442
 20
280.30000000000001
 42
0
  0
VERTEX
  8
0
 10
461
 20
280.30000000000001
 42
0
  0
VERTEX
  8
0
 10
461
 20
180.30000000000001
 42
0
  0
SEQEND
  0
POLYLINE
  8
0
 10
0
 20
0
 39
0
 70
1
 66
1
  0
VERTEX
  8
0
 10
410
 20
234.82441406250001
 42
1
  0
VERTEX
  8
0
 10
410
 20
254.82441406250001
 42
1
  0
SEQEND
  0
POLYLINE
  8
0
 10
0
 20
0
 39
0
 70
1
 66
1
  0
VERTEX
  8
0
 10
471.19999999999999
 20
180.30000000000001
 42
-0
  0
VERTEX
  8
0
 10
471.19999999999999
 20
280.30000000000001
 42
0
  0
VERTEX
  8
0
 10
490.19999999999999
 20
280.30000000000001
 42
1
  0
VERTEX
  8
0
 10
522.19999999999993
 20
280.30000000000001
 42
0
  0
VERTEX
  8
0
 10
541.20000000000005
 20
280.30000000000001
 42
0
  0
VERTEX
  8
0
 10
541.20000000000005
 20
180.30000000000001
 42
0
  0
SEQEND
  0
POLYLINE
  8
0
 10
0
 20
0
 39
0
 70
1
 66
1
  0
VERTEX
  8
0
 10
490.19999999999999
 20
234.82441406250001
 42
1
  0
VERTEX
  8
0
 10
490.19999999999999
 20
254.82441406250001
 42
1
  0
SEQEND
  0
POLYLINE
  8
0
 10
0
 20
0
 39
0
 70
1
 66
1
  0
VERTEX
  8
0
 10
520.79999999999995
 20
10.199999999999999
 42
-0
  0
VERTEX
  8
0
 10
520.79999999999995
 20
110.2
 42
0
  0
VERTEX
  8
0
 10
539.79999999999995
 20
110.2
 42
1
  0
VERTEX
  8
0
 10
571.79999999999995
 20
110.2
 42
0
  0
VERTEX
  8
0
 10
590.79999999999995
 20
110.2
 42
0
  0
VERTEX
  8
0
 10
590.79999999999995
 20
10.200000000000008
 42
0
  0
SEQEND
  0
POLYLINE
  8
0
 10
0
 20
0
 39
0
 70
1
 66
1
  0
VERTEX
  8
0
 10
539.79999999999995
 20
64.724414062500003
 42
1
  0
VERTEX
  8
0
 10
539.79999999999995
 20
84.724414062500003
 42
1
  0
SEQEND
  0
POLYLINE
  8
0
 10
0
 20
0
 39
0
 70
1
 66
1
  0
VERTEX
  8
0
 10
551.39999999999998
 20
120.3
 42
-0
  0
VERTEX
  8
0
 10
551.39999999999998
 20
230.30000000000001
 42
-0
  0
VERTEX
  8
0
 10
601.39999999999998
 20
230.30000000000001
 42
-0
  0
VERTEX
  8
0
 10
601.39999999999998
 20
120.3
 42
0
  0
SEQEND
  0
POLYLINE
  8
0
 10
0
 20
0
 39
0
 70
1
 66
1
  0
VERTEX
  8
0
 10
576.39999999999998
 20
160.30000000000001
 42
1
  0
VERTEX
  8
0
 10
576.39999999999998
 20
190.30000000000001
 42
1
  0
SEQEND
  0
POLYLINE
  8
0
 10
0
 20
0
 39
0
 70
1
 66
1
  0
VERTEX
  8
0
 10
611.60000000000002
 20
10.199999999999999
 42
-0
  0
VERTEX
  8
0
 10
611.60000000000002
 20
120.2
 42
-0
  0
VERTEX
  8
0
 10
661.60000000000002
 20
120.2
 42
-0
  0
VERTEX
  8
0
 10
661.60000000000002
 20
10.200000000000005
 42
0
  0
SEQEND
  0
POLYLINE
  8
0
 10
0
 20
0
 39
0
 70
1
 66
1
  0
VERTEX
  8
0
 10
636.60000000000002
 20
50.200000000000003
 42
1
  0
VERTEX
  8
0
 10
636.60000000000002
 20
80.200000000000003
 42
1
  0
SEQEND
  0
POLYLINE
  8
0
 10
0
 20
0
 39
0
 70
1
 66
1
  0
VERTEX
  8
0
 10
611.60000000000002
 20
130.30000000000001
 42
-0
  0
VERTEX
  8
0
 10
611.60000000000002
 20
240.30000000000001
 42
-0
  0
VERTEX
  8
0
 10
661.60000000000002
 20
240.30000000000001
 42
-0
  0
VERTEX
  8
0
 10
661.60000000000002
 20
130.30000000000001
 42
0
  0
SEQEND
  0
POLYLINE
  8
0
 10
0
 20
0
 39
0
 70
1
 66
1
  0
VERTEX
  8
0
 10
636.60000000000002
 20
170.30000000000001
 42
1
  0
VERTEX
  8
0
 10
636.60000000000002
 20
200.30000000000001
 42
1
  0
SEQEND
  0
POLYLINE
  8
0
 10
0
 20
0
 39
0
 70
1
 66
1
  0
VERTEX
  8
0
 10
80.784171131282051
 20
111.39970612079458
 42
-1
  0
VERTEX
  8
0
 10
80.515827620011692
 20
49.900292630499166
 42
-1
  0
SEQEND
  0
POLYLINE
  8
0
 10
0
 20
0
 39
0
 70
1
 66
1
  0
VERTEX
  8
0
 10
80.765627067495075
 20
107.14974665195302
 42
1
  0
VERTEX
  8
0
 10
80.534371683798668
 20
54.150252099340719
 42
1
  0
SEQEND
  0
POLYLINE
  8
0
 10
0
 20
0
 39
0
 70
1
 66
1
  0
VERTEX
  8
0
 10
250.98417113128204
 20
111.39970612079458
 42
-1
  0
VERTEX
  8
0
 10
250.71582762001168
 20
49.900292630499166
 42
-1
  0
SEQEND
  0
POLYLINE
  8
0
 10
0
 20
0
 39
0
 70
1
 66
1
  0
VERTEX
  8
0
 10
250.96562706749506
 20
107.14974665195302
 42
1
  0
VERTEX
  8
0
 10
250.73437168379866
 20
54.150252099340719
 42
1
  0
SEQEND
  0
POLYLINE
  8
0
 10
0
 20
0
 39
0
 70
1
 66
1
  0
VERTEX
  8
0
 10
421.18417113128203
 20
111.39970612079458
 42
-1
  0
VERTEX
  8
0
 10
420.91582762001167
 20
49.900292630499166
 42
-1
  0
SEQEND
  0
POLYLINE
  8
0
 10
0
 20
0
 39
0
 70
1
 66
1
  0
VERTEX
  8
0
 10
421.16562706749505
 20
107.14974665195302
 42
1
  0
VERTEX
  8
0
 10
420.93437168379864
 20
54.150252099340719
 42
1
  0
SEQEND
  0
POLYLINE
  8
0
 10
0
 20
0
 39
0
 70
1
 66
1
  0
VERTEX
  8
0
 10
651.39999999999998
 20
250.40000000000001
 42
-0
  0
VERTEX
  8
0
 10
551.39999999999998
 20
250.40000000000001
 42
0
  0
VERTEX
  8
0
 10
551.39999999999998
 20
280.39999999999998
 42
0
  0
VERTEX
  8
0
 10
554.27142181396482
 20
280.39999999999998
 42
0.44424223899841309
  0
VERTEX
  8
0
 10
573.56450500488279
 20
280.39999999999998
 42
0
  0
VERTEX
  8
0
 10
591.75345840454099
 20
280.39999999999998
 42
0.44424223899841309
  0
VERTEX
  8
0
 10
611.04654159545896
 20
280.39999999999998
 42
0
  0
VERTEX
  8
0
 10
629.2354969024658
 20
280.39999999999998
 42
0.44424223899841309
  0
VERTEX
  8
0
 10
648.52858057022092
 20
280.39999999999998
 42
0
  0
VERTEX
  8
0
 10
651.39999999999998
 20
280.39999999999998
 42
0
  0
SEQEND
  0
POLYLINE
  8
0
 10
0
 20
0
 39
0
 70
1
 66
1
  0
VERTEX
  8
0
 10
630.1410202026367
 20
265.39999999999998
 42
1
  0
VERTEX
  8
0
 10
610.1410202026367
 20
265.39999999999998
 42
1
  0
SEQEND
  0
POLYLINE
  8
0
 10
0
 20
0
 39
0
 70
1
 66
1
  0
VERTEX
  8
0
 10
592.65897979736326
 20
265.39999999999998
 42
1
  0
VERTEX
  8
0
 10
572.65897979736326
 20
265.39999999999998
 42
1
  0
SEQEND
  0
ENDSEC
  0
EOF
