  0
SECTION
  2
ENTITIES
  0
POLYLINE
  8
0
 10
0
 20
0
 39
0
 70
1
 66
1
  0
VERTEX
  8
0
 10
0
 20
0
 42
-0
  0
VERTEX
  8
0
 10
500
 20
0
 42
-0
  0
VERTEX
  8
0
 10
500
 20
400
 42
-0
  0
VERTEX
  8
0
 10
0
 20
400
 42
-0
  0
SEQEND
  0
POLYLINE
  8
0
 10
0
 20
0
 39
0
 70
1
 66
1
  0
VERTEX
  8
0
 10
10.142857142857149
 20
10.142857142857142
 42
-0
  0
VERTEX
  8
0
 10
10.142857142857149
 20
16.654637404850551
 42
0.35743856430053711
  0
VERTEX
  8
0
 10
10.142857142857151
 20
38.206894465855186
 42
-0
  0
VERTEX
  8
0
 10
10.142857142857146
 20
82.078823634556358
 42
0.35743856430053711
  0
VERTEX
  8
0
 10
10.142857142857148
 20
103.63107735770089
 42
-0
  0
VERTEX
  8
0
 10
10.142857142857144
 20
110.14285714285714
 42
-0
  0
VERTEX
  8
0
 10
50.142857142857139
 20
110.14285714285714
 42
-0
  0
VERTEX
  8
0
 10
50.142857142857139
 20
103.63107735770089
 42
0.35743856430053711
  0
VERTEX
  8
0
 10
50.142857142857139
 20
82.078823634556358
 42
-0
  0
VERTEX
  8
0
 10
50.142857142857153
 20
38.206894465855193
 42
0.35743856430053711
  0
VERTEX
  8
0
 10
50.142857142857153
 20
16.654637404850554
 42
-0
  0
VERTEX
  8
0
 10
50.142857142857153
 20
10.142857142857148
 42
0
  0
SEQEND
  0
POLYLINE
  8
0
 10
0
 20
0
 39
0
 70
1
 66
1
  0
VERTEX
  8
0
 10
30.142857142857146
 20
49.142857142857139
 42
1
  0
VERTEX
  8
0
 10
30.142857142857146
 20
71.142857142857139
 42
1
  0
SEQEND
  0
POLYLINE
  8
0
 10
0
 20
0
 39
0
 70
1
 66
1
  0
VERTEX
  8
0
 10
10.142857142857149
 20
120.21428571428571
 42
-0
  0
VERTEX
  8
0
 10
10.142857142857149
 20
126.72606597627912
 42
0.35743856430053711
  0
VERTEX
  8
0
 10
10.142857142857151
 20
148.27832303728377
 42
-0
  0
VERTEX
  8
0
 10
10.142857142857146
 20
192.15025220598494
 42
0.35743856430053711
  0
VERTEX
  8
0
 10
10.142857142857148
 20
213.70250592912947
 42
-0
  0
VERTEX
  8
0
 10
10.142857142857144
 20
220.21428571428572
 42
-0
  0
VERTEX
  8
0
 10
50.142857142857139
 20
220.21428571428572
 42
-0
  0
VERTEX
  8
0
 10
50.142857142857139
 20
213.70250592912947
 42
0.35743856430053711
  0
VERTEX
  8
0
 10
50.142857142857139
 20
192.15025220598494
 42
-0
  0
VERTEX
  8
0
 10
50.142857142857153
 20
148.27832303728377
 42
0.35743856430053711
  0
VERTEX
  8
0
 10
50.142857142857153
 20
126.72606597627912
 42
-0
  0
VERTEX
  8
0
 10
50.142857142857153
 20
120.21428571428571
 42
0
  0
SEQEND
  0
POLYLINE
  8
0
 10
0
 20
0
 39
0
 70
1
 66
1
  0
VERTEX
  8
0
 10
30.142857142857146
 20
159.21428571428572
 42
1
  0
VERTEX
  8
0
 10
30.142857142857146
 20
181.21428571428572
 42
1
  0
SEQEND
  0
POLYLINE
  8
0
 10
0
 20
0
 39
0
 70
1
 66
1
  0
VERTEX
  8
0
 10
10.142857142857149
 20
230.28571428571428
 42
-0
  0
VERTEX
  8
0
 10
10.142857142857149
 20
236.79749454770769
 42
0.35743856430053711
  0
VERTEX
  8
0
 10
10.142857142857151
 20
258.34975160871232
 42
-0
  0
VERTEX
  8
0
 10
10.142857142857146
 20
302.2216807774135
 42
0.35743856430053711
  0
VERTEX
  8
0
 10
10.142857142857148
 20
323.77393450055803
 42
-0
  0
VERTEX
  8
0
 10
10.142857142857144
 20
330.28571428571428
 42
-0
  0
VERTEX
  8
0
 10
50.142857142857139
 20
330.28571428571428
 42
-0
  0
VERTEX
  8
0
 10
50.142857142857139
 20
323.77393450055803
 42
0.35743856430053711
  0
VERTEX
  8
0
 10
50.142857142857139
 20
302.2216807774135
 42
-0
  0
VERTEX
  8
0
 10
50.142857142857153
 20
258.34975160871232
 42
0.35743856430053711
  0
VERTEX
  8
0
 10
50.142857142857153
 20
236.79749454770769
 42
-0
  0
VERTEX
  8
0
 10
50.142857142857153
 20
230.28571428571428
 42
0
  0
SEQEND
  0
POLYLINE
  8
0
 10
0
 20
0
 39
0
 70
1
 66
1
  0
VERTEX
  8
0
 10
30.142857142857146
 20
269.28571428571428
 42
1
  0
VERTEX
  8
0
 10
30.142857142857146
 20
291.28571428571428
 42
1
  0
SEQEND
  0
POLYLINE
  8
0
 10
0
 20
0
 39
0
 70
1
 66
1
  0
VERTEX
  8
0
 10
210.65449366196646
 20
352.71285249582547
 42
-1
  0
VERTEX
  8
0
 10
209.34550092406226
 20
52.715713518774692
 42
-1
  0
SEQEND
  0
POLYLINE
  8
0
 10
0
 20
0
 39
0
 70
1
 66
1
  0
VERTEX
  8
0
 10
300.85263423552334
 20
278.31858323157712
 42
-0
  0
VERTEX
  8
0
 10
210.51773645126377
 20
321.37060684595895
 42
-0
  0
VERTEX
  8
0
 10
174.54022632976822
 20
300.19865895560588
 42
-0
  0
VERTEX
  8
0
 10
174.28715440044007
 20
242.19921208670939
 42
-0
  0
VERTEX
  8
0
 10
209.99999729301436
 20
202.71428300730008
 42
0
  0
VERTEX
  8
0
 10
173.94394760724455
 20
163.54250677832397
 42
0
  0
VERTEX
  8
0
 10
173.69087567791641
 20
105.5430599094275
 42
0
  0
VERTEX
  8
0
 10
209.48225813476495
 20
84.057959168641219
 42
0
  0
VERTEX
  8
0
 10
300.18941124831855
 20
126.32003281653805
 42
0
  0
SEQEND
  0
POLYLINE
  8
0
 10
0
 20
0
 39
0
 70
1
 66
1
  0
VERTEX
  8
0
 10
110.14285714285714
 20
340.35714285714283
 42
-0
  0
VERTEX
  8
0
 10
103.63107688086373
 20
340.35714285714283
 42
0.35743856430053711
  0
VERTEX
  8
0
 10
82.078819819859092
 20
340.35714285714283
 42
-0
  0
VERTEX
  8
0
 10
38.20689065115792
 20
340.35714285714283
 42
0.35743856430053711
  0
VERTEX
  8
0
 10
16.654636928013389
 20
340.35714285714283
 42
-0
  0
VERTEX
  8
0
 10
10.142857142857139
 20
340.35714285714283
 42
-0
  0
VERTEX
  8
0
 10
10.142857142857139
 20
380.35714285714283
 42
-0
  0
VERTEX
  8
0
 10
16.654636928013389
 20
380.35714285714283
 42
0.35743856430053711
  0
VERTEX
  8
0
 10
38.20689065115792
 20
380.35714285714283
 42
-0
  0
VERTEX
  8
0
 10
82.078819819859092
 20
380.35714285714283
 42
0.35743856430053711
  0
VERTEX
  8
0
 10
103.63107688086373
 20
380.35714285714283
 42
-0
  0
VERTEX
  8
0
 10
110.14285714285714
 20
380.35714285714283
 42
0
  0
SEQEND
  0
POLYLINE
  8
0
 10
0
 20
0
 39
0
 70
1
 66
1
  0
VERTEX
  8
0
 10
71.142857142857139
 20
360.35714285714283
 42
1
  0
VERTEX
  8
0
 10
49.142857142857139
 20
360.35714285714283
 42
1
  0
SEQEND
  0
POLYLINE
  8
0
 10
0
 20
0
 39
0
 70
1
 66
1
  0
VERTEX
  8
0
 10
160.28571428571428
 20
10.142857142857142
 42
-0
  0
VERTEX
  8
0
 10
153.77393402372087
 20
10.142857142857142
 42
0.35743856430053711
  0
VERTEX
  8
0
 10
132.22167696271623
 20
10.142857142857146
 42
-0
  0
VERTEX
  8
0
 10
88.349747794015059
 20
10.142857142857142
 42
0.35743856430053711
  0
VERTEX
  8
0
 10
66.797494070870528
 20
10.142857142857146
 42
-0
  0
VERTEX
  8
0
 10
60.285714285714278
 20
10.142857142857142
 42
-0
  0
VERTEX
  8
0
 10
60.285714285714278
 20
50.142857142857139
 42
-0
  0
VERTEX
  8
0
 10
66.797494070870528
 20
50.142857142857139
 42
0.35743856430053711
  0
VERTEX
  8
0
 10
88.349747794015059
 20
50.142857142857139
 42
-0
  0
VERTEX
  8
0
 10
132.22167696271623
 20
50.142857142857139
 42
0.35743856430053711
  0
VERTEX
  8
0
 10
153.77393402372087
 20
50.142857142857139
 42
-0
  0
VERTEX
  8
0
 10
160.28571428571428
 20
50.142857142857139
 42
0
  0
SEQEND
  0
POLYLINE
  8
0
 10
0
 20
0
 39
0
 70
1
 66
1
  0
VERTEX
  8
0
 10
121.28571428571428
 20
30.142857142857142
 42
1
  0
VERTEX
  8
0
 10
99.285714285714278
 20
30.142857142857142
 42
1
  0
SEQEND
  0
POLYLINE
  8
0
 10
0
 20
0
 39
0
 70
1
 66
1
  0
VERTEX
  8
0
 10
215.57142857142858
 20
119.78571428571429
 42
-0
  0
VERTEX
  8
0
 10
215.57142857142858
 20
126.2974945477077
 42
0.35743856430053711
  0
VERTEX
  8
0
 10
215.57142857142858
 20
147.84975160871232
 42
-0
  0
VERTEX
  8
0
 10
215.57142857142858
 20
191.7216807774135
 42
0.35743856430053711
  0
VERTEX
  8
0
 10
215.57142857142858
 20
213.27393450055803
 42
-0
  0
VERTEX
  8
0
 10
215.57142857142858
 20
219.78571428571428
 42
-0
  0
VERTEX
  8
0
 10
255.57142857142858
 20
219.78571428571428
 42
-0
  0
VERTEX
  8
0
 10
255.57142857142858
 20
213.27393450055803
 42
0.35743856430053711
  0
VERTEX
  8
0
 10
255.57142857142858
 20
191.7216807774135
 42
-0
  0
VERTEX
  8
0
 10
255.57142857142858
 20
147.84975160871235
 42
0.35743856430053711
  0
VERTEX
  8
0
 10
255.57142857142858
 20
126.2974945477077
 42
-0
  0
VERTEX
  8
0
 10
255.57142857142858
 20
119.78571428571429
 42
0
  0
SEQEND
  0
POLYLINE
  8
0
 10
0
 20
0
 39
0
 70
1
 66
1
  0
VERTEX
  8
0
 10
235.57142857142858
 20
158.78571428571428
 42
1
  0
VERTEX
  8
0
 10
235.57142857142858
 20
180.78571428571428
 42
1
  0
SEQEND
  0
POLYLINE
  8
0
 10
0
 20
0
 39
0
 70
1
 66
1
  0
VERTEX
  8
0
 10
358.92857142857144
 20
10.142857142857142
 42
-0
  0
VERTEX
  8
0
 10
352.41679116657804
 20
10.142857142857142
 42
0.35743856430053711
  0
VERTEX
  8
0
 10
330.8645341055734
 20
10.142857142857146
 42
-0
  0
VERTEX
  8
0
 10
286.99260493687223
 20
10.142857142857142
 42
0.35743856430053711
  0
VERTEX
  8
0
 10
265.44035121372769
 20
10.142857142857146
 42
-0
  0
VERTEX
  8
0
 10
258.92857142857144
 20
10.142857142857142
 42
-0
  0
VERTEX
  8
0
 10
258.92857142857144
 20
50.142857142857139
 42
-0
  0
VERTEX
  8
0
 10
265.44035121372769
 20
50.142857142857139
 42
0.35743856430053711
  0
VERTEX
  8
0
 10
286.99260493687223
 20
50.142857142857139
 42
-0
  0
VERTEX
  8
0
 10
330.8645341055734
 20
50.142857142857139
 42
0.35743856430053711
  0
VERTEX
  8
0
 10
352.41679116657804
 20
50.142857142857139
 42
-0
  0
VERTEX
  8
0
 10
358.92857142857144
 20
50.142857142857139
 42
0
  0
SEQEND
  0
POLYLINE
  8
0
 10
0
 20
0
 39
0
 70
1
 66
1
  0
VERTEX
  8
0
 10
319.92857142857144
 20
30.142857142857142
 42
1
  0
VERTEX
  8
0
 10
297.92857142857144
 20
30.142857142857142
 42
1
  0
SEQEND
  0
POLYLINE
  8
0
 10
0
 20
0
 39
0
 70
1
 66
1
  0
VERTEX
  8
0
 10
373.42857142857144
 20
349.85714285714283
 42
-0
  0
VERTEX
  8
0
 10
366.91679116657804
 20
349.85714285714283
 42
0.35743856430053711
  0
VERTEX
  8
0
 10
345.3645341055734
 20
349.85714285714283
 42
-0
  0
VERTEX
  8
0
 10
301.49260493687223
 20
349.85714285714283
 42
0.35743856430053711
  0
VERTEX
  8
0
 10
279.94035121372769
 20
349.85714285714283
 42
-0
  0
VERTEX
  8
0
 10
273.42857142857144
 20
349.85714285714283
 42
-0
  0
VERTEX
  8
0
 10
273.42857142857144
 20
389.85714285714283
 42
-0
  0
VERTEX
  8
0
 10
279.94035121372769
 20
389.85714285714283
 42
0.35743856430053711
  0
VERTEX
  8
0
 10
301.49260493687223
 20
389.85714285714283
 42
-0
  0
VERTEX
  8
0
 10
345.3645341055734
 20
389.85714285714283
 42
0.35743856430053711
  0
VERTEX
  8
0
 10
366.91679116657804
 20
389.85714285714283
 42
-0
  0
VERTEX
  8
0
 10
373.42857142857144
 20
389.85714285714283
 42
0
  0
SEQEND
  0
POLYLINE
  8
0
 10
0
 20
0
 39
0
 70
1
 66
1
  0
VERTEX
  8
0
 10
334.42857142857144
 20
369.85714285714283
 42
1
  0
VERTEX
  8
0
 10
312.42857142857144
 20
369.85714285714283
 42
1
  0
SEQEND
  0
POLYLINE
  8
0
 10
0
 20
0
 39
0
 70
1
 66
1
  0
VERTEX
  8
0
 10
364.14285714285717
 20
58.928571428571431
 42
-0
  0
VERTEX
  8
0
 10
364.14285714285717
 20
65.440351690564839
 42
0.35743856430053711
  0
VERTEX
  8
0
 10
364.14285714285717
 20
86.992608751569477
 42
-0
  0
VERTEX
  8
0
 10
364.14285714285717
 20
130.86453792027066
 42
0.35743856430053711
  0
VERTEX
  8
0
 10
364.14285714285717
 20
152.41679164341519
 42
-0
  0
VERTEX
  8
0
 10
364.14285714285717
 20
158.92857142857144
 42
-0
  0
VERTEX
  8
0
 10
404.14285714285717
 20
158.92857142857144
 42
-0
  0
VERTEX
  8
0
 10
404.14285714285717
 20
152.41679164341519
 42
0.35743856430053711
  0
VERTEX
  8
0
 10
404.14285714285717
 20
130.86453792027066
 42
-0
  0
VERTEX
  8
0
 10
404.14285714285717
 20
86.992608751569477
 42
0.35743856430053711
  0
VERTEX
  8
0
 10
404.14285714285717
 20
65.440351690564839
 42
-0
  0
VERTEX
  8
0
 10
404.14285714285717
 20
58.928571428571438
 42
0
  0
SEQEND
  0
POLYLINE
  8
0
 10
0
 20
0
 39
0
 70
1
 66
1
  0
VERTEX
  8
0
 10
384.14285714285717
 20
97.928571428571431
 42
1
  0
VERTEX
  8
0
 10
384.14285714285717
 20
119.92857142857143
 42
1
  0
SEQEND
  0
POLYLINE
  8
0
 10
0
 20
0
 39
0
 70
1
 66
1
  0
VERTEX
  8
0
 10
365.92857142857144
 20
239.5
 42
-0
  0
VERTEX
  8
0
 10
365.92857142857144
 20
246.01178026199341
 42
0.35743856430053711
  0
VERTEX
  8
0
 10
365.92857142857144
 20
267.56403732299805
 42
-0
  0
VERTEX
  8
0
 10
365.92857142857144
 20
311.43596649169922
 42
0.35743856430053711
  0
VERTEX
  8
0
 10
365.92857142857144
 20
332.98822021484375
 42
-0
  0
VERTEX
  8
0
 10
365.92857142857144
 20
339.5
 42
-0
  0
VERTEX
  8
0
 10
405.92857142857144
 20
339.5
 42
-0
  0
VERTEX
  8
0
 10
405.92857142857144
 20
332.98822021484375
 42
0.35743856430053711
  0
VERTEX
  8
0
 10
405.92857142857144
 20
311.43596649169922
 42
-0
  0
VERTEX
  8
0
 10
405.92857142857144
 20
267.56403732299805
 42
0.35743856430053711
  0
VERTEX
  8
0
 10
405.92857142857144
 20
246.01178026199341
 42
-0
  0
VERTEX
  8
0
 10
405.92857142857144
 20
239.5
 42
0
  0
SEQEND
  0
POLYLINE
  8
0
 10
0
 20
0
 39
0
 70
1
 66
1
  0
VERTEX
  8
0
 10
385.92857142857144
 20
278.5
 42
1
  0
VERTEX
  8
0
 10
385.92857142857144
 20
300.5
 42
1
  0
SEQEND
  0
POLYLINE
  8
0
 10
0
 20
0
 39
0
 70
1
 66
1
  0
VERTEX
  8
0
 10
190.5562236017781
 20
255.20929814313712
 42
-0.07530849426984787
  0
VERTEX
  8
0
 10
190.55622306036099
 20
262.09860713211037
 42
0.34488147497177124
  0
VERTEX
  8
0
 10
189.34414814434194
 20
264.24590212072349
 42
0
  0
VERTEX
  8
0
 10
185.11731764837123
 20
265.99671266317887
 42
-0.38417559862136841
  0
VERTEX
  8
0
 10
184.54149054257732
 20
267.20564850654671
 42
-0.051863282918930054
  0
VERTEX
  8
0
 10
186.91676743374649
 20
272.94007410915253
 42
-0.38417559862136841
  0
VERTEX
  8
0
 10
188.17878505750514
 20
273.38774869680924
 42
-0
  0
VERTEX
  8
0
 10
192.40561555347585
 20
271.63693815435386
 42
0.34488147497177124
  0
VERTEX
  8
0
 10
194.78104843532293
 20
272.29823770435723
 42
-0.075308471918106079
  0
VERTEX
  8
0
 10
199.65252420931995
 20
277.16971510569545
 42
0.34488147497177124
  0
VERTEX
  8
0
 10
200.31382516501395
 20
279.54514855696607
 42
0
  0
VERTEX
  8
0
 10
198.56301599433965
 20
283.77197938702665
 42
-0.38417559862136841
  0
VERTEX
  8
0
 10
199.01068917630181
 20
285.0339963932048
 42
-0.051863282918930054
  0
VERTEX
  8
0
 10
204.74511654364051
 20
287.4092739470496
 42
-0.38417559862136841
  0
VERTEX
  8
0
 10
205.95405255561957
 20
286.83344692668823
 42
-0
  0
VERTEX
  8
0
 10
207.70486172629387
 20
282.60661609662765
 42
0.34488147497177124
  0
VERTEX
  8
0
 10
209.85215559480781
 20
281.39453996611803
 42
-0.075308538973331451
  0
VERTEX
  8
0
 10
216.74146722702153
 20
281.39453941266913
 42
0.34488147497177124
  0
VERTEX
  8
0
 10
218.88875957239418
 20
282.60661542355422
 42
0
  0
VERTEX
  8
0
 10
220.63957011484956
 20
286.83344591952493
 42
-0.38417559862136841
  0
VERTEX
  8
0
 10
221.8485059582174
 20
287.40927302531884
 42
-0.051863282918930054
  0
VERTEX
  8
0
 10
227.58293156082323
 20
285.03399613414967
 42
-0.38417559862136841
  0
VERTEX
  8
0
 10
228.03060614847993
 20
283.77197851039102
 42
-0
  0
VERTEX
  8
0
 10
226.27979560602455
 20
279.54514801442031
 42
0.34488147497177124
  0
VERTEX
  8
0
 10
226.94109515602793
 20
277.16971513257323
 42
-0.075308538973331451
  0
VERTEX
  8
0
 10
231.81257447069589
 20
272.29823650154981
 42
0.34488147497177124
  0
VERTEX
  8
0
 10
234.18800600863676
 20
271.63693840288221
 42
0
  0
VERTEX
  8
0
 10
238.41483683869734
 20
273.38774757355651
 42
-0.38417559862136841
  0
VERTEX
  8
0
 10
239.6768538448755
 20
272.94007439159435
 42
-0.051863282918930054
  0
VERTEX
  8
0
 10
242.05213139872029
 20
267.20564702425565
 42
-0.38417559862136841
  0
VERTEX
  8
0
 10
241.47630437835892
 20
265.99671101227659
 42
-0
  0
VERTEX
  8
0
 10
237.24947354829834
 20
264.24590184160229
 42
0.34488147497177124
  0
VERTEX
  8
0
 10
236.03739741778875
 20
262.09860797308835
 42
-0.075308538973331451
  0
VERTEX
  8
0
 10
236.03739686433983
 20
255.20929634087463
 42
0.34488144516944885
  0
VERTEX
  8
0
 10
237.24947287522491
 20
253.06200399550198
 42
0
  0
VERTEX
  8
0
 10
241.47630337119563
 20
251.3111934530466
 42
-0.38417559862136841
  0
VERTEX
  8
0
 10
242.05213047698953
 20
250.10225760967876
 42
-0.051863282918930054
  0
VERTEX
  8
0
 10
239.67685358582037
 20
244.36783200707293
 42
-0.38417559862136841
  0
VERTEX
  8
0
 10
238.41483596206172
 20
243.92015741941623
 42
-0
  0
VERTEX
  8
0
 10
234.188005466091
 20
245.67096796187161
 42
0.34488144516944885
  0
VERTEX
  8
0
 10
231.81257258424392
 20
245.00966841186823
 42
-0.075308538973331451
  0
VERTEX
  8
0
 10
226.94109395322053
 20
240.13818909720027
 42
0.34488144516944885
  0
VERTEX
  8
0
 10
226.2797958545529
 20
237.7627575592594
 42
0
  0
VERTEX
  8
0
 10
228.0306050252272
 20
233.53592672919882
 42
-0.38417559862136841
  0
VERTEX
  8
0
 10
227.58293184326504
 20
232.27390972302067
 42
-0.051863282918930054
  0
VERTEX
  8
0
 10
221.84850447592635
 20
229.89863216917587
 42
-0.38417559862136841
  0
VERTEX
  8
0
 10
220.63956846394728
 20
230.47445918953724
 42
-0
  0
VERTEX
  8
0
 10
218.88875929327298
 20
234.70129001959782
 42
0.34488147497177124
  0
VERTEX
  8
0
 10
216.74146542475904
 20
235.91336615010741
 42
-0.075308538973331451
  0
VERTEX
  8
0
 10
209.85215379254532
 20
235.91336670355633
 42
0.34488147497177124
  0
VERTEX
  8
0
 10
207.70486144717268
 20
234.70129069267125
 42
0
  0
VERTEX
  8
0
 10
205.95405090471729
 20
230.47446019670053
 42
-0.38417559862136841
  0
VERTEX
  8
0
 10
204.74511506134945
 20
229.89863309090663
 42
-0.051863271743059158
  0
VERTEX
  8
0
 10
199.01069078036386
 20
232.27390943464277
 42
-0.38417559862136841
  0
VERTEX
  8
0
 10
198.56301487108692
 20
233.53592760583444
 42
-0
  0
VERTEX
  8
0
 10
200.3138254135423
 20
237.76275810180516
 42
0.34488147497177124
  0
VERTEX
  8
0
 10
199.65252586353893
 20
240.13819098365224
 42
-0.075308501720428467
  0
VERTEX
  8
0
 10
194.78104742995112
 20
245.00966924972028
 42
0.34488147497177124
  0
VERTEX
  8
0
 10
192.40561501093009
 20
245.67096771334326
 42
0
  0
VERTEX
  8
0
 10
188.17878418086951
 20
243.92015854266896
 42
-0.38417559862136841
  0
VERTEX
  8
0
 10
186.91676717469136
 20
244.36783172463112
 42
-0.051863253116607666
  0
VERTEX
  8
0
 10
184.54149065309616
 20
250.10225659989879
 42
-0.38417559862136841
  0
VERTEX
  8
0
 10
185.11731664120794
 20
251.31119510394888
 42
-0
  0
VERTEX
  8
0
 10
189.34414747126851
 20
253.06200427462318
 42
0.34488147497177124
  0
SEQEND
  0
POLYLINE
  8
0
 10
0
 20
0
 39
0
 70
1
 66
1
  0
VERTEX
  8
0
 10
219.41974532805125
 20
273.43602512537348
 42
1
  0
VERTEX
  8
0
 10
207.1738756915156
 20
243.87188099085199
 42
1
  0
SEQEND
  0
POLYLINE
  8
0
 10
0
 20
0
 39
0
 70
1
 66
1
  0
VERTEX
  8
0
 10
376.05622360177813
 20
196.9950124288514
 42
-0.07530849426984787
  0
VERTEX
  8
0
 10
376.05622306036099
 20
203.88432141782465
 42
0.34488147497177124
  0
VERTEX
  8
0
 10
374.84414814434194
 20
206.03161640643776
 42
0
  0
VERTEX
  8
0
 10
370.61731764837123
 20
207.78242694889315
 42
-0.38417559862136841
  0
VERTEX
  8
0
 10
370.04149054257732
 20
208.99136279226099
 42
-0.051863282918930054
  0
VERTEX
  8
0
 10
372.41676743374649
 20
214.72578839486681
 42
-0.38417559862136841
  0
VERTEX
  8
0
 10
373.67878505750514
 20
215.17346298252352
 42
-0
  0
VERTEX
  8
0
 10
377.90561555347585
 20
213.42265244006813
 42
0.34488147497177124
  0
VERTEX
  8
0
 10
380.28104843532293
 20
214.08395199007151
 42
-0.075308471918106079
  0
VERTEX
  8
0
 10
385.15252420931995
 20
218.95542939140972
 42
0.34488147497177124
  0
VERTEX
  8
0
 10
385.81382516501395
 20
221.33086284268035
 42
0
  0
VERTEX
  8
0
 10
384.06301599433965
 20
225.55769367274092
 42
-0.38417559862136841
  0
VERTEX
  8
0
 10
384.51068917630181
 20
226.81971067891908
 42
-0.051863282918930054
  0
VERTEX
  8
0
 10
390.24511654364051
 20
229.19498823276388
 42
-0.38417559862136841
  0
VERTEX
  8
0
 10
391.45405255561957
 20
228.6191612124025
 42
-0
  0
VERTEX
  8
0
 10
393.20486172629387
 20
224.39233038234192
 42
0.34488147497177124
  0
VERTEX
  8
0
 10
395.35215559480781
 20
223.18025425183234
 42
-0.075308538973331451
  0
VERTEX
  8
0
 10
402.24146722702153
 20
223.18025369838341
 42
0.34488147497177124
  0
VERTEX
  8
0
 10
404.38875957239418
 20
224.39232970926849
 42
0
  0
VERTEX
  8
0
 10
406.13957011484956
 20
228.61916020523921
 42
-0.38417559862136841
  0
VERTEX
  8
0
 10
407.3485059582174
 20
229.19498731103312
 42
-0.051863282918930054
  0
VERTEX
  8
0
 10
413.08293156082323
 20
226.81971041986395
 42
-0.38417559862136841
  0
VERTEX
  8
0
 10
413.53060614847993
 20
225.5576927961053
 42
-0
  0
VERTEX
  8
0
 10
411.77979560602455
 20
221.33086230013458
 42
0.34488147497177124
  0
VERTEX
  8
0
 10
412.44109515602793
 20
218.95542941828751
 42
-0.075308538973331451
  0
VERTEX
  8
0
 10
417.31257447069589
 20
214.08395078726411
 42
0.34488147497177124
  0
VERTEX
  8
0
 10
419.68800600863676
 20
213.42265268859649
 42
0
  0
VERTEX
  8
0
 10
423.91483683869734
 20
215.17346185927079
 42
-0.38417559862136841
  0
VERTEX
  8
0
 10
425.1768538448755
 20
214.72578867730863
 42
-0.051863282918930054
  0
VERTEX
  8
0
 10
427.55213139872029
 20
208.99136130996993
 42
-0.38417559862136841
  0
VERTEX
  8
0
 10
426.97630437835892
 20
207.78242529799087
 42
-0
  0
VERTEX
  8
0
 10
422.74947354829834
 20
206.03161612731657
 42
0.34488147497177124
  0
VERTEX
  8
0
 10
421.53739741778872
 20
203.88432225880263
 42
-0.075308538973331451
  0
VERTEX
  8
0
 10
421.53739686433983
 20
196.99501062658891
 42
0.34488144516944885
  0
VERTEX
  8
0
 10
422.74947287522491
 20
194.84771828121626
 42
0
  0
VERTEX
  8
0
 10
426.97630337119563
 20
193.09690773876088
 42
-0.38417559862136841
  0
VERTEX
  8
0
 10
427.55213047698953
 20
191.88797189539304
 42
-0.051863282918930054
  0
VERTEX
  8
0
 10
425.17685358582037
 20
186.15354629278721
 42
-0.38417559862136841
  0
VERTEX
  8
0
 10
423.91483596206172
 20
185.70587170513051
 42
-0
  0
VERTEX
  8
0
 10
419.688005466091
 20
187.45668224758589
 42
0.34488144516944885
  0
VERTEX
  8
0
 10
417.31257258424392
 20
186.79538269758251
 42
-0.075308538973331451
  0
VERTEX
  8
0
 10
412.4410939532205
 20
181.92390338291455
 42
0.34488144516944885
  0
VERTEX
  8
0
 10
411.7797958545529
 20
179.54847184497368
 42
0
  0
VERTEX
  8
0
 10
413.5306050252272
 20
175.3216410149131
 42
-0.38417559862136841
  0
VERTEX
  8
0
 10
413.08293184326504
 20
174.05962400873494
 42
-0.051863282918930054
  0
VERTEX
  8
0
 10
407.34850447592635
 20
171.68434645489015
 42
-0.38417559862136841
  0
VERTEX
  8
0
 10
406.13956846394728
 20
172.26017347525152
 42
-0
  0
VERTEX
  8
0
 10
404.38875929327298
 20
176.4870043053121
 42
0.34488147497177124
  0
VERTEX
  8
0
 10
402.24146542475904
 20
177.69908043582168
 42
-0.075308538973331451
  0
VERTEX
  8
0
 10
395.35215379254532
 20
177.69908098927061
 42
0.34488147497177124
  0
VERTEX
  8
0
 10
393.20486144717268
 20
176.48700497838553
 42
0
  0
VERTEX
  8
0
 10
391.45405090471729
 20
172.26017448241481
 42
-0.38417559862136841
  0
VERTEX
  8
0
 10
390.24511506134945
 20
171.68434737662091
 42
-0.051863271743059158
  0
VERTEX
  8
0
 10
384.51069078036386
 20
174.05962372035705
 42
-0.38417559862136841
  0
VERTEX
  8
0
 10
384.06301487108692
 20
175.32164189154872
 42
-0
  0
VERTEX
  8
0
 10
385.8138254135423
 20
179.54847238751944
 42
0.34488147497177124
  0
VERTEX
  8
0
 10
385.15252586353893
 20
181.92390526936651
 42
-0.075308501720428467
  0
VERTEX
  8
0
 10
380.28104742995112
 20
186.79538353543455
 42
0.34488147497177124
  0
VERTEX
  8
0
 10
377.90561501093009
 20
187.45668199905754
 42
0
  0
VERTEX
  8
0
 10
373.67878418086951
 20
185.70587282838324
 42
-0.38417559862136841
  0
VERTEX
  8
0
 10
372.41676717469136
 20
186.15354601034539
 42
-0.051863253116607666
  0
VERTEX
  8
0
 10
370.04149065309616
 20
191.88797088561307
 42
-0.38417559862136841
  0
VERTEX
  8
0
 10
370.61731664120794
 20
193.09690938966315
 42
-0
  0
VERTEX
  8
0
 10
374.84414747126851
 20
194.84771856033746
 42
0.34488147497177124
  0
SEQEND
  0
POLYLINE
  8
0
 10
0
 20
0
 39
0
 70
1
 66
1
  0
VERTEX
  8
0
 10
404.91974532805125
 20
215.22173941108775
 42
1
  0
VERTEX
  8
0
 10
392.6738756915156
 20
185.65759527656627
 42
1
  0
SEQEND
  0
POLYLINE
  8
0
 10
0
 20
0
 39
0
 70
1
 66
1
  0
VERTEX
  8
0
 10
416.27050931606379
 20
35.495012428851389
 42
-0.07530849426984787
  0
VERTEX
  8
0
 10
416.27050877464671
 20
42.384321417824644
 42
0.34488147497177124
  0
VERTEX
  8
0
 10
415.05843385862767
 20
44.531616406437756
 42
0
  0
VERTEX
  8
0
 10
410.83160336265695
 20
46.282426948893139
 42
-0.38417559862136841
  0
VERTEX
  8
0
 10
410.25577625686304
 20
47.491362792260979
 42
-0.051863282918930054
  0
VERTEX
  8
0
 10
412.63105314803221
 20
53.225788394866804
 42
-0.38417559862136841
  0
VERTEX
  8
0
 10
413.89307077179086
 20
53.67346298252351
 42
-0
  0
VERTEX
  8
0
 10
418.11990126776158
 20
51.922652440068127
 42
0.34488147497177124
  0
VERTEX
  8
0
 10
420.49533414960865
 20
52.583951990071505
 42
-0.075308471918106079
  0
VERTEX
  8
0
 10
425.36680992360567
 20
57.455429391409716
 42
0.34488147497177124
  0
VERTEX
  8
0
 10
426.02811087929967
 20
59.830862842680339
 42
0
  0
VERTEX
  8
0
 10
424.27730170862537
 20
64.057693672740925
 42
-0.38417559862136841
  0
VERTEX
  8
0
 10
424.72497489058753
 20
65.31971067891908
 42
-0.051863282918930054
  0
VERTEX
  8
0
 10
430.45940225792623
 20
67.694988232763876
 42
-0.38417559862136841
  0
VERTEX
  8
0
 10
431.66833826990529
 20
67.119161212402503
 42
-0
  0
VERTEX
  8
0
 10
433.41914744057959
 20
62.892330382341918
 42
0.34488147497177124
  0
VERTEX
  8
0
 10
435.56644130909353
 20
61.680254251832331
 42
-0.075308538973331451
  0
VERTEX
  8
0
 10
442.45575294130725
 20
61.680253698383389
 42
0.34488147497177124
  0
VERTEX
  8
0
 10
444.6030452866799
 20
62.892329709268488
 42
0
  0
VERTEX
  8
0
 10
446.35385582913528
 20
67.119160205239211
 42
-0.38417559862136841
  0
VERTEX
  8
0
 10
447.56279167250312
 20
67.694987311033088
 42
-0.051863282918930054
  0
VERTEX
  8
0
 10
453.29721727510895
 20
65.319710419863924
 42
-0.38417559862136841
  0
VERTEX
  8
0
 10
453.74489186276566
 20
64.0576927961053
 42
-0
  0
VERTEX
  8
0
 10
451.99408132031027
 20
59.830862300134577
 42
0.34488147497177124
  0
VERTEX
  8
0
 10
452.65538087031365
 20
57.455429418287515
 42
-0.075308538973331451
  0
VERTEX
  8
0
 10
457.52686018498162
 20
52.583950787264108
 42
0.34488147497177124
  0
VERTEX
  8
0
 10
459.90229172292248
 20
51.922652688596479
 42
0
  0
VERTEX
  8
0
 10
464.12912255298306
 20
53.67346185927078
 42
-0.38417559862136841
  0
VERTEX
  8
0
 10
465.39113955916122
 20
53.225788677308621
 42
-0.051863282918930054
  0
VERTEX
  8
0
 10
467.76641711300601
 20
47.491361309969925
 42
-0.38417559862136841
  0
VERTEX
  8
0
 10
467.19059009264464
 20
46.282425297990862
 42
-0
  0
VERTEX
  8
0
 10
462.96375926258406
 20
44.53161612731656
 42
0.34488147497177124
  0
VERTEX
  8
0
 10
461.7516831320745
 20
42.384322258802619
 42
-0.075308538973331451
  0
VERTEX
  8
0
 10
461.75168257862555
 20
35.4950106265889
 42
0.34488144516944885
  0
VERTEX
  8
0
 10
462.96375858951063
 20
33.347718281216252
 42
0
  0
VERTEX
  8
0
 10
467.19058908548135
 20
31.596907738760869
 42
-0.38417559862136841
  0
VERTEX
  8
0
 10
467.76641619127525
 20
30.387971895393029
 42
-0.051863282918930054
  0
VERTEX
  8
0
 10
465.39113930010609
 20
24.653546292787205
 42
-0.38417559862136841
  0
VERTEX
  8
0
 10
464.12912167634744
 20
24.205871705130498
 42
-0
  0
VERTEX
  8
0
 10
459.90229118037672
 20
25.956682247585881
 42
0.34488144516944885
  0
VERTEX
  8
0
 10
457.52685829852965
 20
25.295382697582504
 42
-0.075308538973331451
  0
VERTEX
  8
0
 10
452.65537966750628
 20
20.423903382914538
 42
0.34488144516944885
  0
VERTEX
  8
0
 10
451.99408156883862
 20
18.048471844973669
 42
0
  0
VERTEX
  8
0
 10
453.74489073951293
 20
13.821641014913091
 42
-0.38417559862136841
  0
VERTEX
  8
0
 10
453.29721755755077
 20
12.559624008734936
 42
-0.051863282918930054
  0
VERTEX
  8
0
 10
447.56279019021207
 20
10.184346454890139
 42
-0.38417559862136841
  0
VERTEX
  8
0
 10
446.35385417823301
 20
10.760173475251513
 42
-0
  0
VERTEX
  8
0
 10
444.60304500755871
 20
14.987004305312091
 42
0.34488147497177124
  0
VERTEX
  8
0
 10
442.45575113904476
 20
16.199080435821678
 42
-0.075308538973331451
  0
VERTEX
  8
0
 10
435.56643950683105
 20
16.19908098927062
 42
0.34488147497177124
  0
VERTEX
  8
0
 10
433.4191471614584
 20
14.987004978385521
 42
0
  0
VERTEX
  8
0
 10
431.66833661900301
 20
10.760174482414804
 42
-0.38417559862136841
  0
VERTEX
  8
0
 10
430.45940077563517
 20
10.184347376620913
 42
-0.051863271743059158
  0
VERTEX
  8
0
 10
424.72497649464958
 20
12.559623720357045
 42
-0.38417559862136841
  0
VERTEX
  8
0
 10
424.27730058537264
 20
13.821641891548715
 42
-0
  0
VERTEX
  8
0
 10
426.02811112782803
 20
18.048472387519432
 42
0.34488147497177124
  0
VERTEX
  8
0
 10
425.36681157782465
 20
20.423905269366493
 42
-0.075308501720428467
  0
VERTEX
  8
0
 10
420.49533314423684
 20
25.295383535434546
 42
0.34488147497177124
  0
VERTEX
  8
0
 10
418.11990072521581
 20
25.95668199905753
 42
0
  0
VERTEX
  8
0
 10
413.89306989515524
 20
24.205872828383228
 42
-0.38417559862136841
  0
VERTEX
  8
0
 10
412.63105288897708
 20
24.653546010345387
 42
-0.051863253116607666
  0
VERTEX
  8
0
 10
410.25577636738188
 20
30.387970885613065
 42
-0.38417559862136841
  0
VERTEX
  8
0
 10
410.83160235549366
 20
31.596909389663146
 42
-0
  0
VERTEX
  8
0
 10
415.05843318555424
 20
33.347718560337448
 42
0.34488147497177124
  0
SEQEND
  0
POLYLINE
  8
0
 10
0
 20
0
 39
0
 70
1
 66
1
  0
VERTEX
  8
0
 10
445.13403104233697
 20
53.721739411087746
 42
1
  0
VERTEX
  8
0
 10
432.88816140580133
 20
24.157595276566262
 42
1
  0
SEQEND
  0
POLYLINE
  8
0
 10
0
 20
0
 39
0
 70
1
 66
1
  0
VERTEX
  8
0
 10
416.69908074463524
 20
357.63786957170851
 42
-0.07530849426984787
  0
VERTEX
  8
0
 10
416.69908020321816
 20
364.52717856068176
 42
0.34488147497177124
  0
VERTEX
  8
0
 10
415.48700528719911
 20
366.67447354929487
 42
0
  0
VERTEX
  8
0
 10
411.26017479122839
 20
368.42528409175026
 42
-0.38417559862136841
  0
VERTEX
  8
0
 10
410.68434768543449
 20
369.6342199351181
 42
-0.051863282918930054
  0
VERTEX
  8
0
 10
413.05962457660365
 20
375.36864553772392
 42
-0.38417559862136841
  0
VERTEX
  8
0
 10
414.32164220036231
 20
375.81632012538063
 42
-0
  0
VERTEX
  8
0
 10
418.54847269633302
 20
374.06550958292524
 42
0.34488147497177124
  0
VERTEX
  8
0
 10
420.9239055781801
 20
374.72680913292862
 42
-0.075308471918106079
  0
VERTEX
  8
0
 10
425.79538135217712
 20
379.59828653426683
 42
0.34488147497177124
  0
VERTEX
  8
0
 10
426.45668230787112
 20
381.97371998553746
 42
0
  0
VERTEX
  8
0
 10
424.70587313719682
 20
386.20055081559804
 42
-0.38417559862136841
  0
VERTEX
  8
0
 10
425.15354631915898
 20
387.46256782177619
 42
-0.051863282918930054
  0
VERTEX
  8
0
 10
430.88797368649767
 20
389.83784537562099
 42
-0.38417559862136841
  0
VERTEX
  8
0
 10
432.09690969847674
 20
389.26201835525961
 42
-0
  0
VERTEX
  8
0
 10
433.84771886915104
 20
385.03518752519904
 42
0.34488147497177124
  0
VERTEX
  8
0
 10
435.99501273766498
 20
383.82311139468948
 42
-0.075308538973331451
  0
VERTEX
  8
0
 10
442.8843243698787
 20
383.82311084124052
 42
0.34488147497177124
  0
VERTEX
  8
0
 10
445.03161671525135
 20
385.03518685212561
 42
0
  0
VERTEX
  8
0
 10
446.78242725770673
 20
389.26201734809632
 42
-0.38417559862136841
  0
VERTEX
  8
0
 10
447.99136310107457
 20
389.83784445389023
 42
-0.051863282918930054
  0
VERTEX
  8
0
 10
453.72578870368039
 20
387.46256756272106
 42
-0.38417559862136841
  0
VERTEX
  8
0
 10
454.1734632913371
 20
386.20054993896241
 42
-0
  0
VERTEX
  8
0
 10
452.42265274888172
 20
381.97371944299169
 42
0.34488147497177124
  0
VERTEX
  8
0
 10
453.08395229888509
 20
379.59828656114462
 42
-0.075308538973331451
  0
VERTEX
  8
0
 10
457.95543161355306
 20
374.72680793012125
 42
0.34488147497177124
  0
VERTEX
  8
0
 10
460.33086315149393
 20
374.0655098314536
 42
0
  0
VERTEX
  8
0
 10
464.55769398155451
 20
375.8163190021279
 42
-0.38417559862136841
  0
VERTEX
  8
0
 10
465.81971098773266
 20
375.36864582016574
 42
-0.051863282918930054
  0
VERTEX
  8
0
 10
468.19498854157746
 20
369.63421845282704
 42
-0.38417559862136841
  0
VERTEX
  8
0
 10
467.61916152121609
 20
368.42528244084798
 42
-0
  0
VERTEX
  8
0
 10
463.39233069115551
 20
366.67447327017368
 42
0.34488147497177124
  0
VERTEX
  8
0
 10
462.18025456064595
 20
364.52717940165974
 42
-0.075308538973331451
  0
VERTEX
  8
0
 10
462.18025400719699
 20
357.63786776944602
 42
0.34488144516944885
  0
VERTEX
  8
0
 10
463.39233001808208
 20
355.49057542407337
 42
0
  0
VERTEX
  8
0
 10
467.61916051405279
 20
353.73976488161799
 42
-0.38417559862136841
  0
VERTEX
  8
0
 10
468.1949876198467
 20
352.53082903825015
 42
-0.051863282918930054
  0
VERTEX
  8
0
 10
465.81971072867753
 20
346.79640343564432
 42
-0.38417559862136841
  0
VERTEX
  8
0
 10
464.55769310491888
 20
346.34872884798762
 42
-0
  0
VERTEX
  8
0
 10
460.33086260894817
 20
348.099539390443
 42
0.34488144516944885
  0
VERTEX
  8
0
 10
457.95542972710109
 20
347.43823984043962
 42
-0.075308538973331451
  0
VERTEX
  8
0
 10
453.08395109607773
 20
342.56676052577166
 42
0.34488144516944885
  0
VERTEX
  8
0
 10
452.42265299741007
 20
340.19132898783079
 42
0
  0
VERTEX
  8
0
 10
454.17346216808437
 20
335.96449815777021
 42
-0.38417559862136841
  0
VERTEX
  8
0
 10
453.72578898612221
 20
334.70248115159205
 42
-0.051863282918930054
  0
VERTEX
  8
0
 10
447.99136161878351
 20
332.32720359774726
 42
-0.38417559862136841
  0
VERTEX
  8
0
 10
446.78242560680445
 20
332.90303061810863
 42
-0
  0
VERTEX
  8
0
 10
445.03161643613015
 20
337.12986144816921
 42
0.34488147497177124
  0
VERTEX
  8
0
 10
442.88432256761621
 20
338.34193757867877
 42
-0.075308538973331451
  0
VERTEX
  8
0
 10
435.99501093540249
 20
338.34193813212772
 42
0.34488147497177124
  0
VERTEX
  8
0
 10
433.84771859002984
 20
337.12986212124264
 42
0
  0
VERTEX
  8
0
 10
432.09690804757446
 20
332.90303162527192
 42
-0.38417559862136841
  0
VERTEX
  8
0
 10
430.88797220420662
 20
332.32720451947802
 42
-0.051863271743059158
  0
VERTEX
  8
0
 10
425.15354792322103
 20
334.70248086321419
 42
-0.38417559862136841
  0
VERTEX
  8
0
 10
424.70587201394409
 20
335.96449903440583
 42
-0
  0
VERTEX
  8
0
 10
426.45668255639947
 20
340.19132953037655
 42
0.34488147497177124
  0
VERTEX
  8
0
 10
425.79538300639609
 20
342.56676241222362
 42
-0.075308501720428467
  0
VERTEX
  8
0
 10
420.92390457280828
 20
347.43824067829166
 42
0.34488147497177124
  0
VERTEX
  8
0
 10
418.54847215378726
 20
348.09953914191465
 42
0
  0
VERTEX
  8
0
 10
414.32164132372668
 20
346.34872997124035
 42
-0.38417559862136841
  0
VERTEX
  8
0
 10
413.05962431754853
 20
346.7964031532025
 42
-0.051863253116607666
  0
VERTEX
  8
0
 10
410.68434779595333
 20
352.53082802847018
 42
-0.38417559862136841
  0
VERTEX
  8
0
 10
411.2601737840651
 20
353.73976653252026
 42
-0
  0
VERTEX
  8
0
 10
415.48700461412568
 20
355.49057570319457
 42
0.34488147497177124
  0
SEQEND
  0
POLYLINE
  8
0
 10
0
 20
0
 39
0
 70
1
 66
1
  0
VERTEX
  8
0
 10
445.56260247090842
 20
375.86459655394486
 42
1
  0
VERTEX
  8
0
 10
433.31673283437277
 20
346.30045241942338
 42
1
  0
SEQEND
  0
POLYLINE
  8
0
 10
0
 20
0
 39
0
 70
1
 66
1
  0
VERTEX
  8
0
 10
462.71404677177389
 20
141.39091674790862
 42
-1
  0
VERTEX
  8
0
 10
412.7145236089321
 20
141.60908220422598
 42
-1
  0
SEQEND
  0
POLYLINE
  8
0
 10
0
 20
0
 39
0
 70
1
 66
1
  0
VERTEX
  8
0
 10
447.21419459129294
 20
141.458548039367
 42
1
  0
VERTEX
  8
0
 10
428.21437578941305
 20
141.5414509127676
 42
1
  0
SEQEND
  0
POLYLINE
  8
0
 10
0
 20
0
 39
0
 70
1
 66
1
  0
VERTEX
  8
0
 10
464.49976105748817
 20
256.53377389076576
 42
-1
  0
VERTEX
  8
0
 10
414.50023789464638
 20
256.75193934708312
 42
-1
  0
SEQEND
  0
POLYLINE
  8
0
 10
0
 20
0
 39
0
 70
1
 66
1
  0
VERTEX
  8
0
 10
448.99990887700721
 20
256.60140518222414
 42
1
  0
VERTEX
  8
0
 10
430.00009007512733
 20
256.68430805562474
 42
1
  0
SEQEND
  0
POLYLINE
  8
0
 10
0
 20
0
 39
0
 70
1
 66
1
  0
VERTEX
  8
0
 10
486.856903914631
 20
200.24805960505148
 42
-1
  0
VERTEX
  8
0
 10
436.85738075178921
 20
200.46622506136885
 42
-1
  0
SEQEND
  0
POLYLINE
  8
0
 10
0
 20
0
 39
0
 70
1
 66
1
  0
VERTEX
  8
0
 10
471.35705173415005
 20
200.31569089650986
 42
1
  0
VERTEX
  8
0
 10
452.35723293227016
 20
200.39859376991046
 42
1
  0
SEQEND
  0
ENDSEC
  0
EOF
