  0
SECTION
  2
ENTITIES
  0
POLYLINE
  8
0
 10
0
 20
0
 39
0
 70
1
 66
1
  0
VERTEX
  8
0
 10
0
 20
0
 42
-0
  0
VERTEX
  8
0
 10
700
 20
0
 42
-0
  0
VERTEX
  8
0
 10
700
 20
500
 42
-0
  0
VERTEX
  8
0
 10
0
 20
500
 42
-0
  0
SEQEND
  0
POLYLINE
  8
0
 10
0
 20
0
 39
0
 70
1
 66
1
  0
VERTEX
  8
0
 10
340.20000000000005
 20
10.200000000000019
 42
0
  0
VERTEX
  8
0
 10
10.200000000000028
 20
10.199999999999999
 42
0
  0
VERTEX
  8
0
 10
10.200000000000001
 20
446.96135253906249
 42
0
  0
VERTEX
  8
0
 10
340.20000000000005
 20
446.96135253906249
 42
0
  0
VERTEX
  8
0
 10
432.49296875000005
 20
246.20000000000002
 42
0
  0
SEQEND
  0
POLYLINE
  8
0
 10
0
 20
0
 39
0
 70
1
 66
1
  0
VERTEX
  8
0
 10
98.556681823730486
 20
128.19999999999999
 42
-0
  0
VERTEX
  8
0
 10
340.20000000000005
 20
128.20000000000002
 42
-0
  0
VERTEX
  8
0
 10
340.20000000000005
 20
346.58067626953124
 42
-0
  0
VERTEX
  8
0
 10
45.282801818847659
 20
404.08238525390624
 42
-0
  0
SEQEND
  0
POLYLINE
  8
0
 10
0
 20
0
 39
0
 70
1
 66
1
  0
VERTEX
  8
0
 10
540.68249934954474
 20
489.89872442596493
 42
-1
  0
VERTEX
  8
0
 10
539.51749581281001
 20
222.90127073638973
 42
-1
  0
SEQEND
  0
POLYLINE
  8
0
 10
0
 20
0
 39
0
 70
1
 66
1
  0
VERTEX
  8
0
 10
645.59899145477357
 20
355.93966846834769
 42
0.0027643681969493628
  0
VERTEX
  8
0
 10
645.597634638057
 20
357.10622216174028
 42
0.29204162955284119
  0
VERTEX
  8
0
 10
645.01229125902978
 20
358.00951765375385
 42
0.012829350307583809
  0
VERTEX
  8
0
 10
642.96690877213655
 20
358.87884335922342
 42
0.024907568469643593
  0
VERTEX
  8
0
 10
639.7218087473716
 20
359.98442578356173
 42
-0.32219386100769043
  0
VERTEX
  8
0
 10
638.99780944800762
 20
360.90042244232467
 42
0.0058820587582886219
  0
VERTEX
  8
0
 10
638.86456021428273
 20
363.22583692735049
 42
-0.32208508253097534
  0
VERTEX
  8
0
 10
639.47882122140572
 20
364.21839872982906
 42
0.025294903665781021
  0
VERTEX
  8
0
 10
642.65996883349794
 20
365.73161140574257
 42
0.012274326756596565
  0
VERTEX
  8
0
 10
644.50951273278906
 20
366.78442907735149
 42
0.2920365035533905
  0
VERTEX
  8
0
 10
644.98783036607506
 20
367.74866360000897
 42
0.0027645013760775328
  0
VERTEX
  8
0
 10
644.85593141153345
 20
368.90777464284406
 42
0.0027643681969493628
  0
VERTEX
  8
0
 10
644.71122337689894
 20
370.06531936076209
 42
0.29204156994819641
  0
VERTEX
  8
0
 10
644.01931870791122
 20
370.88981072756269
 42
0.012829350307583809
  0
VERTEX
  8
0
 10
641.88260752774568
 20
371.50119140343128
 42
0.024907568469643593
  0
VERTEX
  8
0
 10
638.5262404282638
 20
372.19961117979449
 42
-0.32219386100769043
  0
VERTEX
  8
0
 10
637.69516268001996
 20
373.01969534035101
 42
0.0058821919374167919
  0
VERTEX
  8
0
 10
637.27715555886164
 20
375.31113375044436
 42
-0.32208502292633057
  0
VERTEX
  8
0
 10
637.76478918519297
 20
376.37163247904687
 42
0.025294903665781021
  0
VERTEX
  8
0
 10
640.73587480532842
 20
378.2643053650221
 42
0.012274459935724735
  0
VERTEX
  8
0
 10
642.44202612344964
 20
379.53643498314455
 42
0.2920365035533905
  0
VERTEX
  8
0
 10
642.79821454691842
 20
380.55213290550546
 42
0.0027643681969493628
  0
VERTEX
  8
0
 10
642.52487816266557
 20
381.68622131183298
 42
0.0027643681969493628
  0
VERTEX
  8
0
 10
642.23902355485939
 20
382.81720955494563
 42
0.29204162955284119
  0
VERTEX
  8
0
 10
641.45103958931065
 20
383.55045210311005
 42
0.012829350307583809
  0
VERTEX
  8
0
 10
639.25539216211746
 20
383.89462466668249
 42
0.024907568469643593
  0
VERTEX
  8
0
 10
635.83863847460179
 20
384.17529229365789
 42
-0.32219386100769043
  0
VERTEX
  8
0
 10
634.91307767467129
 20
384.88702875709919
 42
0.0058821253478527069
  0
VERTEX
  8
0
 10
634.21664603539989
 20
387.10972935523347
 42
-0.32208502292633057
  0
VERTEX
  8
0
 10
634.57026559977464
 20
388.22211718520208
 42
0.025294903665781021
  0
VERTEX
  8
0
 10
637.28623407673399
 20
390.46555217367575
 42
0.012274326756596565
  0
VERTEX
  8
0
 10
638.82312101368518
 20
391.93769630825437
 42
0.29203659296035767
  0
VERTEX
  8
0
 10
639.05180302471581
 20
392.98948101374975
 42
0.0027643681969493628
  0
VERTEX
  8
0
 10
638.64117341191104
 20
394.08138242751107
 42
0.0027643681969493628
  0
VERTEX
  8
0
 10
638.21849961487726
 20
395.1686671604532
 42
0.29204162955284119
  0
VERTEX
  8
0
 10
637.34637364776256
 20
395.79952318778919
 42
0.012829350307583809
  0
VERTEX
  8
0
 10
635.12506981313607
 20
395.87126597083102
 42
0.024907568469643593
  0
VERTEX
  8
0
 10
631.69973031009204
 20
395.72992611120696
 42
-0.32219389081001282
  0
VERTEX
  8
0
 10
630.69372338988171
 20
396.32252850620762
 42
0.0058821253478527069
  0
VERTEX
  8
0
 10
629.72942436465905
 20
398.44279927833202
 42
-0.32208502292633057
  0
VERTEX
  8
0
 10
629.94366143998786
 20
399.59021371610379
 42
0.025294903665781021
  0
VERTEX
  8
0
 10
632.36335600773907
 20
402.15040465410902
 42
0.012274459935724735
  0
VERTEX
  8
0
 10
633.70768769595816
 20
403.80026672354927
 42
0.2920365035533905
  0
VERTEX
  8
0
 10
633.80538322976702
 20
404.87216584877137
 42
0.0027643681969493628
  0
VERTEX
  8
0
 10
633.26368249066149
 20
405.90533150990933
 42
0.0027643681969493628
  0
VERTEX
  8
0
 10
632.71059502662308
 20
406.93243565223491
 42
0.29204162955284119
  0
VERTEX
  8
0
 10
631.76755293661324
 20
407.45133350421474
 42
0.012829350307583809
  0
VERTEX
  8
0
 10
629.55427969322238
 20
407.24956300145811
 42
0.024907568469643593
  0
VERTEX
  8
0
 10
626.17225936602404
 20
406.6883600324303
 42
-0.32219383120536804
  0
VERTEX
  8
0
 10
625.10104894172616
 20
407.15284300315733
 42
0.0058821253478527069
  0
VERTEX
  8
0
 10
623.88351292386881
 20
409.13854011026092
 42
-0.32208502292633057
  0
VERTEX
  8
0
 10
623.95511775419095
 20
410.30358679927662
 42
0.025294903665781021
  0
VERTEX
  8
0
 10
626.04185443644485
 20
413.14172243430454
 42
0.012274326756596565
  0
VERTEX
  8
0
 10
627.17324254993571
 20
414.94427519457724
 42
0.29203659296035767
  0
VERTEX
  8
0
 10
627.13846939207133
 20
416.02007114531887
 42
0.0027643681969493628
  0
VERTEX
  8
0
 10
626.47392237279166
 20
416.97882857327727
 42
0.0027643681969493628
  0
VERTEX
  8
0
 10
625.79880675303957
 20
417.93018194119645
 42
0.29204162955284119
  0
VERTEX
  8
0
 10
624.79915001396978
 20
418.32926190017412
 42
0.012829350307583809
  0
VERTEX
  8
0
 10
622.62743693726372
 20
417.85703237173828
 42
0.024907568469643593
  0
VERTEX
  8
0
 10
619.34002003997739
 20
416.88447444712887
 42
-0.32219389081001282
  0
VERTEX
  8
0
 10
618.21985667437957
 20
417.21379756854981
 42
0.0058821253478527069
  0
VERTEX
  8
0
 10
616.76753008523065
 20
419.03482238441649
 42
-0.32208502292633057
  0
VERTEX
  8
0
 10
616.69542614777265
 20
420.19983999102601
 42
0.025294903665781021
  0
VERTEX
  8
0
 10
618.41756859530142
 20
423.27290609807085
 42
0.012274459935724735
  0
VERTEX
  8
0
 10
619.31887262486589
 20
425.20083836734307
 42
0.2920365035533905
  0
VERTEX
  8
0
 10
619.15216220248362
 20
426.26419032116712
 42
0.0027643681969493628
  0
VERTEX
  8
0
 10
618.37482220040488
 20
427.13401492146988
 42
0.0027643681969493628
  0
VERTEX
  8
0
 10
617.58791525879906
 20
427.99519130274388
 42
0.29204162955284119
  0
VERTEX
  8
0
 10
616.54679245948887
 20
428.26839813849858
 42
0.012829350307583809
  0
VERTEX
  8
0
 10
614.44957670552049
 20
427.53287489742922
 42
0.024907568469643593
  0
VERTEX
  8
0
 10
611.3065945679449
 20
426.1637021557712
 42
-0.32219383120536804
  0
VERTEX
  8
0
 10
610.15444733889933
 20
426.35288182381714
 42
0.0058821253478527069
  0
VERTEX
  8
0
 10
608.48934278267302
 20
427.98162262690812
 42
-0.32208502292633057
  0
VERTEX
  8
0
 10
608.27461268601201
 20
429.12894802588119
 42
0.025294903665781021
  0
VERTEX
  8
0
 10
609.60606314968504
 20
432.39034325198156
 42
0.012274326756596565
  0
VERTEX
  8
0
 10
610.26361321785612
 20
434.41441752334725
 42
0.29203659296035767
  0
VERTEX
  8
0
 10
609.96748937622306
 20
435.44924299554327
 42
0.0027643681969493628
  0
VERTEX
  8
0
 10
609.08915503302001
 20
436.21694534436148
 42
0.0027644347865134478
  0
VERTEX
  8
0
 10
608.20236290417267
 20
436.97491125020593
 42
0.29204156994819641
  0
VERTEX
  8
0
 10
607.13557941485453
 20
437.11808660403835
 42
0.012829417362809181
  0
VERTEX
  8
0
 10
605.14463295522785
 20
436.1304188145433
 42
0.024907635524868965
  0
VERTEX
  8
0
 10
602.19373058596614
 20
434.38538150987097
 42
-0.32219389081001282
  0
VERTEX
  8
0
 10
601.02707749642218
 20
434.43154144748655
 42
0.0058821253478527069
  0
VERTEX
  8
0
 10
599.17444381549194
 20
435.84331736969273
 42
-0.32208505272865295
  0
VERTEX
  8
0
 10
598.82034578990772
 20
436.95556786254531
 42
0.025294903665781021
  0
VERTEX
  8
0
 10
599.74091847173747
 20
440.3558650444254
 42
0.012274459935724735
  0
VERTEX
  8
0
 10
600.14475017426082
 20
442.44540856183238
 42
0.2920365035533905
  0
VERTEX
  8
0
 10
599.72371055285805
 20
443.43598648448432
 42
0.0027643681969493628
  0
VERTEX
  8
0
 10
598.75769031092284
 20
444.08993461093905
 42
0.0027644347865134478
  0
VERTEX
  8
0
 10
597.78447074163125
 20
444.73317949047998
 42
0.29204162955284119
  0
VERTEX
  8
0
 10
596.70817259643798
 20
444.74417769654934
 42
0.012829350307583809
  0
VERTEX
  8
0
 10
594.85370091325865
 20
443.51932464729146
 42
0.024907635524868965
  0
VERTEX
  8
0
 10
592.13960326989718
 20
441.42488498671349
 42
-0.32219383120536804
  0
VERTEX
  8
0
 10
590.97611872866833
 20
441.32732245795796
 42
0.0058821253478527069
  0
VERTEX
  8
0
 10
588.9640343495206
 20
442.50073239972369
 42
-0.32208505272865295
  0
VERTEX
  8
0
 10
588.47594222774785
 20
443.56103867534745
 42
0.025294903665781021
  0
VERTEX
  8
0
 10
588.97167533104766
 20
447.04868538879879
 42
0.012274326756596565
  0
VERTEX
  8
0
 10
589.11566889559015
 20
449.17200916053707
 42
0.29203659296035767
  0
VERTEX
  8
0
 10
588.57608736146631
 20
450.10335033739142
 42
0.0027644347865134478
  0
VERTEX
  8
0
 10
587.53700186719868
 20
450.6336460634792
 42
0.0027643681969493628
  0
VERTEX
  8
0
 10
586.49214010020069
 20
451.15240072146088
 42
0.29204162955284119
  0
VERTEX
  8
0
 10
585.42264598563952
 20
451.03105139254302
 42
0.012829350307583809
  0
VERTEX
  8
0
 10
583.73274935544998
 20
449.58759029583831
 42
0.024907635524868965
  0
VERTEX
  8
0
 10
581.29661098800068
 20
447.17549802711829
 42
-0.32219389081001282
  0
VERTEX
  8
0
 10
580.15393318202985
 20
446.9357001111357
 42
0.0058821253478527069
  0
VERTEX
  8
0
 10
578.01289939463811
 20
447.8529563979389
 42
-0.32208505272865295
  0
VERTEX
  8
0
 10
577.39820461245768
 20
448.84523380628639
 42
0.025294903665781021
  0
VERTEX
  8
0
 10
577.46159281675034
 20
452.36737533423712
 42
0.012274326756596565
  0
VERTEX
  8
0
 10
577.34355935569852
 20
454.49230781927957
 42
0.2920365035533905
  0
VERTEX
  8
0
 10
576.69361783891475
 20
455.35026966517643
 42
0.0027644347865134478
  0
VERTEX
  8
0
 10
575.59724400767755
 20
455.74885609870665
 42
0.0027643681969493628
  0
VERTEX
  8
0
 10
574.49655222238732
 20
456.13527711414588
 42
0.29204162955284119
  0
VERTEX
  8
0
 10
573.45007517354247
 20
455.88342450330549
 42
0.012829350307583809
  0
VERTEX
  8
0
 10
571.95037152506984
 20
454.24323170311186
 42
0.024907601997256279
  0
VERTEX
  8
0
 10
569.82911648302434
 20
451.55005396792967
 42
-0.32219380140304565
  0
VERTEX
  8
0
 10
568.72456485945179
 20
451.17164538540476
 42
0.0058821253478527069
  0
VERTEX
  8
0
 10
566.48704346781903
 20
451.8188351870287
 42
-0.32208505272865295
  0
VERTEX
  8
0
 10
565.75506855856543
 20
452.72806640684718
 42
0.025294769555330276
  0
VERTEX
  8
0
 10
565.38514254187362
 20
456.23128545067971
 42
0.012274326756596565
  0
VERTEX
  8
0
 10
565.00687935508211
 20
458.325607196997
 42
0.29203659296035767
  0
VERTEX
  8
0
 10
564.2564280711249
 20
459.09720715591686
 42
0.0027644347865134478
  0
VERTEX
  8
0
 10
563.11938511008805
 20
459.35803790877912
 42
0.0027643681969493628
  0
VERTEX
  8
0
 10
561.97954819514575
 20
459.60626934364984
 42
0.2920415997505188
  0
VERTEX
  8
0
 10
560.97195122435573
 20
459.22772000424902
 42
0.012829383835196495
  0
VERTEX
  8
0
 10
559.68517430083159
 20
457.41567518031098
 42
0.024907635524868965
  0
VERTEX
  8
0
 10
557.91095573598102
 20
454.48221903271144
 42
-0.32219386100769043
  0
VERTEX
  8
0
 10
556.86128107527827
 20
453.97094797745393
 42
0.0058821253478527069
  0
VERTEX
  8
0
 10
554.56118712584544
 20
454.33827203486902
 42
-0.32208508253097534
  0
VERTEX
  8
0
 10
553.72302422981795
 20
455.15065273821375
 42
0.025294903665781021
  0
VERTEX
  8
0
 10
552.925394684043
 20
458.58187713228642
 42
0.012274393811821938
  0
VERTEX
  8
0
 10
552.29262934893541
 20
460.61383982455931
 42
0.2920365035533905
  0
VERTEX
  8
0
 10
551.45304990368743
 20
461.28735515001546
 42
0.0027644347865134478
  0
VERTEX
  8
0
 10
550.29257365935359
 20
461.40647924691746
 42
0.0027643681969493628
  0
VERTEX
  8
0
 10
549.13087120843204
 20
461.51276067171864
 42
0.2920415997505188
  0
VERTEX
  8
0
 10
548.17742831228327
 20
461.01326161182624
 42
0.012829383835196495
  0
VERTEX
  8
0
 10
547.12308480534193
 20
459.0568067666328
 42
0.024907635524868965
  0
VERTEX
  8
0
 10
545.72280141754652
 20
455.92756433184928
 42
-0.32219380140304565
  0
VERTEX
  8
0
 10
544.74391013517925
 20
455.29117397282317
 42
0.0058821253478527069
  0
VERTEX
  8
0
 10
542.41611293400661
 20
455.37306321742938
 42
-0.32208508253097534
  0
VERTEX
  8
0
 10
541.4844693110407
 20
456.07627740455951
 42
0.025294903665781021
  0
VERTEX
  8
0
 10
540.27122968743993
 20
459.38347482206132
 42
0.012274393811821938
  0
VERTEX
  8
0
 10
539.39355542947851
 20
461.32228222010446
 42
0.2920365035533905
  0
VERTEX
  8
0
 10
538.47757089367849
 20
461.88751783520053
 42
0.0027644347865134478
  0
VERTEX
  8
0
 10
537.31125397272012
 20
461.86313425388124
 42
0.0027643681969493628
  0
VERTEX
  8
0
 10
536.14529560374626
 20
461.82584767933452
 42
0.29204162955284119
  0
VERTEX
  8
0
 10
535.26046044345924
 20
461.21296529958215
 42
0.012829350307583809
  0
VERTEX
  8
0
 10
534.45453391242859
 20
459.14178561265567
 42
0.024907601997256279
  0
VERTEX
  8
0
 10
533.44940942543178
 20
455.86418060476933
 42
-0.32219383120536804
  0
VERTEX
  8
0
 10
532.55614379609733
 20
455.11231086198018
 42
0.0058821253478527069
  0
VERTEX
  8
0
 10
530.23592896431978
 20
454.90752031645184
 42
-0.32208502292633057
  0
VERTEX
  8
0
 10
529.22492847670117
 20
455.49092428923871
 42
0.025294903665781021
  0
VERTEX
  8
0
 10
527.61446666996778
 20
458.62395756418459
 42
0.012274393811821938
  0
VERTEX
  8
0
 10
526.50519158779514
 20
460.44020866991764
 42
0.2920365035533905
  0
VERTEX
  8
0
 10
525.52668716390622
 20
460.88859713291237
 42
0.0027644347865134478
  0
VERTEX
  8
0
 10
524.37220815882131
 20
460.7210712445596
 42
0.0027643681969493628
  0
VERTEX
  8
0
 10
523.21966954844629
 20
460.54078805018537
 42
0.29204162955284119
  0
VERTEX
  8
0
 10
522.41685475373629
 20
459.82381755313793
 42
0.012829350307583809
  0
VERTEX
  8
0
 10
521.87156385883031
 20
457.66929311432131
 42
0.024907601997256279
  0
VERTEX
  8
0
 10
521.27683414959392
 20
454.29301080832755
 42
-0.32219383120536804
  0
VERTEX
  8
0
 10
520.48273431195025
 20
453.43707731980697
 42
0.0058821253478527069
  0
VERTEX
  8
0
 10
518.20527504499091
 20
452.94870366410845
 42
-0.32208511233329773
  0
VERTEX
  8
0
 10
517.13024173124859
 20
453.40344904185145
 42
0.025294903665781021
  0
VERTEX
  8
0
 10
515.14697542155011
 20
456.31482501164612
 42
0.012274393811821938
  0
VERTEX
  8
0
 10
513.82290732736351
 20
457.98099566433331
 42
0.2920365035533905
  0
VERTEX
  8
0
 10
512.79672090401766
 20
458.3057354129312
 42
0.0027644347865134478
  0
VERTEX
  8
0
 10
511.67158073798544
 20
457.99760776206853
 42
0.0027643681969493628
  0
VERTEX
  8
0
 10
510.54993217067113
 20
457.67705936275331
 42
0.29204162955284119
  0
VERTEX
  8
0
 10
509.84130837097456
 20
456.86686541099868
 42
0.012829350307583809
  0
VERTEX
  8
0
 10
509.56491434262114
 20
454.66166006931542
 42
0.024907601997256279
  0
VERTEX
  8
0
 10
509.3896000010576
 20
451.23788534682257
 42
-0.32219383120536804
  0
VERTEX
  8
0
 10
508.70670459667519
 20
450.29085145449972
 42
0.0058821253478527069
  0
VERTEX
  8
0
 10
506.50652080290718
 20
449.52630486798517
 42
-0.32208502292633057
  0
VERTEX
  8
0
 10
505.38375355823337
 20
449.84549978936758
 42
0.025294903665781021
  0
VERTEX
  8
0
 10
503.05774296700537
 20
452.4910957838552
 42
0.012274393811821938
  0
VERTEX
  8
0
 10
501.5389648798722
 20
453.9819134835908
 42
0.29203659296035767
  0
VERTEX
  8
0
 10
500.48064485670164
 20
454.17809196310998
 42
0.0027643681969493628
  0
VERTEX
  8
0
 10
499.40189955758393
 20
453.73403365679519
 42
0.0027643681969493628
  0
VERTEX
  8
0
 10
498.32814159389005
 20
453.27807450882869
 42
0.29204162955284119
  0
VERTEX
  8
0
 10
497.7244512646904
 20
452.38693944789111
 42
0.012829350307583809
  0
VERTEX
  8
0
 10
497.7211473988487
 20
450.16448248995783
 42
0.024907601997256279
  0
VERTEX
  8
0
 10
497.96790295773565
 20
446.74511466194667
 42
-0.32219395041465759
  0
VERTEX
  8
0
 10
497.40656103680374
 20
445.72133201356195
 42
0.0058820587582886219
  0
VERTEX
  8
0
 10
495.31700978610775
 20
444.69221632685446
 42
-0.32208508253097534
  0
VERTEX
  8
0
 10
494.16352401356045
 20
444.87100287188002
 42
0.025294903665781021
  0
VERTEX
  8
0
 10
491.53003109647864
 20
447.21070951197026
 42
0.012274393811821938
  0
VERTEX
  8
0
 10
489.8395579428244
 20
448.50358979723529
 42
0.29203659296035767
  0
VERTEX
  8
0
 10
488.76515326622496
 20
448.56823015355707
 42
0.0027643681969493628
  0
VERTEX
  8
0
 10
487.74915733614415
 20
447.99496768648055
 42
0.0027643681969493628
  0
VERTEX
  8
0
 10
486.739570924541
 20
447.41051534216922
 42
0.29204162955284119
  0
VERTEX
  8
0
 10
486.24996733937655
 20
446.45194916654214
 42
0.012829350307583809
  0
VERTEX
  8
0
 10
486.51979764622303
 20
444.24593212670965
 42
0.024907601997256279
  0
VERTEX
  8
0
 10
487.18488577455099
 20
440.88280684050017
 42
-0.32219383120536804
  0
VERTEX
  8
0
 10
486.75361090666058
 20
439.79780240109449
 42
0.0058821253478527069
  0
VERTEX
  8
0
 10
484.80634231939911
 20
438.51968858622251
 42
-0.32208502292633057
  0
VERTEX
  8
0
 10
483.63965121940021
 20
438.55538869039975
 42
0.025294903665781021
  0
VERTEX
  8
0
 10
480.73859495898506
 20
440.5537302516459
 42
0.012274393811821938
  0
VERTEX
  8
0
 10
478.9020601613571
 20
441.62907561604521
 42
0.29203659296035767
  0
VERTEX
  8
0
 10
477.82784780926067
 20
441.56119129096294
 42
0.0027643681969493628
  0
VERTEX
  8
0
 10
476.89000113713251
 20
440.8674237256198
 42
0.0027643681969493628
  0
VERTEX
  8
0
 10
475.95989146580177
 20
440.16333025001171
 42
0.29204162955284119
  0
VERTEX
  8
0
 10
475.5917966549988
 20
439.15186522732449
 42
0.012829350307583809
  0
VERTEX
  8
0
 10
476.13067266855194
 20
436.99572301057339
 42
0.024907601997256279
  0
VERTEX
  8
0
 10
477.20400839268706
 20
433.73981859230184
 42
-0.32219389081001282
  0
VERTEX
  8
0
 10
476.90933451849753
 20
432.61004350077451
 42
0.0058821253478527069
  0
VERTEX
  8
0
 10
475.13389437499433
 20
431.10231881578574
 42
-0.32208508253097534
  0
VERTEX
  8
0
 10
473.97165391555177
 20
430.99437478351098
 42
0.025294836610555649
  0
VERTEX
  8
0
 10
470.84702338618848
 20
432.62106870820611
 42
0.012274326756596565
  0
VERTEX
  8
0
 10
468.89225673418457
 20
433.46256799157965
 42
0.29203659296035767
  0
VERTEX
  8
0
 10
467.83452250621599
 20
433.26319419715611
 42
0.0027643681969493628
  0
VERTEX
  8
0
 10
466.98904269634914
 20
432.45943393844868
 42
0.0027643681969493628
  0
VERTEX
  8
0
 10
466.15250984747888
 20
431.6463800975111
 42
0.29204162955284119
  0
VERTEX
  8
0
 10
465.9114953449822
 20
430.59734240486131
 42
0.012829350307583809
  0
VERTEX
  8
0
 10
466.71125506044393
 20
428.52377237321548
 42
0.024907618761062622
  0
VERTEX
  8
0
 10
468.17656643231612
 20
425.42443855061322
 42
-0.32219383120536804
  0
VERTEX
  8
0
 10
468.02296284246489
 20
424.26701671828687
 42
0.0058821253478527069
  0
VERTEX
  8
0
 10
466.44626084711899
 20
422.55254370138209
 42
-0.32208502292633057
  0
VERTEX
  8
0
 10
465.30609840369146
 20
422.30258761884721
 42
0.025294836610555649
  0
VERTEX
  8
0
 10
462.00525270494438
 20
423.53296719134704
 42
0.012274326756596565
  0
VERTEX
  8
0
 10
459.96188486218875
 20
424.12787959572438
 42
0.29203659296035767
  0
VERTEX
  8
0
 10
458.9366714123106
 20
423.80002863691169
 42
0.0027643681969493628
  0
VERTEX
  8
0
 10
458.19637193486608
 20
422.89846506975073
 42
0.0027643681969493628
  0
VERTEX
  8
0
 10
457.46609261674541
 20
421.98877054607374
 42
0.29204165935516357
  0
VERTEX
  8
0
 10
457.35582130810144
 20
420.91806689868827
 42
0.012829350307583809
  0
VERTEX
  8
0
 10
458.40434127478068
 20
418.95849050468865
 42
0.024907601997256279
  0
VERTEX
  8
0
 10
460.23941796036354
 20
416.06271870830244
 42
-0.32219389081001282
  0
VERTEX
  8
0
 10
460.22920427437651
 20
414.89519541748803
 42
0.0058820918202400208
  0
VERTEX
  8
0
 10
458.87515779417612
 20
412.99997011549897
 42
-0.32208508253097534
  0
VERTEX
  8
0
 10
457.77434772040635
 20
412.61178330422143
 42
0.025294836610555649
  0
VERTEX
  8
0
 10
454.34731584375447
 20
413.42720506762356
 42
0.012274326756596565
  0
VERTEX
  8
0
 10
452.24632881712239
 20
413.76649944909093
 42
0.29203659296035767
  0
VERTEX
  8
0
 10
451.26917620676079
 20
413.31515041158764
 42
0.0027643681969493628
  0
VERTEX
  8
0
 10
450.64527858055453
 20
412.32944472479477
 42
0.0027644014917314053
  0
VERTEX
  8
0
 10
450.03231462887277
 20
411.33689347542577
 42
0.29204162955284119
  0
VERTEX
  8
0
 10
450.05446717412229
 20
410.26075967529169
 42
0.012829350307583809
  0
VERTEX
  8
0
 10
451.33584751632213
 20
408.4448867750649
 42
0.024907601997256279
  0
VERTEX
  8
0
 10
453.51286569397564
 20
405.79658392124406
 42
-0.32219383120536804
  0
VERTEX
  8
0
 10
453.64621829117027
 20
404.6366511363679
 42
0.0058820918202400208
  0
VERTEX
  8
0
 10
452.53533092872277
 20
402.58938913763791
 42
-0.32208499312400818
  0
VERTEX
  8
0
 10
451.49056171232093
 20
402.06886883783966
 42
0.025294836610555649
  0
VERTEX
  8
0
 10
447.98929976419078
 20
402.45696379265837
 42
0.012274326756596565
  0
VERTEX
  8
0
 10
445.86253942616116
 20
402.5355038956032
 42
0.29203659296035767
  0
VERTEX
  8
0
 10
444.9482633911781
 20
401.96749298608148
 42
0.0027644014917314053
  0
VERTEX
  8
0
 10
444.45022465841657
 20
400.91258055903467
 42
0.0027643681969493628
  0
VERTEX
  8
0
 10
443.96388109486452
 20
399.85223832761
 42
0.29204162955284119
  0
VERTEX
  8
0
 10
444.11810140809541
 20
398.78698391422108
 42
0.012829350307583809
  0
VERTEX
  8
0
 10
445.61292317475483
 20
397.14234243235057
 42
0.024907618761062622
  0
VERTEX
  8
0
 10
448.0988926192291
 20
394.78163087623
 42
-0.32219389081001282
  0
VERTEX
  8
0
 10
448.37377489291248
 20
393.64687959048052
 42
0.0058821253478527069
  0
VERTEX
  8
0
 10
447.52288295448761
 20
391.4786127693614
 42
-0.32208508253097534
  0
VERTEX
  8
0
 10
446.55000495027173
 20
390.83365879869257
 42
0.025294836610555649
  0
VERTEX
  8
0
 10
443.02758837603318
 20
390.7885495525457
 42
0.012274326756596565
  0
VERTEX
  8
0
 10
440.90729925915196
 20
390.60513800158003
 42
0.29203659296035767
  0
VERTEX
  8
0
 10
440.0697543679762
 20
389.92908328643944
 42
0.0027644014917314053
  0
VERTEX
  8
0
 10
439.70512121336162
 20
388.8209626078928
 42
0.0027643681969493628
  0
VERTEX
  8
0
 10
439.35277716052263
 20
387.70889346476861
 42
0.29204162955284119
  0
VERTEX
  8
0
 10
439.63674002514915
 20
386.67066109188471
 42
0.012829350307583809
  0
VERTEX
  8
0
 10
441.32233041015468
 20
385.22218196557554
 42
0.024907601997256279
  0
VERTEX
  8
0
 10
444.07955755095946
 20
383.18486341789776
 42
-0.32219383120536804
  0
VERTEX
  8
0
 10
444.49180254932605
 20
382.09248955815411
 42
0.0058821253478527069
  0
VERTEX
  8
0
 10
443.91382121329394
 20
379.83609415560625
 42
-0.32208505272865295
  0
VERTEX
  8
0
 10
443.02757138007456
 20
379.0764708724418
 42
0.025294836610555649
  0
VERTEX
  8
0
 10
439.53739416821458
 20
378.59883998467319
 42
0.012274393811821938
  0
VERTEX
  8
0
 10
437.45570845866104
 20
378.15625675430266
 42
0.2920365035533905
  0
VERTEX
  8
0
 10
436.7075967051332
 20
377.38240449813952
 42
0.0027644014917314053
  0
VERTEX
  8
0
 10
436.48191276384023
 20
376.23787626142536
 42
0.0027643681969493628
  0
VERTEX
  8
0
 10
436.26889083958332
 20
375.09093527057905
 42
0.29204162955284119
  0
VERTEX
  8
0
 10
436.67828562605365
 20
374.09546617116075
 42
0.012829350307583809
  0
VERTEX
  8
0
 10
438.52910541582406
 20
372.86510400105203
 42
0.024907601997256279
  0
VERTEX
  8
0
 10
441.51580108223578
 20
371.18206082425127
 42
-0.32219383120536804
  0
VERTEX
  8
0
 10
442.05915624400359
 20
370.14862663504135
 42
0.0058821253478527069
  0
VERTEX
  8
0
 10
441.76284079650281
 20
367.83830740405557
 42
-0.32208505272865295
  0
VERTEX
  8
0
 10
440.97665146469751
 20
366.97553009990366
 42
0.025294836610555649
  0
VERTEX
  8
0
 10
437.57163267238894
 20
366.07261782169036
 42
0.012274393811821938
  0
VERTEX
  8
0
 10
435.56011225093266
 20
365.37757645774764
 42
0.2920365035533905
  0
VERTEX
  8
0
 10
434.91276878207185
 20
364.51765280685129
 42
0.0027644014917314053
  0
VERTEX
  8
0
 10
434.82943620300216
 20
363.354066357308
 42
0.0027643681969493628
  0
VERTEX
  8
0
 10
434.75897850691888
 20
362.18964170976443
 42
0.29204162955284119
  0
VERTEX
  8
0
 10
435.28760726575041
 20
361.25202587975497
 42
0.012829350307583809
  0
VERTEX
  8
0
 10
437.2755927532794
 20
360.25843533146798
 42
0.024907611310482025
  0
VERTEX
  8
0
 10
440.44648054976597
 20
358.95517631603542
 42
-0.32219389081001282
  0
VERTEX
  8
0
 10
441.11271337191886
 20
357.99634799317272
 42
0.0058821253478527069
  0
VERTEX
  8
0
 10
441.10255016388044
 20
355.66712702343074
 42
-0.32208505272865295
  0
VERTEX
  8
0
 10
440.42835748427842
 20
354.71427524074369
 42
0.025294836610555649
  0
VERTEX
  8
0
 10
437.16009387916108
 20
353.39976781672829
 42
0.012274393811821938
  0
VERTEX
  8
0
 10
435.24923391174462
 20
352.46280220669297
 42
0.2920365035533905
  0
VERTEX
  8
0
 10
434.71246607754364
 20
351.52984556621169
 42
0.0027644014917314053
  0
VERTEX
  8
0
 10
434.77275965637159
 20
350.36484086816239
 42
0.0027643681969493628
  0
VERTEX
  8
0
 10
434.8459350361407
 20
349.20058344054348
 42
0.29204165935516357
  0
VERTEX
  8
0
 10
435.48577255045672
 20
348.3350343075615
 42
0.012829350307583809
  0
VERTEX
  8
0
 10
437.5807920046546
 20
347.59327247811683
 42
0.024907615035772324
  0
VERTEX
  8
0
 10
440.88780096462051
 20
346.68955979115844
 42
-0.32219383120536804
  0
VERTEX
  8
0
 10
441.66681241234357
 20
345.8198709502588
 42
0.0058821253478527069
  0
VERTEX
  8
0
 10
441.94296313646385
 20
343.50705670963049
 42
-0.32208505272865295
  0
VERTEX
  8
0
 10
441.39096207016291
 20
342.47857551420202
 42
0.025294903665781021
  0
VERTEX
  8
0
 10
438.30901004199347
 20
340.77239469068724
 42
0.012274393811821938
  0
VERTEX
  8
0
 10
436.5277882006045
 20
339.60771225598609
 42
0.2920365035533905
  0
VERTEX
  8
0
 10
436.10973732326266
 20
338.61586694378332
 42
0.0027644014917314053
  0
VERTEX
  8
0
 10
436.31274227360336
 20
337.46710114493277
 42
0.0027643681969493628
  0
VERTEX
  8
0
 10
436.52842991370176
 20
336.32066040077029
 42
0.29204165935516357
  0
VERTEX
  8
0
 10
437.26978297872427
 20
335.5402995503573
 42
0.012829354964196682
  0
VERTEX
  8
0
 10
439.44007822754151
 20
335.06161375420766
 42
0.024907607585191727
  0
VERTEX
  8
0
 10
442.83308146354557
 20
334.57114023252274
 42
-0.32219389081001282
  0
VERTEX
  8
0
 10
443.71305761727524
 20
333.80377595329219
 42
0.0058821253478527069
  0
VERTEX
  8
0
 10
444.27133409395327
 20
331.54243028884514
 42
-0.32208499312400818
  0
VERTEX
  8
0
 10
443.84990877578883
 20
330.45390765016953
 42
0.025294903665781021
  0
VERTEX
  8
0
 10
441.00098962197933
 20
328.3819242229892
 42
0.012274393811821938
  0
VERTEX
  8
0
 10
439.37638443869679
 20
327.00717913657581
 42
0.29203653335571289
  0
VERTEX
  8
0
 10
439.08338752359634
 20
325.97147568577344
 42
0.0027643681969493628
  0
VERTEX
  8
0
 10
439.42602124561506
 20
324.85636648139501
 42
0.0027643681969493628
  0
VERTEX
  8
0
 10
439.78096289911826
 20
323.74512130451205
 42
0.29204165935516357
  0
VERTEX
  8
0
 10
440.61259150914697
 20
323.06177577047521
 42
0.012829352170228958
  0
VERTEX
  8
0
 10
442.82526543802771
 20
322.85342307358712
 42
0.024907626211643219
  0
VERTEX
  8
0
 10
446.25281939121061
 20
322.78362684453833
 42
-0.32219389081001282
  0
VERTEX
  8
0
 10
447.22042892891164
 20
322.13022110505455
 42
0.0058821253478527069
  0
VERTEX
  8
0
 10
448.05236704424141
 20
319.95461913564458
 42
-0.32208505272865295
  0
VERTEX
  8
0
 10
447.76791430346202
 20
318.82255638242191
 42
0.025294903665781021
  0
VERTEX
  8
0
 10
445.19519525023821
 20
316.41617562077829
 42
0.012274393811821938
  0
VERTEX
  8
0
 10
443.75184927858959
 20
314.8522070602657
 42
0.29203653335571289
  0
VERTEX
  8
0
 10
443.588354165895
 20
313.78835039491565
 42
0.0027643681969493628
  0
VERTEX
  8
0
 10
444.06542608038171
 20
312.72380062911992
 42
0.0027644014917314053
  0
VERTEX
  8
0
 10
444.5542401187862
 20
311.66458221730528
 42
0.29204162955284119
  0
VERTEX
  8
0
 10
445.46353988224632
 20
311.0886258511772
 42
0.012829284183681011
  0
VERTEX
  8
0
 10
447.68503660806607
 20
311.15376249437952
 42
0.024907568469643593
  0
VERTEX
  8
0
 10
451.09518158806395
 20
311.50569998085916
 42
-0.32219389081001282
  0
VERTEX
  8
0
 10
452.13576574169485
 20
310.97615684756397
 42
0.0058821253478527069
  0
VERTEX
  8
0
 10
453.22876054278612
 20
308.91927472323465
 42
-0.32208499312400818
  0
VERTEX
  8
0
 10
453.08556676604326
 20
307.76084234166387
 42
0.025294870138168335
  0
VERTEX
  8
0
 10
450.82807154243199
 20
305.05655546776217
 42
0.012274393811821938
  0
VERTEX
  8
0
 10
449.58786267976876
 20
303.3270604651284
 42
0.29203653335571289
  0
VERTEX
  8
0
 10
449.55633538361161
 20
302.25117614790406
 42
0.0027644014917314053
  0
VERTEX
  8
0
 10
450.16061446195681
 20
301.25331364026107
 42
0.0027643681969493628
  0
VERTEX
  8
0
 10
450.77587892387231
 20
300.26220486938934
 42
0.29204156994819641
  0
VERTEX
  8
0
 10
451.74907090586731
 20
299.80235342383571
 42
0.012829417362809181
  0
VERTEX
  8
0
 10
453.94573253016972
 20
300.13998947775781
 42
0.024907568469643593
  0
VERTEX
  8
0
 10
457.2867861479337
 20
300.9083281214285
 42
-0.32219389081001282
  0
VERTEX
  8
0
 10
458.38455640834655
 20
300.51067020449858
 42
0.0058821253478527069
  0
VERTEX
  8
0
 10
459.7220201927214
 20
298.60369708447536
 42
-0.32208505272865295
  0
VERTEX
  8
0
 10
459.72227533436023
 20
297.43644855210925
 42
0.025294870138168335
  0
VERTEX
  8
0
 10
457.81421777468751
 20
294.47522910625509
 42
0.012274393811821938
  0
VERTEX
  8
0
 10
456.79593741587075
 20
292.60643969982283
 42
0.29203653335571289
  0
VERTEX
  8
0
 10
456.89686872170023
 20
291.53483738975461
 42
0.0027643849607557058
  0
VERTEX
  8
0
 10
457.61918938094095
 20
290.61880466289358
 42
0.0027643849607557058
  0
VERTEX
  8
0
 10
458.35159311043674
 20
289.71080754564008
 42
0.29204162955284119
  0
VERTEX
  8
0
 10
459.37391421625387
 20
289.37403773434573
 42
0.012829284183681011
  0
VERTEX
  8
0
 10
461.5124234424261
 20
289.97906187125807
 42
0.024907568469643593
  0
VERTEX
  8
0
 10
464.73373623764945
 20
291.15215122278897
 42
-0.32219389081001282
  0
VERTEX
  8
0
 10
465.87205618176631
 20
290.89241354125329
 42
0.0058821085840463638
  0
VERTEX
  8
0
 10
467.43372913574024
 20
289.16425432316271
 42
-0.32208499312400818
  0
VERTEX
  8
0
 10
467.57742648800036
 20
288.00588621803416
 42
0.025294870138168335
  0
VERTEX
  8
0
 10
466.04772742952599
 20
284.83262949338558
 42
0.012274360284209251
  0
VERTEX
  8
0
 10
465.26681913920055
 20
282.85287135899932
 42
0.29203653335571289
  0
VERTEX
  8
0
 10
465.49867013326985
 20
281.80180090620399
 42
0.0027644014917314053
  0
VERTEX
  8
0
 10
466.32809117852702
 20
280.98146266517801
 42
0.0027643681969493628
  0
VERTEX
  8
0
 10
467.16652478610638
 20
280.17036253108409
 42
0.29204156994819641
  0
VERTEX
  8
0
 10
468.22247892962588
 20
279.96177360241091
 42
0.012829417362809181
  0
VERTEX
  8
0
 10
470.27044677034553
 20
280.82500775285416
 42
0.024907568469643593
  0
VERTEX
  8
0
 10
473.32318126780899
 20
282.38507443876733
 42
-0.32219389081001282
  0
VERTEX
  8
0
 10
474.48478727632278
 20
282.26718138596607
 42
0.0058821253478527069
  0
VERTEX
  8
0
 10
476.24699500773829
 20
280.74402833197672
 42
-0.32208505272865295
  0
VERTEX
  8
0
 10
476.53194522768899
 20
279.6120979811144
 42
0.025294870138168335
  0
VERTEX
  8
0
 10
475.4037945599955
 20
276.2749172089143
 42
0.012274360284209251
  0
VERTEX
  8
0
 10
474.87210054063303
 20
274.21420640443671
 42
0.29203653335571289
  0
VERTEX
  8
0
 10
475.231362446155
 20
273.19958292821821
 42
0.0027644014917314053
  0
VERTEX
  8
0
 10
476.15530000119992
 20
272.48739196480869
 42
0.0027643681969493628
  0
VERTEX
  8
0
 10
477.08704917979696
 20
271.78547432649657
 42
0.29204162955284119
  0
VERTEX
  8
0
 10
478.16064352615155
 20
271.70822599693747
 42
0.012829417362809181
  0
VERTEX
  8
0
 10
480.08700679377546
 20
272.8165990930741
 42
0.024907702580094337
  0
VERTEX
  8
0
 10
482.92488620885251
 20
274.73998006235757
 42
-0.32219383120536804
  0
VERTEX
  8
0
 10
484.09216588653749
 20
274.76573274689611
 42
0.0058821253478527069
  0
VERTEX
  8
0
 10
486.02819919309263
 20
273.47067472383799
 42
-0.32208499312400818
  0
VERTEX
  8
0
 10
486.45009403667325
 20
272.382344338027
 42
0.025294870138168335
  0
VERTEX
  8
0
 10
485.74059649050241
 20
268.93182454538203
 42
0.012274360284209251
  0
VERTEX
  8
0
 10
485.46616473547971
 20
266.8213838809969
 42
0.29203656315803528
  0
VERTEX
  8
0
 10
485.94738863096808
 20
265.8586045329663
 42
0.0027643931098282337
  0
VERTEX
  8
0
 10
486.95184395261441
 20
265.26535658870375
 42
0.0027643765788525343
  0
VERTEX
  8
0
 10
487.96279097218837
 20
264.68324985861096
 42
0.29204168915748596
  0
VERTEX
  8
0
 10
489.03773796498814
 20
264.73852709867282
 42
0.012829284183681011
  0
VERTEX
  8
0
 10
490.81328252923691
 20
266.07522156573714
 42
0.024907568469643593
  0
VERTEX
  8
0
 10
493.3932944131904
 20
268.33276156661265
 42
-0.32219383120536804
  0
VERTEX
  8
0
 10
494.54857622016954
 20
268.50177169812901
 42
0.0058821169659495354
  0
VERTEX
  8
0
 10
496.62907870345003
 20
267.45445297491477
 42
-0.32208514213562012
  0
VERTEX
  8
0
 10
497.1815164963877
 20
266.42620724727834
 42
0.025294870138168335
  0
VERTEX
  8
0
 10
496.90142896769379
 20
262.91465490080441
 42
0.012274360284209251
  0
VERTEX
  8
0
 10
496.88842365988575
 20
260.78648707982535
 42
0.29203656315803528
  0
VERTEX
  8
0
 10
497.48431454739051
 20
259.89013308423398
 42
0.0027643931098282337
  0
VERTEX
  8
0
 10
498.55406031137903
 20
259.42482107769433
 42
0.0027643681969493628
  0
VERTEX
  8
0
 10
499.62887800069967
 20
258.97136602072351
 42
0.29204162955284119
  0
VERTEX
  8
0
 10
500.6888850432332
 20
259.15832438467726
 42
0.012829417362809181
  0
VERTEX
  8
0
 10
502.28671636605657
 20
260.70307926654789
 42
0.024907702580094337
  0
VERTEX
  8
0
 10
504.56974773724215
 20
263.26056295479088
 42
-0.32219383120536804
  0
VERTEX
  8
0
 10
505.69549553669231
 20
263.57025199507598
 42
0.0058821253478527069
  0
VERTEX
  8
0
 10
507.88893328134634
 20
262.78654212624411
 42
-0.32208505272865295
  0
VERTEX
  8
0
 10
508.5635420301104
 20
261.83398932892442
 42
0.025294870138168335
  0
VERTEX
  8
0
 10
508.71710414692387
 20
258.31463198000517
 42
0.012274360284209251
  0
VERTEX
  8
0
 10
508.96572519447551
 20
256.20100114621164
 42
0.29203656315803528
  0
VERTEX
  8
0
 10
509.66725185909218
 20
255.3846618428542
 42
0.0027643931098282337
  0
VERTEX
  8
0
 10
510.78607188451736
 20
255.05433749325027
 42
0.0027643723879009485
  0
VERTEX
  8
0
 10
511.90846697051558
 20
254.73640305778585
 42
0.29204168915748596
  0
VERTEX
  8
0
 10
512.93746353123061
 20
255.05219821059356
 42
0.012829284183681011
  0
VERTEX
  8
0
 10
514.33334552929307
 20
256.78159761096447
 42
0.024907568469643593
  0
VERTEX
  8
0
 10
516.28478976058932
 20
259.60026570559938
 42
-0.32219383120536804
  0
VERTEX
  8
0
 10
517.3639522263959
 20
260.04594726814594
 42
0.0058821211569011211
  0
VERTEX
  8
0
 10
519.63707253466714
 20
259.53772546716425
 42
-0.32208514213562012
  0
VERTEX
  8
0
 10
520.42363066404118
 20
258.67529174582126
 42
0.025294870138168335
  0
VERTEX
  8
0
 10
521.0085154818612
 20
255.20146952223658
 42
0.012274393811821938
  0
VERTEX
  8
0
 10
521.51499253971542
 20
253.13440537060356
 42
0.29203653335571289
  0
VERTEX
  8
0
 10
522.31151828986094
 20
252.41047927820972
 42
0.0027643931098282337
  0
VERTEX
  8
0
 10
523.4624512114159
 20
252.22014522962547
 42
0.0027643723879009485
  0
VERTEX
  8
0
 10
524.61541003191701
 20
252.0425511807324
 42
0.29204162955284119
  0
VERTEX
  8
0
 10
525.59779971164323
 20
252.48240646339309
 42
0.012829417362809181
  0
VERTEX
  8
0
 10
526.77058737760672
 20
254.37023624304527
 42
0.024907702580094337
  0
VERTEX
  8
0
 10
528.36085400972888
 20
257.40734788241082
 42
-0.32219386100769043
  0
VERTEX
  8
0
 10
529.37706223492285
 20
257.98227264698073
 42
0.0058821211569011211
  0
VERTEX
  8
0
 10
531.69541015779851
 20
257.75723479576425
 42
-0.32208505272865295
  0
VERTEX
  8
0
 10
532.58198978196185
 20
256.99799569615914
 42
0.025294870138168335
  0
VERTEX
  8
0
 10
533.58933236931068
 20
253.62239060118705
 42
0.012274393811821938
  0
VERTEX
  8
0
 10
534.34598864474412
 20
251.63323033145744
 42
0.29203653335571289
  0
VERTEX
  8
0
 10
535.2254394891836
 20
251.01267264146446
 42
0.0027643947396427393
  0
VERTEX
  8
0
 10
536.3910388081606
 20
250.96521266295821
 42
0.0027643728535622358
  0
VERTEX
  8
0
 10
537.55708303810218
 20
250.93065217188865
 42
0.29204168915748596
  0
VERTEX
  8
0
 10
538.47797404664971
 20
251.48789574312286
 42
0.012829284183681011
  0
VERTEX
  8
0
 10
539.40987171616678
 20
253.5055391253004
 42
0.024907568469643593
  0
VERTEX
  8
0
 10
540.6148663126387
 20
256.71504879583938
 42
-0.32219386100769043
  0
VERTEX
  8
0
 10
541.55272385836622
 20
257.41050242594974
 42
0.0058820587582886219
  0
VERTEX
  8
0
 10
543.88113272856583
 20
257.47207501035575
 42
-0.32208505272865295
  0
VERTEX
  8
0
 10
544.85431377049747
 20
256.82754091899602
 42
0.025294886901974678
  0
VERTEX
  8
0
 10
546.26884569538572
 20
253.60130648536023
 42
0.012274377048015594
  0
VERTEX
  8
0
 10
547.26421124426793
 20
251.72021365127097
 42
0.29203647375106812
  0
VERTEX
  8
0
 10
548.21325423829137
 20
251.21242863709875
 42
0.0027645013760775328
  0
VERTEX
  8
0
 10
549.37587139470611
 20
251.30856824022476
 42
0.0027643681969493628
  0
VERTEX
  8
0
 10
550.53732296533315
 20
251.41756095168057
 42
0.29204156994819641
  0
VERTEX
  8
0
 10
551.38273750680605
 20
252.08374694578146
 42
0.012829417362809181
  0
VERTEX
  8
0
 10
552.05963266480296
 20
254.20062556876491
 42
0.024907702580094337
  0
VERTEX
  8
0
 10
552.86107723997475
 20
257.53389124731757
 42
-0.32219386100769043
  0
VERTEX
  8
0
 10
553.70636305028108
 20
258.3393079468575
 42
0.0058821919374167919
  0
VERTEX
  8
0
 10
556.00958159449954
 20
258.68655376677088
 42
-0.32208505272865295
  0
VERTEX
  8
0
 10
557.05456927480952
 20
258.16649392052398
 42
0.025294870138168335
  0
VERTEX
  8
0
 10
558.85484534213913
 20
255.13854468062547
 42
0.012274377048015594
  0
VERTEX
  8
0
 10
560.07382663143972
 20
253.39402779362445
 42
0.29203653335571289
  0
VERTEX
  8
0
 10
561.07808187841886
 20
253.00671529629753
 42
0.0027643681969493628
  0
VERTEX
  8
0
 10
562.22004162554265
 20
253.24499808148471
 42
0.0027643681969493628
  0
VERTEX
  8
0
 10
563.35929645961551
 20
253.49589654868157
 42
0.29204171895980835
  0
VERTEX
  8
0
 10
564.11646598088544
 20
254.26093348818165
 42
0.012829284183681011
  0
VERTEX
  8
0
 10
564.52808752686497
 20
256.44493396487439
 42
0.024907568469643593
  0
VERTEX
  8
0
 10
564.91384061630538
 20
259.85142526253259
 42
-0.32219386100769043
  0
VERTEX
  8
0
 10
565.65374289691852
 20
260.75463089821301
 42
0.0058820587582886219
  0
VERTEX
  8
0
 10
567.8968058346328
 20
261.3822703388945
 42
-0.32208505272865295
  0
VERTEX
  8
0
 10
568.99780867744562
 20
260.994573845209
 42
0.025294886901974678
  0
VERTEX
  8
0
 10
571.15653922364879
 20
258.21080567557163
 42
0.012274377048015594
  0
VERTEX
  8
0
 10
572.58066722738704
 20
256.62931276053547
 42
0.29203662276268005
  0
VERTEX
  8
0
 10
573.62490288080437
 20
256.36835289581575
 42
0.0027643681969493628
  0
VERTEX
  8
0
 10
574.72894782631488
 20
256.74516913054651
 42
0.0027643681969493628
  0
VERTEX
  8
0
 10
575.82873523504929
 20
257.13415768337438
 42
0.29204156994819641
  0
VERTEX
  8
0
 10
576.48612766101223
 20
257.98643043168067
 42
0.012829417362809181
  0
VERTEX
  8
0
 10
576.62624295346461
 20
260.20447569986209
 42
0.024907702580094337
  0
VERTEX
  8
0
 10
576.59045345016955
 20
263.63255139636442
 42
-0.32219386100769043
  0
VERTEX
  8
0
 10
577.21375136962342
 20
264.61982374062831
 42
0.0058820587582886219
  0
VERTEX
  8
0
 10
579.36270813569854
 20
265.51836892344886
 42
-0.32208505272865295
  0
VERTEX
  8
0
 10
580.50298788041107
 20
265.26889958269851
 42
0.025294870138168335
  0
VERTEX
  8
0
 10
582.9874492578557
 20
262.77151651978335
 42
0.012274360284209251
  0
VERTEX
  8
0
 10
584.59512653280603
 20
261.37701441625325
 42
0.29203653335571289
  0
VERTEX
  8
0
 10
585.66351721702131
 20
261.24635200505384
 42
0.0027643681969493628
  0
VERTEX
  8
0
 10
586.71286234836737
 20
261.75597653328612
 42
0.0027643681969493628
  0
VERTEX
  8
0
 10
587.75651300058132
 20
262.27717692160394
 42
0.29204171895980835
  0
VERTEX
  8
0
 10
588.30421669600469
 20
263.20378915058302
 42
0.012829284183681011
  0
VERTEX
  8
0
 10
588.17069523840655
 20
265.4222272978422
 42
0.024907568469643593
  0
VERTEX
  8
0
 10
587.71390887705581
 20
268.81992071204934
 42
-0.32219386100769043
  0
VERTEX
  8
0
 10
588.2111606517874
 20
269.87632431893985
 42
0.0058820587582886219
  0
VERTEX
  8
0
 10
590.23338145104333
 20
271.03211591329205
 42
-0.32208505272865295
  0
VERTEX
  8
0
 10
591.39570066498879
 20
270.92467974781664
 42
0.025294870138168335
  0
VERTEX
  8
0
 10
594.16822733133961
 20
268.75153570669931
 42
0.012274360284209251
  0
VERTEX
  8
0
 10
595.93508989874681
 20
267.5651727933149
 42
0.29203662276268005
  0
VERTEX
  8
0
 10
597.01143547529716
 20
267.56679351874533
 42
0.0027643681969493628
  0
VERTEX
  8
0
 10
597.99022747187985
 20
268.20152108717866
 42
0.0027643681969493628
  0
VERTEX
  8
0
 10
598.96191766544723
 20
268.84702193284073
 42
0.29204156994819641
  0
VERTEX
  8
0
 10
599.39157419079118
 20
269.83390322876659
 42
0.012829417362809181
  0
VERTEX
  8
0
 10
598.98644373329989
 20
272.01912523454018
 42
0.024907568469643593
  0
VERTEX
  8
0
 10
598.11558461805532
 20
275.3349377696062
 42
-0.32219386100769043
  0
VERTEX
  8
0
 10
598.47924718660931
 20
276.44443026512448
 42
0.0058820587582886219
  0
VERTEX
  8
0
 10
600.34413023739728
 20
277.83998535795399
 42
-0.32208505272865295
  0
VERTEX
  8
0
 10
601.5108184399121
 20
277.87618536366341
 42
0.025294879451394081
  0
VERTEX
  8
0
 10
604.52938985982132
 20
276.0602169966163
 42
0.012274377048015594
  0
VERTEX
  8
0
 10
606.42864517890678
 20
275.09997076093589
 42
0.29203653335571289
  0
VERTEX
  8
0
 10
607.49663757303244
 20
275.23385422724181
 42
0.0027643681969493628
  0
VERTEX
  8
0
 10
608.38998739726912
 20
275.98403749044655
 42
0.0027643681969493628
  0
VERTEX
  8
0
 10
609.27498767786597
 20
276.74404579183181
 42
0.29204171895980835
  0
VERTEX
  8
0
 10
609.58013838095917
 20
277.77626295123309
 42
0.012829350307583809
  0
VERTEX
  8
0
 10
608.90953726060707
 20
279.89514540384909
 42
0.024907635524868965
  0
VERTEX
  8
0
 10
607.63780244292866
 20
283.07880232445103
 42
-0.32219386100769043
  0
VERTEX
  8
0
 10
607.86236266245044
 20
284.22457716011576
 42
0.0058821919374167919
  0
VERTEX
  8
0
 10
609.5416324059903
 20
285.83874054407011
 42
-0.32208505272865295
  0
VERTEX
  8
0
 10
610.6950135101697
 20
286.01802060216812
 42
0.025294879451394081
  0
VERTEX
  8
0
 10
613.91386625173641
 20
284.58677160091338
 42
0.012274368666112423
  0
VERTEX
  8
0
 10
615.91673465509984
 20
283.86720257033124
 42
0.29203659296035767
  0
VERTEX
  8
0
 10
616.96017144346411
 20
284.13131374146963
 42
0.0027643681969493628
  0
VERTEX
  8
0
 10
617.75457883340846
 20
284.98560555262122
 42
0.0027643681969493628
  0
VERTEX
  8
0
 10
618.53947979187183
 20
285.8486135476752
 42
0.29204162955284119
  0
VERTEX
  8
0
 10
618.71544045673249
 20
286.91049319575865
 42
0.012829350307583809
  0
VERTEX
  8
0
 10
617.78954731597094
 20
288.93090214392271
 42
0.024907635524868965
  0
VERTEX
  8
0
 10
616.13621570901
 20
291.93414687460461
 42
-0.32219386100769043
  0
VERTEX
  8
0
 10
616.21827894132605
 20
293.09882749232912
 42
0.0058820587582886219
  0
VERTEX
  8
0
 10
617.6864338217639
 20
294.90710540848511
 42
-0.32208505272865295
  0
VERTEX
  8
0
 10
618.80906279323915
 20
295.22678358544579
 42
0.025294873863458633
  0
VERTEX
  8
0
 10
622.17939422626387
 20
294.20194002791783
 42
0.012274372391402721
  0
VERTEX
  8
0
 10
624.25551222532135
 20
293.73394968169021
 42
0.29203653335571289
  0
VERTEX
  8
0
 10
625.25859056463537
 20
294.12428337561761
 42
0.0027643681969493628
  0
VERTEX
  8
0
 10
625.94197485086818
 20
295.06970531723522
 42
0.0027643681969493628
  0
VERTEX
  8
0
 10
626.61487082612814
 20
296.0226270123157
 42
0.29204171895980835
  0
VERTEX
  8
0
 10
626.65903074782648
 20
297.09810525348092
 42
0.012829350307583809
  0
VERTEX
  8
0
 10
625.49186463782291
 20
298.989419696987
 42
0.024907635524868965
  0
VERTEX
  8
0
 10
623.48199873748217
 20
301.76672084935529
 42
-0.32219383120536804
  0
VERTEX
  8
0
 10
623.42031305199714
 20
302.93266193978957
 42
0.0058821919374167919
  0
VERTEX
  8
0
 10
624.65513866168362
 20
304.90767379190862
 42
-0.32208508253097534
  0
VERTEX
  8
0
 10
625.72995760346873
 20
305.36286917848656
 42
0.025294872000813484
  0
VERTEX
  8
0
 10
629.20068756663386
 20
304.75996628566429
 42
0.012274368666112423
  0
VERTEX
  8
0
 10
631.31857643905187
 20
304.55065386515781
 42
0.29203659296035767
  0
VERTEX
  8
0
 10
632.26608026741815
 20
305.06129878747504
 42
0.0027643681969493628
  0
VERTEX
  8
0
 10
632.82812505739344
 20
306.08355247559058
 42
0.0027643681969493628
  0
VERTEX
  8
0
 10
633.37881346423205
 20
307.11194403027486
 42
0.29204162955284119
  0
VERTEX
  8
0
 10
633.29046044054041
 20
308.1846740242753
 42
0.012829350307583809
  0
VERTEX
  8
0
 10
631.89972630093382
 20
309.91821765311857
 42
0.024907635524868965
  0
VERTEX
  8
0
 10
629.56379766364398
 20
312.42748782991441
 42
-0.32219386100769043
  0
VERTEX
  8
0
 10
629.35929299927614
 20
313.57700786031177
 42
0.0058820587582886219
  0
VERTEX
  8
0
 10
630.34205024550283
 20
315.68877149881575
 42
-0.32208508253097534
  0
VERTEX
  8
0
 10
631.35278608811973
 20
316.27262372932842
 42
0.025294886901974678
  0
VERTEX
  8
0
 10
634.87131114322779
 20
316.10080224594793
 42
0.012274326756596565
  0
VERTEX
  8
0
 10
636.9988646768868
 20
316.15334055496947
 42
0.2920365035533905
  0
VERTEX
  8
0
 10
637.87643970227668
 20
316.77655439372063
 42
0.0027643681969493628
  0
VERTEX
  8
0
 10
638.30857795457234
 20
317.86009783767554
 42
0.0027643681969493628
  0
VERTEX
  8
0
 10
638.72872043148402
 20
318.94837048669217
 42
0.29204171895980835
  0
VERTEX
  8
0
 10
638.50921806819531
 20
320.00214129567627
 42
0.012829350307583809
  0
VERTEX
  8
0
 10
636.91599592226817
 20
321.55164161422528
 42
0.024907635524868965
  0
VERTEX
  8
0
 10
634.28941472696704
 20
323.75483074570485
 42
-0.32219386100769043
  0
VERTEX
  8
0
 10
633.94520419043533
 20
324.87050950347117
 42
0.0058821919374167919
  0
VERTEX
  8
0
 10
634.66099819099907
 20
327.08705569528394
 42
-0.32208508253097534
  0
VERTEX
  8
0
 10
635.59233028788628
 20
327.79066699533149
 42
0.025294769555330276
  0
VERTEX
  8
0
 10
639.10527842350621
 20
328.05253256644306
 42
0.012274326756596565
  0
VERTEX
  8
0
 10
641.21025101000214
 20
328.36612387944774
 42
0.29203665256500244
  0
VERTEX
  8
0
 10
642.00459599257556
 20
329.09245835669435
 42
0.0027643681969493628
  0
VERTEX
  8
0
 10
642.30031701235885
 20
330.22092233293012
 42
0.0027643681969493628
  0
VERTEX
  8
0
 10
642.58353961806029
 20
331.35257464771075
 42
0.29204162955284119
  0
VERTEX
  8
0
 10
642.23620545957635
 20
332.37135754478328
 42
0.012829350307583809
  0
VERTEX
  8
0
 10
640.46463163056546
 20
333.71332492136241
 42
0.024907635524868965
  0
VERTEX
  8
0
 10
637.58721532261575
 20
335.57704057061915
 42
-0.32219386100769043
  0
VERTEX
  8
0
 10
637.10850470183971
 20
336.64196370108237
 42
0.0058820587582886219
  0
VERTEX
  8
0
 10
637.546484503952
 20
338.92964615896756
 42
-0.32208508253097534
  0
VERTEX
  8
0
 10
638.38429778891532
 20
339.74239877106623
 42
0.025294903665781021
  0
VERTEX
  8
0
 10
641.83845142683742
 20
340.43398548939854
 42
0.012274326756596565
  0
VERTEX
  8
0
 10
643.88893115017129
 20
341.00387569985543
 42
0.2920365035533905
  0
VERTEX
  8
0
 10
644.58798925117526
 20
341.82231688189387
 42
0.0027643681969493628
  0
VERTEX
  8
0
 10
644.74279306823541
 20
342.97854041930191
 42
0.0027645013760775328
  0
VERTEX
  8
0
 10
644.88480210716398
 20
344.13647537915904
 42
0.29204156994819641
  0
VERTEX
  8
0
 10
644.41490176318985
 20
345.10482632839353
 42
0.012829350307583809
  0
VERTEX
  8
0
 10
642.49185002401885
 20
346.21891778622251
 42
0.024907635524868965
  0
VERTEX
  8
0
 10
639.4072074248943
 20
347.7149056319048
 42
-0.32219386100769043
  0
VERTEX
  8
0
 10
638.80126582227149
 20
348.71292845990655
 42
0.0058821919374167919
  0
VERTEX
  8
0
 10
638.95479528737678
 20
351.03711976254465
 42
-0.32208508253097534
  0
VERTEX
  8
0
 10
639.68637850795926
 20
351.94664551698031
 42
0.025294769555330276
  0
VERTEX
  8
0
 10
643.0293537219311
 20
353.05746088186055
 42
0.012274459935724735
  0
VERTEX
  8
0
 10
644.99427388405013
 20
353.8750200023203
 42
0.2920365035533905
  0
VERTEX
  8
0
 10
645.58745467140295
 20
354.77316042452702
 42
0.0027643681969493628
  0
SEQEND
  0
POLYLINE
  8
0
 10
0
 20
0
 39
0
 70
1
 66
1
  0
VERTEX
  8
0
 10
559.27499999999998
 20
78.200000000000003
 42
-0
  0
VERTEX
  8
0
 10
629.27499999999998
 20
78.200000000000003
 42
0
  0
VERTEX
  8
0
 10
639.27499999999998
 20
68.200000000000003
 42
-0
  0
VERTEX
  8
0
 10
639.27499999999998
 20
10.199999999999999
 42
-0
  0
VERTEX
  8
0
 10
474.27499999999998
 20
10.199999999999999
 42
0
  0
SEQEND
  0
POLYLINE
  8
0
 10
0
 20
0
 39
0
 70
1
 66
1
  0
VERTEX
  8
0
 10
600.77499999999998
 20
53.200000000000003
 42
1
  0
VERTEX
  8
0
 10
587.77499999999998
 20
53.200000000000003
 42
1
  0
SEQEND
  0
POLYLINE
  8
0
 10
0
 20
0
 39
0
 70
1
 66
1
  0
VERTEX
  8
0
 10
457.89999999999998
 20
10.200000000000003
 42
-0
  0
VERTEX
  8
0
 10
387.89999999999998
 20
10.200000000000017
 42
0
  0
VERTEX
  8
0
 10
377.89999999999998
 20
20.200000000000017
 42
-0
  0
VERTEX
  8
0
 10
377.89999999999998
 20
78.200000000000017
 42
-0
  0
VERTEX
  8
0
 10
542.89999999999998
 20
78.200000000000003
 42
0
  0
SEQEND
  0
POLYLINE
  8
0
 10
0
 20
0
 39
0
 70
1
 66
1
  0
VERTEX
  8
0
 10
416.39999999999998
 20
35.20000000000001
 42
1
  0
VERTEX
  8
0
 10
429.39999999999998
 20
35.20000000000001
 42
1
  0
SEQEND
  0
POLYLINE
  8
0
 10
0
 20
0
 39
0
 70
1
 66
1
  0
VERTEX
  8
0
 10
589.77499999999998
 20
156.30000000000001
 42
-0
  0
VERTEX
  8
0
 10
659.77499999999998
 20
156.30000000000001
 42
0
  0
VERTEX
  8
0
 10
669.77499999999998
 20
146.30000000000001
 42
-0
  0
VERTEX
  8
0
 10
669.77499999999998
 20
88.299999999999997
 42
-0
  0
VERTEX
  8
0
 10
504.77499999999998
 20
88.299999999999997
 42
0
  0
SEQEND
  0
POLYLINE
  8
0
 10
0
 20
0
 39
0
 70
1
 66
1
  0
VERTEX
  8
0
 10
631.27499999999998
 20
131.30000000000001
 42
1
  0
VERTEX
  8
0
 10
618.27499999999998
 20
131.30000000000001
 42
1
  0
SEQEND
  0
POLYLINE
  8
0
 10
0
 20
0
 39
0
 70
1
 66
1
  0
VERTEX
  8
0
 10
488.39999999999998
 20
88.299999999999997
 42
-0
  0
VERTEX
  8
0
 10
418.39999999999998
 20
88.300000000000011
 42
0
  0
VERTEX
  8
0
 10
408.39999999999998
 20
98.300000000000011
 42
-0
  0
VERTEX
  8
0
 10
408.39999999999998
 20
156.30000000000001
 42
-0
  0
VERTEX
  8
0
 10
573.39999999999998
 20
156.29999999999998
 42
0
  0
SEQEND
  0
POLYLINE
  8
0
 10
0
 20
0
 39
0
 70
1
 66
1
  0
VERTEX
  8
0
 10
446.89999999999998
 20
113.30000000000001
 42
1
  0
VERTEX
  8
0
 10
459.89999999999998
 20
113.30000000000001
 42
1
  0
SEQEND
  0
POLYLINE
  8
0
 10
0
 20
0
 39
0
 70
1
 66
1
  0
VERTEX
  8
0
 10
77.000000000000014
 20
294
 42
-0
  0
VERTEX
  8
0
 10
77
 20
364
 42
0
  0
VERTEX
  8
0
 10
87
 20
374
 42
-0
  0
VERTEX
  8
0
 10
145
 20
374
 42
-0
  0
VERTEX
  8
0
 10
145.00000000000003
 20
209
 42
0
  0
SEQEND
  0
POLYLINE
  8
0
 10
0
 20
0
 39
0
 70
1
 66
1
  0
VERTEX
  8
0
 10
102
 20
335.5
 42
1
  0
VERTEX
  8
0
 10
102
 20
322.5
 42
1
  0
SEQEND
  0
POLYLINE
  8
0
 10
0
 20
0
 39
0
 70
1
 66
1
  0
VERTEX
  8
0
 10
223.19999999999999
 20
218.40000000000001
 42
-0
  0
VERTEX
  8
0
 10
223.19999999999999
 20
148.40000000000001
 42
0
  0
VERTEX
  8
0
 10
213.19999999999999
 20
138.40000000000001
 42
-0
  0
VERTEX
  8
0
 10
155.19999999999999
 20
138.40000000000001
 42
-0
  0
VERTEX
  8
0
 10
155.19999999999999
 20
303.39999999999998
 42
0
  0
SEQEND
  0
POLYLINE
  8
0
 10
0
 20
0
 39
0
 70
1
 66
1
  0
VERTEX
  8
0
 10
198.19999999999999
 20
176.90000000000001
 42
1
  0
VERTEX
  8
0
 10
198.19999999999999
 20
189.90000000000001
 42
1
  0
SEQEND
  0
POLYLINE
  8
0
 10
0
 20
0
 39
0
 70
1
 66
1
  0
VERTEX
  8
0
 10
246.2304814192841
 20
341.77795443145715
 42
-0.42532935738563538
  0
VERTEX
  8
0
 10
254.22250932207746
 20
281.07247961898247
 42
-0
  0
VERTEX
  8
0
 10
260.26444641036858
 20
275.03054185634176
 42
-0.046670053154230118
  0
VERTEX
  8
0
 10
253.54693244123652
 20
268.31302788720973
 42
0
  0
VERTEX
  8
0
 10
247.50499501577062
 20
274.35496531267563
 42
-0.075040720403194427
  0
VERTEX
  8
0
 10
236.51903678321307
 20
268.01222212561288
 42
-0
  0
VERTEX
  8
0
 10
238.7305392064454
 20
259.75877957951639
 42
-0.046670053154230118
  0
VERTEX
  8
0
 10
229.55424523505084
 20
257.29999991442867
 42
0
  0
VERTEX
  8
0
 10
227.34274281181851
 20
265.55344246052516
 42
-0.075040720403194427
  0
VERTEX
  8
0
 10
214.65725374029475
 20
265.55344246052516
 42
-0
  0
VERTEX
  8
0
 10
212.44575131706242
 20
257.29999991442867
 42
-0.046670053154230118
  0
VERTEX
  8
0
 10
203.26945599696873
 20
259.75878092821551
 42
0
  0
VERTEX
  8
0
 10
205.48095976890019
 20
268.01222212561288
 42
-0.59002041816711426
  0
VERTEX
  8
0
 10
195.76951547000394
 20
341.77795476863196
 42
0
  0
VERTEX
  8
0
 10
191.49722100773917
 20
349.17778810272694
 42
-0.046670053154230118
  0
VERTEX
  8
0
 10
199.72445967845314
 20
353.92778909917968
 42
-0
  0
VERTEX
  8
0
 10
203.99675751246573
 20
346.527953742036
 42
-0.075040720403194427
  0
VERTEX
  8
0
 10
216.24999727960389
 20
349.81120060268961
 42
0
  0
VERTEX
  8
0
 10
216.24999862830302
 20
358.35579357331653
 42
-0.046670053154230118
  0
VERTEX
  8
0
 10
225.74999792381024
 20
358.35579357331653
 42
-0
  0
VERTEX
  8
0
 10
225.74999927250937
 20
349.81120060268961
 42
-0.075040720403194427
  0
VERTEX
  8
0
 10
238.00323903964753
 20
346.527953742036
 42
0
  0
VERTEX
  8
0
 10
242.27553687366012
 20
353.92778909917968
 42
-0.046670053154230118
  0
VERTEX
  8
0
 10
250.50277621872365
 20
349.17778742837737
 42
-0
  0
SEQEND
  0
POLYLINE
  8
0
 10
0
 20
0
 39
0
 70
1
 66
1
  0
VERTEX
  8
0
 10
241.80409369822846
 20
280.05585853802302
 42
0
  0
VERTEX
  8
0
 10
232.49048327368675
 20
289.3694770547595
 42
0
  0
VERTEX
  8
0
 10
239.20799757999359
 20
296.08699136106634
 42
-0
  0
VERTEX
  8
0
 10
248.52161474803094
 20
286.77337419302899
 42
14.457128524780273
  0
SEQEND
  0
POLYLINE
  8
0
 10
0
 20
0
 39
0
 70
1
 66
1
  0
VERTEX
  8
0
 10
301.13048141928414
 20
222.87795443145714
 42
-0.42532935738563538
  0
VERTEX
  8
0
 10
309.12250932207746
 20
162.17247961898244
 42
-0
  0
VERTEX
  8
0
 10
315.16444641036856
 20
156.13054185634175
 42
-0.046670053154230118
  0
VERTEX
  8
0
 10
308.44693244123653
 20
149.41302788720969
 42
0
  0
VERTEX
  8
0
 10
302.40499501577062
 20
155.4549653126756
 42
-0.075040720403194427
  0
VERTEX
  8
0
 10
291.41903678321307
 20
149.11222212561285
 42
-0
  0
VERTEX
  8
0
 10
293.63053920644541
 20
140.85877957951635
 42
-0.046670053154230118
  0
VERTEX
  8
0
 10
284.45424523505085
 20
138.39999991442863
 42
0
  0
VERTEX
  8
0
 10
282.24274281181852
 20
146.65344246052513
 42
-0.075040720403194427
  0
VERTEX
  8
0
 10
269.55725374029475
 20
146.65344246052513
 42
-0
  0
VERTEX
  8
0
 10
267.34575131706242
 20
138.39999991442863
 42
-0.046670053154230118
  0
VERTEX
  8
0
 10
258.16945599696874
 20
140.85878092821548
 42
0
  0
VERTEX
  8
0
 10
260.3809597689002
 20
149.11222212561285
 42
-0.59002041816711426
  0
VERTEX
  8
0
 10
250.66951547000394
 20
222.87795476863192
 42
0
  0
VERTEX
  8
0
 10
246.39722100773918
 20
230.2777881027269
 42
-0.046670053154230118
  0
VERTEX
  8
0
 10
254.62445967845315
 20
235.02778909917964
 42
-0
  0
VERTEX
  8
0
 10
258.89675751246574
 20
227.62795374203597
 42
-0.075040720403194427
  0
VERTEX
  8
0
 10
271.14999727960389
 20
230.91120060268958
 42
0
  0
VERTEX
  8
0
 10
271.14999862830302
 20
239.4557935733165
 42
-0.046670053154230118
  0
VERTEX
  8
0
 10
280.64999792381025
 20
239.4557935733165
 42
-0
  0
VERTEX
  8
0
 10
280.64999927250938
 20
230.91120060268958
 42
-0.075040720403194427
  0
VERTEX
  8
0
 10
292.90323903964753
 20
227.62795374203597
 42
0
  0
VERTEX
  8
0
 10
297.17553687366012
 20
235.02778909917964
 42
-0.046670053154230118
  0
VERTEX
  8
0
 10
305.40277621872366
 20
230.27778742837734
 42
-0
  0
SEQEND
  0
POLYLINE
  8
0
 10
0
 20
0
 39
0
 70
1
 66
1
  0
VERTEX
  8
0
 10
296.70409369822846
 20
161.15585853802298
 42
0
  0
VERTEX
  8
0
 10
287.39048327368675
 20
170.46947705475947
 42
0
  0
VERTEX
  8
0
 10
294.10799757999359
 20
177.1869913610663
 42
-0
  0
VERTEX
  8
0
 10
303.42161474803095
 20
167.87337419302895
 42
14.457128524780273
  0
SEQEND
  0
POLYLINE
  8
0
 10
0
 20
0
 39
0
 70
1
 66
1
  0
VERTEX
  8
0
 10
519.03048141928411
 20
388.37795443145717
 42
-0.42532935738563538
  0
VERTEX
  8
0
 10
527.02250932207744
 20
327.67247961898244
 42
-0
  0
VERTEX
  8
0
 10
533.06444641036853
 20
321.63054185634178
 42
-0.046670053154230118
  0
VERTEX
  8
0
 10
526.3469324412365
 20
314.91302788720969
 42
0
  0
VERTEX
  8
0
 10
520.3049950157706
 20
320.9549653126756
 42
-0.075040720403194427
  0
VERTEX
  8
0
 10
509.31903678321305
 20
314.61222212561285
 42
-0
  0
VERTEX
  8
0
 10
511.53053920644538
 20
306.35877957951635
 42
-0.046670053154230118
  0
VERTEX
  8
0
 10
502.35424523505083
 20
303.89999991442863
 42
0
  0
VERTEX
  8
0
 10
500.14274281181849
 20
312.15344246052513
 42
-0.075040720403194427
  0
VERTEX
  8
0
 10
487.45725374029473
 20
312.15344246052513
 42
-0
  0
VERTEX
  8
0
 10
485.2457513170624
 20
303.89999991442863
 42
-0.046670053154230118
  0
VERTEX
  8
0
 10
476.06945599696871
 20
306.35878092821548
 42
0
  0
VERTEX
  8
0
 10
478.28095976890017
 20
314.61222212561285
 42
-0.59002041816711426
  0
VERTEX
  8
0
 10
468.56951547000392
 20
388.37795476863192
 42
0
  0
VERTEX
  8
0
 10
464.29722100773915
 20
395.7777881027269
 42
-0.046670053154230118
  0
VERTEX
  8
0
 10
472.52445967845313
 20
400.52778909917964
 42
-0
  0
VERTEX
  8
0
 10
476.79675751246572
 20
393.12795374203597
 42
-0.075040720403194427
  0
VERTEX
  8
0
 10
489.04999727960387
 20
396.41120060268958
 42
0
  0
VERTEX
  8
0
 10
489.049998628303
 20
404.9557935733165
 42
-0.046670053154230118
  0
VERTEX
  8
0
 10
498.54999792381022
 20
404.9557935733165
 42
-0
  0
VERTEX
  8
0
 10
498.54999927250935
 20
396.41120060268958
 42
-0.075040720403194427
  0
VERTEX
  8
0
 10
510.80323903964751
 20
393.12795374203597
 42
0
  0
VERTEX
  8
0
 10
515.0755368736601
 20
400.52778909917964
 42
-0.046670053154230118
  0
VERTEX
  8
0
 10
523.30277621872369
 20
395.77778742837734
 42
-0
  0
SEQEND
  0
POLYLINE
  8
0
 10
0
 20
0
 39
0
 70
1
 66
1
  0
VERTEX
  8
0
 10
514.60409369822844
 20
326.65585853802298
 42
0
  0
VERTEX
  8
0
 10
505.29048327368673
 20
335.96947705475947
 42
0
  0
VERTEX
  8
0
 10
512.00799757999357
 20
342.6869913610663
 42
-0
  0
VERTEX
  8
0
 10
521.32161474803092
 20
333.37337419302895
 42
14.457128524780273
  0
SEQEND
  0
POLYLINE
  8
0
 10
0
 20
0
 39
0
 70
1
 66
1
  0
VERTEX
  8
0
 10
404.76054687500073
 20
447.68261200579582
 42
-0.76732701063156128
  0
VERTEX
  8
0
 10
351.63554687500073
 20
447.68163544329582
 42
0
  0
VERTEX
  8
0
 10
343.20000000000073
 20
489.79979950579582
 42
0
  0
VERTEX
  8
0
 10
413.19804687500073
 20
489.79979950579582
 42
0
  0
SEQEND
  0
POLYLINE
  8
0
 10
0
 20
0
 39
0
 70
1
 66
1
  0
VERTEX
  8
0
 10
363.19804687500073
 20
454.79979950579582
 42
1
  0
VERTEX
  8
0
 10
393.19804687500073
 20
454.79979950579582
 42
1
  0
SEQEND
  0
POLYLINE
  8
0
 10
0
 20
0
 39
0
 70
1
 66
1
  0
VERTEX
  8
0
 10
429.03749999999127
 20
208.51718749999964
 42
-0.76732701063156128
  0
VERTEX
  8
0
 10
482.16249999999127
 20
208.51816406249964
 42
0
  0
VERTEX
  8
0
 10
490.59804687499127
 20
166.39999999999964
 42
0
  0
VERTEX
  8
0
 10
420.59999999999127
 20
166.39999999999964
 42
0
  0
SEQEND
  0
POLYLINE
  8
0
 10
0
 20
0
 39
0
 70
1
 66
1
  0
VERTEX
  8
0
 10
470.59999999999127
 20
201.39999999999964
 42
1
  0
VERTEX
  8
0
 10
440.59999999999127
 20
201.39999999999964
 42
1
  0
SEQEND
  0
POLYLINE
  8
0
 10
0
 20
0
 39
0
 70
1
 66
1
  0
VERTEX
  8
0
 10
595.16054687499854
 20
376.28261200579618
 42
-0.76732701063156128
  0
VERTEX
  8
0
 10
542.03554687499854
 20
376.28163544329618
 42
0
  0
VERTEX
  8
0
 10
533.59999999999854
 20
418.39979950579618
 42
0
  0
VERTEX
  8
0
 10
603.59804687499854
 20
418.39979950579618
 42
0
  0
SEQEND
  0
POLYLINE
  8
0
 10
0
 20
0
 39
0
 70
1
 66
1
  0
VERTEX
  8
0
 10
553.59804687499854
 20
383.39979950579618
 42
1
  0
VERTEX
  8
0
 10
583.59804687499854
 20
383.39979950579618
 42
1
  0
SEQEND
  0
POLYLINE
  8
0
 10
0
 20
0
 39
0
 70
1
 66
1
  0
VERTEX
  8
0
 10
588.01718749999964
 20
337.26054687500073
 42
-0.76732701063156128
  0
VERTEX
  8
0
 10
588.01816406249964
 20
284.13554687500073
 42
0
  0
VERTEX
  8
0
 10
545.89999999999964
 20
275.70000000000073
 42
0
  0
VERTEX
  8
0
 10
545.89999999999964
 20
345.69804687500073
 42
0
  0
SEQEND
  0
POLYLINE
  8
0
 10
0
 20
0
 39
0
 70
1
 66
1
  0
VERTEX
  8
0
 10
580.89999999999964
 20
295.69804687500073
 42
1
  0
VERTEX
  8
0
 10
580.89999999999964
 20
325.69804687500073
 42
1
  0
SEQEND
  0
POLYLINE
  8
0
 10
0
 20
0
 39
0
 70
1
 66
1
  0
VERTEX
  8
0
 10
605.88261200579473
 20
174.83749999999782
 42
-0.76732701063156128
  0
VERTEX
  8
0
 10
605.88163544329473
 20
227.96249999999782
 42
0
  0
VERTEX
  8
0
 10
647.99979950579473
 20
236.39804687499782
 42
0
  0
VERTEX
  8
0
 10
647.99979950579473
 20
166.39999999999782
 42
0
  0
SEQEND
  0
POLYLINE
  8
0
 10
0
 20
0
 39
0
 70
1
 66
1
  0
VERTEX
  8
0
 10
612.99979950579473
 20
216.39999999999782
 42
1
  0
VERTEX
  8
0
 10
612.99979950579473
 20
186.39999999999782
 42
1
  0
SEQEND
  0
ENDSEC
  0
EOF
