  0
SECTION
  2
ENTITIES
  0
POLYLINE
  8
0
 10
0
 20
0
 39
0
 70
1
 66
1
  0
VERTEX
  8
0
 10
0
 20
0
 42
-0
  0
VERTEX
  8
0
 10
800
 20
0
 42
-0
  0
VERTEX
  8
0
 10
800
 20
500
 42
-0
  0
VERTEX
  8
0
 10
0
 20
500
 42
-0
  0
SEQEND
  0
POLYLINE
  8
0
 10
0
 20
0
 39
0
 70
1
 66
1
  0
VERTEX
  8
0
 10
130.12
 20
310.12
 42
-0
  0
VERTEX
  8
0
 10
265.12
 20
310.12
 42
-0
  0
VERTEX
  8
0
 10
265.12
 20
10.12000000000001
 42
-0
  0
VERTEX
  8
0
 10
130.12
 20
10.120000000000001
 42
-0
  0
VERTEX
  8
0
 10
10.120000000000005
 20
130.12
 42
-0
  0
VERTEX
  8
0
 10
10.120000000000001
 20
190.12
 42
0
  0
SEQEND
  0
POLYLINE
  8
0
 10
0
 20
0
 39
0
 70
1
 66
1
  0
VERTEX
  8
0
 10
100.12
 20
122.11999999999999
 42
1
  0
VERTEX
  8
0
 10
100.12
 20
198.12
 42
1
  0
SEQEND
  0
POLYLINE
  8
0
 10
0
 20
0
 39
0
 70
1
 66
1
  0
VERTEX
  8
0
 10
103.05697112953999
 20
314.16314652172832
 42
-1.2761945724487305
  0
VERTEX
  8
0
 10
103.05698638832905
 20
459.81018402783184
 42
0
  0
VERTEX
  8
0
 10
155.12000518715718
 20
446.98666718212871
 42
-0
  0
VERTEX
  8
0
 10
255.12000518715718
 20
446.98666718212871
 42
-0
  0
VERTEX
  8
0
 10
255.12000518715718
 20
326.98666718212871
 42
-0
  0
VERTEX
  8
0
 10
155.12000518715718
 20
326.98666718212871
 42
-0
  0
SEQEND
  0
POLYLINE
  8
0
 10
0
 20
0
 39
0
 70
1
 66
1
  0
VERTEX
  8
0
 10
103.62000518715718
 20
386.98666718212871
 42
1
  0
VERTEX
  8
0
 10
66.620005187157176
 20
386.98666718212871
 42
1
  0
SEQEND
  0
POLYLINE
  8
0
 10
0
 20
0
 39
0
 70
1
 66
1
  0
VERTEX
  8
0
 10
267.44314652172829
 20
343.72970072428382
 42
-1.2761945724487305
  0
VERTEX
  8
0
 10
413.09018402783181
 20
343.72968546549475
 42
0
  0
VERTEX
  8
0
 10
400.26666718212869
 20
291.66666666666669
 42
-0
  0
VERTEX
  8
0
 10
400.26666718212869
 20
191.66666666666666
 42
-0
  0
VERTEX
  8
0
 10
280.26666718212869
 20
191.66666666666666
 42
-0
  0
VERTEX
  8
0
 10
280.26666718212869
 20
291.66666666666663
 42
-0
  0
SEQEND
  0
POLYLINE
  8
0
 10
0
 20
0
 39
0
 70
1
 66
1
  0
VERTEX
  8
0
 10
340.26666718212869
 20
343.16666666666663
 42
1
  0
VERTEX
  8
0
 10
340.26666718212869
 20
380.16666666666663
 42
1
  0
SEQEND
  0
POLYLINE
  8
0
 10
0
 20
0
 39
0
 70
1
 66
1
  0
VERTEX
  8
0
 10
368.23030446287339
 20
12.296479855061616
 42
-1.2761945724487305
  0
VERTEX
  8
0
 10
368.23031972166245
 20
157.94351736116514
 42
0
  0
VERTEX
  8
0
 10
420.29333852049058
 20
145.12000051546201
 42
-0
  0
VERTEX
  8
0
 10
520.29333852049058
 20
145.12000051546201
 42
-0
  0
VERTEX
  8
0
 10
520.29333852049058
 20
25.120000515462007
 42
-0
  0
VERTEX
  8
0
 10
420.29333852049058
 20
25.120000515462007
 42
-0
  0
SEQEND
  0
POLYLINE
  8
0
 10
0
 20
0
 39
0
 70
1
 66
1
  0
VERTEX
  8
0
 10
368.79333852049058
 20
85.12000051546201
 42
1
  0
VERTEX
  8
0
 10
331.79333852049058
 20
85.12000051546201
 42
1
  0
SEQEND
  0
POLYLINE
  8
0
 10
0
 20
0
 39
0
 70
1
 66
1
  0
VERTEX
  8
0
 10
558.37018778618597
 20
248.23030446287328
 42
-1.2761945724487305
  0
VERTEX
  8
0
 10
412.72315028008245
 20
248.23031972166231
 42
0
  0
VERTEX
  8
0
 10
425.54666712578558
 20
300.29333852049047
 42
-0
  0
VERTEX
  8
0
 10
425.54666712578558
 20
400.29333852049047
 42
-0
  0
VERTEX
  8
0
 10
545.54666712578558
 20
400.29333852049047
 42
-0
  0
VERTEX
  8
0
 10
545.54666712578558
 20
300.29333852049047
 42
-0
  0
SEQEND
  0
POLYLINE
  8
0
 10
0
 20
0
 39
0
 70
1
 66
1
  0
VERTEX
  8
0
 10
485.54666712578558
 20
248.79333852049047
 42
1
  0
VERTEX
  8
0
 10
485.54666712578563
 20
211.79333852049047
 42
1
  0
SEQEND
  0
POLYLINE
  8
0
 10
0
 20
0
 39
0
 70
1
 66
1
  0
VERTEX
  8
0
 10
570.65333333333342
 20
51.120000000000005
 42
-0
  0
VERTEX
  8
0
 10
570.65333333333331
 20
369.11998474121094
 42
-1
  0
VERTEX
  8
0
 10
652.65333333333331
 20
369.11998474121094
 42
-0
  0
VERTEX
  8
0
 10
652.65333333333342
 20
51.120000000000005
 42
-1
  0
SEQEND
  0
POLYLINE
  8
0
 10
0
 20
0
 39
0
 70
1
 66
1
  0
VERTEX
  8
0
 10
611.65333333333342
 20
35.620000000000005
 42
1
  0
VERTEX
  8
0
 10
611.65333333333342
 20
66.620000000000005
 42
1
  0
SEQEND
  0
POLYLINE
  8
0
 10
0
 20
0
 39
0
 70
1
 66
1
  0
VERTEX
  8
0
 10
611.65333333333331
 20
353.61998474121094
 42
1
  0
VERTEX
  8
0
 10
611.65333333333331
 20
384.61998474121094
 42
1
  0
SEQEND
  0
POLYLINE
  8
0
 10
0
 20
0
 39
0
 70
1
 66
1
  0
VERTEX
  8
0
 10
611.65333333333331
 20
155.61996948242188
 42
1
  0
VERTEX
  8
0
 10
611.65333333333331
 20
186.61996948242188
 42
1
  0
SEQEND
  0
POLYLINE
  8
0
 10
0
 20
0
 39
0
 70
1
 66
1
  0
VERTEX
  8
0
 10
611.65333333333331
 20
253.61996948242188
 42
1
  0
VERTEX
  8
0
 10
611.65333333333331
 20
284.61996948242188
 42
1
  0
SEQEND
  0
POLYLINE
  8
0
 10
0
 20
0
 39
0
 70
1
 66
1
  0
VERTEX
  8
0
 10
662.8133333333335
 20
51.120000000000005
 42
-0
  0
VERTEX
  8
0
 10
662.81333333333339
 20
369.11998474121094
 42
-1
  0
VERTEX
  8
0
 10
744.81333333333339
 20
369.11998474121094
 42
-0
  0
VERTEX
  8
0
 10
744.8133333333335
 20
51.120000000000005
 42
-1
  0
SEQEND
  0
POLYLINE
  8
0
 10
0
 20
0
 39
0
 70
1
 66
1
  0
VERTEX
  8
0
 10
703.8133333333335
 20
35.620000000000005
 42
1
  0
VERTEX
  8
0
 10
703.8133333333335
 20
66.620000000000005
 42
1
  0
SEQEND
  0
POLYLINE
  8
0
 10
0
 20
0
 39
0
 70
1
 66
1
  0
VERTEX
  8
0
 10
703.81333333333339
 20
353.61998474121094
 42
1
  0
VERTEX
  8
0
 10
703.81333333333339
 20
384.61998474121094
 42
1
  0
SEQEND
  0
POLYLINE
  8
0
 10
0
 20
0
 39
0
 70
1
 66
1
  0
VERTEX
  8
0
 10
703.81333333333339
 20
155.61996948242188
 42
1
  0
VERTEX
  8
0
 10
703.81333333333339
 20
186.61996948242188
 42
1
  0
SEQEND
  0
POLYLINE
  8
0
 10
0
 20
0
 39
0
 70
1
 66
1
  0
VERTEX
  8
0
 10
703.81333333333339
 20
253.61996948242188
 42
1
  0
VERTEX
  8
0
 10
703.81333333333339
 20
284.61996948242188
 42
1
  0
SEQEND
  0
POLYLINE
  8
0
 10
0
 20
0
 39
0
 70
1
 66
1
  0
VERTEX
  8
0
 10
326.54666666666662
 20
459.72000000000003
 42
-0
  0
VERTEX
  8
0
 10
249.45885996500647
 20
459.72000000000003
 42
0.46467694640159607
  0
VERTEX
  8
0
 10
223.63447336832678
 20
459.72000000000003
 42
-0
  0
VERTEX
  8
0
 10
146.54666666666662
 20
459.72000000000003
 42
0
  0
VERTEX
  8
0
 10
146.54666666666662
 20
489.72000000000003
 42
0
  0
VERTEX
  8
0
 10
223.63447336832678
 20
489.72000000000003
 42
0.46467694640159607
  0
VERTEX
  8
0
 10
249.45885996500647
 20
489.72000000000003
 42
0
  0
VERTEX
  8
0
 10
326.54666666666662
 20
489.72000000000003
 42
0
  0
SEQEND
  0
POLYLINE
  8
0
 10
0
 20
0
 39
0
 70
1
 66
1
  0
VERTEX
  8
0
 10
315.80674700419104
 20
474.72000000000003
 42
1
  0
VERTEX
  8
0
 10
297.80674700419104
 20
474.72000000000003
 42
1
  0
SEQEND
  0
POLYLINE
  8
0
 10
0
 20
0
 39
0
 70
1
 66
1
  0
VERTEX
  8
0
 10
516.73333333333335
 20
446.70666666666665
 42
-0
  0
VERTEX
  8
0
 10
439.64552663167319
 20
446.70666666666665
 42
0.46467694640159607
  0
VERTEX
  8
0
 10
413.8211400349935
 20
446.70666666666665
 42
-0
  0
VERTEX
  8
0
 10
336.73333333333335
 20
446.70666666666665
 42
0
  0
VERTEX
  8
0
 10
336.73333333333335
 20
476.70666666666665
 42
0
  0
VERTEX
  8
0
 10
413.8211400349935
 20
476.70666666666665
 42
0.46467694640159607
  0
VERTEX
  8
0
 10
439.64552663167319
 20
476.70666666666665
 42
0
  0
VERTEX
  8
0
 10
516.73333333333335
 20
476.70666666666665
 42
0
  0
SEQEND
  0
POLYLINE
  8
0
 10
0
 20
0
 39
0
 70
1
 66
1
  0
VERTEX
  8
0
 10
505.99341367085776
 20
461.70666666666665
 42
1
  0
VERTEX
  8
0
 10
487.99341367085776
 20
461.70666666666665
 42
1
  0
SEQEND
  0
POLYLINE
  8
0
 10
0
 20
0
 39
0
 70
1
 66
1
  0
VERTEX
  8
0
 10
706.91999999999996
 20
420.14666666666665
 42
-0
  0
VERTEX
  8
0
 10
629.8321932983398
 20
420.14666666666665
 42
0.46467694640159607
  0
VERTEX
  8
0
 10
604.00780670166012
 20
420.14666666666665
 42
-0
  0
VERTEX
  8
0
 10
526.91999999999996
 20
420.14666666666665
 42
0
  0
VERTEX
  8
0
 10
526.91999999999996
 20
450.14666666666665
 42
0
  0
VERTEX
  8
0
 10
604.00780670166012
 20
450.14666666666665
 42
0.46467694640159607
  0
VERTEX
  8
0
 10
629.8321932983398
 20
450.14666666666665
 42
0
  0
VERTEX
  8
0
 10
706.91999999999996
 20
450.14666666666665
 42
0
  0
SEQEND
  0
POLYLINE
  8
0
 10
0
 20
0
 39
0
 70
1
 66
1
  0
VERTEX
  8
0
 10
696.18008033752437
 20
435.14666666666665
 42
1
  0
VERTEX
  8
0
 10
678.18008033752437
 20
435.14666666666665
 42
1
  0
SEQEND
  0
POLYLINE
  8
0
 10
0
 20
0
 39
0
 70
1
 66
1
  0
VERTEX
  8
0
 10
754.97333333333336
 20
10.120000000000001
 42
-0
  0
VERTEX
  8
0
 10
754.97333333333336
 20
87.207806701660161
 42
0.46467694640159607
  0
VERTEX
  8
0
 10
754.97333333333336
 20
113.03219329833985
 42
-0
  0
VERTEX
  8
0
 10
754.97333333333336
 20
190.12
 42
0
  0
VERTEX
  8
0
 10
784.97333333333336
 20
190.12
 42
0
  0
VERTEX
  8
0
 10
784.97333333333336
 20
113.03219329833985
 42
0.46467694640159607
  0
VERTEX
  8
0
 10
784.97333333333336
 20
87.207806701660161
 42
0
  0
VERTEX
  8
0
 10
784.97333333333336
 20
10.120000000000005
 42
0
  0
SEQEND
  0
POLYLINE
  8
0
 10
0
 20
0
 39
0
 70
1
 66
1
  0
VERTEX
  8
0
 10
769.97333333333336
 20
20.85991966247559
 42
1
  0
VERTEX
  8
0
 10
769.97333333333336
 20
38.85991966247559
 42
1
  0
SEQEND
  0
POLYLINE
  8
0
 10
0
 20
0
 39
0
 70
1
 66
1
  0
VERTEX
  8
0
 10
754.97333333333336
 20
200.19999999999999
 42
-0
  0
VERTEX
  8
0
 10
754.97333333333336
 20
277.28780670166014
 42
0.46467694640159607
  0
VERTEX
  8
0
 10
754.97333333333336
 20
303.11219329833983
 42
-0
  0
VERTEX
  8
0
 10
754.97333333333336
 20
380.19999999999999
 42
0
  0
VERTEX
  8
0
 10
784.97333333333336
 20
380.19999999999999
 42
0
  0
VERTEX
  8
0
 10
784.97333333333336
 20
303.11219329833983
 42
0.46467694640159607
  0
VERTEX
  8
0
 10
784.97333333333336
 20
277.28780670166014
 42
0
  0
VERTEX
  8
0
 10
784.97333333333336
 20
200.19999999999999
 42
0
  0
SEQEND
  0
POLYLINE
  8
0
 10
0
 20
0
 39
0
 70
1
 66
1
  0
VERTEX
  8
0
 10
769.97333333333336
 20
210.93991966247557
 42
1
  0
VERTEX
  8
0
 10
769.97333333333336
 20
228.93991966247557
 42
1
  0
SEQEND
  0
POLYLINE
  8
0
 10
0
 20
0
 39
0
 70
1
 66
1
  0
VERTEX
  8
0
 10
701.91999999999996
 20
460.25333333333333
 42
0
  0
VERTEX
  8
0
 10
526.91999999999996
 20
460.25333333333333
 42
0
  0
VERTEX
  8
0
 10
526.91999999999996
 20
485.25333333333333
 42
0
  0
VERTEX
  8
0
 10
701.91999999999996
 20
485.25333333333333
 42
0
  0
SEQEND
  0
POLYLINE
  8
0
 10
0
 20
0
 39
0
 70
1
 66
1
  0
VERTEX
  8
0
 10
658.91999999999996
 20
472.75333333333333
 42
1
  0
VERTEX
  8
0
 10
644.91999999999996
 20
472.75333333333333
 42
1
  0
SEQEND
  0
POLYLINE
  8
0
 10
0
 20
0
 39
0
 70
1
 66
1
  0
VERTEX
  8
0
 10
60.119999999999997
 20
10.120000000000001
 42
-0
  0
VERTEX
  8
0
 10
10.119999999999997
 20
10.120000000000001
 42
-0
  0
VERTEX
  8
0
 10
10.119999999999997
 20
60.120000000000005
 42
0
  0
VERTEX
  8
0
 10
60.119999999999997
 20
60.120000000000005
 42
0
  0
SEQEND
  0
POLYLINE
  8
0
 10
0
 20
0
 39
0
 70
1
 66
1
  0
VERTEX
  8
0
 10
47.616154785156247
 20
49.772534484863286
 42
-0
  0
VERTEX
  8
0
 10
24.024140472412107
 20
49.772534484863286
 42
0
  0
VERTEX
  8
0
 10
24.024140472412107
 20
35.772532577514653
 42
0
  0
VERTEX
  8
0
 10
35.119999999999997
 20
21.772532577514649
 42
0
  0
VERTEX
  8
0
 10
47.616154785156247
 20
21.772532577514649
 42
0
  0
SEQEND
  0
POLYLINE
  8
0
 10
0
 20
0
 39
0
 70
1
 66
1
  0
VERTEX
  8
0
 10
60.119999999999997
 20
254.59999999999999
 42
-0
  0
VERTEX
  8
0
 10
10.119999999999997
 20
254.59999999999999
 42
-0
  0
VERTEX
  8
0
 10
10.119999999999997
 20
304.60000000000002
 42
0
  0
VERTEX
  8
0
 10
60.119999999999997
 20
304.60000000000002
 42
0
  0
SEQEND
  0
POLYLINE
  8
0
 10
0
 20
0
 39
0
 70
1
 66
1
  0
VERTEX
  8
0
 10
47.616154785156247
 20
294.2525344848633
 42
-0
  0
VERTEX
  8
0
 10
24.024140472412107
 20
294.2525344848633
 42
0
  0
VERTEX
  8
0
 10
24.024140472412107
 20
280.25253257751467
 42
0
  0
VERTEX
  8
0
 10
35.119999999999997
 20
266.25253257751467
 42
0
  0
VERTEX
  8
0
 10
47.616154785156247
 20
266.25253257751467
 42
0
  0
SEQEND
  0
POLYLINE
  8
0
 10
0
 20
0
 39
0
 70
1
 66
1
  0
VERTEX
  8
0
 10
767.10666666666668
 20
418.75999999999999
 42
-0
  0
VERTEX
  8
0
 10
717.10666666666668
 20
418.75999999999999
 42
-0
  0
VERTEX
  8
0
 10
717.10666666666668
 20
468.75999999999999
 42
0
  0
VERTEX
  8
0
 10
767.10666666666668
 20
468.75999999999999
 42
0
  0
SEQEND
  0
POLYLINE
  8
0
 10
0
 20
0
 39
0
 70
1
 66
1
  0
VERTEX
  8
0
 10
754.60282145182293
 20
458.41253448486327
 42
-0
  0
VERTEX
  8
0
 10
731.01080713907879
 20
458.41253448486327
 42
0
  0
VERTEX
  8
0
 10
731.01080713907879
 20
444.41253257751464
 42
0
  0
VERTEX
  8
0
 10
742.10666666666668
 20
430.41253257751464
 42
0
  0
VERTEX
  8
0
 10
754.60282145182293
 20
430.41253257751464
 42
0
  0
SEQEND
  0
ENDSEC
  0
EOF
