  0
SECTION
  2
ENTITIES
  0
POLYLINE
  8
0
 10
0
 20
0
 39
0
 70
1
 66
1
  0
VERTEX
  8
0
 10
0
 20
0
 42
-0
  0
VERTEX
  8
0
 10
1100
 20
0
 42
-0
  0
VERTEX
  8
0
 10
1100
 20
700
 42
-0
  0
VERTEX
  8
0
 10
0
 20
700
 42
-0
  0
SEQEND
  0
POLYLINE
  8
0
 10
0
 20
0
 39
0
 70
1
 66
1
  0
VERTEX
  8
0
 10
809.65233034667972
 20
222.00000000000023
 42
0
  0
VERTEX
  8
0
 10
158.65239138183597
 20
222.00000000000023
 42
1
  0
VERTEX
  8
0
 10
158.65239138183597
 20
130.00000000000023
 42
0
  0
VERTEX
  8
0
 10
717.65233034667972
 20
130.00000000000023
 42
-0.41421356797218323
  0
VERTEX
  8
0
 10
737.65233034667972
 20
110.00000000000023
 42
0
  0
VERTEX
  8
0
 10
737.65233034667972
 20
56.000000000000227
 42
1
  0
VERTEX
  8
0
 10
829.65233034667972
 20
56.000000000000227
 42
0
  0
VERTEX
  8
0
 10
829.65233034667972
 20
202.00000000000023
 42
0.41421356797218323
  0
SEQEND
  0
POLYLINE
  8
0
 10
0
 20
0
 39
0
 70
1
 66
1
  0
VERTEX
  8
0
 10
768.15233034667972
 20
56.000000000000227
 42
-1
  0
VERTEX
  8
0
 10
799.15233034667972
 20
56.000000000000227
 42
-1
  0
SEQEND
  0
POLYLINE
  8
0
 10
0
 20
0
 39
0
 70
1
 66
1
  0
VERTEX
  8
0
 10
145.15239138183597
 20
176.00000000000023
 42
-1
  0
VERTEX
  8
0
 10
172.15239138183597
 20
176.00000000000023
 42
-1
  0
SEQEND
  0
POLYLINE
  8
0
 10
0
 20
0
 39
0
 70
1
 66
1
  0
VERTEX
  8
0
 10
30
 20
10.000000000000114
 42
0
  0
VERTEX
  8
0
 10
680.99993896484375
 20
10.000000000000114
 42
1
  0
VERTEX
  8
0
 10
680.99993896484375
 20
102.00000000000011
 42
0
  0
VERTEX
  8
0
 10
122
 20
102.00000000000011
 42
-0.41421356797218323
  0
VERTEX
  8
0
 10
102
 20
122.00000000000011
 42
0
  0
VERTEX
  8
0
 10
102
 20
176.00000000000011
 42
1
  0
VERTEX
  8
0
 10
10
 20
176.00000000000011
 42
0
  0
VERTEX
  8
0
 10
10
 20
30.000000000000114
 42
0.41421356797218323
  0
SEQEND
  0
POLYLINE
  8
0
 10
0
 20
0
 39
0
 70
1
 66
1
  0
VERTEX
  8
0
 10
71.5
 20
176.00000000000011
 42
-1
  0
VERTEX
  8
0
 10
40.5
 20
176.00000000000011
 42
-1
  0
SEQEND
  0
POLYLINE
  8
0
 10
0
 20
0
 39
0
 70
1
 66
1
  0
VERTEX
  8
0
 10
694.49993896484375
 20
56.000000000000114
 42
-1
  0
VERTEX
  8
0
 10
667.49993896484375
 20
56.000000000000114
 42
-1
  0
SEQEND
  0
POLYLINE
  8
0
 10
0
 20
0
 39
0
 70
1
 66
1
  0
VERTEX
  8
0
 10
640
 20
538.00000000000045
 42
0
  0
VERTEX
  8
0
 10
640
 20
460.00000000000045
 42
-0
  0
VERTEX
  8
0
 10
646
 20
454.00000000000045
 42
0
  0
VERTEX
  8
0
 10
694
 20
454.00000000000045
 42
-0
  0
VERTEX
  8
0
 10
700
 20
460.00000000000045
 42
-0
  0
VERTEX
  8
0
 10
700
 20
483.00000000000045
 42
0
  0
VERTEX
  8
0
 10
706
 20
489.00000000000045
 42
0
  0
VERTEX
  8
0
 10
774
 20
489.00000000000045
 42
-0
  0
VERTEX
  8
0
 10
780
 20
483.00000000000045
 42
0
  0
VERTEX
  8
0
 10
780
 20
460.00000000000045
 42
0
  0
VERTEX
  8
0
 10
786
 20
454.00000000000045
 42
0
  0
VERTEX
  8
0
 10
834
 20
454.00000000000045
 42
-0
  0
VERTEX
  8
0
 10
840
 20
460.00000000000045
 42
0
  0
VERTEX
  8
0
 10
840
 20
538.00000000000045
 42
-0
  0
VERTEX
  8
0
 10
834
 20
544.00000000000045
 42
0
  0
VERTEX
  8
0
 10
821
 20
544.00000000000045
 42
-0
  0
VERTEX
  8
0
 10
815
 20
550.00000000000045
 42
0
  0
VERTEX
  8
0
 10
815
 20
608.00000000000045
 42
0
  0
VERTEX
  8
0
 10
821
 20
614.00000000000045
 42
-0
  0
VERTEX
  8
0
 10
834
 20
614.00000000000045
 42
0
  0
VERTEX
  8
0
 10
840
 20
620.00000000000045
 42
0
  0
VERTEX
  8
0
 10
840
 20
668.00000000000045
 42
-0
  0
VERTEX
  8
0
 10
834
 20
674.00000000000045
 42
0
  0
VERTEX
  8
0
 10
646
 20
674.00000000000045
 42
-0
  0
VERTEX
  8
0
 10
640
 20
668.00000000000045
 42
0
  0
VERTEX
  8
0
 10
640
 20
620.00000000000045
 42
-0
  0
VERTEX
  8
0
 10
646
 20
614.00000000000045
 42
-0
  0
VERTEX
  8
0
 10
659
 20
614.00000000000045
 42
-0
  0
VERTEX
  8
0
 10
665
 20
608.00000000000045
 42
0
  0
VERTEX
  8
0
 10
665
 20
550.00000000000045
 42
-0
  0
VERTEX
  8
0
 10
659
 20
544.00000000000045
 42
0
  0
VERTEX
  8
0
 10
646
 20
544.00000000000045
 42
-0
  0
SEQEND
  0
POLYLINE
  8
0
 10
0
 20
0
 39
0
 70
1
 66
1
  0
VERTEX
  8
0
 10
766
 20
605.78955841064499
 42
0
  0
VERTEX
  8
0
 10
766
 20
551.21044158935592
 42
-0.33088359236717224
  0
VERTEX
  8
0
 10
758.17308044433594
 20
540.6780395507817
 42
-0.1473628431558609
  0
VERTEX
  8
0
 10
721.82692718505859
 20
540.6780395507817
 42
-0.33088359236717224
  0
VERTEX
  8
0
 10
714
 20
551.21044158935592
 42
-0
  0
VERTEX
  8
0
 10
714
 20
605.78955841064499
 42
-0.33088359236717224
  0
VERTEX
  8
0
 10
721.82692718505859
 20
616.32196426391647
 42
-0.14736282825469971
  0
VERTEX
  8
0
 10
758.17307281494141
 20
616.32196426391647
 42
-0.33088359236717224
  0
SEQEND
  0
POLYLINE
  8
0
 10
0
 20
0
 39
0
 70
1
 66
1
  0
VERTEX
  8
0
 10
954.32508466706918
 20
159.99928343443094
 42
1
  0
VERTEX
  8
0
 10
954.97958103602127
 20
10.000713945905545
 42
1
  0
SEQEND
  0
POLYLINE
  8
0
 10
0
 20
0
 39
0
 70
1
 66
1
  0
VERTEX
  8
0
 10
954.47780048649133
 20
124.99961722044168
 42
-1
  0
VERTEX
  8
0
 10
954.82686521659912
 20
45.000380159894803
 42
-1
  0
SEQEND
  0
POLYLINE
  8
0
 10
0
 20
0
 39
0
 70
1
 66
1
  0
VERTEX
  8
0
 10
964.67275432038946
 20
319.99928081476742
 42
1
  0
VERTEX
  8
0
 10
965.32725068934155
 20
170.00071132624203
 42
1
  0
SEQEND
  0
POLYLINE
  8
0
 10
0
 20
0
 39
0
 70
1
 66
1
  0
VERTEX
  8
0
 10
964.82547013981161
 20
284.99961460077816
 42
-1
  0
VERTEX
  8
0
 10
965.1745348699194
 20
205.00037754023128
 42
-1
  0
SEQEND
  0
POLYLINE
  8
0
 10
0
 20
0
 39
0
 70
1
 66
1
  0
VERTEX
  8
0
 10
964.67275432038946
 20
639.99927557544038
 42
1
  0
VERTEX
  8
0
 10
965.32725068934155
 20
490.00070608691499
 42
1
  0
SEQEND
  0
POLYLINE
  8
0
 10
0
 20
0
 39
0
 70
1
 66
1
  0
VERTEX
  8
0
 10
964.82547013981161
 20
604.99960936145112
 42
-1
  0
VERTEX
  8
0
 10
965.1745348699194
 20
525.00037230090425
 42
-1
  0
SEQEND
  0
POLYLINE
  8
0
 10
0
 20
0
 39
0
 70
1
 66
1
  0
VERTEX
  8
0
 10
839.65233034667972
 20
225.00000953674316
 42
0
  0
VERTEX
  8
0
 10
839.65233034667972
 20
25.000001907348633
 42
1
  0
VERTEX
  8
0
 10
869.65233416137698
 20
25.000001907348633
 42
-0
  0
VERTEX
  8
0
 10
869.65233416137698
 20
225.00000953674316
 42
-0
  0
SEQEND
  0
POLYLINE
  8
0
 10
0
 20
0
 39
0
 70
1
 66
1
  0
VERTEX
  8
0
 10
854.65233416137698
 20
31.000001907348633
 42
-1
  0
VERTEX
  8
0
 10
854.65233416137698
 20
19.000001907348633
 42
-1
  0
SEQEND
  0
POLYLINE
  8
0
 10
0
 20
0
 39
0
 70
1
 66
1
  0
VERTEX
  8
0
 10
10.000000000000009
 20
538.00000000000045
 42
0
  0
VERTEX
  8
0
 10
10.000000000000012
 20
460.00000000000045
 42
-0
  0
VERTEX
  8
0
 10
16.000000000000014
 20
454.00000000000045
 42
0
  0
VERTEX
  8
0
 10
64.000000000000014
 20
454.00000000000045
 42
-0
  0
VERTEX
  8
0
 10
70.000000000000014
 20
460.00000000000045
 42
-0
  0
VERTEX
  8
0
 10
70.000000000000014
 20
483.00000000000045
 42
0
  0
VERTEX
  8
0
 10
76.000000000000014
 20
489.00000000000045
 42
0
  0
VERTEX
  8
0
 10
144
 20
489.00000000000045
 42
-0
  0
VERTEX
  8
0
 10
150
 20
483.00000000000045
 42
0
  0
VERTEX
  8
0
 10
150
 20
460.00000000000045
 42
0
  0
VERTEX
  8
0
 10
156
 20
454.00000000000045
 42
0
  0
VERTEX
  8
0
 10
204
 20
454.00000000000045
 42
-0
  0
VERTEX
  8
0
 10
210
 20
460.00000000000045
 42
0
  0
VERTEX
  8
0
 10
210
 20
538.00000000000045
 42
-0
  0
VERTEX
  8
0
 10
204
 20
544.00000000000045
 42
0
  0
VERTEX
  8
0
 10
191
 20
544.00000000000045
 42
-0
  0
VERTEX
  8
0
 10
185
 20
550.00000000000045
 42
0
  0
VERTEX
  8
0
 10
185
 20
608.00000000000045
 42
0
  0
VERTEX
  8
0
 10
191
 20
614.00000000000045
 42
-0
  0
VERTEX
  8
0
 10
204
 20
614.00000000000045
 42
0
  0
VERTEX
  8
0
 10
210
 20
620.00000000000045
 42
0
  0
VERTEX
  8
0
 10
210
 20
668.00000000000045
 42
-0
  0
VERTEX
  8
0
 10
204
 20
674.00000000000045
 42
0
  0
VERTEX
  8
0
 10
16
 20
674.00000000000045
 42
-0
  0
VERTEX
  8
0
 10
10
 20
668.00000000000045
 42
0
  0
VERTEX
  8
0
 10
10.000000000000004
 20
620.00000000000045
 42
-0
  0
VERTEX
  8
0
 10
16.000000000000004
 20
614.00000000000045
 42
-0
  0
VERTEX
  8
0
 10
29.000000000000004
 20
614.00000000000045
 42
-0
  0
VERTEX
  8
0
 10
35
 20
608.00000000000045
 42
0
  0
VERTEX
  8
0
 10
35.000000000000007
 20
550.00000000000045
 42
-0
  0
VERTEX
  8
0
 10
29.000000000000007
 20
544.00000000000045
 42
0
  0
VERTEX
  8
0
 10
16.000000000000007
 20
544.00000000000045
 42
-0
  0
SEQEND
  0
POLYLINE
  8
0
 10
0
 20
0
 39
0
 70
1
 66
1
  0
VERTEX
  8
0
 10
136
 20
605.78955841064499
 42
0
  0
VERTEX
  8
0
 10
136
 20
551.21044158935592
 42
-0.33088359236717224
  0
VERTEX
  8
0
 10
128.17308044433594
 20
540.6780395507817
 42
-0.1473628431558609
  0
VERTEX
  8
0
 10
91.826927185058608
 20
540.6780395507817
 42
-0.33088359236717224
  0
VERTEX
  8
0
 10
84.000000000000014
 20
551.21044158935592
 42
-0
  0
VERTEX
  8
0
 10
84
 20
605.78955841064499
 42
-0.33088359236717224
  0
VERTEX
  8
0
 10
91.826927185058594
 20
616.32196426391647
 42
-0.14736282825469971
  0
VERTEX
  8
0
 10
128.17307281494141
 20
616.32196426391647
 42
-0.33088359236717224
  0
SEQEND
  0
POLYLINE
  8
0
 10
0
 20
0
 39
0
 70
1
 66
1
  0
VERTEX
  8
0
 10
430
 20
538.00000000000045
 42
0
  0
VERTEX
  8
0
 10
430
 20
460.00000000000045
 42
-0
  0
VERTEX
  8
0
 10
436
 20
454.00000000000045
 42
0
  0
VERTEX
  8
0
 10
484
 20
454.00000000000045
 42
-0
  0
VERTEX
  8
0
 10
490
 20
460.00000000000045
 42
-0
  0
VERTEX
  8
0
 10
490
 20
483.00000000000045
 42
0
  0
VERTEX
  8
0
 10
496
 20
489.00000000000045
 42
0
  0
VERTEX
  8
0
 10
564
 20
489.00000000000045
 42
-0
  0
VERTEX
  8
0
 10
570
 20
483.00000000000045
 42
0
  0
VERTEX
  8
0
 10
570
 20
460.00000000000045
 42
0
  0
VERTEX
  8
0
 10
576
 20
454.00000000000045
 42
0
  0
VERTEX
  8
0
 10
624
 20
454.00000000000045
 42
-0
  0
VERTEX
  8
0
 10
630
 20
460.00000000000045
 42
0
  0
VERTEX
  8
0
 10
630
 20
538.00000000000045
 42
-0
  0
VERTEX
  8
0
 10
624
 20
544.00000000000045
 42
0
  0
VERTEX
  8
0
 10
611
 20
544.00000000000045
 42
-0
  0
VERTEX
  8
0
 10
605
 20
550.00000000000045
 42
0
  0
VERTEX
  8
0
 10
605
 20
608.00000000000045
 42
0
  0
VERTEX
  8
0
 10
611
 20
614.00000000000045
 42
-0
  0
VERTEX
  8
0
 10
624
 20
614.00000000000045
 42
0
  0
VERTEX
  8
0
 10
630
 20
620.00000000000045
 42
0
  0
VERTEX
  8
0
 10
630
 20
668.00000000000045
 42
-0
  0
VERTEX
  8
0
 10
624
 20
674.00000000000045
 42
0
  0
VERTEX
  8
0
 10
436
 20
674.00000000000045
 42
-0
  0
VERTEX
  8
0
 10
430
 20
668.00000000000045
 42
0
  0
VERTEX
  8
0
 10
430
 20
620.00000000000045
 42
-0
  0
VERTEX
  8
0
 10
436
 20
614.00000000000045
 42
-0
  0
VERTEX
  8
0
 10
449
 20
614.00000000000045
 42
-0
  0
VERTEX
  8
0
 10
455
 20
608.00000000000045
 42
0
  0
VERTEX
  8
0
 10
455
 20
550.00000000000045
 42
-0
  0
VERTEX
  8
0
 10
449
 20
544.00000000000045
 42
0
  0
VERTEX
  8
0
 10
436
 20
544.00000000000045
 42
-0
  0
SEQEND
  0
POLYLINE
  8
0
 10
0
 20
0
 39
0
 70
1
 66
1
  0
VERTEX
  8
0
 10
556
 20
605.78955841064499
 42
0
  0
VERTEX
  8
0
 10
556
 20
551.21044158935592
 42
-0.33088359236717224
  0
VERTEX
  8
0
 10
548.17308044433594
 20
540.6780395507817
 42
-0.1473628431558609
  0
VERTEX
  8
0
 10
511.82692718505859
 20
540.6780395507817
 42
-0.33088359236717224
  0
VERTEX
  8
0
 10
504
 20
551.21044158935592
 42
-0
  0
VERTEX
  8
0
 10
504
 20
605.78955841064499
 42
-0.33088359236717224
  0
VERTEX
  8
0
 10
511.82692718505859
 20
616.32196426391647
 42
-0.14736282825469971
  0
VERTEX
  8
0
 10
548.17307281494141
 20
616.32196426391647
 42
-0.33088359236717224
  0
SEQEND
  0
POLYLINE
  8
0
 10
0
 20
0
 39
0
 70
1
 66
1
  0
VERTEX
  8
0
 10
220
 20
538.00000000000045
 42
0
  0
VERTEX
  8
0
 10
220
 20
460.00000000000045
 42
-0
  0
VERTEX
  8
0
 10
226
 20
454.00000000000045
 42
0
  0
VERTEX
  8
0
 10
274
 20
454.00000000000045
 42
-0
  0
VERTEX
  8
0
 10
280
 20
460.00000000000045
 42
-0
  0
VERTEX
  8
0
 10
280
 20
483.00000000000045
 42
0
  0
VERTEX
  8
0
 10
286
 20
489.00000000000045
 42
0
  0
VERTEX
  8
0
 10
354
 20
489.00000000000045
 42
-0
  0
VERTEX
  8
0
 10
360
 20
483.00000000000045
 42
0
  0
VERTEX
  8
0
 10
360
 20
460.00000000000045
 42
0
  0
VERTEX
  8
0
 10
366
 20
454.00000000000045
 42
0
  0
VERTEX
  8
0
 10
414
 20
454.00000000000045
 42
-0
  0
VERTEX
  8
0
 10
420
 20
460.00000000000045
 42
0
  0
VERTEX
  8
0
 10
420
 20
538.00000000000045
 42
-0
  0
VERTEX
  8
0
 10
414
 20
544.00000000000045
 42
0
  0
VERTEX
  8
0
 10
401
 20
544.00000000000045
 42
-0
  0
VERTEX
  8
0
 10
395
 20
550.00000000000045
 42
0
  0
VERTEX
  8
0
 10
395
 20
608.00000000000045
 42
0
  0
VERTEX
  8
0
 10
401
 20
614.00000000000045
 42
-0
  0
VERTEX
  8
0
 10
414
 20
614.00000000000045
 42
0
  0
VERTEX
  8
0
 10
420
 20
620.00000000000045
 42
0
  0
VERTEX
  8
0
 10
420
 20
668.00000000000045
 42
-0
  0
VERTEX
  8
0
 10
414
 20
674.00000000000045
 42
0
  0
VERTEX
  8
0
 10
226
 20
674.00000000000045
 42
-0
  0
VERTEX
  8
0
 10
220
 20
668.00000000000045
 42
0
  0
VERTEX
  8
0
 10
220
 20
620.00000000000045
 42
-0
  0
VERTEX
  8
0
 10
226
 20
614.00000000000045
 42
-0
  0
VERTEX
  8
0
 10
239
 20
614.00000000000045
 42
-0
  0
VERTEX
  8
0
 10
245
 20
608.00000000000045
 42
0
  0
VERTEX
  8
0
 10
245
 20
550.00000000000045
 42
-0
  0
VERTEX
  8
0
 10
239
 20
544.00000000000045
 42
0
  0
VERTEX
  8
0
 10
226
 20
544.00000000000045
 42
-0
  0
SEQEND
  0
POLYLINE
  8
0
 10
0
 20
0
 39
0
 70
1
 66
1
  0
VERTEX
  8
0
 10
346
 20
605.78955841064499
 42
0
  0
VERTEX
  8
0
 10
346
 20
551.21044158935592
 42
-0.33088359236717224
  0
VERTEX
  8
0
 10
338.17308044433594
 20
540.6780395507817
 42
-0.1473628431558609
  0
VERTEX
  8
0
 10
301.82692718505859
 20
540.6780395507817
 42
-0.33088359236717224
  0
VERTEX
  8
0
 10
294
 20
551.21044158935592
 42
-0
  0
VERTEX
  8
0
 10
294
 20
605.78955841064499
 42
-0.33088359236717224
  0
VERTEX
  8
0
 10
301.82692718505859
 20
616.32196426391647
 42
-0.14736282825469971
  0
VERTEX
  8
0
 10
338.17307281494141
 20
616.32196426391647
 42
-0.33088359236717224
  0
SEQEND
  0
POLYLINE
  8
0
 10
0
 20
0
 39
0
 70
1
 66
1
  0
VERTEX
  8
0
 10
964.67275432038946
 20
479.9992781951039
 42
1
  0
VERTEX
  8
0
 10
965.32725068934155
 20
330.00070870657851
 42
1
  0
SEQEND
  0
POLYLINE
  8
0
 10
0
 20
0
 39
0
 70
1
 66
1
  0
VERTEX
  8
0
 10
964.82547013981161
 20
444.99961198111464
 42
-1
  0
VERTEX
  8
0
 10
965.1745348699194
 20
365.00037492056777
 42
-1
  0
SEQEND
  0
POLYLINE
  8
0
 10
0
 20
0
 39
0
 70
1
 66
1
  0
VERTEX
  8
0
 10
850
 20
450.00001907348633
 42
0
  0
VERTEX
  8
0
 10
850
 20
250.0000114440918
 42
1
  0
VERTEX
  8
0
 10
880.00000381469727
 20
250.0000114440918
 42
-0
  0
VERTEX
  8
0
 10
880.00000381469727
 20
450.00001907348633
 42
-0
  0
SEQEND
  0
POLYLINE
  8
0
 10
0
 20
0
 39
0
 70
1
 66
1
  0
VERTEX
  8
0
 10
865.00000381469727
 20
256.0000114440918
 42
-1
  0
VERTEX
  8
0
 10
865.00000381469727
 20
244.0000114440918
 42
-1
  0
SEQEND
  0
POLYLINE
  8
0
 10
0
 20
0
 39
0
 70
1
 66
1
  0
VERTEX
  8
0
 10
809.65233034667972
 20
444.00000000000045
 42
0
  0
VERTEX
  8
0
 10
158.65239138183597
 20
444.00000000000045
 42
1
  0
VERTEX
  8
0
 10
158.65239138183597
 20
352.00000000000045
 42
0
  0
VERTEX
  8
0
 10
717.65233034667972
 20
352.00000000000045
 42
-0.41421356797218323
  0
VERTEX
  8
0
 10
737.65233034667972
 20
332.00000000000045
 42
0
  0
VERTEX
  8
0
 10
737.65233034667972
 20
278.00000000000045
 42
1
  0
VERTEX
  8
0
 10
829.65233034667972
 20
278.00000000000045
 42
0
  0
VERTEX
  8
0
 10
829.65233034667972
 20
424.00000000000045
 42
0.41421356797218323
  0
SEQEND
  0
POLYLINE
  8
0
 10
0
 20
0
 39
0
 70
1
 66
1
  0
VERTEX
  8
0
 10
768.15233034667972
 20
278.00000000000045
 42
-1
  0
VERTEX
  8
0
 10
799.15233034667972
 20
278.00000000000045
 42
-1
  0
SEQEND
  0
POLYLINE
  8
0
 10
0
 20
0
 39
0
 70
1
 66
1
  0
VERTEX
  8
0
 10
145.15239138183597
 20
398.00000000000045
 42
-1
  0
VERTEX
  8
0
 10
172.15239138183597
 20
398.00000000000045
 42
-1
  0
SEQEND
  0
POLYLINE
  8
0
 10
0
 20
0
 39
0
 70
1
 66
1
  0
VERTEX
  8
0
 10
30
 20
232.00000000000034
 42
0
  0
VERTEX
  8
0
 10
680.99993896484375
 20
232.00000000000034
 42
1
  0
VERTEX
  8
0
 10
680.99993896484375
 20
324.00000000000034
 42
0
  0
VERTEX
  8
0
 10
122
 20
324.00000000000034
 42
-0.41421356797218323
  0
VERTEX
  8
0
 10
102
 20
344.00000000000034
 42
0
  0
VERTEX
  8
0
 10
102
 20
398.00000000000034
 42
1
  0
VERTEX
  8
0
 10
10
 20
398.00000000000034
 42
0
  0
VERTEX
  8
0
 10
10
 20
252.00000000000034
 42
0.41421356797218323
  0
SEQEND
  0
POLYLINE
  8
0
 10
0
 20
0
 39
0
 70
1
 66
1
  0
VERTEX
  8
0
 10
71.5
 20
398.00000000000034
 42
-1
  0
VERTEX
  8
0
 10
40.5
 20
398.00000000000034
 42
-1
  0
SEQEND
  0
POLYLINE
  8
0
 10
0
 20
0
 39
0
 70
1
 66
1
  0
VERTEX
  8
0
 10
694.49993896484375
 20
278.00000000000034
 42
-1
  0
VERTEX
  8
0
 10
667.49993896484375
 20
278.00000000000034
 42
-1
  0
SEQEND
  0
POLYLINE
  8
0
 10
0
 20
0
 39
0
 70
1
 66
1
  0
VERTEX
  8
0
 10
850
 20
675.00002861022949
 42
0
  0
VERTEX
  8
0
 10
850
 20
475.00002098083496
 42
1
  0
VERTEX
  8
0
 10
880.00000381469727
 20
475.00002098083496
 42
-0
  0
VERTEX
  8
0
 10
880.00000381469727
 20
675.00002861022949
 42
-0
  0
SEQEND
  0
POLYLINE
  8
0
 10
0
 20
0
 39
0
 70
1
 66
1
  0
VERTEX
  8
0
 10
865.00000381469727
 20
481.00002098083496
 42
-1
  0
VERTEX
  8
0
 10
865.00000381469727
 20
469.00002098083496
 42
-1
  0
SEQEND
  0
ENDSEC
  0
EOF
