  0
SECTION
  2
ENTITIES
  0
POLYLINE
  8
0
 10
0
 20
0
 39
0
 70
1
 66
1
  0
VERTEX
  8
0
 10
0
 20
0
 42
-0
  0
VERTEX
  8
0
 10
1100
 20
0
 42
-0
  0
VERTEX
  8
0
 10
1100
 20
800
 42
-0
  0
VERTEX
  8
0
 10
0
 20
800
 42
-0
  0
SEQEND
  0
POLYLINE
  8
0
 10
0
 20
0
 39
0
 70
1
 66
1
  0
VERTEX
  8
0
 10
188.46019846838365
 20
365.18401832654536
 42
-1
  0
VERTEX
  8
0
 10
186.91122372853036
 20
10.187403870368627
 42
-1
  0
SEQEND
  0
POLYLINE
  8
0
 10
0
 20
0
 39
0
 70
1
 66
1
  0
VERTEX
  8
0
 10
188.22021646643455
 20
310.18454284741938
 42
1
  0
VERTEX
  8
0
 10
187.15120573047946
 20
65.186879349494603
 42
1
  0
SEQEND
  0
POLYLINE
  8
0
 10
0
 20
0
 39
0
 70
1
 66
1
  0
VERTEX
  8
0
 10
10.185714285714308
 20
375.22857142857146
 42
-0
  0
VERTEX
  8
0
 10
10.185714285714285
 20
750.22857142857151
 42
-0
  0
VERTEX
  8
0
 10
165.94749407087053
 20
750.22857142857151
 42
0
  0
VERTEX
  8
0
 10
231.18571428571428
 20
675.71941615513401
 42
0
  0
VERTEX
  8
0
 10
231.18571428571431
 20
375.22857142857146
 42
0
  0
SEQEND
  0
POLYLINE
  8
0
 10
0
 20
0
 39
0
 70
1
 66
1
  0
VERTEX
  8
0
 10
165.24694780622212
 20
428.82331706455778
 42
0.54372489452362061
  0
VERTEX
  8
0
 10
174.37271074567525
 20
442.9123711722238
 42
-0
  0
VERTEX
  8
0
 10
129.81148485456194
 20
542.36210109165745
 42
0.64772027730941772
  0
VERTEX
  8
0
 10
111.55994371686664
 20
542.36210109165745
 42
-0
  0
VERTEX
  8
0
 10
66.998710196358829
 20
442.9123711722238
 42
0.54372489452362061
  0
VERTEX
  8
0
 10
76.124480765206499
 20
428.82331706455778
 42
0
  0
SEQEND
  0
POLYLINE
  8
0
 10
0
 20
0
 39
0
 70
1
 66
1
  0
VERTEX
  8
0
 10
462.5
 20
708.11428571428587
 42
-0
  0
VERTEX
  8
0
 10
462.50000000000006
 20
333.11428571428587
 42
-0
  0
VERTEX
  8
0
 10
306.73822021484381
 20
333.11428571428581
 42
0
  0
VERTEX
  8
0
 10
241.50000000000006
 20
407.62344098772331
 42
0
  0
VERTEX
  8
0
 10
241.5
 20
708.11428571428587
 42
0
  0
SEQEND
  0
POLYLINE
  8
0
 10
0
 20
0
 39
0
 70
1
 66
1
  0
VERTEX
  8
0
 10
307.43876647949219
 20
654.51954007829954
 42
0.54372489452362061
  0
VERTEX
  8
0
 10
298.31300354003906
 20
640.43048597063353
 42
-0
  0
VERTEX
  8
0
 10
342.87422943115234
 20
540.98075605119993
 42
0.64772027730941772
  0
VERTEX
  8
0
 10
361.12577056884766
 20
540.98075605119993
 42
-0
  0
VERTEX
  8
0
 10
405.68700408935547
 20
640.43048597063353
 42
0.54372489452362061
  0
VERTEX
  8
0
 10
396.56123352050781
 20
654.51954007829954
 42
0
  0
SEQEND
  0
POLYLINE
  8
0
 10
0
 20
0
 39
0
 70
1
 66
1
  0
VERTEX
  8
0
 10
472.81428571428575
 20
10.185714285714287
 42
-0
  0
VERTEX
  8
0
 10
472.81428571428575
 20
385.18571428571431
 42
-0
  0
VERTEX
  8
0
 10
628.57606549944194
 20
385.18571428571431
 42
0
  0
VERTEX
  8
0
 10
693.81428571428569
 20
310.67655901227681
 42
0
  0
VERTEX
  8
0
 10
693.81428571428569
 20
10.185714285714313
 42
0
  0
SEQEND
  0
POLYLINE
  8
0
 10
0
 20
0
 39
0
 70
1
 66
1
  0
VERTEX
  8
0
 10
627.8755192347935
 20
63.780459921700626
 42
0.54372489452362061
  0
VERTEX
  8
0
 10
637.00128217424663
 20
77.869514029366641
 42
-0
  0
VERTEX
  8
0
 10
592.44005628313334
 20
177.31924394880022
 42
0.64772027730941772
  0
VERTEX
  8
0
 10
574.18851514543803
 20
177.31924394880022
 42
-0
  0
VERTEX
  8
0
 10
529.62728162493022
 20
77.869514029366627
 42
0.54372489452362061
  0
VERTEX
  8
0
 10
538.75305219377788
 20
63.780459921700626
 42
0
  0
SEQEND
  0
POLYLINE
  8
0
 10
0
 20
0
 39
0
 70
1
 66
1
  0
VERTEX
  8
0
 10
472.81428571428575
 20
395.34285714285716
 42
-0
  0
VERTEX
  8
0
 10
472.81428571428575
 20
770.34285714285716
 42
-0
  0
VERTEX
  8
0
 10
628.57606549944194
 20
770.34285714285716
 42
0
  0
VERTEX
  8
0
 10
693.81428571428569
 20
695.83370186941966
 42
0
  0
VERTEX
  8
0
 10
693.81428571428569
 20
395.34285714285716
 42
0
  0
SEQEND
  0
POLYLINE
  8
0
 10
0
 20
0
 39
0
 70
1
 66
1
  0
VERTEX
  8
0
 10
627.8755192347935
 20
448.93760277884348
 42
0.54372489452362061
  0
VERTEX
  8
0
 10
637.00128217424663
 20
463.0266568865095
 42
-0
  0
VERTEX
  8
0
 10
592.44005628313334
 20
562.47638680594309
 42
0.64772027730941772
  0
VERTEX
  8
0
 10
574.18851514543803
 20
562.47638680594309
 42
-0
  0
VERTEX
  8
0
 10
529.62728162493022
 20
463.0266568865095
 42
0.54372489452362061
  0
VERTEX
  8
0
 10
538.75305219377788
 20
448.93760277884348
 42
0
  0
SEQEND
  0
POLYLINE
  8
0
 10
0
 20
0
 39
0
 70
1
 66
1
  0
VERTEX
  8
0
 10
704.12857142857149
 20
10.185714285714287
 42
-0
  0
VERTEX
  8
0
 10
704.12857142857149
 20
385.18571428571431
 42
-0
  0
VERTEX
  8
0
 10
859.89035121372774
 20
385.18571428571431
 42
0
  0
VERTEX
  8
0
 10
925.12857142857149
 20
310.67655901227681
 42
0
  0
VERTEX
  8
0
 10
925.12857142857149
 20
10.185714285714313
 42
0
  0
SEQEND
  0
POLYLINE
  8
0
 10
0
 20
0
 39
0
 70
1
 66
1
  0
VERTEX
  8
0
 10
859.1898049490793
 20
63.780459921700626
 42
0.54372489452362061
  0
VERTEX
  8
0
 10
868.31556788853243
 20
77.869514029366641
 42
-0
  0
VERTEX
  8
0
 10
823.75434199741915
 20
177.31924394880022
 42
0.64772027730941772
  0
VERTEX
  8
0
 10
805.50280085972383
 20
177.31924394880022
 42
-0
  0
VERTEX
  8
0
 10
760.94156733921602
 20
77.869514029366627
 42
0.54372489452362061
  0
VERTEX
  8
0
 10
770.06733790806368
 20
63.780459921700626
 42
0
  0
SEQEND
  0
POLYLINE
  8
0
 10
0
 20
0
 39
0
 70
1
 66
1
  0
VERTEX
  8
0
 10
186.19424770977523
 20
297.28466323555756
 42
-1
  0
VERTEX
  8
0
 10
185.23431970197882
 20
77.286761319053653
 42
-1
  0
SEQEND
  0
POLYLINE
  8
0
 10
0
 20
0
 39
0
 70
1
 66
1
  0
VERTEX
  8
0
 10
97.982501944097294
 20
218.14237814637181
 42
0.16848739981651306
  0
VERTEX
  8
0
 10
97.716570716400327
 20
157.19581582893898
 42
-0
  0
VERTEX
  8
0
 10
273.44606546765675
 20
156.4290464082394
 42
0.16848739981651306
  0
VERTEX
  8
0
 10
273.71199669535372
 20
217.37560872567224
 42
0
  0
VERTEX
  8
0
 10
214.59406073744276
 20
217.63356101519292
 42
-0
  0
VERTEX
  8
0
 10
214.67051986359519
 20
235.15659107503433
 42
0
  0
VERTEX
  8
0
 10
157.17689702816068
 20
235.40745591669253
 42
0
  0
VERTEX
  8
0
 10
157.10043790200825
 20
217.88442585685112
 42
0
  0
SEQEND
  0
POLYLINE
  8
0
 10
0
 20
0
 39
0
 70
1
 66
1
  0
VERTEX
  8
0
 10
804.56490050744173
 20
595.34190163477626
 42
-1
  0
VERTEX
  8
0
 10
803.69223868217227
 20
395.34380898340908
 42
-1
  0
SEQEND
  0
POLYLINE
  8
0
 10
0
 20
0
 39
0
 70
1
 66
1
  0
VERTEX
  8
0
 10
775.48881414762934
 20
560.93542264866255
 42
1
  0
VERTEX
  8
0
 10
775.35791487383892
 20
530.93570875095747
 42
-0
  0
VERTEX
  8
0
 10
815.35753245044714
 20
530.76117639006475
 42
-0
  0
VERTEX
  8
0
 10
815.04802565558168
 20
459.827892908085
 42
0
  0
VERTEX
  8
0
 10
775.04840807897347
 20
460.00242526897773
 42
1
  0
VERTEX
  8
0
 10
774.91750880518305
 20
430.00271137127265
 42
0
  0
VERTEX
  8
0
 10
840.91687747280378
 20
429.71473297725606
 42
0
  0
VERTEX
  8
0
 10
841.48818281525007
 20
560.64744425464596
 42
0
  0
SEQEND
  0
POLYLINE
  8
0
 10
0
 20
0
 39
0
 70
1
 66
1
  0
VERTEX
  8
0
 10
863.18494986178519
 20
709.29379092827344
 42
-1
  0
VERTEX
  8
0
 10
703.18647574069144
 20
709.99192038848901
 42
-1
  0
SEQEND
  0
POLYLINE
  8
0
 10
0
 20
0
 39
0
 70
1
 66
1
  0
VERTEX
  8
0
 10
760.6859273779595
 20
709.74103011372404
 42
1
  0
VERTEX
  8
0
 10
805.68549822451712
 20
709.54468120303841
 42
1
  0
SEQEND
  0
POLYLINE
  8
0
 10
0
 20
0
 39
0
 70
1
 66
1
  0
VERTEX
  8
0
 10
935.96334895991754
 20
713.11352129035663
 42
-1
  0
VERTEX
  8
0
 10
935.26521949970197
 20
553.11504716926288
 42
-1
  0
SEQEND
  0
POLYLINE
  8
0
 10
0
 20
0
 39
0
 70
1
 66
1
  0
VERTEX
  8
0
 10
935.51610977446694
 20
610.61449880653095
 42
1
  0
VERTEX
  8
0
 10
935.71245868515257
 20
655.61406965308856
 42
1
  0
SEQEND
  0
POLYLINE
  8
0
 10
0
 20
0
 39
0
 70
1
 66
1
  0
VERTEX
  8
0
 10
968.64906324563185
 20
478.65637843321377
 42
-1
  0
VERTEX
  8
0
 10
967.95093378541628
 20
318.65790431212002
 42
-1
  0
SEQEND
  0
POLYLINE
  8
0
 10
0
 20
0
 39
0
 70
1
 66
1
  0
VERTEX
  8
0
 10
968.20182406018125
 20
376.15735594938809
 42
1
  0
VERTEX
  8
0
 10
968.39817297086688
 20
421.15692679594571
 42
1
  0
SEQEND
  0
POLYLINE
  8
0
 10
0
 20
0
 39
0
 70
1
 66
1
  0
VERTEX
  8
0
 10
388.83245021005985
 20
110.18523648801279
 42
-1
  0
VERTEX
  8
0
 10
388.39611929742512
 20
10.186190162329197
 42
-1
  0
SEQEND
  0
POLYLINE
  8
0
 10
0
 20
0
 39
0
 70
1
 66
1
  0
VERTEX
  8
0
 10
408.70136020140615
 20
80.098256407780767
 42
0
  0
VERTEX
  8
0
 10
368.65810857986924
 20
70.272884140266299
 42
0
  0
VERTEX
  8
0
 10
368.57084239734229
 20
50.273074875129581
 42
0
  0
VERTEX
  8
0
 10
408.52682783635225
 20
40.098637877507329
 42
0
  0
SEQEND
  0
POLYLINE
  8
0
 10
0
 20
0
 39
0
 70
1
 66
1
  0
VERTEX
  8
0
 10
410.04673592434551
 20
322.95666505944138
 42
-1
  0
VERTEX
  8
0
 10
409.61040501171078
 20
222.95761873375778
 42
-1
  0
SEQEND
  0
POLYLINE
  8
0
 10
0
 20
0
 39
0
 70
1
 66
1
  0
VERTEX
  8
0
 10
429.91564591569181
 20
292.86968497920935
 42
0
  0
VERTEX
  8
0
 10
389.8723942941549
 20
283.04431271169489
 42
0
  0
VERTEX
  8
0
 10
389.78512811162796
 20
263.04450344655817
 42
0
  0
VERTEX
  8
0
 10
429.74111355063792
 20
252.87006644893592
 42
0
  0
SEQEND
  0
POLYLINE
  8
0
 10
0
 20
0
 39
0
 70
1
 66
1
  0
VERTEX
  8
0
 10
985.66102163863127
 20
110.18523648801279
 42
-1
  0
VERTEX
  8
0
 10
985.22469072599654
 20
10.186190162329197
 42
-1
  0
SEQEND
  0
POLYLINE
  8
0
 10
0
 20
0
 39
0
 70
1
 66
1
  0
VERTEX
  8
0
 10
1005.5299316299776
 20
80.098256407780767
 42
0
  0
VERTEX
  8
0
 10
965.48668000844066
 20
70.272884140266299
 42
0
  0
VERTEX
  8
0
 10
965.39941382591371
 20
50.273074875129581
 42
0
  0
VERTEX
  8
0
 10
1005.3553992649237
 20
40.098637877507329
 42
0
  0
SEQEND
  0
POLYLINE
  8
0
 10
0
 20
0
 39
0
 70
1
 66
1
  0
VERTEX
  8
0
 10
985.66102163863127
 20
220.18523648801281
 42
-1
  0
VERTEX
  8
0
 10
985.22469072599654
 20
120.18619016232921
 42
-1
  0
SEQEND
  0
POLYLINE
  8
0
 10
0
 20
0
 39
0
 70
1
 66
1
  0
VERTEX
  8
0
 10
1005.5299316299776
 20
190.09825640778078
 42
0
  0
VERTEX
  8
0
 10
965.48668000844066
 20
180.27288414026631
 42
0
  0
VERTEX
  8
0
 10
965.39941382591371
 20
160.27307487512959
 42
0
  0
VERTEX
  8
0
 10
1005.3553992649237
 20
150.09863787750734
 42
0
  0
SEQEND
  0
POLYLINE
  8
0
 10
0
 20
0
 39
0
 70
1
 66
1
  0
VERTEX
  8
0
 10
413.83167443629776
 20
197.51390345866011
 42
-1
  0
VERTEX
  8
0
 10
413.48260970618998
 20
117.51466639811323
 42
-1
  0
SEQEND
  0
POLYLINE
  8
0
 10
0
 20
0
 39
0
 70
1
 66
1
  0
VERTEX
  8
0
 10
433.74421751890753
 20
177.42682801099645
 42
0
  0
VERTEX
  8
0
 10
393.7445989886341
 20
177.60136037605034
 42
0
  0
VERTEX
  8
0
 10
393.5700666235802
 20
137.6017418457769
 42
0
  0
VERTEX
  8
0
 10
433.56968515385364
 20
137.42720948072301
 42
0
  0
SEQEND
  0
POLYLINE
  8
0
 10
0
 20
0
 39
0
 70
1
 66
1
  0
VERTEX
  8
0
 10
991.33167443629782
 20
310.18533203008866
 42
-1
  0
VERTEX
  8
0
 10
990.98260970619003
 20
230.18609496954178
 42
-1
  0
SEQEND
  0
POLYLINE
  8
0
 10
0
 20
0
 39
0
 70
1
 66
1
  0
VERTEX
  8
0
 10
1011.2442175189076
 20
290.09825658242499
 42
0
  0
VERTEX
  8
0
 10
971.24459898863415
 20
290.27278894747889
 42
0
  0
VERTEX
  8
0
 10
971.07006662358026
 20
250.27317041720545
 42
0
  0
VERTEX
  8
0
 10
1011.0696851538537
 20
250.09863805215156
 42
0
  0
SEQEND
  0
POLYLINE
  8
0
 10
0
 20
0
 39
0
 70
1
 66
1
  0
VERTEX
  8
0
 10
1033.8281891729457
 20
749.61118113476141
 42
-1
  0
VERTEX
  8
0
 10
953.82895211239895
 20
749.96024586486919
 42
-1
  0
SEQEND
  0
POLYLINE
  8
0
 10
0
 20
0
 39
0
 70
1
 66
1
  0
VERTEX
  8
0
 10
1013.7411137252822
 20
729.69863805215164
 42
0
  0
VERTEX
  8
0
 10
1013.9156460903361
 20
769.69825658242507
 42
0
  0
VERTEX
  8
0
 10
973.91602756006262
 20
769.87278894747897
 42
0
  0
VERTEX
  8
0
 10
973.74149519500872
 20
729.87317041720553
 42
0
  0
SEQEND
  0
POLYLINE
  8
0
 10
0
 20
0
 39
0
 70
1
 66
1
  0
VERTEX
  8
0
 10
1046.2424748872318
 20
523.32546684904707
 42
-1
  0
VERTEX
  8
0
 10
966.24323782668478
 20
523.67453157915486
 42
-1
  0
SEQEND
  0
POLYLINE
  8
0
 10
0
 20
0
 39
0
 70
1
 66
1
  0
VERTEX
  8
0
 10
1026.1553994395681
 20
503.4129237664373
 42
0
  0
VERTEX
  8
0
 10
1026.329931804622
 20
543.41254229671074
 42
0
  0
VERTEX
  8
0
 10
986.33031327434844
 20
543.58707466176463
 42
0
  0
VERTEX
  8
0
 10
986.15578090929455
 20
503.58745613149119
 42
0
  0
SEQEND
  0
ENDSEC
  0
EOF
