  0
SECTION
  2
ENTITIES
  0
POLYLINE
  8
0
 10
0
 20
0
 39
0
 70
1
 66
1
  0
VERTEX
  8
0
 10
0
 20
0
 42
-0
  0
VERTEX
  8
0
 10
800
 20
0
 42
-0
  0
VERTEX
  8
0
 10
800
 20
600
 42
-0
  0
VERTEX
  8
0
 10
0
 20
600
 42
-0
  0
SEQEND
  0
POLYLINE
  8
0
 10
0
 20
0
 39
0
 70
1
 66
1
  0
VERTEX
  8
0
 10
168.33007549228802
 20
325.14135226783998
 42
-1
  0
VERTEX
  8
0
 10
166.95563311748862
 20
10.144356341936657
 42
-1
  0
SEQEND
  0
POLYLINE
  8
0
 10
0
 20
0
 39
0
 70
1
 66
1
  0
VERTEX
  8
0
 10
168.12281830878652
 20
277.64180526314027
 42
1
  0
VERTEX
  8
0
 10
167.16289030099011
 20
57.643903346636364
 42
1
  0
SEQEND
  0
POLYLINE
  8
0
 10
0
 20
0
 39
0
 70
1
 66
1
  0
VERTEX
  8
0
 10
357.47293263514518
 20
589.82706655355423
 42
-1
  0
VERTEX
  8
0
 10
356.09849026034578
 20
274.83007062765091
 42
-1
  0
SEQEND
  0
POLYLINE
  8
0
 10
0
 20
0
 39
0
 70
1
 66
1
  0
VERTEX
  8
0
 10
357.26567545164369
 20
542.32751954885453
 42
1
  0
VERTEX
  8
0
 10
356.30574744384728
 20
322.32961763235062
 42
1
  0
SEQEND
  0
POLYLINE
  8
0
 10
0
 20
0
 39
0
 70
1
 66
1
  0
VERTEX
  8
0
 10
467.62857142857143
 20
250.14285714285714
 42
-0
  0
VERTEX
  8
0
 10
579.99124995640341
 20
92.29917580740792
 42
-0.60947805643081665
  0
VERTEX
  8
0
 10
537.62857142857138
 20
10.142857142857146
 42
-0
  0
VERTEX
  8
0
 10
467.62857142857143
 20
10.142857142857142
 42
-0
  0
SEQEND
  0
POLYLINE
  8
0
 10
0
 20
0
 39
0
 70
1
 66
1
  0
VERTEX
  8
0
 10
537.62857142857138
 20
48.142857142857153
 42
1
  0
VERTEX
  8
0
 10
537.62857142857138
 20
76.142857142857139
 42
1
  0
SEQEND
  0
POLYLINE
  8
0
 10
0
 20
0
 39
0
 70
1
 66
1
  0
VERTEX
  8
0
 10
589.6285722118389
 20
96.60714285714289
 42
-0
  0
VERTEX
  8
0
 10
477.26589368400687
 20
254.45082419259211
 42
-0.60947805643081665
  0
VERTEX
  8
0
 10
519.6285722118389
 20
336.60714285714289
 42
-0
  0
VERTEX
  8
0
 10
589.6285722118389
 20
336.60714285714289
 42
-0
  0
SEQEND
  0
POLYLINE
  8
0
 10
0
 20
0
 39
0
 70
1
 66
1
  0
VERTEX
  8
0
 10
519.6285722118389
 20
298.60714285714289
 42
1
  0
VERTEX
  8
0
 10
519.6285722118389
 20
270.60714285714289
 42
1
  0
SEQEND
  0
POLYLINE
  8
0
 10
0
 20
0
 39
0
 70
1
 66
1
  0
VERTEX
  8
0
 10
85.470103930179306
 20
471.11356906139451
 42
-1
  0
VERTEX
  8
0
 10
84.81560756122721
 20
321.11499957286912
 42
-1
  0
SEQEND
  0
POLYLINE
  8
0
 10
0
 20
0
 39
0
 70
1
 66
1
  0
VERTEX
  8
0
 10
85.295571565125414
 20
431.11395053112108
 42
1
  0
VERTEX
  8
0
 10
84.990139926281103
 20
361.11461810314256
 42
1
  0
SEQEND
  0
POLYLINE
  8
0
 10
0
 20
0
 39
0
 70
1
 66
1
  0
VERTEX
  8
0
 10
143.29867535875073
 20
241.9707119185374
 42
-1
  0
VERTEX
  8
0
 10
142.64417898979863
 20
91.972142430012013
 42
-1
  0
SEQEND
  0
POLYLINE
  8
0
 10
0
 20
0
 39
0
 70
1
 66
1
  0
VERTEX
  8
0
 10
143.12414299369684
 20
201.97109338826397
 42
1
  0
VERTEX
  8
0
 10
142.81871135485252
 20
131.97176096028545
 42
1
  0
SEQEND
  0
POLYLINE
  8
0
 10
0
 20
0
 39
0
 70
1
 66
1
  0
VERTEX
  8
0
 10
332.44153250160787
 20
506.65642620425166
 42
-1
  0
VERTEX
  8
0
 10
331.78703613265577
 20
356.65785671572627
 42
-1
  0
SEQEND
  0
POLYLINE
  8
0
 10
0
 20
0
 39
0
 70
1
 66
1
  0
VERTEX
  8
0
 10
332.26700013655397
 20
466.65680767397822
 42
1
  0
VERTEX
  8
0
 10
331.96156849770966
 20
396.65747524599971
 42
1
  0
SEQEND
  0
POLYLINE
  8
0
 10
0
 20
0
 39
0
 70
1
 66
1
  0
VERTEX
  8
0
 10
185.14285714285714
 20
481.1142857142857
 42
-0
  0
VERTEX
  8
0
 10
10.142857142857139
 20
481.1142857142857
 42
0
  0
VERTEX
  8
0
 10
10.142857142857139
 20
539.24855542864111
 42
0
  0
VERTEX
  8
0
 10
21.080540248325889
 20
551.11428571428564
 42
0
  0
VERTEX
  8
0
 10
174.20517213003976
 20
551.11428571428564
 42
-0
  0
VERTEX
  8
0
 10
185.14285714285714
 20
539.24855542864111
 42
0
  0
SEQEND
  0
POLYLINE
  8
0
 10
0
 20
0
 39
0
 70
1
 66
1
  0
VERTEX
  8
0
 10
176.38387448447091
 20
516.11428571428564
 42
1
  0
VERTEX
  8
0
 10
144.38387353079659
 20
516.11428571428564
 42
1
  0
SEQEND
  0
POLYLINE
  8
0
 10
0
 20
0
 39
0
 70
1
 66
1
  0
VERTEX
  8
0
 10
335.28571428571428
 20
10.142857142857142
 42
-0
  0
VERTEX
  8
0
 10
335.28571428571428
 20
185.14285714285714
 42
0
  0
VERTEX
  8
0
 10
393.41998400006975
 20
185.14285714285714
 42
0
  0
VERTEX
  8
0
 10
405.28571428571428
 20
174.20517403738839
 42
0
  0
VERTEX
  8
0
 10
405.28571428571428
 20
21.080542155674529
 42
-0
  0
VERTEX
  8
0
 10
393.41998400006975
 20
10.142857142857149
 42
0
  0
SEQEND
  0
POLYLINE
  8
0
 10
0
 20
0
 39
0
 70
1
 66
1
  0
VERTEX
  8
0
 10
370.28571428571428
 20
18.901839801243376
 42
1
  0
VERTEX
  8
0
 10
370.28571428571428
 20
50.901840754917686
 42
1
  0
SEQEND
  0
POLYLINE
  8
0
 10
0
 20
0
 39
0
 70
1
 66
1
  0
VERTEX
  8
0
 10
524.42857142857144
 20
346.71428571428572
 42
-0
  0
VERTEX
  8
0
 10
524.42857142857144
 20
521.71428571428578
 42
0
  0
VERTEX
  8
0
 10
582.56284114292691
 20
521.71428571428578
 42
0
  0
VERTEX
  8
0
 10
594.42857142857144
 20
510.77660260881697
 42
0
  0
VERTEX
  8
0
 10
594.42857142857144
 20
357.65197072710311
 42
-0
  0
VERTEX
  8
0
 10
582.56284114292691
 20
346.71428571428572
 42
0
  0
SEQEND
  0
POLYLINE
  8
0
 10
0
 20
0
 39
0
 70
1
 66
1
  0
VERTEX
  8
0
 10
559.42857142857144
 20
355.47326837267195
 42
1
  0
VERTEX
  8
0
 10
559.42857142857144
 20
387.47326932634627
 42
1
  0
SEQEND
  0
POLYLINE
  8
0
 10
0
 20
0
 39
0
 70
1
 66
1
  0
VERTEX
  8
0
 10
599.85714285714289
 20
10.142857142857142
 42
-0
  0
VERTEX
  8
0
 10
599.85714285714289
 20
185.14285714285714
 42
0
  0
VERTEX
  8
0
 10
657.99141257149836
 20
185.14285714285714
 42
0
  0
VERTEX
  8
0
 10
669.85714285714289
 20
174.20517403738839
 42
0
  0
VERTEX
  8
0
 10
669.85714285714289
 20
21.080542155674529
 42
-0
  0
VERTEX
  8
0
 10
657.99141257149836
 20
10.142857142857149
 42
0
  0
SEQEND
  0
POLYLINE
  8
0
 10
0
 20
0
 39
0
 70
1
 66
1
  0
VERTEX
  8
0
 10
634.85714285714289
 20
18.901839801243376
 42
1
  0
VERTEX
  8
0
 10
634.85714285714289
 20
50.901840754917686
 42
1
  0
SEQEND
  0
POLYLINE
  8
0
 10
0
 20
0
 39
0
 70
1
 66
1
  0
VERTEX
  8
0
 10
604.65714285714284
 20
195.17142857142858
 42
-0
  0
VERTEX
  8
0
 10
604.65714285714284
 20
370.17142857142858
 42
0
  0
VERTEX
  8
0
 10
662.79141257149831
 20
370.17142857142858
 42
0
  0
VERTEX
  8
0
 10
674.65714285714284
 20
359.23374546595983
 42
0
  0
VERTEX
  8
0
 10
674.65714285714284
 20
206.10911358424596
 42
-0
  0
VERTEX
  8
0
 10
662.79141257149831
 20
195.17142857142858
 42
0
  0
SEQEND
  0
POLYLINE
  8
0
 10
0
 20
0
 39
0
 70
1
 66
1
  0
VERTEX
  8
0
 10
639.65714285714284
 20
203.93041122981481
 42
1
  0
VERTEX
  8
0
 10
639.65714285714284
 20
235.93041218348912
 42
1
  0
SEQEND
  0
POLYLINE
  8
0
 10
0
 20
0
 39
0
 70
1
 66
1
  0
VERTEX
  8
0
 10
604.65714285714284
 20
380.19999999999999
 42
-0
  0
VERTEX
  8
0
 10
604.65714285714284
 20
555.20000000000005
 42
0
  0
VERTEX
  8
0
 10
662.79141257149831
 20
555.20000000000005
 42
0
  0
VERTEX
  8
0
 10
674.65714285714284
 20
544.2623168945313
 42
0
  0
VERTEX
  8
0
 10
674.65714285714284
 20
391.13768501281737
 42
-0
  0
VERTEX
  8
0
 10
662.79141257149831
 20
380.19999999999999
 42
0
  0
SEQEND
  0
POLYLINE
  8
0
 10
0
 20
0
 39
0
 70
1
 66
1
  0
VERTEX
  8
0
 10
639.65714285714284
 20
388.95898265838622
 42
1
  0
VERTEX
  8
0
 10
639.65714285714284
 20
420.95898361206054
 42
1
  0
SEQEND
  0
POLYLINE
  8
0
 10
0
 20
0
 39
0
 70
1
 66
1
  0
VERTEX
  8
0
 10
680.08571428571429
 20
10.142857142857142
 42
-0
  0
VERTEX
  8
0
 10
680.08571428571429
 20
185.14285714285714
 42
0
  0
VERTEX
  8
0
 10
738.21998400006976
 20
185.14285714285714
 42
0
  0
VERTEX
  8
0
 10
750.08571428571429
 20
174.20517403738839
 42
0
  0
VERTEX
  8
0
 10
750.08571428571429
 20
21.080542155674529
 42
-0
  0
VERTEX
  8
0
 10
738.21998400006976
 20
10.142857142857149
 42
0
  0
SEQEND
  0
POLYLINE
  8
0
 10
0
 20
0
 39
0
 70
1
 66
1
  0
VERTEX
  8
0
 10
715.08571428571429
 20
18.901839801243376
 42
1
  0
VERTEX
  8
0
 10
715.08571428571429
 20
50.901840754917686
 42
1
  0
SEQEND
  0
POLYLINE
  8
0
 10
0
 20
0
 39
0
 70
1
 66
1
  0
VERTEX
  8
0
 10
684.88571428571424
 20
195.17142857142858
 42
-0
  0
VERTEX
  8
0
 10
684.88571428571424
 20
370.17142857142858
 42
0
  0
VERTEX
  8
0
 10
743.01998400006971
 20
370.17142857142858
 42
0
  0
VERTEX
  8
0
 10
754.88571428571424
 20
359.23374546595983
 42
0
  0
VERTEX
  8
0
 10
754.88571428571424
 20
206.10911358424596
 42
-0
  0
VERTEX
  8
0
 10
743.01998400006971
 20
195.17142857142858
 42
0
  0
SEQEND
  0
POLYLINE
  8
0
 10
0
 20
0
 39
0
 70
1
 66
1
  0
VERTEX
  8
0
 10
719.88571428571424
 20
203.93041122981481
 42
1
  0
VERTEX
  8
0
 10
719.88571428571424
 20
235.93041218348912
 42
1
  0
SEQEND
  0
POLYLINE
  8
0
 10
0
 20
0
 39
0
 70
1
 66
1
  0
VERTEX
  8
0
 10
684.88571428571424
 20
380.19999999999999
 42
-0
  0
VERTEX
  8
0
 10
684.88571428571424
 20
555.20000000000005
 42
0
  0
VERTEX
  8
0
 10
743.01998400006971
 20
555.20000000000005
 42
0
  0
VERTEX
  8
0
 10
754.88571428571424
 20
544.2623168945313
 42
0
  0
VERTEX
  8
0
 10
754.88571428571424
 20
391.13768501281737
 42
-0
  0
VERTEX
  8
0
 10
743.01998400006971
 20
380.19999999999999
 42
0
  0
SEQEND
  0
POLYLINE
  8
0
 10
0
 20
0
 39
0
 70
1
 66
1
  0
VERTEX
  8
0
 10
719.88571428571424
 20
388.95898265838622
 42
1
  0
VERTEX
  8
0
 10
719.88571428571424
 20
420.95898361206054
 42
1
  0
SEQEND
  0
ENDSEC
  0
EOF
