  0
SECTION
  2
ENTITIES
  0
POLYLINE
  8
0
 10
0
 20
0
 39
0
 70
1
 66
1
  0
VERTEX
  8
0
 10
0
 20
0
 42
-0
  0
VERTEX
  8
0
 10
1000
 20
0
 42
-0
  0
VERTEX
  8
0
 10
1000
 20
600
 42
-0
  0
VERTEX
  8
0
 10
0
 20
600
 42
-0
  0
SEQEND
  0
POLYLINE
  8
0
 10
0
 20
0
 39
0
 70
1
 66
1
  0
VERTEX
  8
0
 10
863.74872956048785
 20
240
 42
0
  0
VERTEX
  8
0
 10
863.74872956048785
 20
130
 42
-0
  0
VERTEX
  8
0
 10
875.74872956048785
 20
130
 42
-1
  0
VERTEX
  8
0
 10
901.74872956048785
 20
130
 42
-0
  0
VERTEX
  8
0
 10
913.74872956048785
 20
130
 42
-0
  0
VERTEX
  8
0
 10
913.74872956048785
 20
240
 42
-0
  0
SEQEND
  0
POLYLINE
  8
0
 10
0
 20
0
 39
0
 70
1
 66
1
  0
VERTEX
  8
0
 10
878.74872956048785
 20
226.38064384460449
 42
0
  0
VERTEX
  8
0
 10
898.74872956048785
 20
226.38064384460449
 42
0
  0
VERTEX
  8
0
 10
898.74872956048785
 20
156.38064575195312
 42
0
  0
VERTEX
  8
0
 10
878.74872956048785
 20
156.38064575195312
 42
0
  0
SEQEND
  0
POLYLINE
  8
0
 10
0
 20
0
 39
0
 70
1
 66
1
  0
VERTEX
  8
0
 10
923.74872956048785
 20
240
 42
0
  0
VERTEX
  8
0
 10
923.74872956048785
 20
130
 42
-0
  0
VERTEX
  8
0
 10
935.74872956048785
 20
130
 42
-1
  0
VERTEX
  8
0
 10
961.74872956048785
 20
130
 42
-0
  0
VERTEX
  8
0
 10
973.74872956048785
 20
130
 42
-0
  0
VERTEX
  8
0
 10
973.74872956048785
 20
240
 42
-0
  0
SEQEND
  0
POLYLINE
  8
0
 10
0
 20
0
 39
0
 70
1
 66
1
  0
VERTEX
  8
0
 10
938.74872956048785
 20
226.38064384460449
 42
0
  0
VERTEX
  8
0
 10
958.74872956048785
 20
226.38064384460449
 42
0
  0
VERTEX
  8
0
 10
958.74872956048785
 20
156.38064575195312
 42
0
  0
VERTEX
  8
0
 10
938.74872956048785
 20
156.38064575195312
 42
0
  0
SEQEND
  0
POLYLINE
  8
0
 10
0
 20
0
 39
0
 70
1
 66
1
  0
VERTEX
  8
0
 10
863.74872956048785
 20
250
 42
0
  0
VERTEX
  8
0
 10
973.74872956048785
 20
250
 42
-0
  0
VERTEX
  8
0
 10
973.74872956048785
 20
262
 42
-1
  0
VERTEX
  8
0
 10
973.74872956048785
 20
288
 42
-0
  0
VERTEX
  8
0
 10
973.74872956048785
 20
300
 42
-0
  0
VERTEX
  8
0
 10
863.74872956048785
 20
300
 42
-0
  0
SEQEND
  0
POLYLINE
  8
0
 10
0
 20
0
 39
0
 70
1
 66
1
  0
VERTEX
  8
0
 10
877.36808571588335
 20
265
 42
0
  0
VERTEX
  8
0
 10
877.36808571588335
 20
285
 42
0
  0
VERTEX
  8
0
 10
947.36808380853472
 20
285
 42
0
  0
VERTEX
  8
0
 10
947.36808380853472
 20
265
 42
0
  0
SEQEND
  0
POLYLINE
  8
0
 10
0
 20
0
 39
0
 70
1
 66
1
  0
VERTEX
  8
0
 10
863.74872956048785
 20
120
 42
0
  0
VERTEX
  8
0
 10
863.74872956048785
 20
10
 42
-0
  0
VERTEX
  8
0
 10
875.74872956048785
 20
10
 42
-1
  0
VERTEX
  8
0
 10
901.74872956048785
 20
10
 42
-0
  0
VERTEX
  8
0
 10
913.74872956048785
 20
10
 42
-0
  0
VERTEX
  8
0
 10
913.74872956048785
 20
120
 42
-0
  0
SEQEND
  0
POLYLINE
  8
0
 10
0
 20
0
 39
0
 70
1
 66
1
  0
VERTEX
  8
0
 10
878.74872956048785
 20
106.38064384460449
 42
0
  0
VERTEX
  8
0
 10
898.74872956048785
 20
106.38064384460449
 42
0
  0
VERTEX
  8
0
 10
898.74872956048785
 20
36.380645751953125
 42
0
  0
VERTEX
  8
0
 10
878.74872956048785
 20
36.380645751953125
 42
0
  0
SEQEND
  0
POLYLINE
  8
0
 10
0
 20
0
 39
0
 70
1
 66
1
  0
VERTEX
  8
0
 10
979.99998713437583
 20
447.54776423954718
 42
0
  0
VERTEX
  8
0
 10
866.08304072324302
 20
499.32819789433233
 42
0
  0
VERTEX
  8
0
 10
763.91694117490317
 20
499.32819789433233
 42
0
  0
VERTEX
  8
0
 10
649.99998713437583
 20
447.54776423954718
 42
0
  0
VERTEX
  8
0
 10
649.99998713437583
 20
417.32819789433233
 42
0
  0
VERTEX
  8
0
 10
694.99998713437583
 20
417.32819789433233
 42
-1
  0
VERTEX
  8
0
 10
694.99998713437583
 20
401.32819789433233
 42
0
  0
VERTEX
  8
0
 10
649.99998713437583
 20
401.32819789433233
 42
0
  0
VERTEX
  8
0
 10
649.99998713437583
 20
371.10863154911749
 42
0
  0
VERTEX
  8
0
 10
763.91694117490317
 20
319.32819789433233
 42
0
  0
VERTEX
  8
0
 10
866.08304072324302
 20
319.32819789433233
 42
0
  0
VERTEX
  8
0
 10
979.99998713437583
 20
371.10863154911749
 42
0
  0
VERTEX
  8
0
 10
979.99998713437583
 20
401.32819789433233
 42
0
  0
VERTEX
  8
0
 10
934.99998713437583
 20
401.32819789433233
 42
-1
  0
VERTEX
  8
0
 10
934.99998713437583
 20
417.32819789433233
 42
0
  0
VERTEX
  8
0
 10
979.99998713437583
 20
417.32819789433233
 42
0
  0
SEQEND
  0
POLYLINE
  8
0
 10
0
 20
0
 39
0
 70
1
 66
1
  0
VERTEX
  8
0
 10
747.49998713437583
 20
409.32819789433233
 42
-1
  0
VERTEX
  8
0
 10
882.49998713437583
 20
409.32819789433233
 42
-1
  0
SEQEND
  0
POLYLINE
  8
0
 10
0
 20
0
 39
0
 70
1
 66
1
  0
VERTEX
  8
0
 10
604.99999064992755
 20
534.32819487482584
 42
0
  0
VERTEX
  8
0
 10
524.99999064992755
 20
534.32819487482584
 42
0
  0
VERTEX
  8
0
 10
492.57554072927326
 20
413.81406523615397
 42
1.3046128749847412
  0
VERTEX
  8
0
 10
637.42443675588459
 20
413.81406523615397
 42
-0
  0
SEQEND
  0
POLYLINE
  8
0
 10
0
 20
0
 39
0
 70
1
 66
1
  0
VERTEX
  8
0
 10
546.49999064992755
 20
394.32819487482584
 42
-1
  0
VERTEX
  8
0
 10
583.49999064992755
 20
394.32819487482584
 42
-1
  0
SEQEND
  0
POLYLINE
  8
0
 10
0
 20
0
 39
0
 70
1
 66
1
  0
VERTEX
  8
0
 10
125.00000029914561
 20
534.32819487482584
 42
0
  0
VERTEX
  8
0
 10
45.000000299145611
 20
534.32819487482584
 42
0
  0
VERTEX
  8
0
 10
12.575550378491315
 20
413.81406523615397
 42
1.3046128749847412
  0
VERTEX
  8
0
 10
157.42444640510263
 20
413.81406523615397
 42
-0
  0
SEQEND
  0
POLYLINE
  8
0
 10
0
 20
0
 39
0
 70
1
 66
1
  0
VERTEX
  8
0
 10
66.500000299145611
 20
394.32819487482584
 42
-1
  0
VERTEX
  8
0
 10
103.50000029914561
 20
394.32819487482584
 42
-1
  0
SEQEND
  0
POLYLINE
  8
0
 10
0
 20
0
 39
0
 70
1
 66
1
  0
VERTEX
  8
0
 10
923.74872956048785
 20
120
 42
0
  0
VERTEX
  8
0
 10
923.74872956048785
 20
10
 42
-0
  0
VERTEX
  8
0
 10
935.74872956048785
 20
10
 42
-1
  0
VERTEX
  8
0
 10
961.74872956048785
 20
10
 42
-0
  0
VERTEX
  8
0
 10
973.74872956048785
 20
10
 42
-0
  0
VERTEX
  8
0
 10
973.74872956048785
 20
120
 42
-0
  0
SEQEND
  0
POLYLINE
  8
0
 10
0
 20
0
 39
0
 70
1
 66
1
  0
VERTEX
  8
0
 10
938.74872956048785
 20
106.38064384460449
 42
0
  0
VERTEX
  8
0
 10
958.74872956048785
 20
106.38064384460449
 42
0
  0
VERTEX
  8
0
 10
958.74872956048785
 20
36.380645751953125
 42
0
  0
VERTEX
  8
0
 10
938.74872956048785
 20
36.380645751953125
 42
0
  0
SEQEND
  0
POLYLINE
  8
0
 10
0
 20
0
 39
0
 70
1
 66
1
  0
VERTEX
  8
0
 10
769.99998713437583
 20
509.32819789433233
 42
0
  0
VERTEX
  8
0
 10
879.99998713437583
 20
509.32819789433233
 42
-0
  0
VERTEX
  8
0
 10
879.99998713437583
 20
521.32819789433233
 42
-1
  0
VERTEX
  8
0
 10
879.99998713437583
 20
547.32819789433233
 42
-0
  0
VERTEX
  8
0
 10
879.99998713437583
 20
559.32819789433233
 42
-0
  0
VERTEX
  8
0
 10
769.99998713437583
 20
559.32819789433233
 42
-0
  0
SEQEND
  0
POLYLINE
  8
0
 10
0
 20
0
 39
0
 70
1
 66
1
  0
VERTEX
  8
0
 10
783.61934328977134
 20
524.32819789433233
 42
0
  0
VERTEX
  8
0
 10
783.61934328977134
 20
544.32819789433233
 42
0
  0
VERTEX
  8
0
 10
853.6193413824227
 20
544.32819789433233
 42
0
  0
VERTEX
  8
0
 10
853.6193413824227
 20
524.32819789433233
 42
0
  0
SEQEND
  0
POLYLINE
  8
0
 10
0
 20
0
 39
0
 70
1
 66
1
  0
VERTEX
  8
0
 10
649.99998713437583
 20
509.32819789433233
 42
0
  0
VERTEX
  8
0
 10
759.99998713437583
 20
509.32819789433233
 42
-0
  0
VERTEX
  8
0
 10
759.99998713437583
 20
521.32819789433233
 42
-1
  0
VERTEX
  8
0
 10
759.99998713437583
 20
547.32819789433233
 42
-0
  0
VERTEX
  8
0
 10
759.99998713437583
 20
559.32819789433233
 42
-0
  0
VERTEX
  8
0
 10
649.99998713437583
 20
559.32819789433233
 42
-0
  0
SEQEND
  0
POLYLINE
  8
0
 10
0
 20
0
 39
0
 70
1
 66
1
  0
VERTEX
  8
0
 10
663.61934328977134
 20
524.32819789433233
 42
0
  0
VERTEX
  8
0
 10
663.61934328977134
 20
544.32819789433233
 42
0
  0
VERTEX
  8
0
 10
733.6193413824227
 20
544.32819789433233
 42
0
  0
VERTEX
  8
0
 10
733.6193413824227
 20
524.32819789433233
 42
0
  0
SEQEND
  0
POLYLINE
  8
0
 10
0
 20
0
 39
0
 70
1
 66
1
  0
VERTEX
  8
0
 10
63.890013143025499
 20
79.601554824924278
 42
1
  0
VERTEX
  8
0
 10
24.526144514564294
 20
34.318604426710408
 42
0.15430150926113129
  0
VERTEX
  8
0
 10
93.584337011017851
 20
10.290707466277127
 42
-0
  0
VERTEX
  8
0
 10
738.55973585181164
 20
15.91915844063351
 42
0.24009625613689423
  0
VERTEX
  8
0
 10
846.45520634361492
 20
32.917147732089688
 42
0.6608697772026062
  0
VERTEX
  8
0
 10
837.35532225487077
 20
66.783326203673823
 42
-0
  0
VERTEX
  8
0
 10
439.88538833108942
 20
63.314892181978394
 42
-1.2800916433334351
  0
VERTEX
  8
0
 10
400.10569609440972
 20
62.96737751690398
 42
-0
  0
VERTEX
  8
0
 10
105.73087101135206
 20
60.398740612062284
 42
-0.18308335542678833
  0
VERTEX
  8
0
 10
72.491778392241031
 20
72.661239635276615
 42
-0
  0
SEQEND
  0
POLYLINE
  8
0
 10
0
 20
0
 39
0
 70
1
 66
1
  0
VERTEX
  8
0
 10
64.6586295068646
 20
58.390121334316973
 42
-1
  0
VERTEX
  8
0
 10
23.758502334394507
 20
55.530106038871054
 42
-1
  0
SEQEND
  0
POLYLINE
  8
0
 10
0
 20
0
 39
0
 70
1
 66
1
  0
VERTEX
  8
0
 10
799.85871641746053
 20
85.062544122240979
 42
1
  0
VERTEX
  8
0
 10
839.22258504592173
 20
130.34549452045485
 42
0.15430150926113129
  0
VERTEX
  8
0
 10
770.16439254946818
 20
154.37339148088813
 42
-0
  0
VERTEX
  8
0
 10
125.18899370867439
 20
148.74494050653175
 42
0.24009625613689423
  0
VERTEX
  8
0
 10
17.293523216871108
 20
131.74695121507557
 42
0.6608697772026062
  0
VERTEX
  8
0
 10
26.393407305615256
 20
97.880772743491434
 42
-0
  0
VERTEX
  8
0
 10
423.86334122939661
 20
101.34920676518686
 42
-1.2800916433334351
  0
VERTEX
  8
0
 10
463.6430334660763
 20
101.69672143026128
 42
-0
  0
VERTEX
  8
0
 10
758.01785854913396
 20
104.26535833510297
 42
-0.18308335542678833
  0
VERTEX
  8
0
 10
791.256951168245
 20
92.002859311888642
 42
-0
  0
SEQEND
  0
POLYLINE
  8
0
 10
0
 20
0
 39
0
 70
1
 66
1
  0
VERTEX
  8
0
 10
799.09010005362143
 20
106.27397761284828
 42
-1
  0
VERTEX
  8
0
 10
839.99022722609152
 20
109.1339929082942
 42
-1
  0
SEQEND
  0
POLYLINE
  8
0
 10
0
 20
0
 39
0
 70
1
 66
1
  0
VERTEX
  8
0
 10
63.890013143025499
 20
234.26565377209045
 42
1
  0
VERTEX
  8
0
 10
24.526144514564294
 20
188.98270337387657
 42
0.15430150926113129
  0
VERTEX
  8
0
 10
93.584337011017851
 20
164.95480641344329
 42
-0
  0
VERTEX
  8
0
 10
738.55973585181164
 20
170.58325738779968
 42
0.24009625613689423
  0
VERTEX
  8
0
 10
846.45520634361492
 20
187.58124667925586
 42
0.6608697772026062
  0
VERTEX
  8
0
 10
837.35532225487077
 20
221.44742515083999
 42
-0
  0
VERTEX
  8
0
 10
439.88538833108942
 20
217.97899112914456
 42
-1.2800916433334351
  0
VERTEX
  8
0
 10
400.10569609440972
 20
217.63147646407015
 42
-0
  0
VERTEX
  8
0
 10
105.73087101135206
 20
215.06283955922845
 42
-0.18308335542678833
  0
VERTEX
  8
0
 10
72.491778392241031
 20
227.32533858244278
 42
-0
  0
SEQEND
  0
POLYLINE
  8
0
 10
0
 20
0
 39
0
 70
1
 66
1
  0
VERTEX
  8
0
 10
64.6586295068646
 20
213.05422028148314
 42
-1
  0
VERTEX
  8
0
 10
23.758502334394507
 20
210.19420498603722
 42
-1
  0
SEQEND
  0
POLYLINE
  8
0
 10
0
 20
0
 39
0
 70
1
 66
1
  0
VERTEX
  8
0
 10
799.85871641746053
 20
239.72664306940715
 42
1
  0
VERTEX
  8
0
 10
839.22258504592173
 20
285.00959346762102
 42
0.15430150926113129
  0
VERTEX
  8
0
 10
770.16439254946818
 20
309.0374904280543
 42
-0
  0
VERTEX
  8
0
 10
125.18899370867439
 20
303.40903945369791
 42
0.24009625613689423
  0
VERTEX
  8
0
 10
17.293523216871108
 20
286.41105016224174
 42
0.6608697772026062
  0
VERTEX
  8
0
 10
26.393407305615256
 20
252.5448716906576
 42
-0
  0
VERTEX
  8
0
 10
423.86334122939661
 20
256.01330571235303
 42
-1.2800916433334351
  0
VERTEX
  8
0
 10
463.6430334660763
 20
256.36082037742744
 42
-0
  0
VERTEX
  8
0
 10
758.01785854913396
 20
258.92945728226914
 42
-0.18308335542678833
  0
VERTEX
  8
0
 10
791.256951168245
 20
246.66695825905481
 42
-0
  0
SEQEND
  0
POLYLINE
  8
0
 10
0
 20
0
 39
0
 70
1
 66
1
  0
VERTEX
  8
0
 10
799.09010005362143
 20
260.93807656001445
 42
-1
  0
VERTEX
  8
0
 10
839.99022722609152
 20
263.79809185546037
 42
-1
  0
SEQEND
  0
POLYLINE
  8
0
 10
0
 20
0
 39
0
 70
1
 66
1
  0
VERTEX
  8
0
 10
284.99999708273958
 20
534.32819487482584
 42
0
  0
VERTEX
  8
0
 10
204.99999708273958
 20
534.32819487482584
 42
0
  0
VERTEX
  8
0
 10
172.57554716208529
 20
413.81406523615397
 42
1.3046128749847412
  0
VERTEX
  8
0
 10
317.42444318869661
 20
413.81406523615397
 42
-0
  0
SEQEND
  0
POLYLINE
  8
0
 10
0
 20
0
 39
0
 70
1
 66
1
  0
VERTEX
  8
0
 10
226.49999708273958
 20
394.32819487482584
 42
-1
  0
VERTEX
  8
0
 10
263.49999708273958
 20
394.32819487482584
 42
-1
  0
SEQEND
  0
POLYLINE
  8
0
 10
0
 20
0
 39
0
 70
1
 66
1
  0
VERTEX
  8
0
 10
444.99999386633357
 20
534.32819487482584
 42
0
  0
VERTEX
  8
0
 10
364.99999386633357
 20
534.32819487482584
 42
0
  0
VERTEX
  8
0
 10
332.57554394567927
 20
413.81406523615397
 42
1.3046128749847412
  0
VERTEX
  8
0
 10
477.4244399722906
 20
413.81406523615397
 42
-0
  0
SEQEND
  0
POLYLINE
  8
0
 10
0
 20
0
 39
0
 70
1
 66
1
  0
VERTEX
  8
0
 10
386.49999386633357
 20
394.32819487482584
 42
-1
  0
VERTEX
  8
0
 10
423.49999386633357
 20
394.32819487482584
 42
-1
  0
SEQEND
  0
ENDSEC
  0
EOF
