  0
SECTION
  2
ENTITIES
  0
POLYLINE
  8
0
 10
0
 20
0
 39
0
 70
1
 66
1
  0
VERTEX
  8
0
 10
0
 20
0
 42
-0
  0
VERTEX
  8
0
 10
1000
 20
0
 42
-0
  0
VERTEX
  8
0
 10
1000
 20
500
 42
-0
  0
VERTEX
  8
0
 10
0
 20
500
 42
-0
  0
SEQEND
  0
POLYLINE
  8
0
 10
0
 20
0
 39
0
 70
1
 66
1
  0
VERTEX
  8
0
 10
660
 20
484
 42
0
  0
VERTEX
  8
0
 10
660
 20
252
 42
0
  0
VERTEX
  8
0
 10
780
 20
252
 42
0
  0
VERTEX
  8
0
 10
780
 20
484
 42
0
  0
SEQEND
  0
POLYLINE
  8
0
 10
0
 20
0
 39
0
 70
1
 66
1
  0
VERTEX
  8
0
 10
720
 20
444.98621368408203
 42
-1
  0
VERTEX
  8
0
 10
720
 20
424.98621368408203
 42
-1
  0
SEQEND
  0
POLYLINE
  8
0
 10
0
 20
0
 39
0
 70
1
 66
1
  0
VERTEX
  8
0
 10
720
 20
322.81883239746094
 42
-1
  0
VERTEX
  8
0
 10
720
 20
302.81883239746094
 42
-1
  0
SEQEND
  0
POLYLINE
  8
0
 10
0
 20
0
 39
0
 70
1
 66
1
  0
VERTEX
  8
0
 10
605
 20
290
 42
0
  0
VERTEX
  8
0
 10
315
 20
290
 42
1
  0
VERTEX
  8
0
 10
315
 20
200
 42
0
  0
VERTEX
  8
0
 10
605
 20
200
 42
1
  0
SEQEND
  0
POLYLINE
  8
0
 10
0
 20
0
 39
0
 70
1
 66
1
  0
VERTEX
  8
0
 10
588.97500610351562
 20
245
 42
-1
  0
VERTEX
  8
0
 10
621.02499389648437
 20
245
 42
-1
  0
SEQEND
  0
POLYLINE
  8
0
 10
0
 20
0
 39
0
 70
1
 66
1
  0
VERTEX
  8
0
 10
298.97500038146973
 20
245
 42
-1
  0
VERTEX
  8
0
 10
331.02500152587891
 20
245
 42
-1
  0
SEQEND
  0
POLYLINE
  8
0
 10
0
 20
0
 39
0
 70
1
 66
1
  0
VERTEX
  8
0
 10
605
 20
390
 42
0
  0
VERTEX
  8
0
 10
315
 20
390
 42
1
  0
VERTEX
  8
0
 10
315
 20
300
 42
0
  0
VERTEX
  8
0
 10
605
 20
300
 42
1
  0
SEQEND
  0
POLYLINE
  8
0
 10
0
 20
0
 39
0
 70
1
 66
1
  0
VERTEX
  8
0
 10
588.97500610351562
 20
345
 42
-1
  0
VERTEX
  8
0
 10
621.02499389648437
 20
345
 42
-1
  0
SEQEND
  0
POLYLINE
  8
0
 10
0
 20
0
 39
0
 70
1
 66
1
  0
VERTEX
  8
0
 10
298.97500038146973
 20
345
 42
-1
  0
VERTEX
  8
0
 10
331.02500152587891
 20
345
 42
-1
  0
SEQEND
  0
POLYLINE
  8
0
 10
0
 20
0
 39
0
 70
1
 66
1
  0
VERTEX
  8
0
 10
790
 20
484
 42
0
  0
VERTEX
  8
0
 10
790
 20
252
 42
0
  0
VERTEX
  8
0
 10
910
 20
252
 42
0
  0
VERTEX
  8
0
 10
910
 20
484
 42
0
  0
SEQEND
  0
POLYLINE
  8
0
 10
0
 20
0
 39
0
 70
1
 66
1
  0
VERTEX
  8
0
 10
850
 20
444.98621368408203
 42
-1
  0
VERTEX
  8
0
 10
850
 20
424.98621368408203
 42
-1
  0
SEQEND
  0
POLYLINE
  8
0
 10
0
 20
0
 39
0
 70
1
 66
1
  0
VERTEX
  8
0
 10
850
 20
322.81883239746094
 42
-1
  0
VERTEX
  8
0
 10
850
 20
302.81883239746094
 42
-1
  0
SEQEND
  0
POLYLINE
  8
0
 10
0
 20
0
 39
0
 70
1
 66
1
  0
VERTEX
  8
0
 10
790
 20
242
 42
0
  0
VERTEX
  8
0
 10
790
 20
10
 42
0
  0
VERTEX
  8
0
 10
910
 20
10
 42
0
  0
VERTEX
  8
0
 10
910
 20
242
 42
0
  0
SEQEND
  0
POLYLINE
  8
0
 10
0
 20
0
 39
0
 70
1
 66
1
  0
VERTEX
  8
0
 10
850
 20
202.98621368408203
 42
-1
  0
VERTEX
  8
0
 10
850
 20
182.98621368408203
 42
-1
  0
SEQEND
  0
POLYLINE
  8
0
 10
0
 20
0
 39
0
 70
1
 66
1
  0
VERTEX
  8
0
 10
850
 20
80.818832397460938
 42
-1
  0
VERTEX
  8
0
 10
850
 20
60.818832397460938
 42
-1
  0
SEQEND
  0
POLYLINE
  8
0
 10
0
 20
0
 39
0
 70
1
 66
1
  0
VERTEX
  8
0
 10
140
 20
432
 42
0
  0
VERTEX
  8
0
 10
140
 20
200
 42
0
  0
VERTEX
  8
0
 10
260
 20
200
 42
0
  0
VERTEX
  8
0
 10
260
 20
432
 42
0
  0
SEQEND
  0
POLYLINE
  8
0
 10
0
 20
0
 39
0
 70
1
 66
1
  0
VERTEX
  8
0
 10
200
 20
392.98621368408203
 42
-1
  0
VERTEX
  8
0
 10
200
 20
372.98621368408203
 42
-1
  0
SEQEND
  0
POLYLINE
  8
0
 10
0
 20
0
 39
0
 70
1
 66
1
  0
VERTEX
  8
0
 10
200
 20
270.81883239746094
 42
-1
  0
VERTEX
  8
0
 10
200
 20
250.81883239746094
 42
-1
  0
SEQEND
  0
POLYLINE
  8
0
 10
0
 20
0
 39
0
 70
1
 66
1
  0
VERTEX
  8
0
 10
605
 20
490
 42
0
  0
VERTEX
  8
0
 10
315
 20
490
 42
1
  0
VERTEX
  8
0
 10
315
 20
400
 42
0
  0
VERTEX
  8
0
 10
605
 20
400
 42
1
  0
SEQEND
  0
POLYLINE
  8
0
 10
0
 20
0
 39
0
 70
1
 66
1
  0
VERTEX
  8
0
 10
588.97500610351562
 20
445
 42
-1
  0
VERTEX
  8
0
 10
621.02499389648437
 20
445
 42
-1
  0
SEQEND
  0
POLYLINE
  8
0
 10
0
 20
0
 39
0
 70
1
 66
1
  0
VERTEX
  8
0
 10
298.97500038146973
 20
445
 42
-1
  0
VERTEX
  8
0
 10
331.02500152587891
 20
445
 42
-1
  0
SEQEND
  0
POLYLINE
  8
0
 10
0
 20
0
 39
0
 70
1
 66
1
  0
VERTEX
  8
0
 10
10
 20
432
 42
0
  0
VERTEX
  8
0
 10
10.000000000000014
 20
200
 42
0
  0
VERTEX
  8
0
 10
130
 20
200
 42
0
  0
VERTEX
  8
0
 10
130
 20
432
 42
0
  0
SEQEND
  0
POLYLINE
  8
0
 10
0
 20
0
 39
0
 70
1
 66
1
  0
VERTEX
  8
0
 10
70
 20
392.98621368408203
 42
-1
  0
VERTEX
  8
0
 10
70
 20
372.98621368408203
 42
-1
  0
SEQEND
  0
POLYLINE
  8
0
 10
0
 20
0
 39
0
 70
1
 66
1
  0
VERTEX
  8
0
 10
70
 20
270.81883239746094
 42
-1
  0
VERTEX
  8
0
 10
70.000000000000014
 20
250.81883239746094
 42
-1
  0
SEQEND
  0
POLYLINE
  8
0
 10
0
 20
0
 39
0
 70
1
 66
1
  0
VERTEX
  8
0
 10
660
 20
242
 42
0
  0
VERTEX
  8
0
 10
660
 20
10
 42
0
  0
VERTEX
  8
0
 10
780
 20
10
 42
0
  0
VERTEX
  8
0
 10
780
 20
242
 42
0
  0
SEQEND
  0
POLYLINE
  8
0
 10
0
 20
0
 39
0
 70
1
 66
1
  0
VERTEX
  8
0
 10
720
 20
202.98621368408203
 42
-1
  0
VERTEX
  8
0
 10
720
 20
182.98621368408203
 42
-1
  0
SEQEND
  0
POLYLINE
  8
0
 10
0
 20
0
 39
0
 70
1
 66
1
  0
VERTEX
  8
0
 10
720
 20
80.818832397460938
 42
-1
  0
VERTEX
  8
0
 10
720
 20
60.818832397460938
 42
-1
  0
SEQEND
  0
POLYLINE
  8
0
 10
0
 20
0
 39
0
 70
1
 66
1
  0
VERTEX
  8
0
 10
360
 20
190.00000000000003
 42
0
  0
VERTEX
  8
0
 10
45
 20
190
 42
-0
  0
VERTEX
  8
0
 10
30
 20
175
 42
-0
  0
VERTEX
  8
0
 10
10
 20
175
 42
0
  0
VERTEX
  8
0
 10
10.000000000000009
 20
25
 42
0
  0
VERTEX
  8
0
 10
30.000000000000007
 20
25
 42
0
  0
VERTEX
  8
0
 10
45.000000000000014
 20
10
 42
0
  0
VERTEX
  8
0
 10
360
 20
10.000000000000028
 42
-0
  0
VERTEX
  8
0
 10
375
 20
25.000000000000028
 42
0
  0
VERTEX
  8
0
 10
390
 20
10.000000000000028
 42
0
  0
VERTEX
  8
0
 10
580
 20
10.000000000000028
 42
-0
  0
VERTEX
  8
0
 10
595
 20
25.000000000000028
 42
0.41421356797218323
  0
VERTEX
  8
0
 10
600
 20
30.000000000000028
 42
0
  0
VERTEX
  8
0
 10
600
 20
170.00000000000003
 42
0.41421356797218323
  0
VERTEX
  8
0
 10
595
 20
175.00000000000003
 42
0
  0
VERTEX
  8
0
 10
580
 20
190.00000000000003
 42
0
  0
VERTEX
  8
0
 10
390
 20
190.00000000000003
 42
-0
  0
VERTEX
  8
0
 10
375
 20
175.00000000000003
 42
0
  0
SEQEND
  0
POLYLINE
  8
0
 10
0
 20
0
 39
0
 70
1
 66
1
  0
VERTEX
  8
0
 10
390
 20
168.00000000000003
 42
-1
  0
VERTEX
  8
0
 10
390
 20
152.00000000000003
 42
-1
  0
SEQEND
  0
POLYLINE
  8
0
 10
0
 20
0
 39
0
 70
1
 66
1
  0
VERTEX
  8
0
 10
510
 20
145.00000000000003
 42
-1
  0
VERTEX
  8
0
 10
510
 20
55.000000000000028
 42
-1
  0
SEQEND
  0
ENDSEC
  0
EOF
