  0
SECTION
  2
ENTITIES
  0
POLYLINE
  8
0
 10
0
 20
0
 39
0
 70
1
 66
1
  0
VERTEX
  8
0
 10
0
 20
0
 42
-0
  0
VERTEX
  8
0
 10
900
 20
0
 42
-0
  0
VERTEX
  8
0
 10
900
 20
600
 42
-0
  0
VERTEX
  8
0
 10
0
 20
600
 42
-0
  0
SEQEND
  0
POLYLINE
  8
0
 10
0
 20
0
 39
0
 70
1
 66
1
  0
VERTEX
  8
0
 10
397.31932105183978
 20
321.99850954361636
 42
1
  0
VERTEX
  8
0
 10
398.68067349926014
 20
10.001485007483552
 42
1
  0
SEQEND
  0
POLYLINE
  8
0
 10
0
 20
0
 39
0
 70
1
 66
1
  0
VERTEX
  8
0
 10
398.15925805866164
 20
129.50034536667545
 42
-1
  0
VERTEX
  8
0
 10
397.84073649243828
 20
202.49964918442447
 42
-1
  0
SEQEND
  0
POLYLINE
  8
0
 10
0
 20
0
 39
0
 70
1
 66
1
  0
VERTEX
  8
0
 10
719.3193156029397
 20
321.99850954361636
 42
1
  0
VERTEX
  8
0
 10
720.68066805036005
 20
10.001485007483552
 42
1
  0
SEQEND
  0
POLYLINE
  8
0
 10
0
 20
0
 39
0
 70
1
 66
1
  0
VERTEX
  8
0
 10
720.15925260976155
 20
129.50034536667545
 42
-1
  0
VERTEX
  8
0
 10
719.8407310435382
 20
202.49964918442447
 42
-1
  0
SEQEND
  0
POLYLINE
  8
0
 10
0
 20
0
 39
0
 70
1
 66
1
  0
VERTEX
  8
0
 10
372
 20
331.99999455109992
 42
0
  0
VERTEX
  8
0
 10
752
 20
331.99999455109992
 42
1
  0
VERTEX
  8
0
 10
752
 20
391.99999455109992
 42
0
  0
VERTEX
  8
0
 10
372
 20
391.99999455109992
 42
1
  0
SEQEND
  0
POLYLINE
  8
0
 10
0
 20
0
 39
0
 70
1
 66
1
  0
VERTEX
  8
0
 10
372
 20
371.99999455109992
 42
0
  0
VERTEX
  8
0
 10
752
 20
371.99999455109992
 42
-1
  0
VERTEX
  8
0
 10
752
 20
351.99999455109992
 42
-0
  0
VERTEX
  8
0
 10
372
 20
351.99999455109992
 42
-1
  0
SEQEND
  0
POLYLINE
  8
0
 10
0
 20
0
 39
0
 70
1
 66
1
  0
VERTEX
  8
0
 10
542
 20
583.99999455109992
 42
0
  0
VERTEX
  8
0
 10
342
 20
583.99999455109992
 42
0
  0
VERTEX
  8
0
 10
342
 20
493.99999455109992
 42
0
  0
VERTEX
  8
0
 10
542
 20
493.99999455109992
 42
0
  0
SEQEND
  0
POLYLINE
  8
0
 10
0
 20
0
 39
0
 70
1
 66
1
  0
VERTEX
  8
0
 10
402.5
 20
528.49999455109992
 42
-1
  0
VERTEX
  8
0
 10
402.5
 20
549.49999455109992
 42
0
  0
VERTEX
  8
0
 10
451.5
 20
549.49999455109992
 42
-1
  0
VERTEX
  8
0
 10
451.5
 20
528.49999455109992
 42
-0
  0
SEQEND
  0
POLYLINE
  8
0
 10
0
 20
0
 39
0
 70
1
 66
1
  0
VERTEX
  8
0
 10
102
 20
420
 42
0
  0
VERTEX
  8
0
 10
102.00000000000003
 20
40
 42
1
  0
VERTEX
  8
0
 10
162.00000000000003
 20
40
 42
0
  0
VERTEX
  8
0
 10
162
 20
420
 42
1
  0
SEQEND
  0
POLYLINE
  8
0
 10
0
 20
0
 39
0
 70
1
 66
1
  0
VERTEX
  8
0
 10
142
 20
420
 42
0
  0
VERTEX
  8
0
 10
142.00000000000003
 20
40
 42
-1
  0
VERTEX
  8
0
 10
122.00000000000003
 20
40
 42
-0
  0
VERTEX
  8
0
 10
122
 20
420
 42
-1
  0
SEQEND
  0
POLYLINE
  8
0
 10
0
 20
0
 39
0
 70
1
 66
1
  0
VERTEX
  8
0
 10
332
 20
331.99999455109992
 42
0
  0
VERTEX
  8
0
 10
332
 20
531.99999455109992
 42
0
  0
VERTEX
  8
0
 10
242
 20
531.99999455109992
 42
0
  0
VERTEX
  8
0
 10
242
 20
331.99999455109992
 42
0
  0
SEQEND
  0
POLYLINE
  8
0
 10
0
 20
0
 39
0
 70
1
 66
1
  0
VERTEX
  8
0
 10
276.5
 20
471.49999455109992
 42
-1
  0
VERTEX
  8
0
 10
297.5
 20
471.49999455109992
 42
0
  0
VERTEX
  8
0
 10
297.5
 20
422.49999455109992
 42
-1
  0
VERTEX
  8
0
 10
276.5
 20
422.49999455109992
 42
-0
  0
SEQEND
  0
POLYLINE
  8
0
 10
0
 20
0
 39
0
 70
1
 66
1
  0
VERTEX
  8
0
 10
383
 20
401.99999455109992
 42
0
  0
VERTEX
  8
0
 10
700.99998474121094
 20
401.99999455109992
 42
1
  0
VERTEX
  8
0
 10
700.99998474121094
 20
483.99999455109992
 42
0
  0
VERTEX
  8
0
 10
383
 20
483.99999455109992
 42
1
  0
SEQEND
  0
POLYLINE
  8
0
 10
0
 20
0
 39
0
 70
1
 66
1
  0
VERTEX
  8
0
 10
367.5
 20
442.99999455109992
 42
-1
  0
VERTEX
  8
0
 10
398.5
 20
442.99999455109992
 42
-1
  0
SEQEND
  0
POLYLINE
  8
0
 10
0
 20
0
 39
0
 70
1
 66
1
  0
VERTEX
  8
0
 10
685.49998474121094
 20
442.99999455109992
 42
-1
  0
VERTEX
  8
0
 10
716.49998474121094
 20
442.99999455109992
 42
-1
  0
SEQEND
  0
POLYLINE
  8
0
 10
0
 20
0
 39
0
 70
1
 66
1
  0
VERTEX
  8
0
 10
487.49996948242187
 20
442.99999455109992
 42
-1
  0
VERTEX
  8
0
 10
518.49996948242187
 20
442.99999455109992
 42
-1
  0
SEQEND
  0
POLYLINE
  8
0
 10
0
 20
0
 39
0
 70
1
 66
1
  0
VERTEX
  8
0
 10
585.49996948242187
 20
442.99999455109992
 42
-1
  0
VERTEX
  8
0
 10
616.49996948242187
 20
442.99999455109992
 42
-1
  0
SEQEND
  0
POLYLINE
  8
0
 10
0
 20
0
 39
0
 70
1
 66
1
  0
VERTEX
  8
0
 10
10
 20
368.99998474121094
 42
0
  0
VERTEX
  8
0
 10
10.000000000000057
 20
51
 42
1
  0
VERTEX
  8
0
 10
92.000000000000057
 20
51
 42
0
  0
VERTEX
  8
0
 10
92
 20
368.99998474121094
 42
1
  0
SEQEND
  0
POLYLINE
  8
0
 10
0
 20
0
 39
0
 70
1
 66
1
  0
VERTEX
  8
0
 10
51
 20
384.49998474121094
 42
-1
  0
VERTEX
  8
0
 10
51
 20
353.49998474121094
 42
-1
  0
SEQEND
  0
POLYLINE
  8
0
 10
0
 20
0
 39
0
 70
1
 66
1
  0
VERTEX
  8
0
 10
51.000000000000057
 20
66.5
 42
-1
  0
VERTEX
  8
0
 10
51.000000000000057
 20
35.5
 42
-1
  0
SEQEND
  0
POLYLINE
  8
0
 10
0
 20
0
 39
0
 70
1
 66
1
  0
VERTEX
  8
0
 10
51.000000000000057
 20
264.50001525878906
 42
-1
  0
VERTEX
  8
0
 10
51.000000000000057
 20
233.50001525878903
 42
-1
  0
SEQEND
  0
POLYLINE
  8
0
 10
0
 20
0
 39
0
 70
1
 66
1
  0
VERTEX
  8
0
 10
51.000000000000057
 20
166.50001525878903
 42
-1
  0
VERTEX
  8
0
 10
51.000000000000057
 20
135.50001525878903
 42
-1
  0
SEQEND
  0
POLYLINE
  8
0
 10
0
 20
0
 39
0
 70
1
 66
1
  0
VERTEX
  8
0
 10
210
 20
550
 42
0
  0
VERTEX
  8
0
 10
10
 20
550
 42
0
  0
VERTEX
  8
0
 10
10
 20
460
 42
0
  0
VERTEX
  8
0
 10
210
 20
460
 42
0
  0
SEQEND
  0
POLYLINE
  8
0
 10
0
 20
0
 39
0
 70
1
 66
1
  0
VERTEX
  8
0
 10
70.5
 20
494.5
 42
-1
  0
VERTEX
  8
0
 10
70.5
 20
515.5
 42
0
  0
VERTEX
  8
0
 10
119.5
 20
515.5
 42
-1
  0
VERTEX
  8
0
 10
119.5
 20
494.5
 42
-0
  0
SEQEND
  0
POLYLINE
  8
0
 10
0
 20
0
 39
0
 70
1
 66
1
  0
VERTEX
  8
0
 10
172
 20
420
 42
0
  0
VERTEX
  8
0
 10
172.00000000000003
 20
40
 42
1
  0
VERTEX
  8
0
 10
232.00000000000003
 20
40
 42
0
  0
VERTEX
  8
0
 10
232
 20
420
 42
1
  0
SEQEND
  0
POLYLINE
  8
0
 10
0
 20
0
 39
0
 70
1
 66
1
  0
VERTEX
  8
0
 10
212
 20
420
 42
0
  0
VERTEX
  8
0
 10
212.00000000000003
 20
40
 42
-1
  0
VERTEX
  8
0
 10
192.00000000000003
 20
40
 42
-0
  0
VERTEX
  8
0
 10
192
 20
420
 42
-1
  0
SEQEND
  0
POLYLINE
  8
0
 10
0
 20
0
 39
0
 70
1
 66
1
  0
VERTEX
  8
0
 10
752
 20
583.99999455109992
 42
0
  0
VERTEX
  8
0
 10
552
 20
583.99999455109992
 42
0
  0
VERTEX
  8
0
 10
552
 20
493.99999455109992
 42
0
  0
VERTEX
  8
0
 10
752
 20
493.99999455109992
 42
0
  0
SEQEND
  0
POLYLINE
  8
0
 10
0
 20
0
 39
0
 70
1
 66
1
  0
VERTEX
  8
0
 10
612.5
 20
528.49999455109992
 42
-1
  0
VERTEX
  8
0
 10
612.5
 20
549.49999455109992
 42
0
  0
VERTEX
  8
0
 10
661.5
 20
549.49999455109992
 42
-1
  0
VERTEX
  8
0
 10
661.5
 20
528.49999455109992
 42
-0
  0
SEQEND
  0
POLYLINE
  8
0
 10
0
 20
0
 39
0
 70
1
 66
1
  0
VERTEX
  8
0
 10
882
 20
331.99999455109992
 42
0
  0
VERTEX
  8
0
 10
882
 20
531.99999455109992
 42
0
  0
VERTEX
  8
0
 10
792
 20
531.99999455109992
 42
0
  0
VERTEX
  8
0
 10
792
 20
331.99999455109992
 42
0
  0
SEQEND
  0
POLYLINE
  8
0
 10
0
 20
0
 39
0
 70
1
 66
1
  0
VERTEX
  8
0
 10
826.5
 20
471.49999455109992
 42
-1
  0
VERTEX
  8
0
 10
847.5
 20
471.49999455109992
 42
0
  0
VERTEX
  8
0
 10
847.5
 20
422.49999455109992
 42
-1
  0
VERTEX
  8
0
 10
826.5
 20
422.49999455109992
 42
-0
  0
SEQEND
  0
ENDSEC
  0
EOF
