  0
SECTION
  2
ENTITIES
  0
POLYLINE
  8
0
 10
0
 20
0
 39
0
 70
1
 66
1
  0
VERTEX
  8
0
 10
0
 20
0
 42
-0
  0
VERTEX
  8
0
 10
800
 20
0
 42
-0
  0
VERTEX
  8
0
 10
800
 20
600
 42
-0
  0
VERTEX
  8
0
 10
0
 20
600
 42
-0
  0
SEQEND
  0
POLYLINE
  8
0
 10
0
 20
0
 39
0
 70
1
 66
1
  0
VERTEX
  8
0
 10
10
 20
430
 42
-0
  0
VERTEX
  8
0
 10
185
 20
430
 42
-0
  0
VERTEX
  8
0
 10
185
 20
590
 42
-0
  0
VERTEX
  8
0
 10
10
 20
590
 42
-0
  0
SEQEND
  0
POLYLINE
  8
0
 10
0
 20
0
 39
0
 70
1
 66
1
  0
VERTEX
  8
0
 10
102
 20
495
 42
-1
  0
VERTEX
  8
0
 10
118
 20
495
 42
-1
  0
SEQEND
  0
POLYLINE
  8
0
 10
0
 20
0
 39
0
 70
1
 66
1
  0
VERTEX
  8
0
 10
310
 20
370
 42
-0
  0
VERTEX
  8
0
 10
310
 20
195
 42
-0
  0
VERTEX
  8
0
 10
470
 20
195
 42
-0
  0
VERTEX
  8
0
 10
470
 20
370
 42
-0
  0
SEQEND
  0
POLYLINE
  8
0
 10
0
 20
0
 39
0
 70
1
 66
1
  0
VERTEX
  8
0
 10
375
 20
278
 42
-1
  0
VERTEX
  8
0
 10
375
 20
262
 42
-1
  0
SEQEND
  0
POLYLINE
  8
0
 10
0
 20
0
 39
0
 70
1
 66
1
  0
VERTEX
  8
0
 10
310
 20
185
 42
-0
  0
VERTEX
  8
0
 10
310
 20
10
 42
-0
  0
VERTEX
  8
0
 10
470
 20
10
 42
-0
  0
VERTEX
  8
0
 10
470
 20
185
 42
-0
  0
SEQEND
  0
POLYLINE
  8
0
 10
0
 20
0
 39
0
 70
1
 66
1
  0
VERTEX
  8
0
 10
375
 20
93
 42
-1
  0
VERTEX
  8
0
 10
375
 20
77
 42
-1
  0
SEQEND
  0
POLYLINE
  8
0
 10
0
 20
0
 39
0
 70
1
 66
1
  0
VERTEX
  8
0
 10
620.00678646998836
 20
370
 42
-0
  0
VERTEX
  8
0
 10
620.00678646998836
 20
195
 42
-0
  0
VERTEX
  8
0
 10
780.00678646998836
 20
195
 42
-0
  0
VERTEX
  8
0
 10
780.00678646998836
 20
370
 42
-0
  0
SEQEND
  0
POLYLINE
  8
0
 10
0
 20
0
 39
0
 70
1
 66
1
  0
VERTEX
  8
0
 10
685.00678646998836
 20
278
 42
-1
  0
VERTEX
  8
0
 10
685.00678646998836
 20
262
 42
-1
  0
SEQEND
  0
POLYLINE
  8
0
 10
0
 20
0
 39
0
 70
1
 66
1
  0
VERTEX
  8
0
 10
195
 20
430
 42
-0
  0
VERTEX
  8
0
 10
370
 20
430
 42
-0
  0
VERTEX
  8
0
 10
370
 20
590
 42
-0
  0
VERTEX
  8
0
 10
195
 20
590
 42
-0
  0
SEQEND
  0
POLYLINE
  8
0
 10
0
 20
0
 39
0
 70
1
 66
1
  0
VERTEX
  8
0
 10
287
 20
495
 42
-1
  0
VERTEX
  8
0
 10
303
 20
495
 42
-1
  0
SEQEND
  0
POLYLINE
  8
0
 10
0
 20
0
 39
0
 70
1
 66
1
  0
VERTEX
  8
0
 10
526.54313752825442
 20
158.66223163847383
 42
0
  0
VERTEX
  8
0
 10
510.75807935447415
 20
68.635111071659139
 42
1.2336852550506592
  0
VERTEX
  8
0
 10
608.5331687081682
 20
72.049492269321263
 42
-0
  0
VERTEX
  8
0
 10
586.50658796007815
 20
160.75620137099679
 42
0
  0
VERTEX
  8
0
 10
579.40800734877712
 20
364.0329632128188
 42
0
  0
VERTEX
  8
0
 10
607.89868357323485
 20
473.34428399825254
 42
1.3418092727661133
  0
VERTEX
  8
0
 10
483.39810966572639
 20
468.9966283585814
 42
-0
  0
VERTEX
  8
0
 10
519.44455691695339
 20
361.93899348029584
 42
-0
  0
SEQEND
  0
POLYLINE
  8
0
 10
0
 20
0
 39
0
 70
1
 66
1
  0
VERTEX
  8
0
 10
582.49307894291314
 20
60.78524197434956
 42
-1
  0
VERTEX
  8
0
 10
537.52049111904535
 20
59.214764674957337
 42
-1
  0
SEQEND
  0
POLYLINE
  8
0
 10
0
 20
0
 39
0
 70
1
 66
1
  0
VERTEX
  8
0
 10
574.98172716380986
 20
490.785049618985
 42
-1
  0
VERTEX
  8
0
 10
515.01827673198613
 20
488.69107988646203
 42
-1
  0
SEQEND
  0
POLYLINE
  8
0
 10
0
 20
0
 39
0
 70
1
 66
1
  0
VERTEX
  8
0
 10
655.00678646998836
 20
555
 42
-0
  0
VERTEX
  8
0
 10
655.00678646998836
 20
380
 42
-0
  0
VERTEX
  8
0
 10
680.00678646998836
 20
380
 42
-0
  0
VERTEX
  8
0
 10
680.00678646998836
 20
555
 42
-0
  0
SEQEND
  0
POLYLINE
  8
0
 10
0
 20
0
 39
0
 70
1
 66
1
  0
VERTEX
  8
0
 10
667.50678646998836
 20
512
 42
-1
  0
VERTEX
  8
0
 10
667.50678646998836
 20
498
 42
-1
  0
SEQEND
  0
POLYLINE
  8
0
 10
0
 20
0
 39
0
 70
1
 66
1
  0
VERTEX
  8
0
 10
300
 20
10
 42
0
  0
VERTEX
  8
0
 10
300
 20
210
 42
0
  0
VERTEX
  8
0
 10
210
 20
210
 42
0
  0
VERTEX
  8
0
 10
210
 20
10
 42
0
  0
SEQEND
  0
POLYLINE
  8
0
 10
0
 20
0
 39
0
 70
1
 66
1
  0
VERTEX
  8
0
 10
244.5
 20
149.5
 42
-1
  0
VERTEX
  8
0
 10
265.5
 20
149.5
 42
0
  0
VERTEX
  8
0
 10
265.5
 20
100.5
 42
-1
  0
VERTEX
  8
0
 10
244.5
 20
100.5
 42
-0
  0
SEQEND
  0
POLYLINE
  8
0
 10
0
 20
0
 39
0
 70
1
 66
1
  0
VERTEX
  8
0
 10
620.00678646998836
 20
555
 42
-0
  0
VERTEX
  8
0
 10
620.00678646998836
 20
380
 42
-0
  0
VERTEX
  8
0
 10
645.00678646998836
 20
380
 42
-0
  0
VERTEX
  8
0
 10
645.00678646998836
 20
555
 42
-0
  0
SEQEND
  0
POLYLINE
  8
0
 10
0
 20
0
 39
0
 70
1
 66
1
  0
VERTEX
  8
0
 10
632.50678646998836
 20
512
 42
-1
  0
VERTEX
  8
0
 10
632.50678646998836
 20
498
 42
-1
  0
SEQEND
  0
POLYLINE
  8
0
 10
0
 20
0
 39
0
 70
1
 66
1
  0
VERTEX
  8
0
 10
100.00000000000001
 20
220
 42
0
  0
VERTEX
  8
0
 10
100
 20
420
 42
0
  0
VERTEX
  8
0
 10
10
 20
420
 42
0
  0
VERTEX
  8
0
 10
10.000000000000012
 20
220
 42
0
  0
SEQEND
  0
POLYLINE
  8
0
 10
0
 20
0
 39
0
 70
1
 66
1
  0
VERTEX
  8
0
 10
44.500000000000007
 20
359.5
 42
-1
  0
VERTEX
  8
0
 10
65.5
 20
359.5
 42
0
  0
VERTEX
  8
0
 10
65.5
 20
310.5
 42
-1
  0
VERTEX
  8
0
 10
44.500000000000007
 20
310.5
 42
-0
  0
SEQEND
  0
POLYLINE
  8
0
 10
0
 20
0
 39
0
 70
1
 66
1
  0
VERTEX
  8
0
 10
100.00000000000001
 20
10
 42
0
  0
VERTEX
  8
0
 10
100
 20
210
 42
0
  0
VERTEX
  8
0
 10
10
 20
210
 42
0
  0
VERTEX
  8
0
 10
10.000000000000012
 20
10
 42
0
  0
SEQEND
  0
POLYLINE
  8
0
 10
0
 20
0
 39
0
 70
1
 66
1
  0
VERTEX
  8
0
 10
44.500000000000007
 20
149.5
 42
-1
  0
VERTEX
  8
0
 10
65.5
 20
149.5
 42
0
  0
VERTEX
  8
0
 10
65.5
 20
100.5
 42
-1
  0
VERTEX
  8
0
 10
44.500000000000007
 20
100.5
 42
-0
  0
SEQEND
  0
POLYLINE
  8
0
 10
0
 20
0
 39
0
 70
1
 66
1
  0
VERTEX
  8
0
 10
200
 20
220
 42
0
  0
VERTEX
  8
0
 10
200
 20
420
 42
0
  0
VERTEX
  8
0
 10
110
 20
420
 42
0
  0
VERTEX
  8
0
 10
110.00000000000001
 20
220
 42
0
  0
SEQEND
  0
POLYLINE
  8
0
 10
0
 20
0
 39
0
 70
1
 66
1
  0
VERTEX
  8
0
 10
144.5
 20
359.5
 42
-1
  0
VERTEX
  8
0
 10
165.5
 20
359.5
 42
0
  0
VERTEX
  8
0
 10
165.5
 20
310.5
 42
-1
  0
VERTEX
  8
0
 10
144.5
 20
310.5
 42
-0
  0
SEQEND
  0
POLYLINE
  8
0
 10
0
 20
0
 39
0
 70
1
 66
1
  0
VERTEX
  8
0
 10
200
 20
10
 42
0
  0
VERTEX
  8
0
 10
200
 20
210
 42
0
  0
VERTEX
  8
0
 10
110
 20
210
 42
0
  0
VERTEX
  8
0
 10
110.00000000000001
 20
10
 42
0
  0
SEQEND
  0
POLYLINE
  8
0
 10
0
 20
0
 39
0
 70
1
 66
1
  0
VERTEX
  8
0
 10
144.5
 20
149.5
 42
-1
  0
VERTEX
  8
0
 10
165.5
 20
149.5
 42
0
  0
VERTEX
  8
0
 10
165.5
 20
100.5
 42
-1
  0
VERTEX
  8
0
 10
144.5
 20
100.5
 42
-0
  0
SEQEND
  0
POLYLINE
  8
0
 10
0
 20
0
 39
0
 70
1
 66
1
  0
VERTEX
  8
0
 10
780.00678646998836
 20
380
 42
0
  0
VERTEX
  8
0
 10
780.00678646998836
 20
580
 42
0
  0
VERTEX
  8
0
 10
690.00678646998836
 20
580
 42
0
  0
VERTEX
  8
0
 10
690.00678646998836
 20
380
 42
0
  0
SEQEND
  0
POLYLINE
  8
0
 10
0
 20
0
 39
0
 70
1
 66
1
  0
VERTEX
  8
0
 10
724.50678646998836
 20
519.5
 42
-1
  0
VERTEX
  8
0
 10
745.50678646998836
 20
519.5
 42
0
  0
VERTEX
  8
0
 10
745.50678646998836
 20
470.5
 42
-1
  0
VERTEX
  8
0
 10
724.50678646998836
 20
470.5
 42
-0
  0
SEQEND
  0
POLYLINE
  8
0
 10
0
 20
0
 39
0
 70
1
 66
1
  0
VERTEX
  8
0
 10
620.00678646998836
 20
185
 42
-0
  0
VERTEX
  8
0
 10
620.00678646998836
 20
10
 42
-0
  0
VERTEX
  8
0
 10
780.00678646998836
 20
10
 42
-0
  0
VERTEX
  8
0
 10
780.00678646998836
 20
185
 42
-0
  0
SEQEND
  0
POLYLINE
  8
0
 10
0
 20
0
 39
0
 70
1
 66
1
  0
VERTEX
  8
0
 10
685.00678646998836
 20
93
 42
-1
  0
VERTEX
  8
0
 10
685.00678646998836
 20
77
 42
-1
  0
SEQEND
  0
POLYLINE
  8
0
 10
0
 20
0
 39
0
 70
1
 66
1
  0
VERTEX
  8
0
 10
480
 20
565
 42
-0
  0
VERTEX
  8
0
 10
655
 20
565
 42
-0
  0
VERTEX
  8
0
 10
655
 20
590
 42
-0
  0
VERTEX
  8
0
 10
480
 20
590
 42
-0
  0
SEQEND
  0
POLYLINE
  8
0
 10
0
 20
0
 39
0
 70
1
 66
1
  0
VERTEX
  8
0
 10
523
 20
577.5
 42
-1
  0
VERTEX
  8
0
 10
537
 20
577.5
 42
-1
  0
SEQEND
  0
POLYLINE
  8
0
 10
0
 20
0
 39
0
 70
1
 66
1
  0
VERTEX
  8
0
 10
300
 20
220
 42
0
  0
VERTEX
  8
0
 10
300
 20
420
 42
0
  0
VERTEX
  8
0
 10
210
 20
420
 42
0
  0
VERTEX
  8
0
 10
210
 20
220
 42
0
  0
SEQEND
  0
POLYLINE
  8
0
 10
0
 20
0
 39
0
 70
1
 66
1
  0
VERTEX
  8
0
 10
244.5
 20
359.5
 42
-1
  0
VERTEX
  8
0
 10
265.5
 20
359.5
 42
0
  0
VERTEX
  8
0
 10
265.5
 20
310.5
 42
-1
  0
VERTEX
  8
0
 10
244.5
 20
310.5
 42
-0
  0
SEQEND
  0
POLYLINE
  8
0
 10
0
 20
0
 39
0
 70
1
 66
1
  0
VERTEX
  8
0
 10
470
 20
380
 42
0
  0
VERTEX
  8
0
 10
470
 20
580
 42
0
  0
VERTEX
  8
0
 10
380
 20
580
 42
0
  0
VERTEX
  8
0
 10
380
 20
380
 42
0
  0
SEQEND
  0
POLYLINE
  8
0
 10
0
 20
0
 39
0
 70
1
 66
1
  0
VERTEX
  8
0
 10
414.5
 20
519.5
 42
-1
  0
VERTEX
  8
0
 10
435.5
 20
519.5
 42
0
  0
VERTEX
  8
0
 10
435.5
 20
470.5
 42
-1
  0
VERTEX
  8
0
 10
414.5
 20
470.5
 42
-0
  0
SEQEND
  0
ENDSEC
  0
EOF
