  0
SECTION
  2
ENTITIES
  0
POLYLINE
  8
0
 10
0
 20
0
 39
0
 70
1
 66
1
  0
VERTEX
  8
0
 10
0
 20
0
 42
-0
  0
VERTEX
  8
0
 10
2500
 20
0
 42
-0
  0
VERTEX
  8
0
 10
2500
 20
1200
 42
-0
  0
VERTEX
  8
0
 10
0
 20
1200
 42
-0
  0
SEQEND
  0
POLYLINE
  8
0
 10
0
 20
0
 39
0
 70
1
 66
1
  0
VERTEX
  8
0
 10
140
 20
710
 42
0
  0
VERTEX
  8
0
 10
140.00000000000006
 20
10
 42
-0
  0
VERTEX
  8
0
 10
260.00000000000006
 20
10
 42
-0
  0
VERTEX
  8
0
 10
260
 20
710
 42
-0
  0
SEQEND
  0
POLYLINE
  8
0
 10
0
 20
0
 39
0
 70
1
 66
1
  0
VERTEX
  8
0
 10
200.00000000000003
 20
398
 42
-1
  0
VERTEX
  8
0
 10
200.00000000000003
 20
322
 42
-1
  0
SEQEND
  0
POLYLINE
  8
0
 10
0
 20
0
 39
0
 70
1
 66
1
  0
VERTEX
  8
0
 10
238
 20
668.66972732543945
 42
0
  0
VERTEX
  8
0
 10
238
 20
580.75325012207031
 42
0.085440635681152344
  0
VERTEX
  8
0
 10
162
 20
580.75325012207031
 42
-0
  0
VERTEX
  8
0
 10
162
 20
668.66972732543945
 42
-0.06132299080491066
  0
SEQEND
  0
POLYLINE
  8
0
 10
0
 20
0
 39
0
 70
1
 66
1
  0
VERTEX
  8
0
 10
238.00000000000006
 20
51.33026123046875
 42
-0.06132299080491066
  0
VERTEX
  8
0
 10
162.00000000000003
 20
51.33026123046875
 42
0
  0
VERTEX
  8
0
 10
162.00000000000003
 20
139.24676513671875
 42
0.085440635681152344
  0
VERTEX
  8
0
 10
238.00000000000003
 20
139.24676513671875
 42
-0
  0
SEQEND
  0
POLYLINE
  8
0
 10
0
 20
0
 39
0
 70
1
 66
1
  0
VERTEX
  8
0
 10
10
 20
710
 42
0
  0
VERTEX
  8
0
 10
10.000000000000043
 20
10
 42
-0
  0
VERTEX
  8
0
 10
130.00000000000006
 20
10
 42
-0
  0
VERTEX
  8
0
 10
130
 20
710
 42
-0
  0
SEQEND
  0
POLYLINE
  8
0
 10
0
 20
0
 39
0
 70
1
 66
1
  0
VERTEX
  8
0
 10
70.000000000000028
 20
398
 42
-1
  0
VERTEX
  8
0
 10
70.000000000000028
 20
322
 42
-1
  0
SEQEND
  0
POLYLINE
  8
0
 10
0
 20
0
 39
0
 70
1
 66
1
  0
VERTEX
  8
0
 10
108
 20
668.66972732543945
 42
0
  0
VERTEX
  8
0
 10
108.00000000000001
 20
580.75325012207031
 42
0.085440635681152344
  0
VERTEX
  8
0
 10
32.000000000000007
 20
580.75325012207031
 42
-0
  0
VERTEX
  8
0
 10
32
 20
668.66972732543945
 42
-0.06132299080491066
  0
SEQEND
  0
POLYLINE
  8
0
 10
0
 20
0
 39
0
 70
1
 66
1
  0
VERTEX
  8
0
 10
108.00000000000004
 20
51.33026123046875
 42
-0.06132299080491066
  0
VERTEX
  8
0
 10
32.000000000000043
 20
51.33026123046875
 42
0
  0
VERTEX
  8
0
 10
32.000000000000036
 20
139.24676513671875
 42
0.085440635681152344
  0
VERTEX
  8
0
 10
108.00000000000003
 20
139.24676513671875
 42
-0
  0
SEQEND
  0
POLYLINE
  8
0
 10
0
 20
0
 39
0
 70
1
 66
1
  0
VERTEX
  8
0
 10
2344.0256373676016
 20
1115
 42
0
  0
VERTEX
  8
0
 10
2344.0256373676016
 20
415
 42
-0
  0
VERTEX
  8
0
 10
2464.0256373676016
 20
415
 42
-0
  0
VERTEX
  8
0
 10
2464.0256373676016
 20
1115
 42
-0
  0
SEQEND
  0
POLYLINE
  8
0
 10
0
 20
0
 39
0
 70
1
 66
1
  0
VERTEX
  8
0
 10
2404.0256373676016
 20
803
 42
-1
  0
VERTEX
  8
0
 10
2404.0256373676016
 20
727
 42
-1
  0
SEQEND
  0
POLYLINE
  8
0
 10
0
 20
0
 39
0
 70
1
 66
1
  0
VERTEX
  8
0
 10
2442.0256373676016
 20
1073.6697273254395
 42
0
  0
VERTEX
  8
0
 10
2442.0256373676016
 20
985.75325012207031
 42
0.085440635681152344
  0
VERTEX
  8
0
 10
2366.0256373676016
 20
985.75325012207031
 42
-0
  0
VERTEX
  8
0
 10
2366.0256373676016
 20
1073.6697273254395
 42
-0.06132299080491066
  0
SEQEND
  0
POLYLINE
  8
0
 10
0
 20
0
 39
0
 70
1
 66
1
  0
VERTEX
  8
0
 10
2442.0256373676016
 20
456.33026123046875
 42
-0.06132299080491066
  0
VERTEX
  8
0
 10
2366.0256373676016
 20
456.33026123046875
 42
0
  0
VERTEX
  8
0
 10
2366.0256373676016
 20
544.24676513671875
 42
0.085440635681152344
  0
VERTEX
  8
0
 10
2442.0256373676016
 20
544.24676513671875
 42
-0
  0
SEQEND
  0
POLYLINE
  8
0
 10
0
 20
0
 39
0
 70
1
 66
1
  0
VERTEX
  8
0
 10
1333.0220802853592
 20
1105.9978025322548
 42
1
  0
VERTEX
  8
0
 10
1335.0292024834789
 20
646.00218943411028
 42
1
  0
SEQEND
  0
POLYLINE
  8
0
 10
0
 20
0
 39
0
 70
1
 66
1
  0
VERTEX
  8
0
 10
1334.2972573775342
 20
813.75058964544451
 42
-1
  0
VERTEX
  8
0
 10
1333.7540253913039
 20
938.24940232092058
 42
-1
  0
SEQEND
  0
POLYLINE
  8
0
 10
0
 20
0
 39
0
 70
1
 66
1
  0
VERTEX
  8
0
 10
1435.0256534348709
 20
1155.9999919663651
 42
0
  0
VERTEX
  8
0
 10
634.02565343487095
 20
1155.9999919663651
 42
0
  0
VERTEX
  8
0
 10
634.02565343487095
 20
1115.9999919663651
 42
0
  0
VERTEX
  8
0
 10
1435.0256534348709
 20
1115.9999919663651
 42
0
  0
SEQEND
  0
POLYLINE
  8
0
 10
0
 20
0
 39
0
 70
1
 66
1
  0
VERTEX
  8
0
 10
1329.0256534348709
 20
1135.9999919663651
 42
-1
  0
VERTEX
  8
0
 10
1341.0256534348709
 20
1135.9999919663651
 42
-1
  0
SEQEND
  0
POLYLINE
  8
0
 10
0
 20
0
 39
0
 70
1
 66
1
  0
VERTEX
  8
0
 10
728.02565343487095
 20
1135.9999919663651
 42
-1
  0
VERTEX
  8
0
 10
740.02565343487095
 20
1135.9999919663651
 42
-1
  0
SEQEND
  0
POLYLINE
  8
0
 10
0
 20
0
 39
0
 70
1
 66
1
  0
VERTEX
  8
0
 10
2334.0256373676016
 20
1145
 42
0
  0
VERTEX
  8
0
 10
1574.0256373676016
 20
1145
 42
0
  0
VERTEX
  8
0
 10
1574.0256373676016
 20
880
 42
0
  0
VERTEX
  8
0
 10
1586.0256373676016
 20
880
 42
0
  0
VERTEX
  8
0
 10
1586.0256373676016
 20
780
 42
0
  0
VERTEX
  8
0
 10
2322.0256373676016
 20
780
 42
0
  0
VERTEX
  8
0
 10
2322.0256373676016
 20
880
 42
0
  0
VERTEX
  8
0
 10
2334.0256373676016
 20
880
 42
0
  0
SEQEND
  0
POLYLINE
  8
0
 10
0
 20
0
 39
0
 70
1
 66
1
  0
VERTEX
  8
0
 10
1894.0256373676016
 20
963
 42
-1
  0
VERTEX
  8
0
 10
2014.0256373676016
 20
963
 42
-1
  0
SEQEND
  0
POLYLINE
  8
0
 10
0
 20
0
 39
0
 70
1
 66
1
  0
VERTEX
  8
0
 10
2320
 20
10
 42
0
  0
VERTEX
  8
0
 10
2320
 20
770
 42
0
  0
VERTEX
  8
0
 10
2055
 20
770
 42
0
  0
VERTEX
  8
0
 10
2055
 20
758
 42
0
  0
VERTEX
  8
0
 10
1955
 20
758
 42
0
  0
VERTEX
  8
0
 10
1955
 20
22
 42
0
  0
VERTEX
  8
0
 10
2055
 20
22
 42
0
  0
VERTEX
  8
0
 10
2055
 20
10
 42
0
  0
SEQEND
  0
POLYLINE
  8
0
 10
0
 20
0
 39
0
 70
1
 66
1
  0
VERTEX
  8
0
 10
2138
 20
450
 42
-1
  0
VERTEX
  8
0
 10
2138
 20
330
 42
-1
  0
SEQEND
  0
POLYLINE
  8
0
 10
0
 20
0
 39
0
 70
1
 66
1
  0
VERTEX
  8
0
 10
10.000000000000028
 20
720
 42
0
  0
VERTEX
  8
0
 10
154.02566146850589
 20
720
 42
0
  0
VERTEX
  8
0
 10
154.02566146850586
 20
1115
 42
-0
  0
VERTEX
  8
0
 10
10
 20
1115
 42
-0
  0
SEQEND
  0
POLYLINE
  8
0
 10
0
 20
0
 39
0
 70
1
 66
1
  0
VERTEX
  8
0
 10
38.000000000000007
 20
1015
 42
0
  0
VERTEX
  8
0
 10
38.000000000000007
 20
1035
 42
-1
  0
VERTEX
  8
0
 10
58.000000000000007
 20
1035
 42
0
  0
VERTEX
  8
0
 10
58.000000000000007
 20
1015
 42
-1
  0
SEQEND
  0
POLYLINE
  8
0
 10
0
 20
0
 39
0
 70
1
 66
1
  0
VERTEX
  8
0
 10
38.000000000000021
 20
765
 42
0
  0
VERTEX
  8
0
 10
38.000000000000021
 20
785
 42
-1
  0
VERTEX
  8
0
 10
58.000000000000021
 20
785
 42
0
  0
VERTEX
  8
0
 10
58.000000000000021
 20
765
 42
-1
  0
SEQEND
  0
POLYLINE
  8
0
 10
0
 20
0
 39
0
 70
1
 66
1
  0
VERTEX
  8
0
 10
863.02208831899384
 20
1105.9978025322548
 42
1
  0
VERTEX
  8
0
 10
865.0292105171136
 20
646.00218943411028
 42
1
  0
SEQEND
  0
POLYLINE
  8
0
 10
0
 20
0
 39
0
 70
1
 66
1
  0
VERTEX
  8
0
 10
864.29726541116884
 20
813.75058964544451
 42
-1
  0
VERTEX
  8
0
 10
863.7540334249386
 20
938.24940232092058
 42
-1
  0
SEQEND
  0
POLYLINE
  8
0
 10
0
 20
0
 39
0
 70
1
 66
1
  0
VERTEX
  8
0
 10
2330
 20
10
 42
0
  0
VERTEX
  8
0
 10
2474.0256614685059
 20
10
 42
0
  0
VERTEX
  8
0
 10
2474.0256614685059
 20
405
 42
-0
  0
VERTEX
  8
0
 10
2330
 20
405
 42
-0
  0
SEQEND
  0
POLYLINE
  8
0
 10
0
 20
0
 39
0
 70
1
 66
1
  0
VERTEX
  8
0
 10
2358
 20
305
 42
0
  0
VERTEX
  8
0
 10
2358
 20
325
 42
-1
  0
VERTEX
  8
0
 10
2378
 20
325
 42
0
  0
VERTEX
  8
0
 10
2378
 20
305
 42
-1
  0
SEQEND
  0
POLYLINE
  8
0
 10
0
 20
0
 39
0
 70
1
 66
1
  0
VERTEX
  8
0
 10
2358
 20
55
 42
0
  0
VERTEX
  8
0
 10
2358
 20
75
 42
-1
  0
VERTEX
  8
0
 10
2378
 20
75
 42
0
  0
VERTEX
  8
0
 10
2378
 20
55
 42
-1
  0
SEQEND
  0
POLYLINE
  8
0
 10
0
 20
0
 39
0
 70
1
 66
1
  0
VERTEX
  8
0
 10
1570
 20
636
 42
0
  0
VERTEX
  8
0
 10
270
 20
636
 42
0
  0
VERTEX
  8
0
 10
270
 20
10
 42
0
  0
VERTEX
  8
0
 10
1570
 20
10
 42
0
  0
SEQEND
  0
POLYLINE
  8
0
 10
0
 20
0
 39
0
 70
1
 66
1
  0
VERTEX
  8
0
 10
685
 20
123
 42
-1
  0
VERTEX
  8
0
 10
795
 20
123
 42
-1
  0
SEQEND
  0
POLYLINE
  8
0
 10
0
 20
0
 39
0
 70
1
 66
1
  0
VERTEX
  8
0
 10
685
 20
523
 42
-1
  0
VERTEX
  8
0
 10
795
 20
523
 42
-1
  0
SEQEND
  0
POLYLINE
  8
0
 10
0
 20
0
 39
0
 70
1
 66
1
  0
VERTEX
  8
0
 10
685
 20
323
 42
-1
  0
VERTEX
  8
0
 10
795
 20
323
 42
-1
  0
SEQEND
  0
POLYLINE
  8
0
 10
0
 20
0
 39
0
 70
1
 66
1
  0
VERTEX
  8
0
 10
1945
 20
10
 42
0
  0
VERTEX
  8
0
 10
1945
 20
770
 42
0
  0
VERTEX
  8
0
 10
1680
 20
770
 42
0
  0
VERTEX
  8
0
 10
1680
 20
758
 42
0
  0
VERTEX
  8
0
 10
1580
 20
758
 42
0
  0
VERTEX
  8
0
 10
1580
 20
22
 42
0
  0
VERTEX
  8
0
 10
1680
 20
22
 42
0
  0
VERTEX
  8
0
 10
1680
 20
10
 42
0
  0
SEQEND
  0
POLYLINE
  8
0
 10
0
 20
0
 39
0
 70
1
 66
1
  0
VERTEX
  8
0
 10
1763
 20
450
 42
-1
  0
VERTEX
  8
0
 10
1763
 20
330
 42
-1
  0
SEQEND
  0
POLYLINE
  8
0
 10
0
 20
0
 39
0
 70
1
 66
1
  0
VERTEX
  8
0
 10
393.02209635262858
 20
1179.9978025322548
 42
1
  0
VERTEX
  8
0
 10
395.02921855074834
 20
720.00218943411028
 42
1
  0
SEQEND
  0
POLYLINE
  8
0
 10
0
 20
0
 39
0
 70
1
 66
1
  0
VERTEX
  8
0
 10
394.29727344480358
 20
887.75058964544451
 42
-1
  0
VERTEX
  8
0
 10
393.75404145857334
 20
1012.2494023209206
 42
-1
  0
SEQEND
  0
ENDSEC
  0
EOF
