  0
SECTION
  2
ENTITIES
  0
POLYLINE
  8
0
 10
0
 20
0
 39
0
 70
1
 66
1
  0
VERTEX
  8
0
 10
0
 20
0
 42
-0
  0
VERTEX
  8
0
 10
1000
 20
0
 42
-0
  0
VERTEX
  8
0
 10
1000
 20
500
 42
-0
  0
VERTEX
  8
0
 10
0
 20
500
 42
-0
  0
SEQEND
  0
POLYLINE
  8
0
 10
0
 20
0
 39
0
 70
1
 66
1
  0
VERTEX
  8
0
 10
244.67274788602867
 20
469.99928343443094
 42
1
  0
VERTEX
  8
0
 10
245.32724425498077
 20
320.00071394590555
 42
1
  0
SEQEND
  0
POLYLINE
  8
0
 10
0
 20
0
 39
0
 70
1
 66
1
  0
VERTEX
  8
0
 10
224.91292062284106
 20
414.91254177277801
 42
-0
  0
VERTEX
  8
0
 10
264.91253915311449
 20
415.08707413783191
 42
-0
  0
VERTEX
  8
0
 10
265.08707151816839
 20
375.08745560755847
 42
-0
  0
VERTEX
  8
0
 10
225.08745298789495
 20
374.91292324250458
 42
-0
  0
SEQEND
  0
POLYLINE
  8
0
 10
0
 20
0
 39
0
 70
1
 66
1
  0
VERTEX
  8
0
 10
899.99998864812471
 20
469.99999738033648
 42
-0
  0
VERTEX
  8
0
 10
899.99998864812471
 20
214.99999738033648
 42
1
  0
VERTEX
  8
0
 10
989.99998864812471
 20
214.99999738033648
 42
-0
  0
VERTEX
  8
0
 10
989.99998864812471
 20
469.99999738033648
 42
-0
  0
SEQEND
  0
POLYLINE
  8
0
 10
0
 20
0
 39
0
 70
1
 66
1
  0
VERTEX
  8
0
 10
944.99998864812471
 20
244.99999738033648
 42
-1
  0
VERTEX
  8
0
 10
944.99998864812471
 20
184.99999738033648
 42
-1
  0
SEQEND
  0
POLYLINE
  8
0
 10
0
 20
0
 39
0
 70
1
 66
1
  0
VERTEX
  8
0
 10
744.67275050569219
 20
159.99928343443094
 42
1
  0
VERTEX
  8
0
 10
745.32724687464429
 20
10.000713945905545
 42
1
  0
SEQEND
  0
POLYLINE
  8
0
 10
0
 20
0
 39
0
 70
1
 66
1
  0
VERTEX
  8
0
 10
724.91292324250458
 20
104.91254177277801
 42
-0
  0
VERTEX
  8
0
 10
764.91254177277801
 20
105.08707413783191
 42
-0
  0
VERTEX
  8
0
 10
765.08707413783191
 20
65.087455607558468
 42
-0
  0
VERTEX
  8
0
 10
725.08745560755847
 20
64.912923242504576
 42
-0
  0
SEQEND
  0
POLYLINE
  8
0
 10
0
 20
0
 39
0
 70
1
 66
1
  0
VERTEX
  8
0
 10
84.672750505692193
 20
469.99928343443094
 42
1
  0
VERTEX
  8
0
 10
85.327246874644288
 20
320.00071394590555
 42
1
  0
SEQEND
  0
POLYLINE
  8
0
 10
0
 20
0
 39
0
 70
1
 66
1
  0
VERTEX
  8
0
 10
64.912923242504576
 20
414.91254177277801
 42
-0
  0
VERTEX
  8
0
 10
104.91254177277801
 20
415.08707413783191
 42
-0
  0
VERTEX
  8
0
 10
105.08707413783191
 20
375.08745560755847
 42
-0
  0
VERTEX
  8
0
 10
65.087455607558468
 20
374.91292324250458
 42
-0
  0
SEQEND
  0
POLYLINE
  8
0
 10
0
 20
0
 39
0
 70
1
 66
1
  0
VERTEX
  8
0
 10
589.5636594819324
 20
469.99904457924123
 42
1
  0
VERTEX
  8
0
 10
590.43632130720187
 20
270.00095192787404
 42
1
  0
SEQEND
  0
POLYLINE
  8
0
 10
0
 20
0
 39
0
 70
1
 66
1
  0
VERTEX
  8
0
 10
618.6397458417448
 20
435.59256559312752
 42
-1
  0
VERTEX
  8
0
 10
618.77064511553522
 20
405.59285169542244
 42
0
  0
VERTEX
  8
0
 10
578.771027538927
 20
405.41831933452971
 42
0
  0
VERTEX
  8
0
 10
579.08053433379246
 20
334.48503585254997
 42
-0
  0
VERTEX
  8
0
 10
619.08015191040067
 20
334.6595682134427
 42
-1
  0
VERTEX
  8
0
 10
619.21105118419109
 20
304.65985431573762
 42
-0
  0
VERTEX
  8
0
 10
553.21168251657036
 20
304.37187592172103
 42
-0
  0
VERTEX
  8
0
 10
552.64037717412407
 20
435.30458719911093
 42
-0
  0
SEQEND
  0
POLYLINE
  8
0
 10
0
 20
0
 39
0
 70
1
 66
1
  0
VERTEX
  8
0
 10
904.67274788602867
 20
159.99928343443094
 42
1
  0
VERTEX
  8
0
 10
905.32724425498077
 20
10.000713945905545
 42
1
  0
SEQEND
  0
POLYLINE
  8
0
 10
0
 20
0
 39
0
 70
1
 66
1
  0
VERTEX
  8
0
 10
884.91292062284106
 20
104.91254177277801
 42
-0
  0
VERTEX
  8
0
 10
924.91253915311449
 20
105.08707413783191
 42
-0
  0
VERTEX
  8
0
 10
925.08707151816839
 20
65.087455607558468
 42
-0
  0
VERTEX
  8
0
 10
885.08745298789495
 20
64.912923242504576
 42
-0
  0
SEQEND
  0
POLYLINE
  8
0
 10
0
 20
0
 39
0
 70
1
 66
1
  0
VERTEX
  8
0
 10
110
 20
310
 42
-0
  0
VERTEX
  8
0
 10
110.00000000000001
 20
55
 42
1
  0
VERTEX
  8
0
 10
200
 20
55
 42
-0
  0
VERTEX
  8
0
 10
200
 20
310
 42
-0
  0
SEQEND
  0
POLYLINE
  8
0
 10
0
 20
0
 39
0
 70
1
 66
1
  0
VERTEX
  8
0
 10
155
 20
85
 42
-1
  0
VERTEX
  8
0
 10
155
 20
25
 42
-1
  0
SEQEND
  0
POLYLINE
  8
0
 10
0
 20
0
 39
0
 70
1
 66
1
  0
VERTEX
  8
0
 10
210
 20
310
 42
-0
  0
VERTEX
  8
0
 10
210.00000000000003
 20
55
 42
1
  0
VERTEX
  8
0
 10
300
 20
55
 42
-0
  0
VERTEX
  8
0
 10
300
 20
310
 42
-0
  0
SEQEND
  0
POLYLINE
  8
0
 10
0
 20
0
 39
0
 70
1
 66
1
  0
VERTEX
  8
0
 10
255
 20
85
 42
-1
  0
VERTEX
  8
0
 10
255
 20
25
 42
-1
  0
SEQEND
  0
POLYLINE
  8
0
 10
0
 20
0
 39
0
 70
1
 66
1
  0
VERTEX
  8
0
 10
310
 20
310
 42
-0
  0
VERTEX
  8
0
 10
310
 20
55
 42
1
  0
VERTEX
  8
0
 10
400
 20
55
 42
-0
  0
VERTEX
  8
0
 10
400
 20
310
 42
-0
  0
SEQEND
  0
POLYLINE
  8
0
 10
0
 20
0
 39
0
 70
1
 66
1
  0
VERTEX
  8
0
 10
355
 20
85
 42
-1
  0
VERTEX
  8
0
 10
355
 20
25
 42
-1
  0
SEQEND
  0
POLYLINE
  8
0
 10
0
 20
0
 39
0
 70
1
 66
1
  0
VERTEX
  8
0
 10
699.99998864812471
 20
469.99999738033648
 42
-0
  0
VERTEX
  8
0
 10
699.99998864812471
 20
214.99999738033648
 42
1
  0
VERTEX
  8
0
 10
789.99998864812471
 20
214.99999738033648
 42
-0
  0
VERTEX
  8
0
 10
789.99998864812471
 20
469.99999738033648
 42
-0
  0
SEQEND
  0
POLYLINE
  8
0
 10
0
 20
0
 39
0
 70
1
 66
1
  0
VERTEX
  8
0
 10
744.99998864812471
 20
244.99999738033648
 42
-1
  0
VERTEX
  8
0
 10
744.99998864812471
 20
184.99999738033648
 42
-1
  0
SEQEND
  0
POLYLINE
  8
0
 10
0
 20
0
 39
0
 70
1
 66
1
  0
VERTEX
  8
0
 10
10
 20
310
 42
-0
  0
VERTEX
  8
0
 10
10.000000000000016
 20
55
 42
1
  0
VERTEX
  8
0
 10
100.00000000000001
 20
55
 42
-0
  0
VERTEX
  8
0
 10
100
 20
310
 42
-0
  0
SEQEND
  0
POLYLINE
  8
0
 10
0
 20
0
 39
0
 70
1
 66
1
  0
VERTEX
  8
0
 10
55.000000000000014
 20
85
 42
-1
  0
VERTEX
  8
0
 10
55.000000000000014
 20
25
 42
-1
  0
SEQEND
  0
POLYLINE
  8
0
 10
0
 20
0
 39
0
 70
1
 66
1
  0
VERTEX
  8
0
 10
404.67274526636515
 20
469.99928343443094
 42
1
  0
VERTEX
  8
0
 10
405.32724163531725
 20
320.00071394590555
 42
1
  0
SEQEND
  0
POLYLINE
  8
0
 10
0
 20
0
 39
0
 70
1
 66
1
  0
VERTEX
  8
0
 10
384.91291800317754
 20
414.91254177277801
 42
-0
  0
VERTEX
  8
0
 10
424.91253653345098
 20
415.08707413783191
 42
-0
  0
VERTEX
  8
0
 10
425.08706889850487
 20
375.08745560755847
 42
-0
  0
VERTEX
  8
0
 10
385.08745036823143
 20
374.91292324250458
 42
-0
  0
SEQEND
  0
POLYLINE
  8
0
 10
0
 20
0
 39
0
 70
1
 66
1
  0
VERTEX
  8
0
 10
799.99998864812471
 20
469.99999738033648
 42
-0
  0
VERTEX
  8
0
 10
799.99998864812471
 20
214.99999738033648
 42
1
  0
VERTEX
  8
0
 10
889.99998864812471
 20
214.99999738033648
 42
-0
  0
VERTEX
  8
0
 10
889.99998864812471
 20
469.99999738033648
 42
-0
  0
SEQEND
  0
POLYLINE
  8
0
 10
0
 20
0
 39
0
 70
1
 66
1
  0
VERTEX
  8
0
 10
844.99998864812471
 20
244.99999738033648
 42
-1
  0
VERTEX
  8
0
 10
844.99998864812471
 20
184.99999738033648
 42
-1
  0
SEQEND
  0
POLYLINE
  8
0
 10
0
 20
0
 39
0
 70
1
 66
1
  0
VERTEX
  8
0
 10
410
 20
10
 42
-0
  0
VERTEX
  8
0
 10
660
 20
10
 42
-0
  0
VERTEX
  8
0
 10
660
 20
260
 42
-0
  0
VERTEX
  8
0
 10
410
 20
260
 42
-0
  0
SEQEND
  0
POLYLINE
  8
0
 10
0
 20
0
 39
0
 70
1
 66
1
  0
VERTEX
  8
0
 10
455.1191291809082
 20
90.756011962890625
 42
-1
  0
VERTEX
  8
0
 10
469.1191291809082
 20
90.756011962890625
 42
-1
  0
SEQEND
  0
POLYLINE
  8
0
 10
0
 20
0
 39
0
 70
1
 66
1
  0
VERTEX
  8
0
 10
567.24856567382812
 20
47.800685882568359
 42
-1
  0
VERTEX
  8
0
 10
595.24856567382812
 20
47.800685882568359
 42
-1
  0
SEQEND
  0
POLYLINE
  8
0
 10
0
 20
0
 39
0
 70
1
 66
1
  0
VERTEX
  8
0
 10
505.13860321044922
 20
199.00343322753906
 42
-1
  0
VERTEX
  8
0
 10
561.13859558105469
 20
199.00343322753906
 42
-1
  0
SEQEND
  0
ENDSEC
  0
EOF
