  0
SECTION
  2
ENTITIES
  0
POLYLINE
  8
0
 10
0
 20
0
 39
0
 70
1
 66
1
  0
VERTEX
  8
0
 10
0
 20
0
 42
-0
  0
VERTEX
  8
0
 10
2500
 20
0
 42
-0
  0
VERTEX
  8
0
 10
2500
 20
1200
 42
-0
  0
VERTEX
  8
0
 10
0
 20
1200
 42
-0
  0
SEQEND
  0
POLYLINE
  8
0
 10
0
 20
0
 39
0
 70
1
 66
1
  0
VERTEX
  8
0
 10
10
 20
912
 42
0
  0
VERTEX
  8
0
 10
1300
 20
912
 42
-0
  0
VERTEX
  8
0
 10
1300
 20
1152
 42
-0
  0
VERTEX
  8
0
 10
10.000000000000014
 20
1152
 42
-0
  0
SEQEND
  0
POLYLINE
  8
0
 10
0
 20
0
 39
0
 70
1
 66
1
  0
VERTEX
  8
0
 10
208.88058471679687
 20
1032
 42
0
  0
VERTEX
  8
0
 10
584
 20
1032
 42
-1
  0
VERTEX
  8
0
 10
726
 20
1032
 42
0
  0
VERTEX
  8
0
 10
1101.119384765625
 20
1032
 42
-2.4142136573791504
  0
VERTEX
  8
0
 10
1172.119384765625
 20
961
 42
-0
  0
VERTEX
  8
0
 10
137.88058471679687
 20
961
 42
-2.4142136573791504
  0
SEQEND
  0
POLYLINE
  8
0
 10
0
 20
0
 39
0
 70
1
 66
1
  0
VERTEX
  8
0
 10
10
 20
10
 42
0
  0
VERTEX
  8
0
 10
1300
 20
10
 42
-0
  0
VERTEX
  8
0
 10
1300
 20
250
 42
-0
  0
VERTEX
  8
0
 10
10.000000000000014
 20
250
 42
-0
  0
SEQEND
  0
POLYLINE
  8
0
 10
0
 20
0
 39
0
 70
1
 66
1
  0
VERTEX
  8
0
 10
208.88058471679687
 20
130
 42
0
  0
VERTEX
  8
0
 10
584
 20
130
 42
-1
  0
VERTEX
  8
0
 10
726
 20
130
 42
0
  0
VERTEX
  8
0
 10
1101.119384765625
 20
130
 42
-2.4142136573791504
  0
VERTEX
  8
0
 10
1172.119384765625
 20
59
 42
-0
  0
VERTEX
  8
0
 10
137.88058471679687
 20
59
 42
-2.4142136573791504
  0
SEQEND
  0
POLYLINE
  8
0
 10
0
 20
0
 39
0
 70
1
 66
1
  0
VERTEX
  8
0
 10
913
 20
839
 42
0
  0
VERTEX
  8
0
 10
733
 20
839
 42
-0
  0
VERTEX
  8
0
 10
713
 20
819
 42
0
  0
VERTEX
  8
0
 10
713
 20
760
 42
0
  0
VERTEX
  8
0
 10
933
 20
760
 42
0
  0
VERTEX
  8
0
 10
933
 20
819
 42
-0
  0
SEQEND
  0
POLYLINE
  8
0
 10
0
 20
0
 39
0
 70
1
 66
1
  0
VERTEX
  8
0
 10
883.5
 20
819
 42
-1
  0
VERTEX
  8
0
 10
883.5
 20
790
 42
-0
  0
VERTEX
  8
0
 10
762.5
 20
790
 42
-1
  0
VERTEX
  8
0
 10
762.5
 20
819
 42
-0
  0
SEQEND
  0
POLYLINE
  8
0
 10
0
 20
0
 39
0
 70
1
 66
1
  0
VERTEX
  8
0
 10
1740
 20
491
 42
0
  0
VERTEX
  8
0
 10
1560
 20
491
 42
-0
  0
VERTEX
  8
0
 10
1540
 20
471
 42
0
  0
VERTEX
  8
0
 10
1540
 20
412
 42
0
  0
VERTEX
  8
0
 10
1760
 20
412
 42
0
  0
VERTEX
  8
0
 10
1760
 20
471
 42
-0
  0
SEQEND
  0
POLYLINE
  8
0
 10
0
 20
0
 39
0
 70
1
 66
1
  0
VERTEX
  8
0
 10
1710.5
 20
471
 42
-1
  0
VERTEX
  8
0
 10
1710.5
 20
442
 42
-0
  0
VERTEX
  8
0
 10
1589.5
 20
442
 42
-1
  0
VERTEX
  8
0
 10
1589.5
 20
471
 42
-0
  0
SEQEND
  0
POLYLINE
  8
0
 10
0
 20
0
 39
0
 70
1
 66
1
  0
VERTEX
  8
0
 10
2405
 20
22.5
 42
0
  0
VERTEX
  8
0
 10
2405
 20
690.5
 42
-0
  0
VERTEX
  8
0
 10
2394.5
 20
690.5
 42
-1.4470094442367554
  0
VERTEX
  8
0
 10
2391
 20
691.8228759765625
 42
-0
  0
VERTEX
  8
0
 10
2391
 20
703
 42
0
  0
VERTEX
  8
0
 10
2027
 20
703
 42
0
  0
VERTEX
  8
0
 10
2027
 20
691.82287561893463
 42
-1.4470094442367554
  0
VERTEX
  8
0
 10
2023.5
 20
690.5
 42
0
  0
VERTEX
  8
0
 10
2013
 20
690.5
 42
0
  0
VERTEX
  8
0
 10
2013
 20
22.5
 42
0
  0
VERTEX
  8
0
 10
2023.5
 20
22.5
 42
-1.4470094442367554
  0
VERTEX
  8
0
 10
2027
 20
21.1771240234375
 42
0
  0
VERTEX
  8
0
 10
2027
 20
10
 42
0
  0
VERTEX
  8
0
 10
2391
 20
10
 42
-0
  0
VERTEX
  8
0
 10
2391
 20
21.1771240234375
 42
-1.4470092058181763
  0
VERTEX
  8
0
 10
2394.5
 20
22.5
 42
-0
  0
SEQEND
  0
POLYLINE
  8
0
 10
0
 20
0
 39
0
 70
1
 66
1
  0
VERTEX
  8
0
 10
2361.5
 20
366
 42
-1
  0
VERTEX
  8
0
 10
2361.5
 20
347
 42
-1
  0
SEQEND
  0
POLYLINE
  8
0
 10
0
 20
0
 39
0
 70
1
 66
1
  0
VERTEX
  8
0
 10
1510
 20
491
 42
0
  0
VERTEX
  8
0
 10
1330
 20
491
 42
-0
  0
VERTEX
  8
0
 10
1310
 20
471
 42
0
  0
VERTEX
  8
0
 10
1310
 20
412
 42
0
  0
VERTEX
  8
0
 10
1530
 20
412
 42
0
  0
VERTEX
  8
0
 10
1530
 20
471
 42
-0
  0
SEQEND
  0
POLYLINE
  8
0
 10
0
 20
0
 39
0
 70
1
 66
1
  0
VERTEX
  8
0
 10
1480.5
 20
471
 42
-1
  0
VERTEX
  8
0
 10
1480.5
 20
442
 42
-0
  0
VERTEX
  8
0
 10
1359.5
 20
442
 42
-1
  0
VERTEX
  8
0
 10
1359.5
 20
471
 42
-0
  0
SEQEND
  0
POLYLINE
  8
0
 10
0
 20
0
 39
0
 70
1
 66
1
  0
VERTEX
  8
0
 10
1310
 20
1100
 42
0
  0
VERTEX
  8
0
 10
1310
 20
760
 42
0
  0
VERTEX
  8
0
 10
1365
 20
760
 42
-0.41421356797218323
  0
VERTEX
  8
0
 10
1455
 20
850
 42
-0
  0
VERTEX
  8
0
 10
1455
 20
887.27474975585937
 42
-1
  0
VERTEX
  8
0
 10
1455
 20
943.27474975585937
 42
-0
  0
VERTEX
  8
0
 10
1455
 20
972.86260986328125
 42
-1
  0
VERTEX
  8
0
 10
1455
 20
1028.8626098632812
 42
-0
  0
VERTEX
  8
0
 10
1455
 20
1100
 42
0
  0
SEQEND
  0
POLYLINE
  8
0
 10
0
 20
0
 39
0
 70
1
 66
1
  0
VERTEX
  8
0
 10
1365
 20
1068.3646926879883
 42
-1
  0
VERTEX
  8
0
 10
1365
 20
1012.3646926879883
 42
-1
  0
SEQEND
  0
POLYLINE
  8
0
 10
0
 20
0
 39
0
 70
1
 66
1
  0
VERTEX
  8
0
 10
2455.5
 20
1152
 42
0
  0
VERTEX
  8
0
 10
1787.5
 20
1152
 42
-0
  0
VERTEX
  8
0
 10
1787.5
 20
1141.5
 42
-1.4470094442367554
  0
VERTEX
  8
0
 10
1786.1771240234375
 20
1138
 42
-0
  0
VERTEX
  8
0
 10
1775
 20
1138
 42
0
  0
VERTEX
  8
0
 10
1775
 20
774
 42
0
  0
VERTEX
  8
0
 10
1786.1771243810654
 20
774
 42
-1.4470094442367554
  0
VERTEX
  8
0
 10
1787.5
 20
770.5
 42
0
  0
VERTEX
  8
0
 10
1787.5
 20
760
 42
0
  0
VERTEX
  8
0
 10
2455.5
 20
760
 42
0
  0
VERTEX
  8
0
 10
2455.5
 20
770.5
 42
-1.4470094442367554
  0
VERTEX
  8
0
 10
2456.8228759765625
 20
774
 42
0
  0
VERTEX
  8
0
 10
2468
 20
774
 42
0
  0
VERTEX
  8
0
 10
2468
 20
1138
 42
-0
  0
VERTEX
  8
0
 10
2456.8228759765625
 20
1138
 42
-1.4470092058181763
  0
VERTEX
  8
0
 10
2455.5
 20
1141.5
 42
-0
  0
SEQEND
  0
POLYLINE
  8
0
 10
0
 20
0
 39
0
 70
1
 66
1
  0
VERTEX
  8
0
 10
2112
 20
1108.5
 42
-1
  0
VERTEX
  8
0
 10
2131
 20
1108.5
 42
-1
  0
SEQEND
  0
POLYLINE
  8
0
 10
0
 20
0
 39
0
 70
1
 66
1
  0
VERTEX
  8
0
 10
1510
 20
1189
 42
0
  0
VERTEX
  8
0
 10
1330
 20
1189
 42
-0
  0
VERTEX
  8
0
 10
1310
 20
1169
 42
0
  0
VERTEX
  8
0
 10
1310
 20
1110
 42
0
  0
VERTEX
  8
0
 10
1530
 20
1110
 42
0
  0
VERTEX
  8
0
 10
1530
 20
1169
 42
-0
  0
SEQEND
  0
POLYLINE
  8
0
 10
0
 20
0
 39
0
 70
1
 66
1
  0
VERTEX
  8
0
 10
1480.5
 20
1169
 42
-1
  0
VERTEX
  8
0
 10
1480.5
 20
1140
 42
-0
  0
VERTEX
  8
0
 10
1359.5
 20
1140
 42
-1
  0
VERTEX
  8
0
 10
1359.5
 20
1169
 42
-0
  0
SEQEND
  0
POLYLINE
  8
0
 10
0
 20
0
 39
0
 70
1
 66
1
  0
VERTEX
  8
0
 10
1465
 20
1100
 42
0
  0
VERTEX
  8
0
 10
1465
 20
760
 42
0
  0
VERTEX
  8
0
 10
1520
 20
760
 42
-0.41421356797218323
  0
VERTEX
  8
0
 10
1610
 20
850
 42
-0
  0
VERTEX
  8
0
 10
1610
 20
887.27474975585937
 42
-1
  0
VERTEX
  8
0
 10
1610
 20
943.27474975585937
 42
-0
  0
VERTEX
  8
0
 10
1610
 20
972.86260986328125
 42
-1
  0
VERTEX
  8
0
 10
1610
 20
1028.8626098632812
 42
-0
  0
VERTEX
  8
0
 10
1610
 20
1100
 42
0
  0
SEQEND
  0
POLYLINE
  8
0
 10
0
 20
0
 39
0
 70
1
 66
1
  0
VERTEX
  8
0
 10
1520
 20
1068.3646926879883
 42
-1
  0
VERTEX
  8
0
 10
1520
 20
1012.3646926879883
 42
-1
  0
SEQEND
  0
POLYLINE
  8
0
 10
0
 20
0
 39
0
 70
1
 66
1
  0
VERTEX
  8
0
 10
1620
 20
1100
 42
0
  0
VERTEX
  8
0
 10
1620
 20
760
 42
0
  0
VERTEX
  8
0
 10
1675
 20
760
 42
-0.41421356797218323
  0
VERTEX
  8
0
 10
1765
 20
850
 42
-0
  0
VERTEX
  8
0
 10
1765
 20
887.27474975585937
 42
-1
  0
VERTEX
  8
0
 10
1765
 20
943.27474975585937
 42
-0
  0
VERTEX
  8
0
 10
1765
 20
972.86260986328125
 42
-1
  0
VERTEX
  8
0
 10
1765
 20
1028.8626098632812
 42
-0
  0
VERTEX
  8
0
 10
1765
 20
1100
 42
0
  0
SEQEND
  0
POLYLINE
  8
0
 10
0
 20
0
 39
0
 70
1
 66
1
  0
VERTEX
  8
0
 10
1675
 20
1068.3646926879883
 42
-1
  0
VERTEX
  8
0
 10
1675
 20
1012.3646926879883
 42
-1
  0
SEQEND
  0
POLYLINE
  8
0
 10
0
 20
0
 39
0
 70
1
 66
1
  0
VERTEX
  8
0
 10
1990.5
 20
402
 42
0
  0
VERTEX
  8
0
 10
1322.5
 20
402
 42
-0
  0
VERTEX
  8
0
 10
1322.5
 20
391.5
 42
-1.4470094442367554
  0
VERTEX
  8
0
 10
1321.1771240234375
 20
388
 42
-0
  0
VERTEX
  8
0
 10
1310
 20
388
 42
0
  0
VERTEX
  8
0
 10
1310
 20
24
 42
0
  0
VERTEX
  8
0
 10
1321.1771243810654
 20
24
 42
-1.4470094442367554
  0
VERTEX
  8
0
 10
1322.5
 20
20.5
 42
0
  0
VERTEX
  8
0
 10
1322.5
 20
10
 42
0
  0
VERTEX
  8
0
 10
1990.5
 20
10
 42
0
  0
VERTEX
  8
0
 10
1990.5
 20
20.5
 42
-1.4470094442367554
  0
VERTEX
  8
0
 10
1991.8228759765625
 20
24
 42
0
  0
VERTEX
  8
0
 10
2003
 20
24
 42
0
  0
VERTEX
  8
0
 10
2003
 20
388
 42
-0
  0
VERTEX
  8
0
 10
1991.8228759765625
 20
388
 42
-1.4470092058181763
  0
VERTEX
  8
0
 10
1990.5
 20
391.5
 42
-0
  0
SEQEND
  0
POLYLINE
  8
0
 10
0
 20
0
 39
0
 70
1
 66
1
  0
VERTEX
  8
0
 10
1647
 20
358.5
 42
-1
  0
VERTEX
  8
0
 10
1666
 20
358.5
 42
-1
  0
SEQEND
  0
POLYLINE
  8
0
 10
0
 20
0
 39
0
 70
1
 66
1
  0
VERTEX
  8
0
 10
690.5
 20
902
 42
0
  0
VERTEX
  8
0
 10
22.5
 20
902
 42
-0
  0
VERTEX
  8
0
 10
22.5
 20
891.5
 42
-1.4470094442367554
  0
VERTEX
  8
0
 10
21.1771240234375
 20
888
 42
-0
  0
VERTEX
  8
0
 10
10
 20
888
 42
0
  0
VERTEX
  8
0
 10
10
 20
524
 42
0
  0
VERTEX
  8
0
 10
21.177124381065369
 20
524
 42
-1.4470094442367554
  0
VERTEX
  8
0
 10
22.5
 20
520.5
 42
0
  0
VERTEX
  8
0
 10
22.5
 20
510
 42
0
  0
VERTEX
  8
0
 10
690.5
 20
510
 42
0
  0
VERTEX
  8
0
 10
690.5
 20
520.5
 42
-1.4470094442367554
  0
VERTEX
  8
0
 10
691.8228759765625
 20
524
 42
0
  0
VERTEX
  8
0
 10
703
 20
524
 42
0
  0
VERTEX
  8
0
 10
703
 20
888
 42
-0
  0
VERTEX
  8
0
 10
691.8228759765625
 20
888
 42
-1.4470092058181763
  0
VERTEX
  8
0
 10
690.5
 20
891.5
 42
-0
  0
SEQEND
  0
POLYLINE
  8
0
 10
0
 20
0
 39
0
 70
1
 66
1
  0
VERTEX
  8
0
 10
347
 20
858.5
 42
-1
  0
VERTEX
  8
0
 10
366
 20
858.5
 42
-1
  0
SEQEND
  0
POLYLINE
  8
0
 10
0
 20
0
 39
0
 70
1
 66
1
  0
VERTEX
  8
0
 10
1143
 20
839
 42
0
  0
VERTEX
  8
0
 10
963
 20
839
 42
-0
  0
VERTEX
  8
0
 10
943
 20
819
 42
0
  0
VERTEX
  8
0
 10
943
 20
760
 42
0
  0
VERTEX
  8
0
 10
1163
 20
760
 42
0
  0
VERTEX
  8
0
 10
1163
 20
819
 42
-0
  0
SEQEND
  0
POLYLINE
  8
0
 10
0
 20
0
 39
0
 70
1
 66
1
  0
VERTEX
  8
0
 10
1113.5
 20
819
 42
-1
  0
VERTEX
  8
0
 10
1113.5
 20
790
 42
-0
  0
VERTEX
  8
0
 10
992.5
 20
790
 42
-1
  0
VERTEX
  8
0
 10
992.5
 20
819
 42
-0
  0
SEQEND
  0
POLYLINE
  8
0
 10
0
 20
0
 39
0
 70
1
 66
1
  0
VERTEX
  8
0
 10
1740
 20
1189
 42
0
  0
VERTEX
  8
0
 10
1560
 20
1189
 42
-0
  0
VERTEX
  8
0
 10
1540
 20
1169
 42
0
  0
VERTEX
  8
0
 10
1540
 20
1110
 42
0
  0
VERTEX
  8
0
 10
1760
 20
1110
 42
0
  0
VERTEX
  8
0
 10
1760
 20
1169
 42
-0
  0
SEQEND
  0
POLYLINE
  8
0
 10
0
 20
0
 39
0
 70
1
 66
1
  0
VERTEX
  8
0
 10
1710.5
 20
1169
 42
-1
  0
VERTEX
  8
0
 10
1710.5
 20
1140
 42
-0
  0
VERTEX
  8
0
 10
1589.5
 20
1140
 42
-1
  0
VERTEX
  8
0
 10
1589.5
 20
1169
 42
-0
  0
SEQEND
  0
POLYLINE
  8
0
 10
0
 20
0
 39
0
 70
1
 66
1
  0
VERTEX
  8
0
 10
10
 20
260
 42
0
  0
VERTEX
  8
0
 10
1300
 20
260
 42
-0
  0
VERTEX
  8
0
 10
1300
 20
500
 42
-0
  0
VERTEX
  8
0
 10
10.000000000000014
 20
500
 42
-0
  0
SEQEND
  0
POLYLINE
  8
0
 10
0
 20
0
 39
0
 70
1
 66
1
  0
VERTEX
  8
0
 10
208.88058471679687
 20
380
 42
0
  0
VERTEX
  8
0
 10
584
 20
380
 42
-1
  0
VERTEX
  8
0
 10
726
 20
380
 42
0
  0
VERTEX
  8
0
 10
1101.119384765625
 20
380
 42
-2.4142136573791504
  0
VERTEX
  8
0
 10
1172.119384765625
 20
309
 42
-0
  0
VERTEX
  8
0
 10
137.88058471679687
 20
309
 42
-2.4142136573791504
  0
SEQEND
  0
POLYLINE
  8
0
 10
0
 20
0
 39
0
 70
1
 66
1
  0
VERTEX
  8
0
 10
713
 20
510
 42
0
  0
VERTEX
  8
0
 10
2003
 20
510
 42
-0
  0
VERTEX
  8
0
 10
2003
 20
750
 42
-0
  0
VERTEX
  8
0
 10
713
 20
750
 42
-0
  0
SEQEND
  0
POLYLINE
  8
0
 10
0
 20
0
 39
0
 70
1
 66
1
  0
VERTEX
  8
0
 10
911.88058471679687
 20
630
 42
0
  0
VERTEX
  8
0
 10
1287
 20
630
 42
-1
  0
VERTEX
  8
0
 10
1429
 20
630
 42
0
  0
VERTEX
  8
0
 10
1804.119384765625
 20
630
 42
-2.4142136573791504
  0
VERTEX
  8
0
 10
1875.119384765625
 20
559
 42
-0
  0
VERTEX
  8
0
 10
840.88058471679687
 20
559
 42
-2.4142136573791504
  0
SEQEND
  0
ENDSEC
  0
EOF
