  0
SECTION
  2
ENTITIES
  0
POLYLINE
  8
0
 10
0
 20
0
 39
0
 70
1
 66
1
  0
VERTEX
  8
0
 10
0
 20
0
 42
-0
  0
VERTEX
  8
0
 10
700
 20
0
 42
-0
  0
VERTEX
  8
0
 10
700
 20
400
 42
-0
  0
VERTEX
  8
0
 10
0
 20
400
 42
-0
  0
SEQEND
  0
POLYLINE
  8
0
 10
0
 20
0
 39
0
 70
1
 66
1
  0
VERTEX
  8
0
 10
10.133333333333351
 20
10.133333333333333
 42
-0
  0
VERTEX
  8
0
 10
10.133333333333335
 20
265.13333333333333
 42
-0
  0
VERTEX
  8
0
 10
90.13333333333334
 20
265.13333333333333
 42
-0
  0
VERTEX
  8
0
 10
90.133333333333354
 20
10.133333333333338
 42
-0
  0
SEQEND
  0
POLYLINE
  8
0
 10
0
 20
0
 39
0
 70
1
 66
1
  0
VERTEX
  8
0
 10
50.13333333333334
 20
81.833330281575513
 42
1
  0
VERTEX
  8
0
 10
50.13333333333334
 20
131.83333028157551
 42
1
  0
SEQEND
  0
POLYLINE
  8
0
 10
0
 20
0
 39
0
 70
1
 66
1
  0
VERTEX
  8
0
 10
50.13333333333334
 20
143.43333638509114
 42
1
  0
VERTEX
  8
0
 10
50.13333333333334
 20
193.43333638509114
 42
1
  0
SEQEND
  0
POLYLINE
  8
0
 10
0
 20
0
 39
0
 70
1
 66
1
  0
VERTEX
  8
0
 10
100.29333333333335
 20
10.133333333333333
 42
-0
  0
VERTEX
  8
0
 10
100.29333333333334
 20
265.13333333333333
 42
-0
  0
VERTEX
  8
0
 10
180.29333333333335
 20
265.13333333333333
 42
-0
  0
VERTEX
  8
0
 10
180.29333333333335
 20
10.133333333333338
 42
-0
  0
SEQEND
  0
POLYLINE
  8
0
 10
0
 20
0
 39
0
 70
1
 66
1
  0
VERTEX
  8
0
 10
140.29333333333335
 20
81.833330281575513
 42
1
  0
VERTEX
  8
0
 10
140.29333333333335
 20
131.83333028157551
 42
1
  0
SEQEND
  0
POLYLINE
  8
0
 10
0
 20
0
 39
0
 70
1
 66
1
  0
VERTEX
  8
0
 10
140.29333333333335
 20
143.43333638509114
 42
1
  0
VERTEX
  8
0
 10
140.29333333333335
 20
193.43333638509114
 42
1
  0
SEQEND
  0
POLYLINE
  8
0
 10
0
 20
0
 39
0
 70
1
 66
1
  0
VERTEX
  8
0
 10
265.13333333333333
 20
275.20000000000005
 42
-0
  0
VERTEX
  8
0
 10
10.133333333333326
 20
275.20000000000005
 42
-0
  0
VERTEX
  8
0
 10
10.133333333333326
 20
355.20000000000005
 42
-0
  0
VERTEX
  8
0
 10
265.13333333333333
 20
355.20000000000005
 42
-0
  0
SEQEND
  0
POLYLINE
  8
0
 10
0
 20
0
 39
0
 70
1
 66
1
  0
VERTEX
  8
0
 10
193.43333638509114
 20
315.20000000000005
 42
1
  0
VERTEX
  8
0
 10
143.43333638509114
 20
315.20000000000005
 42
1
  0
SEQEND
  0
POLYLINE
  8
0
 10
0
 20
0
 39
0
 70
1
 66
1
  0
VERTEX
  8
0
 10
131.83333028157551
 20
315.20000000000005
 42
1
  0
VERTEX
  8
0
 10
81.833330281575513
 20
315.20000000000005
 42
1
  0
SEQEND
  0
POLYLINE
  8
0
 10
0
 20
0
 39
0
 70
1
 66
1
  0
VERTEX
  8
0
 10
190.45333333333338
 20
10.133333333333333
 42
-0
  0
VERTEX
  8
0
 10
190.45333333333335
 20
265.13333333333333
 42
-0
  0
VERTEX
  8
0
 10
270.45333333333338
 20
265.13333333333333
 42
-0
  0
VERTEX
  8
0
 10
270.45333333333338
 20
10.133333333333338
 42
-0
  0
SEQEND
  0
POLYLINE
  8
0
 10
0
 20
0
 39
0
 70
1
 66
1
  0
VERTEX
  8
0
 10
230.45333333333338
 20
81.833330281575513
 42
1
  0
VERTEX
  8
0
 10
230.45333333333338
 20
131.83333028157551
 42
1
  0
SEQEND
  0
POLYLINE
  8
0
 10
0
 20
0
 39
0
 70
1
 66
1
  0
VERTEX
  8
0
 10
230.45333333333338
 20
143.43333638509114
 42
1
  0
VERTEX
  8
0
 10
230.45333333333338
 20
193.43333638509114
 42
1
  0
SEQEND
  0
POLYLINE
  8
0
 10
0
 20
0
 39
0
 70
1
 66
1
  0
VERTEX
  8
0
 10
280.61333333333334
 20
10.133333333333333
 42
-0
  0
VERTEX
  8
0
 10
280.61333333333334
 20
157.05333150227864
 42
-0
  0
VERTEX
  8
0
 10
360.61333333333334
 20
157.05333150227864
 42
-0
  0
VERTEX
  8
0
 10
360.61333333333334
 20
10.133333333333338
 42
-0
  0
SEQEND
  0
POLYLINE
  8
0
 10
0
 20
0
 39
0
 70
1
 66
1
  0
VERTEX
  8
0
 10
320.61333333333334
 20
58.593332417805989
 42
1
  0
VERTEX
  8
0
 10
320.61333333333334
 20
108.59333241780598
 42
1
  0
SEQEND
  0
POLYLINE
  8
0
 10
0
 20
0
 39
0
 70
1
 66
1
  0
VERTEX
  8
0
 10
280.61333333333334
 20
167.12
 42
-0
  0
VERTEX
  8
0
 10
280.61333333333334
 20
314.03999816894532
 42
-0
  0
VERTEX
  8
0
 10
360.61333333333334
 20
314.03999816894532
 42
-0
  0
VERTEX
  8
0
 10
360.61333333333334
 20
167.12
 42
-0
  0
SEQEND
  0
POLYLINE
  8
0
 10
0
 20
0
 39
0
 70
1
 66
1
  0
VERTEX
  8
0
 10
320.61333333333334
 20
215.57999908447266
 42
1
  0
VERTEX
  8
0
 10
320.61333333333334
 20
265.57999908447266
 42
1
  0
SEQEND
  0
POLYLINE
  8
0
 10
0
 20
0
 39
0
 70
1
 66
1
  0
VERTEX
  8
0
 10
370.77333333333337
 20
10.133333333333333
 42
-0
  0
VERTEX
  8
0
 10
370.77333333333337
 20
157.05333150227864
 42
-0
  0
VERTEX
  8
0
 10
450.77333333333337
 20
157.05333150227864
 42
-0
  0
VERTEX
  8
0
 10
450.77333333333337
 20
10.133333333333338
 42
-0
  0
SEQEND
  0
POLYLINE
  8
0
 10
0
 20
0
 39
0
 70
1
 66
1
  0
VERTEX
  8
0
 10
410.77333333333337
 20
58.593332417805989
 42
1
  0
VERTEX
  8
0
 10
410.77333333333337
 20
108.59333241780598
 42
1
  0
SEQEND
  0
POLYLINE
  8
0
 10
0
 20
0
 39
0
 70
1
 66
1
  0
VERTEX
  8
0
 10
370.77333333333337
 20
167.12
 42
-0
  0
VERTEX
  8
0
 10
370.77333333333337
 20
314.03999816894532
 42
-0
  0
VERTEX
  8
0
 10
450.77333333333337
 20
314.03999816894532
 42
-0
  0
VERTEX
  8
0
 10
450.77333333333337
 20
167.12
 42
-0
  0
SEQEND
  0
POLYLINE
  8
0
 10
0
 20
0
 39
0
 70
1
 66
1
  0
VERTEX
  8
0
 10
410.77333333333337
 20
215.57999908447266
 42
1
  0
VERTEX
  8
0
 10
410.77333333333337
 20
265.57999908447266
 42
1
  0
SEQEND
  0
POLYLINE
  8
0
 10
0
 20
0
 39
0
 70
1
 66
1
  0
VERTEX
  8
0
 10
550.93333333333339
 20
10.133333333333333
 42
-0
  0
VERTEX
  8
0
 10
460.93333333333339
 20
10.133333333333333
 42
-0
  0
VERTEX
  8
0
 10
460.93333333333339
 20
100.13333333333333
 42
-0
  0
VERTEX
  8
0
 10
550.93333333333339
 20
100.13333333333333
 42
0
  0
SEQEND
  0
POLYLINE
  8
0
 10
0
 20
0
 39
0
 70
1
 66
1
  0
VERTEX
  8
0
 10
523.93333333333339
 20
55.133333333333333
 42
1
  0
VERTEX
  8
0
 10
487.93333333333339
 20
55.133333333333333
 42
1
  0
SEQEND
  0
POLYLINE
  8
0
 10
0
 20
0
 39
0
 70
1
 66
1
  0
VERTEX
  8
0
 10
550.93333333333339
 20
110.18666666666667
 42
-0
  0
VERTEX
  8
0
 10
460.93333333333339
 20
110.18666666666667
 42
-0
  0
VERTEX
  8
0
 10
460.93333333333339
 20
200.18666666666667
 42
-0
  0
VERTEX
  8
0
 10
550.93333333333339
 20
200.18666666666667
 42
0
  0
SEQEND
  0
POLYLINE
  8
0
 10
0
 20
0
 39
0
 70
1
 66
1
  0
VERTEX
  8
0
 10
523.93333333333339
 20
155.18666666666667
 42
1
  0
VERTEX
  8
0
 10
487.93333333333339
 20
155.18666666666667
 42
1
  0
SEQEND
  0
POLYLINE
  8
0
 10
0
 20
0
 39
0
 70
1
 66
1
  0
VERTEX
  8
0
 10
550.93333333333339
 20
210.24000000000001
 42
-0
  0
VERTEX
  8
0
 10
460.93333333333339
 20
210.24000000000001
 42
-0
  0
VERTEX
  8
0
 10
460.93333333333339
 20
300.24000000000001
 42
-0
  0
VERTEX
  8
0
 10
550.93333333333339
 20
300.24000000000001
 42
0
  0
SEQEND
  0
POLYLINE
  8
0
 10
0
 20
0
 39
0
 70
1
 66
1
  0
VERTEX
  8
0
 10
523.93333333333339
 20
255.24000000000001
 42
1
  0
VERTEX
  8
0
 10
487.93333333333339
 20
255.24000000000001
 42
1
  0
SEQEND
  0
POLYLINE
  8
0
 10
0
 20
0
 39
0
 70
1
 66
1
  0
VERTEX
  8
0
 10
651.08000000000004
 20
10.133333333333333
 42
-0
  0
VERTEX
  8
0
 10
561.08000000000004
 20
10.133333333333333
 42
-0
  0
VERTEX
  8
0
 10
561.08000000000004
 20
100.13333333333333
 42
-0
  0
VERTEX
  8
0
 10
651.08000000000004
 20
100.13333333333333
 42
0
  0
SEQEND
  0
POLYLINE
  8
0
 10
0
 20
0
 39
0
 70
1
 66
1
  0
VERTEX
  8
0
 10
624.08000000000004
 20
55.133333333333333
 42
1
  0
VERTEX
  8
0
 10
588.08000000000004
 20
55.133333333333333
 42
1
  0
SEQEND
  0
POLYLINE
  8
0
 10
0
 20
0
 39
0
 70
1
 66
1
  0
VERTEX
  8
0
 10
651.08000000000004
 20
110.18666666666667
 42
-0
  0
VERTEX
  8
0
 10
561.08000000000004
 20
110.18666666666667
 42
-0
  0
VERTEX
  8
0
 10
561.08000000000004
 20
200.18666666666667
 42
-0
  0
VERTEX
  8
0
 10
651.08000000000004
 20
200.18666666666667
 42
0
  0
SEQEND
  0
POLYLINE
  8
0
 10
0
 20
0
 39
0
 70
1
 66
1
  0
VERTEX
  8
0
 10
624.08000000000004
 20
155.18666666666667
 42
1
  0
VERTEX
  8
0
 10
588.08000000000004
 20
155.18666666666667
 42
1
  0
SEQEND
  0
POLYLINE
  8
0
 10
0
 20
0
 39
0
 70
1
 66
1
  0
VERTEX
  8
0
 10
651.08000000000004
 20
210.24000000000001
 42
-0
  0
VERTEX
  8
0
 10
561.08000000000004
 20
210.24000000000001
 42
-0
  0
VERTEX
  8
0
 10
561.08000000000004
 20
300.24000000000001
 42
-0
  0
VERTEX
  8
0
 10
651.08000000000004
 20
300.24000000000001
 42
0
  0
SEQEND
  0
POLYLINE
  8
0
 10
0
 20
0
 39
0
 70
1
 66
1
  0
VERTEX
  8
0
 10
624.08000000000004
 20
255.24000000000001
 42
1
  0
VERTEX
  8
0
 10
588.08000000000004
 20
255.24000000000001
 42
1
  0
SEQEND
  0
POLYLINE
  8
0
 10
0
 20
0
 39
0
 70
1
 66
1
  0
VERTEX
  8
0
 10
430.29333333333335
 20
324.10666666666668
 42
-0
  0
VERTEX
  8
0
 10
275.29333333333335
 20
324.10666666666668
 42
0
  0
VERTEX
  8
0
 10
275.29333333333335
 20
350.31053743998211
 42
-0
  0
VERTEX
  8
0
 10
299.08946065266929
 20
374.10666666666668
 42
0
  0
VERTEX
  8
0
 10
430.29333333333335
 20
374.10666666666668
 42
0
  0
SEQEND
  0
POLYLINE
  8
0
 10
0
 20
0
 39
0
 70
1
 66
1
  0
VERTEX
  8
0
 10
417.86938981374107
 20
349.10666666666668
 42
1
  0
VERTEX
  8
0
 10
389.86939076741538
 20
349.10666666666668
 42
1
  0
SEQEND
  0
POLYLINE
  8
0
 10
0
 20
0
 39
0
 70
1
 66
1
  0
VERTEX
  8
0
 10
460.93333333333339
 20
310.29333333333335
 42
-0
  0
VERTEX
  8
0
 10
460.93333333333339
 20
387.29333333333335
 42
-0
  0
VERTEX
  8
0
 10
560.93333333333339
 20
387.29333333333335
 42
-0
  0
VERTEX
  8
0
 10
560.93333333333339
 20
310.29333333333335
 42
-0
  0
SEQEND
  0
POLYLINE
  8
0
 10
0
 20
0
 39
0
 70
1
 66
1
  0
VERTEX
  8
0
 10
510.93333333333339
 20
333.79333333333335
 42
1
  0
VERTEX
  8
0
 10
510.93333333333339
 20
363.79333333333335
 42
1
  0
SEQEND
  0
POLYLINE
  8
0
 10
0
 20
0
 39
0
 70
1
 66
1
  0
VERTEX
  8
0
 10
571.06666666666672
 20
310.29333333333335
 42
-0
  0
VERTEX
  8
0
 10
571.06666666666672
 20
387.29333333333335
 42
-0
  0
VERTEX
  8
0
 10
671.06666666666672
 20
387.29333333333335
 42
-0
  0
VERTEX
  8
0
 10
671.06666666666672
 20
310.29333333333335
 42
-0
  0
SEQEND
  0
POLYLINE
  8
0
 10
0
 20
0
 39
0
 70
1
 66
1
  0
VERTEX
  8
0
 10
621.06666666666672
 20
333.79333333333335
 42
1
  0
VERTEX
  8
0
 10
621.06666666666672
 20
363.79333333333335
 42
1
  0
SEQEND
  0
ENDSEC
  0
EOF
