  0
SECTION
  2
ENTITIES
  0
POLYLINE
  8
0
 10
0
 20
0
 39
0
 70
1
 66
1
  0
VERTEX
  8
0
 10
0
 20
0
 42
-0
  0
VERTEX
  8
0
 10
800
 20
0
 42
-0
  0
VERTEX
  8
0
 10
800
 20
500
 42
-0
  0
VERTEX
  8
0
 10
0
 20
500
 42
-0
  0
SEQEND
  0
POLYLINE
  8
0
 10
0
 20
0
 39
0
 70
1
 66
1
  0
VERTEX
  8
0
 10
555
 20
450
 42
0
  0
VERTEX
  8
0
 10
710
 20
450
 42
-0
  0
VERTEX
  8
0
 10
710
 20
455
 42
-1
  0
VERTEX
  8
0
 10
710
 20
475
 42
-0
  0
VERTEX
  8
0
 10
710
 20
480
 42
-0
  0
VERTEX
  8
0
 10
555
 20
480
 42
-0
  0
SEQEND
  0
POLYLINE
  8
0
 10
0
 20
0
 39
0
 70
1
 66
1
  0
VERTEX
  8
0
 10
571.58236312866211
 20
465
 42
-1
  0
VERTEX
  8
0
 10
591.58236312866211
 20
465
 42
-1
  0
SEQEND
  0
POLYLINE
  8
0
 10
0
 20
0
 39
0
 70
1
 66
1
  0
VERTEX
  8
0
 10
564.99999353816338
 20
14
 42
0.41421356797218323
  0
VERTEX
  8
0
 10
568.99999353816338
 20
10
 42
0
  0
VERTEX
  8
0
 10
715.99999353816338
 20
10
 42
0.41421356797218323
  0
VERTEX
  8
0
 10
719.99999353816338
 20
14
 42
0
  0
VERTEX
  8
0
 10
719.99999353816338
 20
216
 42
0.41421356797218323
  0
VERTEX
  8
0
 10
715.99999353816338
 20
220
 42
0
  0
VERTEX
  8
0
 10
568.99999353816338
 20
220
 42
0.41421356797218323
  0
VERTEX
  8
0
 10
564.99999353816338
 20
216
 42
0
  0
SEQEND
  0
POLYLINE
  8
0
 10
0
 20
0
 39
0
 70
1
 66
1
  0
VERTEX
  8
0
 10
690.99999353816338
 20
174.38466644287109
 42
0
  0
VERTEX
  8
0
 10
690.99999353816338
 20
99.199996948242202
 42
-0.41421356797218323
  0
VERTEX
  8
0
 10
689.79999658992119
 20
98.000000000000014
 42
0
  0
VERTEX
  8
0
 10
640.19999048640557
 20
98
 42
-0.41421356797218323
  0
VERTEX
  8
0
 10
638.99999353816338
 20
99.199996948242188
 42
-0
  0
VERTEX
  8
0
 10
639.00000116755791
 20
174.38467025756836
 42
-0.21597428619861603
  0
SEQEND
  0
POLYLINE
  8
0
 10
0
 20
0
 39
0
 70
1
 66
1
  0
VERTEX
  8
0
 10
789.99999353816338
 20
320
 42
0
  0
VERTEX
  8
0
 10
729.99999353816338
 20
320
 42
0
  0
VERTEX
  8
0
 10
729.99999353816338
 20
250
 42
0
  0
VERTEX
  8
0
 10
789.99999353816338
 20
250
 42
0
  0
SEQEND
  0
POLYLINE
  8
0
 10
0
 20
0
 39
0
 70
1
 66
1
  0
VERTEX
  8
0
 10
769.99999353816338
 20
297
 42
-1
  0
VERTEX
  8
0
 10
769.99999353816338
 20
273
 42
-1
  0
SEQEND
  0
POLYLINE
  8
0
 10
0
 20
0
 39
0
 70
1
 66
1
  0
VERTEX
  8
0
 10
789.99999353816338
 20
160
 42
0
  0
VERTEX
  8
0
 10
729.99999353816338
 20
160
 42
0
  0
VERTEX
  8
0
 10
729.99999353816338
 20
90
 42
0
  0
VERTEX
  8
0
 10
789.99999353816338
 20
90
 42
0
  0
SEQEND
  0
POLYLINE
  8
0
 10
0
 20
0
 39
0
 70
1
 66
1
  0
VERTEX
  8
0
 10
769.99999353816338
 20
137
 42
-1
  0
VERTEX
  8
0
 10
769.99999353816338
 20
113
 42
-1
  0
SEQEND
  0
POLYLINE
  8
0
 10
0
 20
0
 39
0
 70
1
 66
1
  0
VERTEX
  8
0
 10
10
 20
450
 42
0
  0
VERTEX
  8
0
 10
165
 20
450
 42
-0
  0
VERTEX
  8
0
 10
165
 20
455
 42
-1
  0
VERTEX
  8
0
 10
165
 20
475
 42
-0
  0
VERTEX
  8
0
 10
165
 20
480
 42
-0
  0
VERTEX
  8
0
 10
10.000000000000002
 20
480
 42
-0
  0
SEQEND
  0
POLYLINE
  8
0
 10
0
 20
0
 39
0
 70
1
 66
1
  0
VERTEX
  8
0
 10
26.582363128662109
 20
465
 42
-1
  0
VERTEX
  8
0
 10
46.582363128662109
 20
465
 42
-1
  0
SEQEND
  0
POLYLINE
  8
0
 10
0
 20
0
 39
0
 70
1
 66
1
  0
VERTEX
  8
0
 10
462.09638905943541
 20
194.99911623579817
 42
1
  0
VERTEX
  8
0
 10
462.90360124780966
 20
10.000880533283507
 42
1
  0
SEQEND
  0
POLYLINE
  8
0
 10
0
 20
0
 39
0
 70
1
 66
1
  0
VERTEX
  8
0
 10
462.34727933420038
 20
137.4996645985301
 42
-1
  0
VERTEX
  8
0
 10
462.65271097304469
 20
67.500332170551573
 42
-1
  0
SEQEND
  0
POLYLINE
  8
0
 10
0
 20
0
 39
0
 70
1
 66
1
  0
VERTEX
  8
0
 10
789.99999353816338
 20
400
 42
0
  0
VERTEX
  8
0
 10
729.99999353816338
 20
400
 42
0
  0
VERTEX
  8
0
 10
729.99999353816338
 20
330
 42
0
  0
VERTEX
  8
0
 10
789.99999353816338
 20
330
 42
0
  0
SEQEND
  0
POLYLINE
  8
0
 10
0
 20
0
 39
0
 70
1
 66
1
  0
VERTEX
  8
0
 10
769.99999353816338
 20
377
 42
-1
  0
VERTEX
  8
0
 10
769.99999353816338
 20
353
 42
-1
  0
SEQEND
  0
POLYLINE
  8
0
 10
0
 20
0
 39
0
 70
1
 66
1
  0
VERTEX
  8
0
 10
10.000000000000012
 20
234
 42
0.41421356797218323
  0
VERTEX
  8
0
 10
14.000000000000012
 20
230
 42
0
  0
VERTEX
  8
0
 10
161
 20
230
 42
0.41421356797218323
  0
VERTEX
  8
0
 10
165
 20
234
 42
0
  0
VERTEX
  8
0
 10
165
 20
436
 42
0.41421356797218323
  0
VERTEX
  8
0
 10
161
 20
440
 42
0
  0
VERTEX
  8
0
 10
14
 20
440
 42
0.41421356797218323
  0
VERTEX
  8
0
 10
10
 20
436
 42
0
  0
SEQEND
  0
POLYLINE
  8
0
 10
0
 20
0
 39
0
 70
1
 66
1
  0
VERTEX
  8
0
 10
136
 20
394.38466644287109
 42
0
  0
VERTEX
  8
0
 10
136
 20
319.19999694824219
 42
-0.41421356797218323
  0
VERTEX
  8
0
 10
134.80000305175781
 20
318
 42
0
  0
VERTEX
  8
0
 10
85.199996948242202
 20
318
 42
-0.41421356797218323
  0
VERTEX
  8
0
 10
84.000000000000014
 20
319.19999694824219
 42
-0
  0
VERTEX
  8
0
 10
84.000007629394531
 20
394.38467025756836
 42
-0.21597428619861603
  0
SEQEND
  0
POLYLINE
  8
0
 10
0
 20
0
 39
0
 70
1
 66
1
  0
VERTEX
  8
0
 10
10.000000000000012
 20
14
 42
0.41421356797218323
  0
VERTEX
  8
0
 10
14.000000000000012
 20
10
 42
0
  0
VERTEX
  8
0
 10
161
 20
10
 42
0.41421356797218323
  0
VERTEX
  8
0
 10
165
 20
14
 42
0
  0
VERTEX
  8
0
 10
165
 20
216
 42
0.41421356797218323
  0
VERTEX
  8
0
 10
161
 20
220
 42
0
  0
VERTEX
  8
0
 10
14
 20
220
 42
0.41421356797218323
  0
VERTEX
  8
0
 10
10
 20
216
 42
0
  0
SEQEND
  0
POLYLINE
  8
0
 10
0
 20
0
 39
0
 70
1
 66
1
  0
VERTEX
  8
0
 10
136
 20
174.38466644287109
 42
0
  0
VERTEX
  8
0
 10
136
 20
99.199996948242202
 42
-0.41421356797218323
  0
VERTEX
  8
0
 10
134.80000305175781
 20
98.000000000000014
 42
0
  0
VERTEX
  8
0
 10
85.199996948242202
 20
98
 42
-0.41421356797218323
  0
VERTEX
  8
0
 10
84.000000000000014
 20
99.199996948242188
 42
-0
  0
VERTEX
  8
0
 10
84.000007629394531
 20
174.38467025756836
 42
-0.21597428619861603
  0
SEQEND
  0
POLYLINE
  8
0
 10
0
 20
0
 39
0
 70
1
 66
1
  0
VERTEX
  8
0
 10
267.09639229035372
 20
194.99911623579817
 42
1
  0
VERTEX
  8
0
 10
267.90360447872797
 20
10.000880533283507
 42
1
  0
SEQEND
  0
POLYLINE
  8
0
 10
0
 20
0
 39
0
 70
1
 66
1
  0
VERTEX
  8
0
 10
267.34728256511869
 20
137.4996645985301
 42
-1
  0
VERTEX
  8
0
 10
267.652714203963
 20
67.500332170551573
 42
-1
  0
SEQEND
  0
POLYLINE
  8
0
 10
0
 20
0
 39
0
 70
1
 66
1
  0
VERTEX
  8
0
 10
545
 20
489.99999353816332
 42
0
  0
VERTEX
  8
0
 10
365
 20
489.99999353816332
 42
0
  0
VERTEX
  8
0
 10
365
 20
399.99999353816332
 42
0
  0
VERTEX
  8
0
 10
545
 20
399.99999353816332
 42
0
  0
SEQEND
  0
POLYLINE
  8
0
 10
0
 20
0
 39
0
 70
1
 66
1
  0
VERTEX
  8
0
 10
404.5
 20
434.49999353816332
 42
-1
  0
VERTEX
  8
0
 10
404.5
 20
455.49999353816332
 42
0
  0
VERTEX
  8
0
 10
453.5
 20
455.49999353816332
 42
-1
  0
VERTEX
  8
0
 10
453.5
 20
434.49999353816332
 42
-0
  0
SEQEND
  0
POLYLINE
  8
0
 10
0
 20
0
 39
0
 70
1
 66
1
  0
VERTEX
  8
0
 10
355
 20
489.99999353816332
 42
0
  0
VERTEX
  8
0
 10
175
 20
489.99999353816332
 42
0
  0
VERTEX
  8
0
 10
175
 20
399.99999353816332
 42
0
  0
VERTEX
  8
0
 10
355
 20
399.99999353816332
 42
0
  0
SEQEND
  0
POLYLINE
  8
0
 10
0
 20
0
 39
0
 70
1
 66
1
  0
VERTEX
  8
0
 10
214.5
 20
434.49999353816332
 42
-1
  0
VERTEX
  8
0
 10
214.5
 20
455.49999353816332
 42
0
  0
VERTEX
  8
0
 10
263.5
 20
455.49999353816332
 42
-1
  0
VERTEX
  8
0
 10
263.5
 20
434.49999353816332
 42
-0
  0
SEQEND
  0
POLYLINE
  8
0
 10
0
 20
0
 39
0
 70
1
 66
1
  0
VERTEX
  8
0
 10
789.99999353816338
 20
80
 42
0
  0
VERTEX
  8
0
 10
729.99999353816338
 20
80
 42
0
  0
VERTEX
  8
0
 10
729.99999353816338
 20
10
 42
0
  0
VERTEX
  8
0
 10
789.99999353816338
 20
10
 42
0
  0
SEQEND
  0
POLYLINE
  8
0
 10
0
 20
0
 39
0
 70
1
 66
1
  0
VERTEX
  8
0
 10
769.99999353816338
 20
57
 42
-1
  0
VERTEX
  8
0
 10
769.99999353816338
 20
33
 42
-1
  0
SEQEND
  0
POLYLINE
  8
0
 10
0
 20
0
 39
0
 70
1
 66
1
  0
VERTEX
  8
0
 10
789.99999353816338
 20
480
 42
0
  0
VERTEX
  8
0
 10
729.99999353816338
 20
480
 42
0
  0
VERTEX
  8
0
 10
729.99999353816338
 20
410
 42
0
  0
VERTEX
  8
0
 10
789.99999353816338
 20
410
 42
0
  0
SEQEND
  0
POLYLINE
  8
0
 10
0
 20
0
 39
0
 70
1
 66
1
  0
VERTEX
  8
0
 10
769.99999353816338
 20
457
 42
-1
  0
VERTEX
  8
0
 10
769.99999353816338
 20
433
 42
-1
  0
SEQEND
  0
POLYLINE
  8
0
 10
0
 20
0
 39
0
 70
1
 66
1
  0
VERTEX
  8
0
 10
462.09638905943541
 20
389.9991130048798
 42
1
  0
VERTEX
  8
0
 10
462.90360124780966
 20
205.00087730236515
 42
1
  0
SEQEND
  0
POLYLINE
  8
0
 10
0
 20
0
 39
0
 70
1
 66
1
  0
VERTEX
  8
0
 10
462.34727933420038
 20
332.49966136761174
 42
-1
  0
VERTEX
  8
0
 10
462.65271097304469
 20
262.50032893963322
 42
-1
  0
SEQEND
  0
POLYLINE
  8
0
 10
0
 20
0
 39
0
 70
1
 66
1
  0
VERTEX
  8
0
 10
564.99999353816338
 20
234
 42
0.41421356797218323
  0
VERTEX
  8
0
 10
568.99999353816338
 20
230
 42
0
  0
VERTEX
  8
0
 10
715.99999353816338
 20
230
 42
0.41421356797218323
  0
VERTEX
  8
0
 10
719.99999353816338
 20
234
 42
0
  0
VERTEX
  8
0
 10
719.99999353816338
 20
436
 42
0.41421356797218323
  0
VERTEX
  8
0
 10
715.99999353816338
 20
440
 42
0
  0
VERTEX
  8
0
 10
568.99999353816338
 20
440
 42
0.41421356797218323
  0
VERTEX
  8
0
 10
564.99999353816338
 20
436
 42
0
  0
SEQEND
  0
POLYLINE
  8
0
 10
0
 20
0
 39
0
 70
1
 66
1
  0
VERTEX
  8
0
 10
690.99999353816338
 20
394.38466644287109
 42
0
  0
VERTEX
  8
0
 10
690.99999353816338
 20
319.19999694824219
 42
-0.41421356797218323
  0
VERTEX
  8
0
 10
689.79999658992119
 20
318
 42
0
  0
VERTEX
  8
0
 10
640.19999048640557
 20
318
 42
-0.41421356797218323
  0
VERTEX
  8
0
 10
638.99999353816338
 20
319.19999694824219
 42
-0
  0
VERTEX
  8
0
 10
639.00000116755791
 20
394.38467025756836
 42
-0.21597428619861603
  0
SEQEND
  0
POLYLINE
  8
0
 10
0
 20
0
 39
0
 70
1
 66
1
  0
VERTEX
  8
0
 10
789.99999353816338
 20
240
 42
0
  0
VERTEX
  8
0
 10
729.99999353816338
 20
240
 42
0
  0
VERTEX
  8
0
 10
729.99999353816338
 20
170
 42
0
  0
VERTEX
  8
0
 10
789.99999353816338
 20
170
 42
0
  0
SEQEND
  0
POLYLINE
  8
0
 10
0
 20
0
 39
0
 70
1
 66
1
  0
VERTEX
  8
0
 10
769.99999353816338
 20
217
 42
-1
  0
VERTEX
  8
0
 10
769.99999353816338
 20
193
 42
-1
  0
SEQEND
  0
POLYLINE
  8
0
 10
0
 20
0
 39
0
 70
1
 66
1
  0
VERTEX
  8
0
 10
267.09639229035372
 20
389.9991130048798
 42
1
  0
VERTEX
  8
0
 10
267.90360447872797
 20
205.00087730236515
 42
1
  0
SEQEND
  0
POLYLINE
  8
0
 10
0
 20
0
 39
0
 70
1
 66
1
  0
VERTEX
  8
0
 10
267.34728256511869
 20
332.49966136761174
 42
-1
  0
VERTEX
  8
0
 10
267.652714203963
 20
262.50032893963322
 42
-1
  0
SEQEND
  0
ENDSEC
  0
EOF
