  0
SECTION
  2
ENTITIES
  0
POLYLINE
  8
0
 10
0
 20
0
 39
0
 70
1
 66
1
  0
VERTEX
  8
0
 10
0
 20
0
 42
-0
  0
VERTEX
  8
0
 10
850
 20
0
 42
-0
  0
VERTEX
  8
0
 10
850
 20
600
 42
-0
  0
VERTEX
  8
0
 10
0
 20
600
 42
-0
  0
SEQEND
  0
POLYLINE
  8
0
 10
0
 20
0
 39
0
 70
1
 66
1
  0
VERTEX
  8
0
 10
500.00000882442828
 20
554.99512481689453
 42
0
  0
VERTEX
  8
0
 10
500.00000882442828
 20
539.99512481689453
 42
-0
  0
VERTEX
  8
0
 10
508.00000882442828
 20
539.99512481689453
 42
-0
  0
VERTEX
  8
0
 10
508.00000882442828
 20
519.99512481689453
 42
-0
  0
VERTEX
  8
0
 10
500.00000882442828
 20
519.99512481689453
 42
-0
  0
VERTEX
  8
0
 10
500.00000882442828
 20
504.99512481689453
 42
-0
  0
VERTEX
  8
0
 10
600.00001263912554
 20
504.99512481689453
 42
-0
  0
VERTEX
  8
0
 10
600.00001263912554
 20
554.99512481689453
 42
-0
  0
SEQEND
  0
POLYLINE
  8
0
 10
0
 20
0
 39
0
 70
1
 66
1
  0
VERTEX
  8
0
 10
525.00001263912554
 20
521.89512634277344
 42
-1
  0
VERTEX
  8
0
 10
525.00001263912554
 20
538.09512710571289
 42
0
  0
VERTEX
  8
0
 10
580.00001263912554
 20
538.09512710571289
 42
-1
  0
VERTEX
  8
0
 10
580.00001263912554
 20
521.89512634277344
 42
-0
  0
SEQEND
  0
POLYLINE
  8
0
 10
0
 20
0
 39
0
 70
1
 66
1
  0
VERTEX
  8
0
 10
180
 20
333.33008193969727
 42
0.41421356797218323
  0
VERTEX
  8
0
 10
160
 20
313.33008193969727
 42
0
  0
VERTEX
  8
0
 10
160
 20
30
 42
0.41421356797218323
  0
VERTEX
  8
0
 10
180
 20
10
 42
-0
  0
VERTEX
  8
0
 10
256
 20
10
 42
-0
  0
VERTEX
  8
0
 10
256
 20
71.765042878687382
 42
0
  0
VERTEX
  8
0
 10
311.66504287719727
 20
71.765042878687382
 42
-0
  0
VERTEX
  8
0
 10
311.66504287719727
 20
271.56503677368164
 42
-0
  0
VERTEX
  8
0
 10
256
 20
271.56503677368164
 42
0
  0
VERTEX
  8
0
 10
256
 20
333.33008193969727
 42
-0
  0
SEQEND
  0
POLYLINE
  8
0
 10
0
 20
0
 39
0
 70
1
 66
1
  0
VERTEX
  8
0
 10
268.16504287719727
 20
210.91504287719727
 42
0
  0
VERTEX
  8
0
 10
293.16504287719727
 20
210.91504287719727
 42
-1
  0
VERTEX
  8
0
 10
293.16504287719727
 20
200.41504287719727
 42
0
  0
VERTEX
  8
0
 10
268.16504287719727
 20
200.41504287719727
 42
-1
  0
SEQEND
  0
POLYLINE
  8
0
 10
0
 20
0
 39
0
 70
1
 66
1
  0
VERTEX
  8
0
 10
268.16504287719727
 20
142.91504287719727
 42
0
  0
VERTEX
  8
0
 10
293.16504287719727
 20
142.91504287719727
 42
-1
  0
VERTEX
  8
0
 10
293.16504287719727
 20
132.41504287719727
 42
0
  0
VERTEX
  8
0
 10
268.16504287719727
 20
132.41504287719727
 42
-1
  0
SEQEND
  0
POLYLINE
  8
0
 10
0
 20
0
 39
0
 70
1
 66
1
  0
VERTEX
  8
0
 10
719.66787913728399
 20
159.99928343443094
 42
1
  0
VERTEX
  8
0
 10
720.32237550623609
 20
10.000713945905545
 42
1
  0
SEQEND
  0
POLYLINE
  8
0
 10
0
 20
0
 39
0
 70
1
 66
1
  0
VERTEX
  8
0
 10
719.84241150233788
 20
119.9996649041575
 42
-1
  0
VERTEX
  8
0
 10
720.14784314118219
 20
50.000332476178983
 42
-1
  0
SEQEND
  0
POLYLINE
  8
0
 10
0
 20
0
 39
0
 70
1
 66
1
  0
VERTEX
  8
0
 10
390.00000500973101
 20
554.99512481689453
 42
0
  0
VERTEX
  8
0
 10
390.00000500973101
 20
539.99512481689453
 42
-0
  0
VERTEX
  8
0
 10
398.00000500973101
 20
539.99512481689453
 42
-0
  0
VERTEX
  8
0
 10
398.00000500973101
 20
519.99512481689453
 42
-0
  0
VERTEX
  8
0
 10
390.00000500973101
 20
519.99512481689453
 42
-0
  0
VERTEX
  8
0
 10
390.00000500973101
 20
504.99512481689453
 42
-0
  0
VERTEX
  8
0
 10
490.00000882442828
 20
504.99512481689453
 42
-0
  0
VERTEX
  8
0
 10
490.00000882442828
 20
554.99512481689453
 42
-0
  0
SEQEND
  0
POLYLINE
  8
0
 10
0
 20
0
 39
0
 70
1
 66
1
  0
VERTEX
  8
0
 10
415.00000882442828
 20
521.89512634277344
 42
-1
  0
VERTEX
  8
0
 10
415.00000882442828
 20
538.09512710571289
 42
0
  0
VERTEX
  8
0
 10
470.00000882442828
 20
538.09512710571289
 42
-1
  0
VERTEX
  8
0
 10
470.00000882442828
 20
521.89512634277344
 42
-0
  0
SEQEND
  0
POLYLINE
  8
0
 10
0
 20
0
 39
0
 70
1
 66
1
  0
VERTEX
  8
0
 10
280.00000119503375
 20
554.99512481689453
 42
0
  0
VERTEX
  8
0
 10
280.00000119503375
 20
539.99512481689453
 42
-0
  0
VERTEX
  8
0
 10
288.00000119503375
 20
539.99512481689453
 42
-0
  0
VERTEX
  8
0
 10
288.00000119503375
 20
519.99512481689453
 42
-0
  0
VERTEX
  8
0
 10
280.00000119503375
 20
519.99512481689453
 42
-0
  0
VERTEX
  8
0
 10
280.00000119503375
 20
504.99512481689453
 42
-0
  0
VERTEX
  8
0
 10
380.00000500973101
 20
504.99512481689453
 42
-0
  0
VERTEX
  8
0
 10
380.00000500973101
 20
554.99512481689453
 42
-0
  0
SEQEND
  0
POLYLINE
  8
0
 10
0
 20
0
 39
0
 70
1
 66
1
  0
VERTEX
  8
0
 10
305.00000500973101
 20
521.89512634277344
 42
-1
  0
VERTEX
  8
0
 10
305.00000500973101
 20
538.09512710571289
 42
0
  0
VERTEX
  8
0
 10
360.00000500973101
 20
538.09512710571289
 42
-1
  0
VERTEX
  8
0
 10
360.00000500973101
 20
521.89512634277344
 42
-0
  0
SEQEND
  0
POLYLINE
  8
0
 10
0
 20
0
 39
0
 70
1
 66
1
  0
VERTEX
  8
0
 10
803.33007670037023
 20
174.99999738033648
 42
0
  0
VERTEX
  8
0
 10
803.33007670037023
 20
239.99999738033648
 42
0
  0
VERTEX
  8
0
 10
798.33007670037023
 20
244.99999738033648
 42
0
  0
VERTEX
  8
0
 10
771.07788706413976
 20
247.30631757076617
 42
-0.8055649995803833
  0
VERTEX
  8
0
 10
749.27232218376867
 20
413.94224095638629
 42
-0
  0
VERTEX
  8
0
 10
753.33007670037023
 20
417.99999738033648
 42
-0
  0
VERTEX
  8
0
 10
753.33007670037023
 20
426.99999738033648
 42
0
  0
VERTEX
  8
0
 10
718.33007670037023
 20
426.99999738033648
 42
-0
  0
VERTEX
  8
0
 10
663.33007670037023
 20
371.99999738033648
 42
0
  0
VERTEX
  8
0
 10
663.33007670037023
 20
259.99999738033648
 42
0
  0
VERTEX
  8
0
 10
743.33007670037023
 20
169.99999738033648
 42
0
  0
VERTEX
  8
0
 10
798.33007670037023
 20
169.99999738033648
 42
-0
  0
SEQEND
  0
POLYLINE
  8
0
 10
0
 20
0
 39
0
 70
1
 66
1
  0
VERTEX
  8
0
 10
791.33007670037023
 20
240.99999738033648
 42
-1
  0
VERTEX
  8
0
 10
791.33007670037023
 20
228.99999738033648
 42
-1
  0
SEQEND
  0
POLYLINE
  8
0
 10
0
 20
0
 39
0
 70
1
 66
1
  0
VERTEX
  8
0
 10
663.33007670037023
 20
546.42199738033651
 42
0
  0
VERTEX
  8
0
 10
663.33007670037023
 20
481.42199738033651
 42
0
  0
VERTEX
  8
0
 10
668.33007670037023
 20
476.42199738033651
 42
0
  0
VERTEX
  8
0
 10
695.5822663366007
 20
474.11567718990682
 42
-0.8055649995803833
  0
VERTEX
  8
0
 10
717.38783121697179
 20
307.4797538042867
 42
-0
  0
VERTEX
  8
0
 10
713.33007670037023
 20
303.42199738033651
 42
-0
  0
VERTEX
  8
0
 10
713.33007670037023
 20
294.42199738033651
 42
0
  0
VERTEX
  8
0
 10
748.33007670037023
 20
294.42199738033651
 42
-0
  0
VERTEX
  8
0
 10
803.33007670037023
 20
349.42199738033651
 42
0
  0
VERTEX
  8
0
 10
803.33007670037023
 20
461.42199738033651
 42
0
  0
VERTEX
  8
0
 10
723.33007670037023
 20
551.42199738033651
 42
0
  0
VERTEX
  8
0
 10
668.33007670037023
 20
551.42199738033651
 42
-0
  0
SEQEND
  0
POLYLINE
  8
0
 10
0
 20
0
 39
0
 70
1
 66
1
  0
VERTEX
  8
0
 10
675.33007670037023
 20
480.42199738033651
 42
-1
  0
VERTEX
  8
0
 10
675.33007670037023
 20
492.42199738033651
 42
-1
  0
SEQEND
  0
POLYLINE
  8
0
 10
0
 20
0
 39
0
 70
1
 66
1
  0
VERTEX
  8
0
 10
244.67274788602867
 20
493.3293653741282
 42
1
  0
VERTEX
  8
0
 10
245.32724425498077
 20
343.33079588560281
 42
1
  0
SEQEND
  0
POLYLINE
  8
0
 10
0
 20
0
 39
0
 70
1
 66
1
  0
VERTEX
  8
0
 10
244.84728025108257
 20
453.32974684385476
 42
-1
  0
VERTEX
  8
0
 10
245.15271188992688
 20
383.33041441587625
 42
-1
  0
SEQEND
  0
POLYLINE
  8
0
 10
0
 20
0
 39
0
 70
1
 66
1
  0
VERTEX
  8
0
 10
150.00000000000006
 20
15
 42
0
  0
VERTEX
  8
0
 10
150.00000000000003
 20
80
 42
0
  0
VERTEX
  8
0
 10
145.00000000000003
 20
85
 42
0
  0
VERTEX
  8
0
 10
117.74781036376957
 20
87.306320190429687
 42
-0.8055649995803833
  0
VERTEX
  8
0
 10
95.942245483398466
 20
253.9422435760498
 42
-0
  0
VERTEX
  8
0
 10
100.00000000000003
 20
258
 42
-0
  0
VERTEX
  8
0
 10
100.00000000000003
 20
267
 42
0
  0
VERTEX
  8
0
 10
65.000000000000028
 20
267
 42
-0
  0
VERTEX
  8
0
 10
10.000000000000032
 20
212
 42
0
  0
VERTEX
  8
0
 10
10.000000000000039
 20
100
 42
0
  0
VERTEX
  8
0
 10
90.000000000000043
 20
10
 42
0
  0
VERTEX
  8
0
 10
145.00000000000006
 20
10
 42
-0
  0
SEQEND
  0
POLYLINE
  8
0
 10
0
 20
0
 39
0
 70
1
 66
1
  0
VERTEX
  8
0
 10
138.00000000000003
 20
81
 42
-1
  0
VERTEX
  8
0
 10
138.00000000000003
 20
69
 42
-1
  0
SEQEND
  0
POLYLINE
  8
0
 10
0
 20
0
 39
0
 70
1
 66
1
  0
VERTEX
  8
0
 10
10
 20
386.42199999999997
 42
0
  0
VERTEX
  8
0
 10
10.000000000000028
 20
321.42199999999997
 42
0
  0
VERTEX
  8
0
 10
15.000000000000028
 20
316.42199999999997
 42
0
  0
VERTEX
  8
0
 10
42.252189636230497
 20
314.11567980957028
 42
-0.8055649995803833
  0
VERTEX
  8
0
 10
64.057754516601619
 20
147.47975642395016
 42
-0
  0
VERTEX
  8
0
 10
60.000000000000057
 20
143.42199999999997
 42
-0
  0
VERTEX
  8
0
 10
60.000000000000057
 20
134.42199999999997
 42
0
  0
VERTEX
  8
0
 10
95.000000000000057
 20
134.422
 42
-0
  0
VERTEX
  8
0
 10
150.00000000000006
 20
189.422
 42
0
  0
VERTEX
  8
0
 10
150.00000000000003
 20
301.42200000000003
 42
0
  0
VERTEX
  8
0
 10
70.000000000000014
 20
391.42200000000003
 42
0
  0
VERTEX
  8
0
 10
15
 20
391.42200000000003
 42
-0
  0
SEQEND
  0
POLYLINE
  8
0
 10
0
 20
0
 39
0
 70
1
 66
1
  0
VERTEX
  8
0
 10
22.000000000000028
 20
320.42199999999997
 42
-1
  0
VERTEX
  8
0
 10
22.000000000000028
 20
332.42199999999997
 42
-1
  0
SEQEND
  0
POLYLINE
  8
0
 10
0
 20
0
 39
0
 70
1
 66
1
  0
VERTEX
  8
0
 10
503.33008575439453
 20
333.33008193969727
 42
0.41421356797218323
  0
VERTEX
  8
0
 10
483.33008575439453
 20
313.33008193969727
 42
0
  0
VERTEX
  8
0
 10
483.33008575439453
 20
30
 42
0.41421356797218323
  0
VERTEX
  8
0
 10
503.33008575439453
 20
10
 42
-0
  0
VERTEX
  8
0
 10
579.33008575439453
 20
10
 42
-0
  0
VERTEX
  8
0
 10
579.33008575439453
 20
71.765042878687382
 42
0
  0
VERTEX
  8
0
 10
634.9951286315918
 20
71.765042878687382
 42
-0
  0
VERTEX
  8
0
 10
634.9951286315918
 20
271.56503677368164
 42
-0
  0
VERTEX
  8
0
 10
579.33008575439453
 20
271.56503677368164
 42
0
  0
VERTEX
  8
0
 10
579.33008575439453
 20
333.33008193969727
 42
-0
  0
SEQEND
  0
POLYLINE
  8
0
 10
0
 20
0
 39
0
 70
1
 66
1
  0
VERTEX
  8
0
 10
591.4951286315918
 20
210.91504287719727
 42
0
  0
VERTEX
  8
0
 10
616.4951286315918
 20
210.91504287719727
 42
-1
  0
VERTEX
  8
0
 10
616.4951286315918
 20
200.41504287719727
 42
0
  0
VERTEX
  8
0
 10
591.4951286315918
 20
200.41504287719727
 42
-1
  0
SEQEND
  0
POLYLINE
  8
0
 10
0
 20
0
 39
0
 70
1
 66
1
  0
VERTEX
  8
0
 10
591.4951286315918
 20
142.91504287719727
 42
0
  0
VERTEX
  8
0
 10
616.4951286315918
 20
142.91504287719727
 42
-1
  0
VERTEX
  8
0
 10
616.4951286315918
 20
132.41504287719727
 42
0
  0
VERTEX
  8
0
 10
591.4951286315918
 20
132.41504287719727
 42
-1
  0
SEQEND
  0
POLYLINE
  8
0
 10
0
 20
0
 39
0
 70
1
 66
1
  0
VERTEX
  8
0
 10
84.672750505692193
 20
551.42128343443096
 42
1
  0
VERTEX
  8
0
 10
85.327246874644288
 20
401.42271394590557
 42
1
  0
SEQEND
  0
POLYLINE
  8
0
 10
0
 20
0
 39
0
 70
1
 66
1
  0
VERTEX
  8
0
 10
84.847282870746085
 20
511.42166490415752
 42
-1
  0
VERTEX
  8
0
 10
85.152714509590396
 20
441.42233247617901
 42
-1
  0
SEQEND
  0
POLYLINE
  8
0
 10
0
 20
0
 39
0
 70
1
 66
1
  0
VERTEX
  8
0
 10
169.99999738033648
 20
553.33007932003375
 42
0
  0
VERTEX
  8
0
 10
169.99999738033648
 20
538.33007932003375
 42
-0
  0
VERTEX
  8
0
 10
177.99999738033648
 20
538.33007932003375
 42
-0
  0
VERTEX
  8
0
 10
177.99999738033648
 20
518.33007932003375
 42
-0
  0
VERTEX
  8
0
 10
169.99999738033648
 20
518.33007932003375
 42
-0
  0
VERTEX
  8
0
 10
169.99999738033648
 20
503.33007932003375
 42
-0
  0
VERTEX
  8
0
 10
270.00000119503375
 20
503.33007932003375
 42
-0
  0
VERTEX
  8
0
 10
270.00000119503375
 20
553.33007932003375
 42
-0
  0
SEQEND
  0
POLYLINE
  8
0
 10
0
 20
0
 39
0
 70
1
 66
1
  0
VERTEX
  8
0
 10
195.00000119503375
 20
520.23008084591265
 42
-1
  0
VERTEX
  8
0
 10
195.00000119503375
 20
536.43008160885211
 42
0
  0
VERTEX
  8
0
 10
250.00000119503375
 20
536.43008160885211
 42
-1
  0
VERTEX
  8
0
 10
250.00000119503375
 20
520.23008084591265
 42
-0
  0
SEQEND
  0
POLYLINE
  8
0
 10
0
 20
0
 39
0
 70
1
 66
1
  0
VERTEX
  8
0
 10
341.66504287719727
 20
333.33008193969727
 42
0.41421356797218323
  0
VERTEX
  8
0
 10
321.66504287719727
 20
313.33008193969727
 42
0
  0
VERTEX
  8
0
 10
321.66504287719727
 20
30
 42
0.41421356797218323
  0
VERTEX
  8
0
 10
341.66504287719727
 20
10
 42
-0
  0
VERTEX
  8
0
 10
417.66504287719727
 20
10
 42
-0
  0
VERTEX
  8
0
 10
417.66504287719727
 20
71.765042878687382
 42
0
  0
VERTEX
  8
0
 10
473.33008575439453
 20
71.765042878687382
 42
-0
  0
VERTEX
  8
0
 10
473.33008575439453
 20
271.56503677368164
 42
-0
  0
VERTEX
  8
0
 10
417.66504287719727
 20
271.56503677368164
 42
0
  0
VERTEX
  8
0
 10
417.66504287719727
 20
333.33008193969727
 42
-0
  0
SEQEND
  0
POLYLINE
  8
0
 10
0
 20
0
 39
0
 70
1
 66
1
  0
VERTEX
  8
0
 10
429.83008575439453
 20
210.91504287719727
 42
0
  0
VERTEX
  8
0
 10
454.83008575439453
 20
210.91504287719727
 42
-1
  0
VERTEX
  8
0
 10
454.83008575439453
 20
200.41504287719727
 42
0
  0
VERTEX
  8
0
 10
429.83008575439453
 20
200.41504287719727
 42
-1
  0
SEQEND
  0
POLYLINE
  8
0
 10
0
 20
0
 39
0
 70
1
 66
1
  0
VERTEX
  8
0
 10
429.83008575439453
 20
142.91504287719727
 42
0
  0
VERTEX
  8
0
 10
454.83008575439453
 20
142.91504287719727
 42
-1
  0
VERTEX
  8
0
 10
454.83008575439453
 20
132.41504287719727
 42
0
  0
VERTEX
  8
0
 10
429.83008575439453
 20
132.41504287719727
 42
-1
  0
SEQEND
  0
POLYLINE
  8
0
 10
0
 20
0
 39
0
 70
1
 66
1
  0
VERTEX
  8
0
 10
653.33007670037023
 20
474.99512481689453
 42
0.41421356797218323
  0
VERTEX
  8
0
 10
633.33007670037023
 20
494.99512481689453
 42
0
  0
VERTEX
  8
0
 10
349.99999476067296
 20
494.99512481689453
 42
0.41421356797218323
  0
VERTEX
  8
0
 10
329.99999476067296
 20
474.99512481689453
 42
-0
  0
VERTEX
  8
0
 10
329.99999476067296
 20
398.99512481689453
 42
-0
  0
VERTEX
  8
0
 10
391.76503763936034
 20
398.99512481689453
 42
0
  0
VERTEX
  8
0
 10
391.76503763936034
 20
343.33008193969727
 42
-0
  0
VERTEX
  8
0
 10
591.5650315343546
 20
343.33008193969727
 42
-0
  0
VERTEX
  8
0
 10
591.5650315343546
 20
398.99512481689453
 42
0
  0
VERTEX
  8
0
 10
653.33007670037023
 20
398.99512481689453
 42
-0
  0
SEQEND
  0
POLYLINE
  8
0
 10
0
 20
0
 39
0
 70
1
 66
1
  0
VERTEX
  8
0
 10
530.91503763787023
 20
386.83008193969727
 42
0
  0
VERTEX
  8
0
 10
530.91503763787023
 20
361.83008193969727
 42
-1
  0
VERTEX
  8
0
 10
520.41503763787023
 20
361.83008193969727
 42
0
  0
VERTEX
  8
0
 10
520.41503763787023
 20
386.83008193969727
 42
-1
  0
SEQEND
  0
POLYLINE
  8
0
 10
0
 20
0
 39
0
 70
1
 66
1
  0
VERTEX
  8
0
 10
462.91503763787023
 20
386.83008193969727
 42
0
  0
VERTEX
  8
0
 10
462.91503763787023
 20
361.83008193969727
 42
-1
  0
VERTEX
  8
0
 10
452.41503763787023
 20
361.83008193969727
 42
0
  0
VERTEX
  8
0
 10
452.41503763787023
 20
386.83008193969727
 42
-1
  0
SEQEND
  0
ENDSEC
  0
EOF
