  0
SECTION
  2
ENTITIES
  0
POLYLINE
  8
0
 10
0
 20
0
 39
0
 70
1
 66
1
  0
VERTEX
  8
0
 10
0
 20
0
 42
-0
  0
VERTEX
  8
0
 10
1100
 20
0
 42
-0
  0
VERTEX
  8
0
 10
1100
 20
700
 42
-0
  0
VERTEX
  8
0
 10
0
 20
700
 42
-0
  0
SEQEND
  0
POLYLINE
  8
0
 10
0
 20
0
 39
0
 70
1
 66
1
  0
VERTEX
  8
0
 10
123.50999500446304
 20
275.69292344741808
 42
-0
  0
VERTEX
  8
0
 10
140.333232840824
 20
212.90774562053664
 42
-0
  0
VERTEX
  8
0
 10
136.79769899539934
 20
206.78402133874877
 42
-0
  0
VERTEX
  8
0
 10
111.07102515859587
 20
197.50290147576769
 42
0.8055649995803833
  0
VERTEX
  8
0
 10
133.13701750579907
 20
30.901266302668816
 42
0
  0
VERTEX
  8
0
 10
138.10673197202669
 20
28.031998774337627
 42
0
  0
VERTEX
  8
0
 10
140.43610336475359
 20
19.338666459846355
 42
-0
  0
VERTEX
  8
0
 10
106.62869991950976
 20
10.279999932575084
 42
0
  0
VERTEX
  8
0
 10
39.267732819843147
 20
49.170872232246253
 42
-0
  0
VERTEX
  8
0
 10
10.27999993257508
 20
157.35456325702651
 42
-0
  0
VERTEX
  8
0
 10
64.26035102300628
 20
264.99340989284502
 42
-0
  0
VERTEX
  8
0
 10
117.38627072267516
 20
279.22845729284273
 42
0
  0
SEQEND
  0
POLYLINE
  8
0
 10
0
 20
0
 39
0
 70
1
 66
1
  0
VERTEX
  8
0
 10
129.00094213180529
 20
208.83599128417953
 42
1
  0
VERTEX
  8
0
 10
125.8951136081694
 20
220.42710103683456
 42
1
  0
SEQEND
  0
POLYLINE
  8
0
 10
0
 20
0
 39
0
 70
1
 66
1
  0
VERTEX
  8
0
 10
27.20610829286565
 20
271.06886711133302
 42
-0
  0
VERTEX
  8
0
 10
10.382870456504705
 20
333.85404493821443
 42
-0
  0
VERTEX
  8
0
 10
13.918404301929357
 20
339.9777692200023
 42
-0
  0
VERTEX
  8
0
 10
39.645078138732813
 20
349.25888908298339
 42
0.8055649995803833
  0
VERTEX
  8
0
 10
17.579085791529607
 20
515.86052425608227
 42
0
  0
VERTEX
  8
0
 10
12.609371325301979
 20
518.72979178441346
 42
0
  0
VERTEX
  8
0
 10
10.27999993257508
 20
527.42312409890474
 42
-0
  0
VERTEX
  8
0
 10
44.087403377818916
 20
536.48179062617601
 42
0
  0
VERTEX
  8
0
 10
111.44837047748553
 20
497.59091832650483
 42
-0
  0
VERTEX
  8
0
 10
140.43610336475359
 20
389.40722730172456
 42
-0
  0
VERTEX
  8
0
 10
86.455752274322407
 20
281.76838066590608
 42
-0
  0
VERTEX
  8
0
 10
33.329832574653523
 20
267.53333326590837
 42
0
  0
SEQEND
  0
POLYLINE
  8
0
 10
0
 20
0
 39
0
 70
1
 66
1
  0
VERTEX
  8
0
 10
21.715161165523412
 20
337.92579927457155
 42
1
  0
VERTEX
  8
0
 10
24.820989689159276
 20
326.33468952191652
 42
1
  0
SEQEND
  0
POLYLINE
  8
0
 10
0
 20
0
 39
0
 70
1
 66
1
  0
VERTEX
  8
0
 10
10.280000000000008
 20
373.27999999999997
 42
-0
  0
VERTEX
  8
0
 10
10.280000000000001
 20
483.27999999999997
 42
-0
  0
VERTEX
  8
0
 10
60.280000000000001
 20
483.27999999999997
 42
-0
  0
VERTEX
  8
0
 10
60.280000000000008
 20
373.27999999999997
 42
0
  0
SEQEND
  0
POLYLINE
  8
0
 10
0
 20
0
 39
0
 70
1
 66
1
  0
VERTEX
  8
0
 10
35.280000000000001
 20
413.27999999999997
 42
1
  0
VERTEX
  8
0
 10
35.280000000000001
 20
443.27999999999997
 42
1
  0
SEQEND
  0
POLYLINE
  8
0
 10
0
 20
0
 39
0
 70
1
 66
1
  0
VERTEX
  8
0
 10
10.280000000000008
 20
546.49333333333334
 42
-0
  0
VERTEX
  8
0
 10
10.280000000000001
 20
656.49333333333334
 42
-0
  0
VERTEX
  8
0
 10
60.280000000000001
 20
656.49333333333334
 42
-0
  0
VERTEX
  8
0
 10
60.280000000000008
 20
546.49333333333334
 42
0
  0
SEQEND
  0
POLYLINE
  8
0
 10
0
 20
0
 39
0
 70
1
 66
1
  0
VERTEX
  8
0
 10
35.280000000000001
 20
586.49333333333334
 42
1
  0
VERTEX
  8
0
 10
35.280000000000001
 20
616.49333333333334
 42
1
  0
SEQEND
  0
POLYLINE
  8
0
 10
0
 20
0
 39
0
 70
1
 66
1
  0
VERTEX
  8
0
 10
272.45333333333332
 20
656.56866666666667
 42
-0
  0
VERTEX
  8
0
 10
272.45333333333338
 20
591.56866666666667
 42
-0
  0
VERTEX
  8
0
 10
267.45333333333338
 20
586.56866666666667
 42
-0
  0
VERTEX
  8
0
 10
240.20114369710285
 20
584.26234647623698
 42
0.8055649995803833
  0
VERTEX
  8
0
 10
218.39557881673178
 20
417.62642309061687
 42
0
  0
VERTEX
  8
0
 10
222.45333333333335
 20
413.56866666666667
 42
0
  0
VERTEX
  8
0
 10
222.45333333333335
 20
404.56866666666667
 42
-0
  0
VERTEX
  8
0
 10
187.45333333333335
 20
404.56866666666667
 42
0
  0
VERTEX
  8
0
 10
132.45333333333335
 20
459.56866666666667
 42
-0
  0
VERTEX
  8
0
 10
132.45333333333335
 20
571.56866666666667
 42
-0
  0
VERTEX
  8
0
 10
212.45333333333332
 20
661.56866666666667
 42
-0
  0
VERTEX
  8
0
 10
267.45333333333332
 20
661.56866666666667
 42
0
  0
SEQEND
  0
POLYLINE
  8
0
 10
0
 20
0
 39
0
 70
1
 66
1
  0
VERTEX
  8
0
 10
260.45333333333332
 20
590.56866666666667
 42
1
  0
VERTEX
  8
0
 10
260.45333333333332
 20
602.56866666666667
 42
1
  0
SEQEND
  0
POLYLINE
  8
0
 10
0
 20
0
 39
0
 70
1
 66
1
  0
VERTEX
  8
0
 10
132.45333333333335
 20
285.14666666666665
 42
-0
  0
VERTEX
  8
0
 10
132.45333333333338
 20
350.14666666666665
 42
-0
  0
VERTEX
  8
0
 10
137.45333333333338
 20
355.14666666666665
 42
-0
  0
VERTEX
  8
0
 10
164.70552296956384
 20
357.45298685709633
 42
0.8055649995803833
  0
VERTEX
  8
0
 10
186.51108784993494
 20
524.08891024271645
 42
0
  0
VERTEX
  8
0
 10
182.45333333333338
 20
528.14666666666665
 42
0
  0
VERTEX
  8
0
 10
182.45333333333338
 20
537.14666666666665
 42
-0
  0
VERTEX
  8
0
 10
217.45333333333338
 20
537.14666666666665
 42
0
  0
VERTEX
  8
0
 10
272.45333333333338
 20
482.14666666666665
 42
-0
  0
VERTEX
  8
0
 10
272.45333333333338
 20
370.14666666666665
 42
-0
  0
VERTEX
  8
0
 10
192.45333333333338
 20
280.14666666666665
 42
-0
  0
VERTEX
  8
0
 10
137.45333333333335
 20
280.14666666666665
 42
0
  0
SEQEND
  0
POLYLINE
  8
0
 10
0
 20
0
 39
0
 70
1
 66
1
  0
VERTEX
  8
0
 10
144.45333333333338
 20
351.14666666666665
 42
1
  0
VERTEX
  8
0
 10
144.45333333333338
 20
339.14666666666665
 42
1
  0
SEQEND
  0
POLYLINE
  8
0
 10
0
 20
0
 39
0
 70
1
 66
1
  0
VERTEX
  8
0
 10
402.01333333333332
 20
320.27999999999997
 42
-0
  0
VERTEX
  8
0
 10
402.01333333333332
 20
10.280000000000012
 42
-0
  0
VERTEX
  8
0
 10
242.01333333333335
 20
10.280000000000001
 42
-0
  0
VERTEX
  8
0
 10
242.01333333333332
 20
320.27999999999997
 42
-0
  0
SEQEND
  0
POLYLINE
  8
0
 10
0
 20
0
 39
0
 70
1
 66
1
  0
VERTEX
  8
0
 10
322.01333333333332
 20
220.28
 42
1
  0
VERTEX
  8
0
 10
322.01333333333332
 20
260.27999999999997
 42
1
  0
SEQEND
  0
POLYLINE
  8
0
 10
0
 20
0
 39
0
 70
1
 66
1
  0
VERTEX
  8
0
 10
322.01333333333332
 20
70.280000000000001
 42
1
  0
VERTEX
  8
0
 10
322.01333333333332
 20
110.28
 42
1
  0
SEQEND
  0
POLYLINE
  8
0
 10
0
 20
0
 39
0
 70
1
 66
1
  0
VERTEX
  8
0
 10
140.0205801206555
 20
191.66595001377547
 42
-1
  0
VERTEX
  8
0
 10
139.3660837517034
 20
41.667380525250081
 42
-1
  0
SEQEND
  0
POLYLINE
  8
0
 10
0
 20
0
 39
0
 70
1
 66
1
  0
VERTEX
  8
0
 10
139.8460477556016
 20
151.66633148350203
 42
1
  0
VERTEX
  8
0
 10
139.54061611675729
 20
81.666999055523519
 42
1
  0
SEQEND
  0
POLYLINE
  8
0
 10
0
 20
0
 39
0
 70
1
 66
1
  0
VERTEX
  8
0
 10
572.29333333333341
 20
500.27999999999997
 42
-0
  0
VERTEX
  8
0
 10
572.29333333333341
 20
10.280000000000012
 42
-0
  0
VERTEX
  8
0
 10
412.29333333333341
 20
10.280000000000001
 42
-0
  0
VERTEX
  8
0
 10
412.29333333333335
 20
500.27999999999997
 42
-0
  0
SEQEND
  0
POLYLINE
  8
0
 10
0
 20
0
 39
0
 70
1
 66
1
  0
VERTEX
  8
0
 10
482.29333333333341
 20
20.280000000000005
 42
0
  0
VERTEX
  8
0
 10
502.29333333333341
 20
20.280000000000008
 42
1
  0
VERTEX
  8
0
 10
502.29333333333341
 20
70.280000000000001
 42
-0
  0
VERTEX
  8
0
 10
482.29333333333341
 20
70.280000000000001
 42
1
  0
SEQEND
  0
POLYLINE
  8
0
 10
0
 20
0
 39
0
 70
1
 66
1
  0
VERTEX
  8
0
 10
427.06595001377548
 20
560.29941708503679
 42
-1
  0
VERTEX
  8
0
 10
277.06738052525009
 20
560.95391345398889
 42
-1
  0
SEQEND
  0
POLYLINE
  8
0
 10
0
 20
0
 39
0
 70
1
 66
1
  0
VERTEX
  8
0
 10
387.06633148350204
 20
560.47394945009069
 42
1
  0
VERTEX
  8
0
 10
317.06699905552352
 20
560.779381088935
 42
1
  0
SEQEND
  0
POLYLINE
  8
0
 10
0
 20
0
 39
0
 70
1
 66
1
  0
VERTEX
  8
0
 10
70.560000000000002
 20
533.29333333333329
 42
-0
  0
VERTEX
  8
0
 10
70.560000000000002
 20
643.29333333333329
 42
-0
  0
VERTEX
  8
0
 10
120.56
 20
643.29333333333329
 42
-0
  0
VERTEX
  8
0
 10
120.56
 20
533.29333333333329
 42
0
  0
SEQEND
  0
POLYLINE
  8
0
 10
0
 20
0
 39
0
 70
1
 66
1
  0
VERTEX
  8
0
 10
95.560000000000002
 20
573.29333333333329
 42
1
  0
VERTEX
  8
0
 10
95.560000000000002
 20
603.29333333333329
 42
1
  0
SEQEND
  0
POLYLINE
  8
0
 10
0
 20
0
 39
0
 70
1
 66
1
  0
VERTEX
  8
0
 10
503.46058012065549
 20
689.59928334710889
 42
-1
  0
VERTEX
  8
0
 10
502.8060837517034
 20
539.6007138585835
 42
-1
  0
SEQEND
  0
POLYLINE
  8
0
 10
0
 20
0
 39
0
 70
1
 66
1
  0
VERTEX
  8
0
 10
503.2860477556016
 20
649.59966481683546
 42
1
  0
VERTEX
  8
0
 10
502.98061611675729
 20
579.60033238885694
 42
1
  0
SEQEND
  0
POLYLINE
  8
0
 10
0
 20
0
 39
0
 70
1
 66
1
  0
VERTEX
  8
0
 10
742.57333333333327
 20
500.27999999999997
 42
-0
  0
VERTEX
  8
0
 10
742.57333333333327
 20
10.280000000000012
 42
-0
  0
VERTEX
  8
0
 10
582.57333333333327
 20
10.280000000000001
 42
-0
  0
VERTEX
  8
0
 10
582.57333333333327
 20
500.27999999999997
 42
-0
  0
SEQEND
  0
POLYLINE
  8
0
 10
0
 20
0
 39
0
 70
1
 66
1
  0
VERTEX
  8
0
 10
652.57333333333327
 20
20.280000000000005
 42
0
  0
VERTEX
  8
0
 10
672.57333333333327
 20
20.280000000000008
 42
1
  0
VERTEX
  8
0
 10
672.57333333333327
 20
70.280000000000001
 42
-0
  0
VERTEX
  8
0
 10
652.57333333333327
 20
70.280000000000001
 42
1
  0
SEQEND
  0
POLYLINE
  8
0
 10
0
 20
0
 39
0
 70
1
 66
1
  0
VERTEX
  8
0
 10
912.85333333333335
 20
500.27999999999997
 42
-0
  0
VERTEX
  8
0
 10
912.85333333333335
 20
10.280000000000012
 42
-0
  0
VERTEX
  8
0
 10
752.85333333333335
 20
10.280000000000001
 42
-0
  0
VERTEX
  8
0
 10
752.85333333333335
 20
500.27999999999997
 42
-0
  0
SEQEND
  0
POLYLINE
  8
0
 10
0
 20
0
 39
0
 70
1
 66
1
  0
VERTEX
  8
0
 10
822.85333333333335
 20
20.280000000000005
 42
0
  0
VERTEX
  8
0
 10
842.85333333333335
 20
20.280000000000008
 42
1
  0
VERTEX
  8
0
 10
842.85333333333335
 20
70.280000000000001
 42
-0
  0
VERTEX
  8
0
 10
822.85333333333335
 20
70.280000000000001
 42
1
  0
SEQEND
  0
POLYLINE
  8
0
 10
0
 20
0
 39
0
 70
1
 66
1
  0
VERTEX
  8
0
 10
588.29333333333329
 20
670.4133333333333
 42
-0
  0
VERTEX
  8
0
 10
1078.2933333333333
 20
670.4133333333333
 42
-0
  0
VERTEX
  8
0
 10
1078.2933333333333
 20
510.4133333333333
 42
-0
  0
VERTEX
  8
0
 10
588.29333333333329
 20
510.4133333333333
 42
-0
  0
SEQEND
  0
POLYLINE
  8
0
 10
0
 20
0
 39
0
 70
1
 66
1
  0
VERTEX
  8
0
 10
1068.2933333333333
 20
580.4133333333333
 42
0
  0
VERTEX
  8
0
 10
1068.2933333333333
 20
600.4133333333333
 42
1
  0
VERTEX
  8
0
 10
1018.2933333333333
 20
600.4133333333333
 42
-0
  0
VERTEX
  8
0
 10
1018.2933333333333
 20
580.4133333333333
 42
1
  0
SEQEND
  0
POLYLINE
  8
0
 10
0
 20
0
 39
0
 70
1
 66
1
  0
VERTEX
  8
0
 10
1083.1333333333332
 20
320.27999999999997
 42
-0
  0
VERTEX
  8
0
 10
1083.1333333333332
 20
10.280000000000012
 42
-0
  0
VERTEX
  8
0
 10
923.13333333333333
 20
10.280000000000001
 42
-0
  0
VERTEX
  8
0
 10
923.13333333333333
 20
320.27999999999997
 42
-0
  0
SEQEND
  0
POLYLINE
  8
0
 10
0
 20
0
 39
0
 70
1
 66
1
  0
VERTEX
  8
0
 10
1003.1333333333333
 20
220.28
 42
1
  0
VERTEX
  8
0
 10
1003.1333333333333
 20
260.27999999999997
 42
1
  0
SEQEND
  0
POLYLINE
  8
0
 10
0
 20
0
 39
0
 70
1
 66
1
  0
VERTEX
  8
0
 10
1003.1333333333333
 20
70.280000000000001
 42
1
  0
VERTEX
  8
0
 10
1003.1333333333333
 20
110.28
 42
1
  0
SEQEND
  0
POLYLINE
  8
0
 10
0
 20
0
 39
0
 70
1
 66
1
  0
VERTEX
  8
0
 10
282.63999999999999
 20
330.30666666666667
 42
-0
  0
VERTEX
  8
0
 10
282.63999999999999
 20
440.30666666666667
 42
-0
  0
VERTEX
  8
0
 10
332.63999999999999
 20
440.30666666666667
 42
-0
  0
VERTEX
  8
0
 10
332.63999999999999
 20
330.30666666666667
 42
0
  0
SEQEND
  0
POLYLINE
  8
0
 10
0
 20
0
 39
0
 70
1
 66
1
  0
VERTEX
  8
0
 10
307.63999999999999
 20
370.30666666666667
 42
1
  0
VERTEX
  8
0
 10
307.63999999999999
 20
400.30666666666667
 42
1
  0
SEQEND
  0
POLYLINE
  8
0
 10
0
 20
0
 39
0
 70
1
 66
1
  0
VERTEX
  8
0
 10
998.46058012065555
 20
480.30595001377549
 42
-1
  0
VERTEX
  8
0
 10
997.80608375170345
 20
330.3073805252501
 42
-1
  0
SEQEND
  0
POLYLINE
  8
0
 10
0
 20
0
 39
0
 70
1
 66
1
  0
VERTEX
  8
0
 10
998.28604775560166
 20
440.30633148350205
 42
1
  0
VERTEX
  8
0
 10
997.98061611675735
 20
370.30699905552353
 42
1
  0
SEQEND
  0
ENDSEC
  0
EOF
