  0
SECTION
  2
ENTITIES
  0
POLYLINE
  8
0
 10
0
 20
0
 39
0
 70
1
 66
1
  0
VERTEX
  8
0
 10
0
 20
0
 42
-0
  0
VERTEX
  8
0
 10
1100
 20
0
 42
-0
  0
VERTEX
  8
0
 10
1100
 20
700
 42
-0
  0
VERTEX
  8
0
 10
0
 20
700
 42
-0
  0
SEQEND
  0
POLYLINE
  8
0
 10
0
 20
0
 39
0
 70
1
 66
1
  0
VERTEX
  8
0
 10
883.99998854138698
 20
534.56170082092285
 42
0
  0
VERTEX
  8
0
 10
702.22703169324245
 20
661.84049987792969
 42
0.15391500294208527
  0
VERTEX
  8
0
 10
689.03477095105495
 20
666
 42
0
  0
VERTEX
  8
0
 10
642.32027052380886
 20
666
 42
0.31529900431632996
  0
VERTEX
  8
0
 10
620.7073402259573
 20
650.86647033691406
 42
0
  0
VERTEX
  8
0
 10
577.99998854138698
 20
533.52898025512695
 42
0
  0
VERTEX
  8
0
 10
577.99998854138698
 20
510
 42
0
  0
VERTEX
  8
0
 10
883.99998854138698
 20
510
 42
0
  0
SEQEND
  0
POLYLINE
  8
0
 10
0
 20
0
 39
0
 70
1
 66
1
  0
VERTEX
  8
0
 10
631.49998854138698
 20
613
 42
-1
  0
VERTEX
  8
0
 10
700.49998854138698
 20
613
 42
-1
  0
SEQEND
  0
POLYLINE
  8
0
 10
0
 20
0
 39
0
 70
1
 66
1
  0
VERTEX
  8
0
 10
749.651188541387
 20
641.43829917908522
 42
0
  0
VERTEX
  8
0
 10
931.42414538953153
 20
514.15950012207838
 42
0.15391500294208527
  0
VERTEX
  8
0
 10
944.61640613171903
 20
510.00000000000807
 42
0
  0
VERTEX
  8
0
 10
991.33090655896513
 20
510.00000000000807
 42
0.31529900431632996
  0
VERTEX
  8
0
 10
1012.9438368568167
 20
525.13352966309401
 42
0
  0
VERTEX
  8
0
 10
1055.651188541387
 20
642.47101974488112
 42
0
  0
VERTEX
  8
0
 10
1055.651188541387
 20
666.00000000000807
 42
0
  0
VERTEX
  8
0
 10
749.651188541387
 20
666.00000000000807
 42
0
  0
SEQEND
  0
POLYLINE
  8
0
 10
0
 20
0
 39
0
 70
1
 66
1
  0
VERTEX
  8
0
 10
1002.151188541387
 20
563.00000000000807
 42
-1
  0
VERTEX
  8
0
 10
933.151188541387
 20
563.00000000000807
 42
-1
  0
SEQEND
  0
POLYLINE
  8
0
 10
0
 20
0
 39
0
 70
1
 66
1
  0
VERTEX
  8
0
 10
926.56169715341014
 20
181.65120000000002
 42
0
  0
VERTEX
  8
0
 10
1053.8404962104169
 20
363.42415684814455
 42
0.15391500294208527
  0
VERTEX
  8
0
 10
1057.9999963324872
 20
376.61641759033205
 42
0
  0
VERTEX
  8
0
 10
1057.9999963324872
 20
423.33091801757814
 42
0.31529900431632996
  0
VERTEX
  8
0
 10
1042.8664666694012
 20
444.9438483154297
 42
0
  0
VERTEX
  8
0
 10
925.52897658761424
 20
487.65120000000002
 42
0
  0
VERTEX
  8
0
 10
901.99999633248729
 20
487.65120000000002
 42
0
  0
VERTEX
  8
0
 10
901.99999633248729
 20
181.65120000000002
 42
0
  0
SEQEND
  0
POLYLINE
  8
0
 10
0
 20
0
 39
0
 70
1
 66
1
  0
VERTEX
  8
0
 10
1004.9999963324873
 20
434.15120000000002
 42
-1
  0
VERTEX
  8
0
 10
1004.9999963324873
 20
365.15120000000002
 42
-1
  0
SEQEND
  0
POLYLINE
  8
0
 10
0
 20
0
 39
0
 70
1
 66
1
  0
VERTEX
  8
0
 10
1033.4382955115725
 20
316
 42
0
  0
VERTEX
  8
0
 10
906.15949645456567
 20
134.22704315185544
 42
0.15391500294208527
  0
VERTEX
  8
0
 10
901.99999633249536
 20
121.03478240966794
 42
0
  0
VERTEX
  8
0
 10
901.99999633249536
 20
74.320281982421847
 42
0.31529900431632996
  0
VERTEX
  8
0
 10
917.13352599558129
 20
52.707351684570284
 42
0
  0
VERTEX
  8
0
 10
1034.4710160773684
 20
9.9999999999999964
 42
0
  0
VERTEX
  8
0
 10
1057.9999963324954
 20
10
 42
0
  0
VERTEX
  8
0
 10
1057.9999963324954
 20
316
 42
0
  0
SEQEND
  0
POLYLINE
  8
0
 10
0
 20
0
 39
0
 70
1
 66
1
  0
VERTEX
  8
0
 10
954.99999633249536
 20
63.499999999999979
 42
-1
  0
VERTEX
  8
0
 10
954.99999633249536
 20
132.5
 42
-1
  0
SEQEND
  0
POLYLINE
  8
0
 10
0
 20
0
 39
0
 70
1
 66
1
  0
VERTEX
  8
0
 10
114.54185070796908
 20
439.99899314067443
 42
1
  0
VERTEX
  8
0
 10
115.45814562450201
 20
230.00099585673888
 42
1
  0
SEQEND
  0
POLYLINE
  8
0
 10
0
 20
0
 39
0
 70
1
 66
1
  0
VERTEX
  8
0
 10
114.77092443710231
 20
387.49949381969054
 42
-1
  0
VERTEX
  8
0
 10
115.22907189536878
 20
282.50049517772277
 42
-1
  0
SEQEND
  0
POLYLINE
  8
0
 10
0
 20
0
 39
0
 70
1
 66
1
  0
VERTEX
  8
0
 10
725.99999633247921
 20
10
 42
0
  0
VERTEX
  8
0
 10
725.99999633247921
 20
500
 42
0
  0
VERTEX
  8
0
 10
565.99999633247921
 20
500
 42
0
  0
VERTEX
  8
0
 10
565.99999633247921
 20
10
 42
0
  0
SEQEND
  0
POLYLINE
  8
0
 10
0
 20
0
 39
0
 70
1
 66
1
  0
VERTEX
  8
0
 10
635.99999633247921
 20
490
 42
-0
  0
VERTEX
  8
0
 10
655.99999633247921
 20
490
 42
-1
  0
VERTEX
  8
0
 10
655.99999633247921
 20
440
 42
0
  0
VERTEX
  8
0
 10
635.99999633247921
 20
440
 42
-1
  0
SEQEND
  0
POLYLINE
  8
0
 10
0
 20
0
 39
0
 70
1
 66
1
  0
VERTEX
  8
0
 10
114.54185070796908
 20
219.99899680820332
 42
1
  0
VERTEX
  8
0
 10
115.45814562450201
 20
10.000999524267769
 42
1
  0
SEQEND
  0
POLYLINE
  8
0
 10
0
 20
0
 39
0
 70
1
 66
1
  0
VERTEX
  8
0
 10
114.77092443710231
 20
167.49949748721943
 42
-1
  0
VERTEX
  8
0
 10
115.22907189536878
 20
62.500498845251656
 42
-1
  0
SEQEND
  0
POLYLINE
  8
0
 10
0
 20
0
 39
0
 70
1
 66
1
  0
VERTEX
  8
0
 10
114.54185070796908
 20
659.99898947314557
 42
1
  0
VERTEX
  8
0
 10
115.45814562450201
 20
450.00099218921002
 42
1
  0
SEQEND
  0
POLYLINE
  8
0
 10
0
 20
0
 39
0
 70
1
 66
1
  0
VERTEX
  8
0
 10
114.77092443710231
 20
607.49949015216168
 42
-1
  0
VERTEX
  8
0
 10
115.22907189536878
 20
502.50049151019391
 42
-1
  0
SEQEND
  0
POLYLINE
  8
0
 10
0
 20
0
 39
0
 70
1
 66
1
  0
VERTEX
  8
0
 10
760.56169715340206
 20
181.65120000000002
 42
0
  0
VERTEX
  8
0
 10
887.8404962104089
 20
363.42415684814455
 42
0.15391500294208527
  0
VERTEX
  8
0
 10
891.99999633247921
 20
376.61641759033205
 42
0
  0
VERTEX
  8
0
 10
891.99999633247921
 20
423.33091801757814
 42
0.31529900431632996
  0
VERTEX
  8
0
 10
876.86646666939328
 20
444.9438483154297
 42
0
  0
VERTEX
  8
0
 10
759.52897658760617
 20
487.65120000000002
 42
0
  0
VERTEX
  8
0
 10
735.99999633247921
 20
487.65120000000002
 42
0
  0
VERTEX
  8
0
 10
735.99999633247921
 20
181.65120000000002
 42
0
  0
SEQEND
  0
POLYLINE
  8
0
 10
0
 20
0
 39
0
 70
1
 66
1
  0
VERTEX
  8
0
 10
838.99999633247921
 20
434.15120000000002
 42
-1
  0
VERTEX
  8
0
 10
838.99999633247921
 20
365.15120000000002
 42
-1
  0
SEQEND
  0
POLYLINE
  8
0
 10
0
 20
0
 39
0
 70
1
 66
1
  0
VERTEX
  8
0
 10
867.43829551156432
 20
316
 42
0
  0
VERTEX
  8
0
 10
740.1594964545576
 20
134.22704315185544
 42
0.15391500294208527
  0
VERTEX
  8
0
 10
735.99999633248729
 20
121.03478240966794
 42
0
  0
VERTEX
  8
0
 10
735.99999633248729
 20
74.320281982421847
 42
0.31529900431632996
  0
VERTEX
  8
0
 10
751.13352599557322
 20
52.707351684570284
 42
0
  0
VERTEX
  8
0
 10
868.47101607736033
 20
9.9999999999999964
 42
0
  0
VERTEX
  8
0
 10
891.99999633248729
 20
10
 42
0
  0
VERTEX
  8
0
 10
891.99999633248729
 20
316
 42
0
  0
SEQEND
  0
POLYLINE
  8
0
 10
0
 20
0
 39
0
 70
1
 66
1
  0
VERTEX
  8
0
 10
788.99999633248729
 20
63.499999999999979
 42
-1
  0
VERTEX
  8
0
 10
788.99999633248729
 20
132.5
 42
-1
  0
SEQEND
  0
POLYLINE
  8
0
 10
0
 20
0
 39
0
 70
1
 66
1
  0
VERTEX
  8
0
 10
424.56169715339399
 20
181.65120000000002
 42
0
  0
VERTEX
  8
0
 10
551.84049621040083
 20
363.42415684814455
 42
0.15391500294208527
  0
VERTEX
  8
0
 10
555.99999633247114
 20
376.61641759033205
 42
0
  0
VERTEX
  8
0
 10
555.99999633247114
 20
423.33091801757814
 42
0.31529900431632996
  0
VERTEX
  8
0
 10
540.8664666693852
 20
444.9438483154297
 42
0
  0
VERTEX
  8
0
 10
423.52897658759809
 20
487.65120000000002
 42
0
  0
VERTEX
  8
0
 10
399.99999633247114
 20
487.65120000000002
 42
0
  0
VERTEX
  8
0
 10
399.99999633247114
 20
181.65120000000002
 42
0
  0
SEQEND
  0
POLYLINE
  8
0
 10
0
 20
0
 39
0
 70
1
 66
1
  0
VERTEX
  8
0
 10
502.99999633247114
 20
434.15120000000002
 42
-1
  0
VERTEX
  8
0
 10
502.99999633247114
 20
365.15120000000002
 42
-1
  0
SEQEND
  0
POLYLINE
  8
0
 10
0
 20
0
 39
0
 70
1
 66
1
  0
VERTEX
  8
0
 10
531.43829551155636
 20
316
 42
0
  0
VERTEX
  8
0
 10
404.15949645454953
 20
134.22704315185544
 42
0.15391500294208527
  0
VERTEX
  8
0
 10
399.99999633247921
 20
121.03478240966794
 42
0
  0
VERTEX
  8
0
 10
399.99999633247921
 20
74.320281982421847
 42
0.31529900431632996
  0
VERTEX
  8
0
 10
415.13352599556515
 20
52.707351684570284
 42
0
  0
VERTEX
  8
0
 10
532.47101607735226
 20
9.9999999999999964
 42
0
  0
VERTEX
  8
0
 10
555.99999633247921
 20
10
 42
0
  0
VERTEX
  8
0
 10
555.99999633247921
 20
316
 42
0
  0
SEQEND
  0
POLYLINE
  8
0
 10
0
 20
0
 39
0
 70
1
 66
1
  0
VERTEX
  8
0
 10
452.99999633247921
 20
63.499999999999979
 42
-1
  0
VERTEX
  8
0
 10
452.99999633247921
 20
132.5
 42
-1
  0
SEQEND
  0
POLYLINE
  8
0
 10
0
 20
0
 39
0
 70
1
 66
1
  0
VERTEX
  8
0
 10
389.99999633247114
 20
10
 42
0
  0
VERTEX
  8
0
 10
389.99999633247108
 20
500
 42
0
  0
VERTEX
  8
0
 10
229.99999633247108
 20
500
 42
0
  0
VERTEX
  8
0
 10
229.99999633247111
 20
10
 42
0
  0
SEQEND
  0
POLYLINE
  8
0
 10
0
 20
0
 39
0
 70
1
 66
1
  0
VERTEX
  8
0
 10
299.99999633247108
 20
490
 42
-0
  0
VERTEX
  8
0
 10
319.99999633247108
 20
490
 42
-1
  0
VERTEX
  8
0
 10
319.99999633247108
 20
440
 42
0
  0
VERTEX
  8
0
 10
299.99999633247108
 20
440
 42
-1
  0
SEQEND
  0
POLYLINE
  8
0
 10
0
 20
0
 39
0
 70
1
 66
1
  0
VERTEX
  8
0
 10
567.99968144696186
 20
620.33399930741859
 42
1.2281996011734009
  0
VERTEX
  8
0
 10
466.28401208638132
 20
599.63971423928785
 42
0
  0
VERTEX
  8
0
 10
494.8247764264878
 20
533.03322996236341
 42
0.81419986486434937
  0
VERTEX
  8
0
 10
567.75299492874581
 20
547.87063676193191
 42
-0
  0
SEQEND
  0
POLYLINE
  8
0
 10
0
 20
0
 39
0
 70
1
 66
1
  0
VERTEX
  8
0
 10
510.01578969706577
 20
645.0125443043836
 42
-1
  0
VERTEX
  8
0
 10
519.98418671835941
 20
596.01631036425908
 42
-1
  0
SEQEND
  0
POLYLINE
  8
0
 10
0
 20
0
 39
0
 70
1
 66
1
  0
VERTEX
  8
0
 10
451.99968404398987
 20
620.33399930741859
 42
1.2281996011734009
  0
VERTEX
  8
0
 10
350.28401468340934
 20
599.63971423928785
 42
0
  0
VERTEX
  8
0
 10
378.82477902351582
 20
533.03322996236341
 42
0.81419986486434937
  0
VERTEX
  8
0
 10
451.75299752577382
 20
547.87063676193191
 42
-0
  0
SEQEND
  0
POLYLINE
  8
0
 10
0
 20
0
 39
0
 70
1
 66
1
  0
VERTEX
  8
0
 10
394.01579229409379
 20
645.0125443043836
 42
-1
  0
VERTEX
  8
0
 10
403.98418931538743
 20
596.01631036425908
 42
-1
  0
SEQEND
  0
POLYLINE
  8
0
 10
0
 20
0
 39
0
 70
1
 66
1
  0
VERTEX
  8
0
 10
335.99968664101795
 20
620.33399930741859
 42
1.2281996011734009
  0
VERTEX
  8
0
 10
234.28401728043741
 20
599.63971423928785
 42
0
  0
VERTEX
  8
0
 10
262.82478162054389
 20
533.03322996236341
 42
0.81419986486434937
  0
VERTEX
  8
0
 10
335.75300012280189
 20
547.87063676193191
 42
-0
  0
SEQEND
  0
POLYLINE
  8
0
 10
0
 20
0
 39
0
 70
1
 66
1
  0
VERTEX
  8
0
 10
278.01579489112186
 20
645.0125443043836
 42
-1
  0
VERTEX
  8
0
 10
287.9841919124155
 20
596.01631036425908
 42
-1
  0
SEQEND
  0
ENDSEC
  0
EOF
