  0
SECTION
  2
ENTITIES
  0
POLYLINE
  8
0
 10
0
 20
0
 39
0
 70
1
 66
1
  0
VERTEX
  8
0
 10
0
 20
0
 42
-0
  0
VERTEX
  8
0
 10
1500
 20
0
 42
-0
  0
VERTEX
  8
0
 10
1500
 20
900
 42
-0
  0
VERTEX
  8
0
 10
0
 20
900
 42
-0
  0
SEQEND
  0
POLYLINE
  8
0
 10
0
 20
0
 39
0
 70
1
 66
1
  0
VERTEX
  8
0
 10
231.35992407830113
 20
450.39789798700861
 42
-1
  0
VERTEX
  8
0
 10
229.44006806270832
 20
10.402094154000821
 42
-1
  0
SEQEND
  0
POLYLINE
  8
0
 10
0
 20
0
 39
0
 70
1
 66
1
  0
VERTEX
  8
0
 10
230.07274788602868
 20
155.40071132624203
 42
1
  0
VERTEX
  8
0
 10
230.72724425498077
 20
305.39928081476739
 42
1
  0
SEQEND
  0
POLYLINE
  8
0
 10
0
 20
0
 39
0
 70
1
 66
1
  0
VERTEX
  8
0
 10
333.35992407830111
 20
889.59789798700854
 42
-1
  0
VERTEX
  8
0
 10
331.44006806270829
 20
449.60209415400072
 42
-1
  0
SEQEND
  0
POLYLINE
  8
0
 10
0
 20
0
 39
0
 70
1
 66
1
  0
VERTEX
  8
0
 10
332.07274788602865
 20
594.60071132624194
 42
1
  0
VERTEX
  8
0
 10
332.72724425498075
 20
744.59928081476733
 42
1
  0
SEQEND
  0
POLYLINE
  8
0
 10
0
 20
0
 39
0
 70
1
 66
1
  0
VERTEX
  8
0
 10
662.75992407830108
 20
581.19789798700867
 42
-1
  0
VERTEX
  8
0
 10
660.84006806270827
 20
141.2020941540008
 42
-1
  0
SEQEND
  0
POLYLINE
  8
0
 10
0
 20
0
 39
0
 70
1
 66
1
  0
VERTEX
  8
0
 10
661.47274788602863
 20
286.20071132624201
 42
1
  0
VERTEX
  8
0
 10
662.12724425498072
 20
436.19928081476741
 42
1
  0
SEQEND
  0
POLYLINE
  8
0
 10
0
 20
0
 39
0
 70
1
 66
1
  0
VERTEX
  8
0
 10
991.25992407830108
 20
889.59789798700854
 42
-1
  0
VERTEX
  8
0
 10
989.34006806270827
 20
449.60209415400072
 42
-1
  0
SEQEND
  0
POLYLINE
  8
0
 10
0
 20
0
 39
0
 70
1
 66
1
  0
VERTEX
  8
0
 10
989.97274788602863
 20
594.60071132624194
 42
1
  0
VERTEX
  8
0
 10
990.62724425498072
 20
744.59928081476733
 42
1
  0
SEQEND
  0
POLYLINE
  8
0
 10
0
 20
0
 39
0
 70
1
 66
1
  0
VERTEX
  8
0
 10
1094.4599240783011
 20
450.39789798700861
 42
-1
  0
VERTEX
  8
0
 10
1092.5400680627083
 20
10.402094154000821
 42
-1
  0
SEQEND
  0
POLYLINE
  8
0
 10
0
 20
0
 39
0
 70
1
 66
1
  0
VERTEX
  8
0
 10
1093.1727478860287
 20
155.40071132624203
 42
1
  0
VERTEX
  8
0
 10
1093.8272442549808
 20
305.39928081476739
 42
1
  0
SEQEND
  0
POLYLINE
  8
0
 10
0
 20
0
 39
0
 70
1
 66
1
  0
VERTEX
  8
0
 10
619.47306134977237
 20
889.09918302792914
 42
-1
  0
VERTEX
  8
0
 10
618.72693548916698
 20
718.1008138110102
 42
-1
  0
SEQEND
  0
POLYLINE
  8
0
 10
0
 20
0
 39
0
 70
1
 66
1
  0
VERTEX
  8
0
 10
580.55179763373485
 20
812.2189339743602
 42
1.1140623092651367
  0
VERTEX
  8
0
 10
580.47805198538617
 20
795.31778328344103
 42
9.2401628494262695
  0
SEQEND
  0
POLYLINE
  8
0
 10
0
 20
0
 39
0
 70
1
 66
1
  0
VERTEX
  8
0
 10
1258.4730613497723
 20
586.09918302792914
 42
-1
  0
VERTEX
  8
0
 10
1257.7269354891669
 20
415.1008138110102
 42
-1
  0
SEQEND
  0
POLYLINE
  8
0
 10
0
 20
0
 39
0
 70
1
 66
1
  0
VERTEX
  8
0
 10
1219.5517976337349
 20
509.21893397436025
 42
1.1140623092651367
  0
VERTEX
  8
0
 10
1219.4780519853859
 20
492.31778328344109
 42
9.2401628494262695
  0
SEQEND
  0
POLYLINE
  8
0
 10
0
 20
0
 39
0
 70
1
 66
1
  0
VERTEX
  8
0
 10
1277.3730613497723
 20
889.09918302792914
 42
-1
  0
VERTEX
  8
0
 10
1276.626935489167
 20
718.1008138110102
 42
-1
  0
SEQEND
  0
POLYLINE
  8
0
 10
0
 20
0
 39
0
 70
1
 66
1
  0
VERTEX
  8
0
 10
1238.4517976337349
 20
812.2189339743602
 42
1.1140623092651367
  0
VERTEX
  8
0
 10
1238.378051985386
 20
795.31778328344103
 42
9.2401628494262695
  0
SEQEND
  0
POLYLINE
  8
0
 10
0
 20
0
 39
0
 70
1
 66
1
  0
VERTEX
  8
0
 10
1367.9730613497723
 20
731.29918302792908
 42
-1
  0
VERTEX
  8
0
 10
1367.2269354891669
 20
560.30081381101013
 42
-1
  0
SEQEND
  0
POLYLINE
  8
0
 10
0
 20
0
 39
0
 70
1
 66
1
  0
VERTEX
  8
0
 10
1329.0517976337349
 20
654.41893397436013
 42
1.1140623092651367
  0
VERTEX
  8
0
 10
1328.9780519853859
 20
637.51778328344096
 42
9.2401628494262695
  0
SEQEND
  0
POLYLINE
  8
0
 10
0
 20
0
 39
0
 70
1
 66
1
  0
VERTEX
  8
0
 10
1465.099183027929
 20
365.22693548916698
 42
-1
  0
VERTEX
  8
0
 10
1294.1008138110101
 20
365.97306134977237
 42
-1
  0
SEQEND
  0
POLYLINE
  8
0
 10
0
 20
0
 39
0
 70
1
 66
1
  0
VERTEX
  8
0
 10
1388.2189339743602
 20
404.14819920520443
 42
1.1140623092651367
  0
VERTEX
  8
0
 10
1371.317783283441
 20
404.22194485355323
 42
9.2401628494262695
  0
SEQEND
  0
POLYLINE
  8
0
 10
0
 20
0
 39
0
 70
1
 66
1
  0
VERTEX
  8
0
 10
1380.2730613497722
 20
181.39918302792915
 42
-1
  0
VERTEX
  8
0
 10
1379.5269354891668
 20
10.40081381101021
 42
-1
  0
SEQEND
  0
POLYLINE
  8
0
 10
0
 20
0
 39
0
 70
1
 66
1
  0
VERTEX
  8
0
 10
1341.3517976337348
 20
104.51893397436024
 42
1.1140623092651367
  0
VERTEX
  8
0
 10
1341.2780519853859
 20
87.617783283441071
 42
9.2401628494262695
  0
SEQEND
  0
POLYLINE
  8
0
 10
0
 20
0
 39
0
 70
1
 66
1
  0
VERTEX
  8
0
 10
83.216338558167365
 20
568.1993072326278
 42
-1
  0
VERTEX
  8
0
 10
82.583658734847006
 20
423.20069006038659
 42
-1
  0
SEQEND
  0
POLYLINE
  8
0
 10
0
 20
0
 39
0
 70
1
 66
1
  0
VERTEX
  8
0
 10
82.6752882265003
 20
444.20048978878015
 42
1
  0
VERTEX
  8
0
 10
83.124709066514072
 20
547.19950750423425
 42
1
  0
SEQEND
  0
POLYLINE
  8
0
 10
0
 20
0
 39
0
 70
1
 66
1
  0
VERTEX
  8
0
 10
495.71633855816731
 20
155.39930723262779
 42
-1
  0
VERTEX
  8
0
 10
495.08365873484695
 20
10.40069006038658
 42
-1
  0
SEQEND
  0
POLYLINE
  8
0
 10
0
 20
0
 39
0
 70
1
 66
1
  0
VERTEX
  8
0
 10
495.17528822650024
 20
31.400489788780135
 42
1
  0
VERTEX
  8
0
 10
495.62470906651401
 20
134.39950750423424
 42
1
  0
SEQEND
  0
POLYLINE
  8
0
 10
0
 20
0
 39
0
 70
1
 66
1
  0
VERTEX
  8
0
 10
782.81633855816733
 20
155.39930723262779
 42
-1
  0
VERTEX
  8
0
 10
782.18365873484697
 20
10.40069006038658
 42
-1
  0
SEQEND
  0
POLYLINE
  8
0
 10
0
 20
0
 39
0
 70
1
 66
1
  0
VERTEX
  8
0
 10
782.27528822650027
 20
31.400489788780135
 42
1
  0
VERTEX
  8
0
 10
782.72470906651404
 20
134.39950750423424
 42
1
  0
SEQEND
  0
POLYLINE
  8
0
 10
0
 20
0
 39
0
 70
1
 66
1
  0
VERTEX
  8
0
 10
144.63498710070354
 20
803.80154883548323
 42
-0
  0
VERTEX
  8
0
 10
34.033438179648954
 20
693.19999991442864
 42
-0
  0
VERTEX
  8
0
 10
10.399999914428633
 20
716.83343817964897
 42
-0
  0
VERTEX
  8
0
 10
12.145658961014021
 20
837.28368581258701
 42
-0.40660354495048523
  0
VERTEX
  8
0
 10
15.110660705979797
 20
840.24000193516031
 42
-0
  0
VERTEX
  8
0
 10
135.9126733484149
 20
841.63656100172807
 42
-0
  0
VERTEX
  8
0
 10
144.63498710070354
 20
832.91424724943943
 42
-0
  0
SEQEND
  0
POLYLINE
  8
0
 10
0
 20
0
 39
0
 70
1
 66
1
  0
VERTEX
  8
0
 10
77.87405786291464
 20
795.02337466265863
 42
1
  0
VERTEX
  8
0
 10
66.560349557555753
 20
783.70966635729974
 42
1
  0
SEQEND
  0
POLYLINE
  8
0
 10
0
 20
0
 39
0
 70
1
 66
1
  0
VERTEX
  8
0
 10
580.39999991442858
 20
628.73501208067341
 42
-0
  0
VERTEX
  8
0
 10
691.00154883548316
 20
739.336561001728
 42
-0
  0
VERTEX
  8
0
 10
714.63498710070348
 20
715.70312273650768
 42
-0
  0
VERTEX
  8
0
 10
712.8893280541181
 20
595.25287510356964
 42
-0.40660354495048523
  0
VERTEX
  8
0
 10
709.92432630915232
 20
592.29655898099634
 42
-0
  0
VERTEX
  8
0
 10
589.12231366671722
 20
590.89999991442858
 42
-0
  0
VERTEX
  8
0
 10
580.39999991442858
 20
599.62231366671722
 42
-0
  0
SEQEND
  0
POLYLINE
  8
0
 10
0
 20
0
 39
0
 70
1
 66
1
  0
VERTEX
  8
0
 10
647.16092915221748
 20
637.51318625349802
 42
1
  0
VERTEX
  8
0
 10
658.47463745757636
 20
648.82689455885691
 42
1
  0
SEQEND
  0
ENDSEC
  0
EOF
