  0
SECTION
  2
ENTITIES
  0
POLYLINE
  8
0
 10
0
 20
0
 39
0
 70
1
 66
1
  0
VERTEX
  8
0
 10
0
 20
0
 42
-0
  0
VERTEX
  8
0
 10
1000
 20
0
 42
-0
  0
VERTEX
  8
0
 10
1000
 20
500
 42
-0
  0
VERTEX
  8
0
 10
0
 20
500
 42
-0
  0
SEQEND
  0
POLYLINE
  8
0
 10
0
 20
0
 39
0
 70
1
 66
1
  0
VERTEX
  8
0
 10
814
 20
487.99999549417873
 42
0
  0
VERTEX
  8
0
 10
614
 20
487.99999549417873
 42
-0
  0
VERTEX
  8
0
 10
514
 20
452.99999549417873
 42
0
  0
VERTEX
  8
0
 10
514
 20
387.99999549417873
 42
0
  0
VERTEX
  8
0
 10
814
 20
387.99999549417873
 42
0
  0
SEQEND
  0
POLYLINE
  8
0
 10
0
 20
0
 39
0
 70
1
 66
1
  0
VERTEX
  8
0
 10
703.5
 20
472.99999549417873
 42
-1
  0
VERTEX
  8
0
 10
724.5
 20
472.99999549417873
 42
-1
  0
SEQEND
  0
POLYLINE
  8
0
 10
0
 20
0
 39
0
 70
1
 66
1
  0
VERTEX
  8
0
 10
869
 20
330
 42
0
  0
VERTEX
  8
0
 10
869
 20
370
 42
0
  0
VERTEX
  8
0
 10
874
 20
370
 42
0
  0
VERTEX
  8
0
 10
874
 20
430
 42
0
  0
VERTEX
  8
0
 10
824
 20
430
 42
0
  0
VERTEX
  8
0
 10
824
 20
330
 42
0
  0
SEQEND
  0
POLYLINE
  8
0
 10
0
 20
0
 39
0
 70
1
 66
1
  0
VERTEX
  8
0
 10
849
 20
410.25
 42
-1
  0
VERTEX
  8
0
 10
849
 20
389.75
 42
-1
  0
SEQEND
  0
POLYLINE
  8
0
 10
0
 20
0
 39
0
 70
1
 66
1
  0
VERTEX
  8
0
 10
754
 20
377.99999549417873
 42
0
  0
VERTEX
  8
0
 10
554
 20
377.99999549417873
 42
-0
  0
VERTEX
  8
0
 10
454
 20
342.99999549417873
 42
0
  0
VERTEX
  8
0
 10
454
 20
277.99999549417873
 42
0
  0
VERTEX
  8
0
 10
754
 20
277.99999549417873
 42
0
  0
SEQEND
  0
POLYLINE
  8
0
 10
0
 20
0
 39
0
 70
1
 66
1
  0
VERTEX
  8
0
 10
643.5
 20
362.99999549417873
 42
-1
  0
VERTEX
  8
0
 10
664.5
 20
362.99999549417873
 42
-1
  0
SEQEND
  0
POLYLINE
  8
0
 10
0
 20
0
 39
0
 70
1
 66
1
  0
VERTEX
  8
0
 10
406.4371263639693
 20
267.9987675072212
 42
1
  0
VERTEX
  8
0
 10
407.5628601185669
 20
10.001227986957531
 42
1
  0
SEQEND
  0
POLYLINE
  8
0
 10
0
 20
0
 39
0
 70
1
 66
1
  0
VERTEX
  8
0
 10
407.13525582418487
 20
108.00029338612745
 42
-1
  0
VERTEX
  8
0
 10
406.86473065835133
 20
169.99970210805128
 42
-1
  0
SEQEND
  0
POLYLINE
  8
0
 10
0
 20
0
 39
0
 70
1
 66
1
  0
VERTEX
  8
0
 10
444
 20
277.99999549417873
 42
0
  0
VERTEX
  8
0
 10
444
 20
477.99999549417873
 42
0
  0
VERTEX
  8
0
 10
380
 20
477.99999549417873
 42
0
  0
VERTEX
  8
0
 10
380
 20
277.99999549417873
 42
0
  0
SEQEND
  0
POLYLINE
  8
0
 10
0
 20
0
 39
0
 70
1
 66
1
  0
VERTEX
  8
0
 10
412
 20
455.99999549417873
 42
-1
  0
VERTEX
  8
0
 10
412
 20
429.99999549417873
 42
-1
  0
SEQEND
  0
POLYLINE
  8
0
 10
0
 20
0
 39
0
 70
1
 66
1
  0
VERTEX
  8
0
 10
412
 20
325.99999549417873
 42
-1
  0
VERTEX
  8
0
 10
412
 20
299.99999549417873
 42
-1
  0
SEQEND
  0
POLYLINE
  8
0
 10
0
 20
0
 39
0
 70
1
 66
1
  0
VERTEX
  8
0
 10
310
 20
377.99999549417873
 42
0
  0
VERTEX
  8
0
 10
110
 20
377.99999549417873
 42
-0
  0
VERTEX
  8
0
 10
10
 20
342.99999549417873
 42
0
  0
VERTEX
  8
0
 10
10
 20
277.99999549417873
 42
0
  0
VERTEX
  8
0
 10
310
 20
277.99999549417873
 42
0
  0
SEQEND
  0
POLYLINE
  8
0
 10
0
 20
0
 39
0
 70
1
 66
1
  0
VERTEX
  8
0
 10
199.5
 20
362.99999549417873
 42
-1
  0
VERTEX
  8
0
 10
220.5
 20
362.99999549417873
 42
-1
  0
SEQEND
  0
POLYLINE
  8
0
 10
0
 20
0
 39
0
 70
1
 66
1
  0
VERTEX
  8
0
 10
809
 20
277.99999549417873
 42
0
  0
VERTEX
  8
0
 10
809
 20
317.99999549417873
 42
0
  0
VERTEX
  8
0
 10
814
 20
317.99999549417873
 42
0
  0
VERTEX
  8
0
 10
814
 20
377.99999549417873
 42
0
  0
VERTEX
  8
0
 10
764
 20
377.99999549417873
 42
0
  0
VERTEX
  8
0
 10
764
 20
277.99999549417873
 42
0
  0
SEQEND
  0
POLYLINE
  8
0
 10
0
 20
0
 39
0
 70
1
 66
1
  0
VERTEX
  8
0
 10
789
 20
358.24999549417873
 42
-1
  0
VERTEX
  8
0
 10
789
 20
337.74999549417873
 42
-1
  0
SEQEND
  0
POLYLINE
  8
0
 10
0
 20
0
 39
0
 70
1
 66
1
  0
VERTEX
  8
0
 10
138.43713086979056
 20
267.9987675072212
 42
1
  0
VERTEX
  8
0
 10
139.56286462438817
 20
10.001227986957531
 42
1
  0
SEQEND
  0
POLYLINE
  8
0
 10
0
 20
0
 39
0
 70
1
 66
1
  0
VERTEX
  8
0
 10
139.13526033000613
 20
108.00029338612745
 42
-1
  0
VERTEX
  8
0
 10
138.8647351641726
 20
169.99970210805128
 42
-1
  0
SEQEND
  0
POLYLINE
  8
0
 10
0
 20
0
 39
0
 70
1
 66
1
  0
VERTEX
  8
0
 10
951.9999864825362
 20
10
 42
0
  0
VERTEX
  8
0
 10
951.9999864825362
 20
210
 42
0
  0
VERTEX
  8
0
 10
887.9999864825362
 20
210
 42
0
  0
VERTEX
  8
0
 10
887.9999864825362
 20
10
 42
0
  0
SEQEND
  0
POLYLINE
  8
0
 10
0
 20
0
 39
0
 70
1
 66
1
  0
VERTEX
  8
0
 10
919.9999864825362
 20
188
 42
-1
  0
VERTEX
  8
0
 10
919.9999864825362
 20
162
 42
-1
  0
SEQEND
  0
POLYLINE
  8
0
 10
0
 20
0
 39
0
 70
1
 66
1
  0
VERTEX
  8
0
 10
919.9999864825362
 20
58
 42
-1
  0
VERTEX
  8
0
 10
919.9999864825362
 20
32
 42
-1
  0
SEQEND
  0
POLYLINE
  8
0
 10
0
 20
0
 39
0
 70
1
 66
1
  0
VERTEX
  8
0
 10
877.9999864825362
 20
10
 42
0
  0
VERTEX
  8
0
 10
877.9999864825362
 20
210
 42
0
  0
VERTEX
  8
0
 10
813.9999864825362
 20
210
 42
0
  0
VERTEX
  8
0
 10
813.9999864825362
 20
10
 42
0
  0
SEQEND
  0
POLYLINE
  8
0
 10
0
 20
0
 39
0
 70
1
 66
1
  0
VERTEX
  8
0
 10
845.9999864825362
 20
188
 42
-1
  0
VERTEX
  8
0
 10
845.9999864825362
 20
162
 42
-1
  0
SEQEND
  0
POLYLINE
  8
0
 10
0
 20
0
 39
0
 70
1
 66
1
  0
VERTEX
  8
0
 10
845.9999864825362
 20
58
 42
-1
  0
VERTEX
  8
0
 10
845.9999864825362
 20
32
 42
-1
  0
SEQEND
  0
POLYLINE
  8
0
 10
0
 20
0
 39
0
 70
1
 66
1
  0
VERTEX
  8
0
 10
365
 20
277.99999549417873
 42
0
  0
VERTEX
  8
0
 10
365
 20
317.99999549417873
 42
0
  0
VERTEX
  8
0
 10
370
 20
317.99999549417873
 42
0
  0
VERTEX
  8
0
 10
370
 20
377.99999549417873
 42
0
  0
VERTEX
  8
0
 10
320
 20
377.99999549417873
 42
0
  0
VERTEX
  8
0
 10
320
 20
277.99999549417873
 42
0
  0
SEQEND
  0
POLYLINE
  8
0
 10
0
 20
0
 39
0
 70
1
 66
1
  0
VERTEX
  8
0
 10
345
 20
358.24999549417873
 42
-1
  0
VERTEX
  8
0
 10
345
 20
337.74999549417873
 42
-1
  0
SEQEND
  0
POLYLINE
  8
0
 10
0
 20
0
 39
0
 70
1
 66
1
  0
VERTEX
  8
0
 10
310
 20
487.99999549417873
 42
0
  0
VERTEX
  8
0
 10
110
 20
487.99999549417873
 42
-0
  0
VERTEX
  8
0
 10
10
 20
452.99999549417873
 42
0
  0
VERTEX
  8
0
 10
10
 20
387.99999549417873
 42
0
  0
VERTEX
  8
0
 10
310
 20
387.99999549417873
 42
0
  0
SEQEND
  0
POLYLINE
  8
0
 10
0
 20
0
 39
0
 70
1
 66
1
  0
VERTEX
  8
0
 10
199.5
 20
472.99999549417873
 42
-1
  0
VERTEX
  8
0
 10
220.5
 20
472.99999549417873
 42
-1
  0
SEQEND
  0
POLYLINE
  8
0
 10
0
 20
0
 39
0
 70
1
 66
1
  0
VERTEX
  8
0
 10
869
 20
220
 42
0
  0
VERTEX
  8
0
 10
869
 20
260
 42
0
  0
VERTEX
  8
0
 10
874
 20
260
 42
0
  0
VERTEX
  8
0
 10
874
 20
320
 42
0
  0
VERTEX
  8
0
 10
824
 20
320
 42
0
  0
VERTEX
  8
0
 10
824
 20
220
 42
0
  0
SEQEND
  0
POLYLINE
  8
0
 10
0
 20
0
 39
0
 70
1
 66
1
  0
VERTEX
  8
0
 10
849
 20
300.25
 42
-1
  0
VERTEX
  8
0
 10
849
 20
279.75
 42
-1
  0
SEQEND
  0
POLYLINE
  8
0
 10
0
 20
0
 39
0
 70
1
 66
1
  0
VERTEX
  8
0
 10
499
 20
387.99999549417873
 42
0
  0
VERTEX
  8
0
 10
499
 20
427.99999549417873
 42
0
  0
VERTEX
  8
0
 10
504
 20
427.99999549417873
 42
0
  0
VERTEX
  8
0
 10
504
 20
487.99999549417873
 42
0
  0
VERTEX
  8
0
 10
454
 20
487.99999549417873
 42
0
  0
VERTEX
  8
0
 10
454
 20
387.99999549417873
 42
0
  0
SEQEND
  0
POLYLINE
  8
0
 10
0
 20
0
 39
0
 70
1
 66
1
  0
VERTEX
  8
0
 10
479
 20
468.24999549417873
 42
-1
  0
VERTEX
  8
0
 10
479
 20
447.74999549417873
 42
-1
  0
SEQEND
  0
POLYLINE
  8
0
 10
0
 20
0
 39
0
 70
1
 66
1
  0
VERTEX
  8
0
 10
674.43712185814798
 20
267.9987675072212
 42
1
  0
VERTEX
  8
0
 10
675.56285561274558
 20
10.001227986957531
 42
1
  0
SEQEND
  0
POLYLINE
  8
0
 10
0
 20
0
 39
0
 70
1
 66
1
  0
VERTEX
  8
0
 10
675.13525131836354
 20
108.00029338612745
 42
-1
  0
VERTEX
  8
0
 10
674.86472615253001
 20
169.99970210805128
 42
-1
  0
SEQEND
  0
POLYLINE
  8
0
 10
0
 20
0
 39
0
 70
1
 66
1
  0
VERTEX
  8
0
 10
948
 20
220
 42
0
  0
VERTEX
  8
0
 10
948
 20
420
 42
0
  0
VERTEX
  8
0
 10
884
 20
420
 42
0
  0
VERTEX
  8
0
 10
884
 20
220
 42
0
  0
SEQEND
  0
POLYLINE
  8
0
 10
0
 20
0
 39
0
 70
1
 66
1
  0
VERTEX
  8
0
 10
916
 20
398
 42
-1
  0
VERTEX
  8
0
 10
916
 20
372
 42
-1
  0
SEQEND
  0
POLYLINE
  8
0
 10
0
 20
0
 39
0
 70
1
 66
1
  0
VERTEX
  8
0
 10
916
 20
268
 42
-1
  0
VERTEX
  8
0
 10
916
 20
242
 42
-1
  0
SEQEND
  0
POLYLINE
  8
0
 10
0
 20
0
 39
0
 70
1
 66
1
  0
VERTEX
  8
0
 10
924
 20
485
 42
0
  0
VERTEX
  8
0
 10
884
 20
485
 42
0
  0
VERTEX
  8
0
 10
884
 20
490
 42
0
  0
VERTEX
  8
0
 10
824
 20
490
 42
0
  0
VERTEX
  8
0
 10
824
 20
440
 42
0
  0
VERTEX
  8
0
 10
924
 20
440
 42
0
  0
SEQEND
  0
POLYLINE
  8
0
 10
0
 20
0
 39
0
 70
1
 66
1
  0
VERTEX
  8
0
 10
843.75
 20
465
 42
-1
  0
VERTEX
  8
0
 10
864.25
 20
465
 42
-1
  0
SEQEND
  0
ENDSEC
  0
EOF
