  0
SECTION
  2
ENTITIES
  0
POLYLINE
  8
0
 10
0
 20
0
 39
0
 70
1
 66
1
  0
VERTEX
  8
0
 10
0
 20
0
 42
-0
  0
VERTEX
  8
0
 10
700
 20
0
 42
-0
  0
VERTEX
  8
0
 10
700
 20
300
 42
-0
  0
VERTEX
  8
0
 10
0
 20
300
 42
-0
  0
SEQEND
  0
POLYLINE
  8
0
 10
0
 20
0
 39
0
 70
1
 66
1
  0
VERTEX
  8
0
 10
602.7163749196958
 20
279.99937670613178
 42
1
  0
VERTEX
  8
0
 10
603.28360510612094
 20
150.00061648274311
 42
1
  0
SEQEND
  0
POLYLINE
  8
0
 10
0
 20
0
 39
0
 70
1
 66
1
  0
VERTEX
  8
0
 10
602.86909073911795
 20
244.99971049214253
 42
-1
  0
VERTEX
  8
0
 10
603.13088928669879
 20
185.00028269673237
 42
-1
  0
SEQEND
  0
POLYLINE
  8
0
 10
0
 20
0
 39
0
 70
1
 66
1
  0
VERTEX
  8
0
 10
44.847283569323025
 20
271.99966247287614
 42
1
  0
VERTEX
  8
0
 10
45.152715208167336
 20
202.00033004489765
 42
1
  0
SEQEND
  0
POLYLINE
  8
0
 10
0
 20
0
 39
0
 70
1
 66
1
  0
VERTEX
  8
0
 10
44.934549751849971
 20
251.99985320773945
 42
-1
  0
VERTEX
  8
0
 10
45.06544902564039
 20
222.00013931003437
 42
-1
  0
SEQEND
  0
POLYLINE
  8
0
 10
0
 20
0
 39
0
 70
1
 66
1
  0
VERTEX
  8
0
 10
218.71637614220538
 20
211.99937516180955
 42
1
  0
VERTEX
  8
0
 10
219.28360632863053
 20
82.000614938420881
 42
1
  0
SEQEND
  0
POLYLINE
  8
0
 10
0
 20
0
 39
0
 70
1
 66
1
  0
VERTEX
  8
0
 10
218.86909196162753
 20
176.9997089478203
 42
-1
  0
VERTEX
  8
0
 10
219.13089050920837
 20
117.00028115241014
 42
-1
  0
SEQEND
  0
POLYLINE
  8
0
 10
0
 20
0
 39
0
 70
1
 66
1
  0
VERTEX
  8
0
 10
232.9999949627931
 20
221.9999939149277
 42
0
  0
VERTEX
  8
0
 10
303.9999949627931
 20
221.9999939149277
 42
0
  0
VERTEX
  8
0
 10
303.9999949627931
 20
283.99999010023043
 42
0
  0
VERTEX
  8
0
 10
232.9999949627931
 20
283.99999010023043
 42
1
  0
SEQEND
  0
POLYLINE
  8
0
 10
0
 20
0
 39
0
 70
1
 66
1
  0
VERTEX
  8
0
 10
220.4999949627931
 20
252.99999010023043
 42
-1
  0
VERTEX
  8
0
 10
245.4999949627931
 20
252.99999010023043
 42
-1
  0
SEQEND
  0
POLYLINE
  8
0
 10
0
 20
0
 39
0
 70
1
 66
1
  0
VERTEX
  8
0
 10
81.999996185302734
 20
160.99999877749036
 42
0
  0
VERTEX
  8
0
 10
81.999996185302734
 20
89.999998777490362
 42
0
  0
VERTEX
  8
0
 10
143.99999237060547
 20
89.999998777490362
 42
0
  0
VERTEX
  8
0
 10
143.99999237060547
 20
160.99999877749036
 42
1
  0
SEQEND
  0
POLYLINE
  8
0
 10
0
 20
0
 39
0
 70
1
 66
1
  0
VERTEX
  8
0
 10
112.99999237060547
 20
173.49999877749036
 42
-1
  0
VERTEX
  8
0
 10
112.99999237060547
 20
148.49999877749036
 42
-1
  0
SEQEND
  0
POLYLINE
  8
0
 10
0
 20
0
 39
0
 70
1
 66
1
  0
VERTEX
  8
0
 10
344.99999305544446
 20
218.87200000000303
 42
0
  0
VERTEX
  8
0
 10
415.99999305544446
 20
218.87200000000303
 42
0
  0
VERTEX
  8
0
 10
415.99999305544446
 20
280.87199618530576
 42
0
  0
VERTEX
  8
0
 10
344.99999305544446
 20
280.87199618530576
 42
1
  0
SEQEND
  0
POLYLINE
  8
0
 10
0
 20
0
 39
0
 70
1
 66
1
  0
VERTEX
  8
0
 10
332.49999305544446
 20
249.87199618530576
 42
-1
  0
VERTEX
  8
0
 10
357.49999305544446
 20
249.87199618530576
 42
-1
  0
SEQEND
  0
POLYLINE
  8
0
 10
0
 20
0
 39
0
 70
1
 66
1
  0
VERTEX
  8
0
 10
232.9999949627931
 20
10
 42
0
  0
VERTEX
  8
0
 10
303.9999949627931
 20
10
 42
0
  0
VERTEX
  8
0
 10
303.9999949627931
 20
71.999996185302734
 42
0
  0
VERTEX
  8
0
 10
232.9999949627931
 20
71.999996185302734
 42
1
  0
SEQEND
  0
POLYLINE
  8
0
 10
0
 20
0
 39
0
 70
1
 66
1
  0
VERTEX
  8
0
 10
220.4999949627931
 20
40.999996185302734
 42
-1
  0
VERTEX
  8
0
 10
245.4999949627931
 20
40.999996185302734
 42
-1
  0
SEQEND
  0
POLYLINE
  8
0
 10
0
 20
0
 39
0
 70
1
 66
1
  0
VERTEX
  8
0
 10
456.99999114809589
 20
218.87200000000303
 42
0
  0
VERTEX
  8
0
 10
527.99999114809589
 20
218.87200000000303
 42
0
  0
VERTEX
  8
0
 10
527.99999114809589
 20
280.87199618530576
 42
0
  0
VERTEX
  8
0
 10
456.99999114809589
 20
280.87199618530576
 42
1
  0
SEQEND
  0
POLYLINE
  8
0
 10
0
 20
0
 39
0
 70
1
 66
1
  0
VERTEX
  8
0
 10
444.49999114809589
 20
249.87199618530576
 42
-1
  0
VERTEX
  8
0
 10
469.49999114809589
 20
249.87199618530576
 42
-1
  0
SEQEND
  0
POLYLINE
  8
0
 10
0
 20
0
 39
0
 70
1
 66
1
  0
VERTEX
  8
0
 10
386.49932581092435
 20
208.87200000000666
 42
0
  0
VERTEX
  8
0
 10
386.49932581092435
 20
83.872000000006665
 42
0
  0
VERTEX
  8
0
 10
396.49932581092435
 20
83.872000000006665
 42
-0
  0
VERTEX
  8
0
 10
407.36065393592435
 20
119.67864062500666
 42
-0.16402788460254669
  0
VERTEX
  8
0
 10
414.78155237342435
 20
130.08098437500666
 42
-0
  0
VERTEX
  8
0
 10
437.61065393592435
 20
146.58684375000666
 42
0.72784233093261719
  0
VERTEX
  8
0
 10
421.47002893592435
 20
196.37200000000666
 42
-0
  0
VERTEX
  8
0
 10
413.49932581092435
 20
196.37200000000666
 42
-0.23288553953170776
  0
VERTEX
  8
0
 10
401.60870081092435
 20
202.22746875000666
 42
-0
  0
VERTEX
  8
0
 10
396.49932581092435
 20
208.87200000000666
 42
0
  0
SEQEND
  0
POLYLINE
  8
0
 10
0
 20
0
 39
0
 70
1
 66
1
  0
VERTEX
  8
0
 10
421.49932581092435
 20
183.87200000000666
 42
-1
  0
VERTEX
  8
0
 10
421.49932581092435
 20
153.87200000000666
 42
-1
  0
SEQEND
  0
POLYLINE
  8
0
 10
0
 20
0
 39
0
 70
1
 66
1
  0
VERTEX
  8
0
 10
448.998656659056
 20
10
 42
0
  0
VERTEX
  8
0
 10
448.998656659056
 20
135
 42
0
  0
VERTEX
  8
0
 10
438.998656659056
 20
135
 42
-0
  0
VERTEX
  8
0
 10
428.137328534056
 20
99.193359375
 42
-0.16402788460254669
  0
VERTEX
  8
0
 10
420.716430096556
 20
88.791015625
 42
-0
  0
VERTEX
  8
0
 10
397.887328534056
 20
72.28515625
 42
0.72784233093261719
  0
VERTEX
  8
0
 10
414.027953534056
 20
22.5
 42
-0
  0
VERTEX
  8
0
 10
421.998656659056
 20
22.5
 42
-0.23288553953170776
  0
VERTEX
  8
0
 10
433.889281659056
 20
16.64453125
 42
-0
  0
VERTEX
  8
0
 10
438.998656659056
 20
10
 42
0
  0
SEQEND
  0
POLYLINE
  8
0
 10
0
 20
0
 39
0
 70
1
 66
1
  0
VERTEX
  8
0
 10
413.998656659056
 20
35
 42
-1
  0
VERTEX
  8
0
 10
413.998656659056
 20
65
 42
-1
  0
SEQEND
  0
POLYLINE
  8
0
 10
0
 20
0
 39
0
 70
1
 66
1
  0
VERTEX
  8
0
 10
458.998656659056
 20
208.87200000000666
 42
0
  0
VERTEX
  8
0
 10
458.998656659056
 20
83.872000000006665
 42
0
  0
VERTEX
  8
0
 10
468.998656659056
 20
83.872000000006665
 42
-0
  0
VERTEX
  8
0
 10
479.859984784056
 20
119.67864062500666
 42
-0.16402788460254669
  0
VERTEX
  8
0
 10
487.280883221556
 20
130.08098437500666
 42
-0
  0
VERTEX
  8
0
 10
510.109984784056
 20
146.58684375000666
 42
0.72784233093261719
  0
VERTEX
  8
0
 10
493.969359784056
 20
196.37200000000666
 42
-0
  0
VERTEX
  8
0
 10
485.998656659056
 20
196.37200000000666
 42
-0.23288553953170776
  0
VERTEX
  8
0
 10
474.108031659056
 20
202.22746875000666
 42
-0
  0
VERTEX
  8
0
 10
468.998656659056
 20
208.87200000000666
 42
0
  0
SEQEND
  0
POLYLINE
  8
0
 10
0
 20
0
 39
0
 70
1
 66
1
  0
VERTEX
  8
0
 10
493.998656659056
 20
183.87200000000666
 42
-1
  0
VERTEX
  8
0
 10
493.998656659056
 20
153.87200000000666
 42
-1
  0
SEQEND
  0
POLYLINE
  8
0
 10
0
 20
0
 39
0
 70
1
 66
1
  0
VERTEX
  8
0
 10
521.49798750718764
 20
10
 42
0
  0
VERTEX
  8
0
 10
521.49798750718764
 20
135
 42
0
  0
VERTEX
  8
0
 10
511.49798750718764
 20
135
 42
-0
  0
VERTEX
  8
0
 10
500.63665938218764
 20
99.193359375
 42
-0.16402788460254669
  0
VERTEX
  8
0
 10
493.21576094468764
 20
88.791015625
 42
-0
  0
VERTEX
  8
0
 10
470.38665938218764
 20
72.28515625
 42
0.72784233093261719
  0
VERTEX
  8
0
 10
486.52728438218764
 20
22.5
 42
-0
  0
VERTEX
  8
0
 10
494.49798750718764
 20
22.5
 42
-0.23288553953170776
  0
VERTEX
  8
0
 10
506.38861250718764
 20
16.64453125
 42
-0
  0
VERTEX
  8
0
 10
511.49798750718764
 20
10
 42
0
  0
SEQEND
  0
POLYLINE
  8
0
 10
0
 20
0
 39
0
 70
1
 66
1
  0
VERTEX
  8
0
 10
486.49798750718764
 20
35
 42
-1
  0
VERTEX
  8
0
 10
486.49798750718764
 20
65
 42
-1
  0
SEQEND
  0
POLYLINE
  8
0
 10
0
 20
0
 39
0
 70
1
 66
1
  0
VERTEX
  8
0
 10
44.847283569323025
 20
79.999665602734439
 42
1
  0
VERTEX
  8
0
 10
45.152715208167336
 20
10.000333174755923
 42
1
  0
SEQEND
  0
POLYLINE
  8
0
 10
0
 20
0
 39
0
 70
1
 66
1
  0
VERTEX
  8
0
 10
44.934549751849971
 20
59.99985633759772
 42
-1
  0
VERTEX
  8
0
 10
45.06544902564039
 20
30.000142439892642
 42
-1
  0
SEQEND
  0
POLYLINE
  8
0
 10
0
 20
0
 39
0
 70
1
 66
1
  0
VERTEX
  8
0
 10
10.000000000000007
 20
160.99999877749036
 42
0
  0
VERTEX
  8
0
 10
10.000000000000007
 20
89.999998777490362
 42
0
  0
VERTEX
  8
0
 10
71.999996185302749
 20
89.999998777490362
 42
0
  0
VERTEX
  8
0
 10
71.999996185302734
 20
160.99999877749036
 42
1
  0
SEQEND
  0
POLYLINE
  8
0
 10
0
 20
0
 39
0
 70
1
 66
1
  0
VERTEX
  8
0
 10
40.999996185302734
 20
173.49999877749036
 42
-1
  0
VERTEX
  8
0
 10
40.999996185302734
 20
148.49999877749036
 42
-1
  0
SEQEND
  0
POLYLINE
  8
0
 10
0
 20
0
 39
0
 70
1
 66
1
  0
VERTEX
  8
0
 10
120.99999687014173
 20
221.9999939149277
 42
0
  0
VERTEX
  8
0
 10
191.99999687014173
 20
221.9999939149277
 42
0
  0
VERTEX
  8
0
 10
191.99999687014173
 20
283.99999010023043
 42
0
  0
VERTEX
  8
0
 10
120.99999687014173
 20
283.99999010023043
 42
1
  0
SEQEND
  0
POLYLINE
  8
0
 10
0
 20
0
 39
0
 70
1
 66
1
  0
VERTEX
  8
0
 10
108.49999687014173
 20
252.99999010023043
 42
-1
  0
VERTEX
  8
0
 10
133.49999687014173
 20
252.99999010023043
 42
-1
  0
SEQEND
  0
POLYLINE
  8
0
 10
0
 20
0
 39
0
 70
1
 66
1
  0
VERTEX
  8
0
 10
120.99999687014173
 20
10
 42
0
  0
VERTEX
  8
0
 10
191.99999687014173
 20
10
 42
0
  0
VERTEX
  8
0
 10
191.99999687014173
 20
71.999996185302734
 42
0
  0
VERTEX
  8
0
 10
120.99999687014173
 20
71.999996185302734
 42
1
  0
SEQEND
  0
POLYLINE
  8
0
 10
0
 20
0
 39
0
 70
1
 66
1
  0
VERTEX
  8
0
 10
108.49999687014173
 20
40.999996185302734
 42
-1
  0
VERTEX
  8
0
 10
133.49999687014173
 20
40.999996185302734
 42
-1
  0
SEQEND
  0
POLYLINE
  8
0
 10
0
 20
0
 39
0
 70
1
 66
1
  0
VERTEX
  8
0
 10
596.21437127878801
 20
139.99937897650682
 42
1
  0
VERTEX
  8
0
 10
596.78160146521316
 20
10.000618753118147
 42
1
  0
SEQEND
  0
POLYLINE
  8
0
 10
0
 20
0
 39
0
 70
1
 66
1
  0
VERTEX
  8
0
 10
596.36708709821016
 20
104.99971276251756
 42
-1
  0
VERTEX
  8
0
 10
596.628885645791
 20
45.000284967107405
 42
-1
  0
SEQEND
  0
POLYLINE
  8
0
 10
0
 20
0
 39
0
 70
1
 66
1
  0
VERTEX
  8
0
 10
313.9999949627927
 20
208.87200000000666
 42
0
  0
VERTEX
  8
0
 10
313.9999949627927
 20
83.872000000006665
 42
0
  0
VERTEX
  8
0
 10
323.9999949627927
 20
83.872000000006665
 42
-0
  0
VERTEX
  8
0
 10
334.8613230877927
 20
119.67864062500666
 42
-0.16402788460254669
  0
VERTEX
  8
0
 10
342.2822215252927
 20
130.08098437500666
 42
-0
  0
VERTEX
  8
0
 10
365.1113230877927
 20
146.58684375000666
 42
0.72784233093261719
  0
VERTEX
  8
0
 10
348.9706980877927
 20
196.37200000000666
 42
-0
  0
VERTEX
  8
0
 10
340.9999949627927
 20
196.37200000000666
 42
-0.23288553953170776
  0
VERTEX
  8
0
 10
329.1093699627927
 20
202.22746875000666
 42
-0
  0
VERTEX
  8
0
 10
323.9999949627927
 20
208.87200000000666
 42
0
  0
SEQEND
  0
POLYLINE
  8
0
 10
0
 20
0
 39
0
 70
1
 66
1
  0
VERTEX
  8
0
 10
348.9999949627927
 20
183.87200000000666
 42
-1
  0
VERTEX
  8
0
 10
348.9999949627927
 20
153.87200000000666
 42
-1
  0
SEQEND
  0
POLYLINE
  8
0
 10
0
 20
0
 39
0
 70
1
 66
1
  0
VERTEX
  8
0
 10
376.49932581092435
 20
10
 42
0
  0
VERTEX
  8
0
 10
376.49932581092435
 20
135
 42
0
  0
VERTEX
  8
0
 10
366.49932581092435
 20
135
 42
-0
  0
VERTEX
  8
0
 10
355.63799768592435
 20
99.193359375
 42
-0.16402788460254669
  0
VERTEX
  8
0
 10
348.21709924842435
 20
88.791015625
 42
-0
  0
VERTEX
  8
0
 10
325.38799768592435
 20
72.28515625
 42
0.72784233093261719
  0
VERTEX
  8
0
 10
341.52862268592435
 20
22.5
 42
-0
  0
VERTEX
  8
0
 10
349.49932581092435
 20
22.5
 42
-0.23288553953170776
  0
VERTEX
  8
0
 10
361.38995081092435
 20
16.64453125
 42
-0
  0
VERTEX
  8
0
 10
366.49932581092435
 20
10
 42
0
  0
SEQEND
  0
POLYLINE
  8
0
 10
0
 20
0
 39
0
 70
1
 66
1
  0
VERTEX
  8
0
 10
341.49932581092435
 20
35
 42
-1
  0
VERTEX
  8
0
 10
341.49932581092435
 20
65
 42
-1
  0
SEQEND
  0
ENDSEC
  0
EOF
