  0
SECTION
  2
ENTITIES
  0
POLYLINE
  8
0
 10
0
 20
0
 39
0
 70
1
 66
1
  0
VERTEX
  8
0
 10
0
 20
0
 42
-0
  0
VERTEX
  8
0
 10
1500
 20
0
 42
-0
  0
VERTEX
  8
0
 10
1500
 20
800
 42
-0
  0
VERTEX
  8
0
 10
0
 20
800
 42
-0
  0
SEQEND
  0
POLYLINE
  8
0
 10
0
 20
0
 39
0
 70
1
 66
1
  0
VERTEX
  8
0
 10
644.992919921875
 20
620
 42
0
  0
VERTEX
  8
0
 10
644.992919921875
 20
380
 42
-0
  0
VERTEX
  8
0
 10
648.992919921875
 20
380
 42
-0
  0
VERTEX
  8
0
 10
648.992919921875
 20
320
 42
0
  0
VERTEX
  8
0
 10
865.992919921875
 20
320
 42
0
  0
VERTEX
  8
0
 10
865.992919921875
 20
380
 42
0
  0
VERTEX
  8
0
 10
869.992919921875
 20
380
 42
0
  0
VERTEX
  8
0
 10
869.992919921875
 20
620
 42
-0
  0
SEQEND
  0
POLYLINE
  8
0
 10
0
 20
0
 39
0
 70
1
 66
1
  0
VERTEX
  8
0
 10
775.992919921875
 20
587
 42
0
  0
VERTEX
  8
0
 10
839.992919921875
 20
587
 42
-0.41421356797218323
  0
VERTEX
  8
0
 10
842.992919921875
 20
584
 42
-0
  0
VERTEX
  8
0
 10
842.992919921875
 20
410
 42
-0.41421356797218323
  0
VERTEX
  8
0
 10
839.992919921875
 20
407
 42
-0
  0
VERTEX
  8
0
 10
775.992919921875
 20
407
 42
-0.41421356797218323
  0
VERTEX
  8
0
 10
772.992919921875
 20
410
 42
0
  0
VERTEX
  8
0
 10
772.992919921875
 20
584
 42
-0.41421356797218323
  0
SEQEND
  0
POLYLINE
  8
0
 10
0
 20
0
 39
0
 70
1
 66
1
  0
VERTEX
  8
0
 10
498.992919921875
 20
610
 42
0
  0
VERTEX
  8
0
 10
378.992919921875
 20
610
 42
0.41421356797218323
  0
VERTEX
  8
0
 10
368.992919921875
 20
600
 42
0
  0
VERTEX
  8
0
 10
368.992919921875
 20
20
 42
0.41421356797218323
  0
VERTEX
  8
0
 10
378.992919921875
 20
10
 42
0
  0
VERTEX
  8
0
 10
498.99291992187506
 20
10
 42
0.41421356797218323
  0
VERTEX
  8
0
 10
508.99291992187506
 20
20
 42
0
  0
VERTEX
  8
0
 10
508.99291992187506
 20
75
 42
0.41421356797218323
  0
VERTEX
  8
0
 10
498.99291992187506
 20
85
 42
0
  0
VERTEX
  8
0
 10
438.992919921875
 20
85
 42
-0.41421356797218323
  0
VERTEX
  8
0
 10
428.992919921875
 20
95
 42
0
  0
VERTEX
  8
0
 10
428.992919921875
 20
505
 42
-0.41421356797218323
  0
VERTEX
  8
0
 10
438.992919921875
 20
515
 42
0
  0
VERTEX
  8
0
 10
498.992919921875
 20
515
 42
0.41421356797218323
  0
VERTEX
  8
0
 10
508.992919921875
 20
525
 42
0
  0
VERTEX
  8
0
 10
508.992919921875
 20
600
 42
0.41421356797218323
  0
SEQEND
  0
POLYLINE
  8
0
 10
0
 20
0
 39
0
 70
1
 66
1
  0
VERTEX
  8
0
 10
449.99291992187506
 20
43
 42
-1
  0
VERTEX
  8
0
 10
449.99291992187506
 20
27
 42
-0
  0
VERTEX
  8
0
 10
427.99291992187506
 20
27
 42
-1
  0
VERTEX
  8
0
 10
427.992919921875
 20
43
 42
-0
  0
SEQEND
  0
POLYLINE
  8
0
 10
0
 20
0
 39
0
 70
1
 66
1
  0
VERTEX
  8
0
 10
449.992919921875
 20
593
 42
-1
  0
VERTEX
  8
0
 10
449.992919921875
 20
577
 42
-0
  0
VERTEX
  8
0
 10
427.992919921875
 20
577
 42
-1
  0
VERTEX
  8
0
 10
427.992919921875
 20
593
 42
-0
  0
SEQEND
  0
POLYLINE
  8
0
 10
0
 20
0
 39
0
 70
1
 66
1
  0
VERTEX
  8
0
 10
889.992919921875
 20
10
 42
0
  0
VERTEX
  8
0
 10
985.992919921875
 20
10
 42
0.41421356797218323
  0
VERTEX
  8
0
 10
995.992919921875
 20
20
 42
0
  0
VERTEX
  8
0
 10
995.992919921875
 20
613
 42
0.41421356797218323
  0
VERTEX
  8
0
 10
985.992919921875
 20
623
 42
0
  0
VERTEX
  8
0
 10
889.992919921875
 20
623
 42
0.41421356797218323
  0
VERTEX
  8
0
 10
879.992919921875
 20
613
 42
0
  0
VERTEX
  8
0
 10
879.992919921875
 20
20
 42
0.41421356797218323
  0
SEQEND
  0
POLYLINE
  8
0
 10
0
 20
0
 39
0
 70
1
 66
1
  0
VERTEX
  8
0
 10
952.992919921875
 20
591
 42
-1
  0
VERTEX
  8
0
 10
952.992919921875
 20
577
 42
-0
  0
VERTEX
  8
0
 10
930.992919921875
 20
577
 42
-1
  0
VERTEX
  8
0
 10
930.992919921875
 20
591
 42
-0
  0
SEQEND
  0
POLYLINE
  8
0
 10
0
 20
0
 39
0
 70
1
 66
1
  0
VERTEX
  8
0
 10
952.992919921875
 20
73
 42
-1
  0
VERTEX
  8
0
 10
952.992919921875
 20
59
 42
-0
  0
VERTEX
  8
0
 10
930.992919921875
 20
59
 42
-1
  0
VERTEX
  8
0
 10
930.992919921875
 20
73
 42
-0
  0
SEQEND
  0
POLYLINE
  8
0
 10
0
 20
0
 39
0
 70
1
 66
1
  0
VERTEX
  8
0
 10
1005.992919921875
 20
310
 42
0
  0
VERTEX
  8
0
 10
1005.992919921875
 20
70
 42
-0
  0
VERTEX
  8
0
 10
1009.992919921875
 20
70
 42
-0
  0
VERTEX
  8
0
 10
1009.992919921875
 20
10
 42
0
  0
VERTEX
  8
0
 10
1226.992919921875
 20
10
 42
0
  0
VERTEX
  8
0
 10
1226.992919921875
 20
70
 42
0
  0
VERTEX
  8
0
 10
1230.992919921875
 20
70
 42
0
  0
VERTEX
  8
0
 10
1230.992919921875
 20
310
 42
-0
  0
SEQEND
  0
POLYLINE
  8
0
 10
0
 20
0
 39
0
 70
1
 66
1
  0
VERTEX
  8
0
 10
1136.992919921875
 20
277
 42
0
  0
VERTEX
  8
0
 10
1200.992919921875
 20
277
 42
-0.41421356797218323
  0
VERTEX
  8
0
 10
1203.992919921875
 20
274
 42
-0
  0
VERTEX
  8
0
 10
1203.992919921875
 20
100
 42
-0.41421356797218323
  0
VERTEX
  8
0
 10
1200.992919921875
 20
97
 42
-0
  0
VERTEX
  8
0
 10
1136.992919921875
 20
97
 42
-0.41421356797218323
  0
VERTEX
  8
0
 10
1133.992919921875
 20
100
 42
0
  0
VERTEX
  8
0
 10
1133.992919921875
 20
274
 42
-0.41421356797218323
  0
SEQEND
  0
POLYLINE
  8
0
 10
0
 20
0
 39
0
 70
1
 66
1
  0
VERTEX
  8
0
 10
1250.992919921875
 20
10
 42
0
  0
VERTEX
  8
0
 10
1346.992919921875
 20
10
 42
0.41421356797218323
  0
VERTEX
  8
0
 10
1356.992919921875
 20
20
 42
0
  0
VERTEX
  8
0
 10
1356.992919921875
 20
613
 42
0.41421356797218323
  0
VERTEX
  8
0
 10
1346.992919921875
 20
623
 42
0
  0
VERTEX
  8
0
 10
1250.992919921875
 20
623
 42
0.41421356797218323
  0
VERTEX
  8
0
 10
1240.992919921875
 20
613
 42
0
  0
VERTEX
  8
0
 10
1240.992919921875
 20
20
 42
0.41421356797218323
  0
SEQEND
  0
POLYLINE
  8
0
 10
0
 20
0
 39
0
 70
1
 66
1
  0
VERTEX
  8
0
 10
1313.992919921875
 20
591
 42
-1
  0
VERTEX
  8
0
 10
1313.992919921875
 20
577
 42
-0
  0
VERTEX
  8
0
 10
1291.992919921875
 20
577
 42
-1
  0
VERTEX
  8
0
 10
1291.992919921875
 20
591
 42
-0
  0
SEQEND
  0
POLYLINE
  8
0
 10
0
 20
0
 39
0
 70
1
 66
1
  0
VERTEX
  8
0
 10
1313.992919921875
 20
73
 42
-1
  0
VERTEX
  8
0
 10
1313.992919921875
 20
59
 42
-0
  0
VERTEX
  8
0
 10
1291.992919921875
 20
59
 42
-1
  0
VERTEX
  8
0
 10
1291.992919921875
 20
73
 42
-0
  0
SEQEND
  0
POLYLINE
  8
0
 10
0
 20
0
 39
0
 70
1
 66
1
  0
VERTEX
  8
0
 10
1005.992919921875
 20
620
 42
0
  0
VERTEX
  8
0
 10
1005.992919921875
 20
380
 42
-0
  0
VERTEX
  8
0
 10
1009.992919921875
 20
380
 42
-0
  0
VERTEX
  8
0
 10
1009.992919921875
 20
320
 42
0
  0
VERTEX
  8
0
 10
1226.992919921875
 20
320
 42
0
  0
VERTEX
  8
0
 10
1226.992919921875
 20
380
 42
0
  0
VERTEX
  8
0
 10
1230.992919921875
 20
380
 42
0
  0
VERTEX
  8
0
 10
1230.992919921875
 20
620
 42
-0
  0
SEQEND
  0
POLYLINE
  8
0
 10
0
 20
0
 39
0
 70
1
 66
1
  0
VERTEX
  8
0
 10
1136.992919921875
 20
587
 42
0
  0
VERTEX
  8
0
 10
1200.992919921875
 20
587
 42
-0.41421356797218323
  0
VERTEX
  8
0
 10
1203.992919921875
 20
584
 42
-0
  0
VERTEX
  8
0
 10
1203.992919921875
 20
410
 42
-0.41421356797218323
  0
VERTEX
  8
0
 10
1200.992919921875
 20
407
 42
-0
  0
VERTEX
  8
0
 10
1136.992919921875
 20
407
 42
-0.41421356797218323
  0
VERTEX
  8
0
 10
1133.992919921875
 20
410
 42
0
  0
VERTEX
  8
0
 10
1133.992919921875
 20
584
 42
-0.41421356797218323
  0
SEQEND
  0
POLYLINE
  8
0
 10
0
 20
0
 39
0
 70
1
 66
1
  0
VERTEX
  8
0
 10
137.09646034240723
 20
10
 42
0
  0
VERTEX
  8
0
 10
137.09646034240723
 20
13
 42
-0
  0
VERTEX
  8
0
 10
148.89291763305664
 20
13
 42
-0
  0
VERTEX
  8
0
 10
148.89291763305664
 20
10
 42
-0
  0
VERTEX
  8
0
 10
208.992919921875
 20
10
 42
-0
  0
VERTEX
  8
0
 10
208.992919921875
 20
63
 42
0
  0
VERTEX
  8
0
 10
158.992919921875
 20
363
 42
-0
  0
VERTEX
  8
0
 10
60
 20
363
 42
-0
  0
VERTEX
  8
0
 10
10
 20
63
 42
-0
  0
VERTEX
  8
0
 10
10
 20
10
 42
-0
  0
VERTEX
  8
0
 10
70.100002288818359
 20
10
 42
0
  0
VERTEX
  8
0
 10
70.100002288818359
 20
13
 42
-0
  0
VERTEX
  8
0
 10
81.896459579467773
 20
13
 42
-0
  0
VERTEX
  8
0
 10
81.896459579467773
 20
10
 42
-0
  0
SEQEND
  0
POLYLINE
  8
0
 10
0
 20
0
 39
0
 70
1
 66
1
  0
VERTEX
  8
0
 10
98.4964599609375
 20
330
 42
-1
  0
VERTEX
  8
0
 10
120.4964599609375
 20
330
 42
-1
  0
SEQEND
  0
POLYLINE
  8
0
 10
0
 20
0
 39
0
 70
1
 66
1
  0
VERTEX
  8
0
 10
1376.992919921875
 20
10
 42
0
  0
VERTEX
  8
0
 10
1472.992919921875
 20
10
 42
0.41421356797218323
  0
VERTEX
  8
0
 10
1482.992919921875
 20
20
 42
0
  0
VERTEX
  8
0
 10
1482.992919921875
 20
613
 42
0.41421356797218323
  0
VERTEX
  8
0
 10
1472.992919921875
 20
623
 42
0
  0
VERTEX
  8
0
 10
1376.992919921875
 20
623
 42
0.41421356797218323
  0
VERTEX
  8
0
 10
1366.992919921875
 20
613
 42
0
  0
VERTEX
  8
0
 10
1366.992919921875
 20
20
 42
0.41421356797218323
  0
SEQEND
  0
POLYLINE
  8
0
 10
0
 20
0
 39
0
 70
1
 66
1
  0
VERTEX
  8
0
 10
1439.992919921875
 20
591
 42
-1
  0
VERTEX
  8
0
 10
1439.992919921875
 20
577
 42
-0
  0
VERTEX
  8
0
 10
1417.992919921875
 20
577
 42
-1
  0
VERTEX
  8
0
 10
1417.992919921875
 20
591
 42
-0
  0
SEQEND
  0
POLYLINE
  8
0
 10
0
 20
0
 39
0
 70
1
 66
1
  0
VERTEX
  8
0
 10
1439.992919921875
 20
73
 42
-1
  0
VERTEX
  8
0
 10
1439.992919921875
 20
59
 42
-0
  0
VERTEX
  8
0
 10
1417.992919921875
 20
59
 42
-1
  0
VERTEX
  8
0
 10
1417.992919921875
 20
73
 42
-0
  0
SEQEND
  0
POLYLINE
  8
0
 10
0
 20
0
 39
0
 70
1
 66
1
  0
VERTEX
  8
0
 10
348.992919921875
 20
610
 42
0
  0
VERTEX
  8
0
 10
228.992919921875
 20
610
 42
0.41421356797218323
  0
VERTEX
  8
0
 10
218.992919921875
 20
600
 42
0
  0
VERTEX
  8
0
 10
218.99291992187503
 20
20
 42
0.41421356797218323
  0
VERTEX
  8
0
 10
228.99291992187503
 20
10
 42
0
  0
VERTEX
  8
0
 10
348.99291992187506
 20
10
 42
0.41421356797218323
  0
VERTEX
  8
0
 10
358.99291992187506
 20
20
 42
0
  0
VERTEX
  8
0
 10
358.99291992187506
 20
75
 42
0.41421356797218323
  0
VERTEX
  8
0
 10
348.99291992187506
 20
85
 42
0
  0
VERTEX
  8
0
 10
288.992919921875
 20
85
 42
-0.41421356797218323
  0
VERTEX
  8
0
 10
278.992919921875
 20
95
 42
0
  0
VERTEX
  8
0
 10
278.992919921875
 20
505
 42
-0.41421356797218323
  0
VERTEX
  8
0
 10
288.992919921875
 20
515
 42
0
  0
VERTEX
  8
0
 10
348.992919921875
 20
515
 42
0.41421356797218323
  0
VERTEX
  8
0
 10
358.992919921875
 20
525
 42
0
  0
VERTEX
  8
0
 10
358.992919921875
 20
600
 42
0.41421356797218323
  0
SEQEND
  0
POLYLINE
  8
0
 10
0
 20
0
 39
0
 70
1
 66
1
  0
VERTEX
  8
0
 10
299.99291992187506
 20
43
 42
-1
  0
VERTEX
  8
0
 10
299.99291992187506
 20
27
 42
-0
  0
VERTEX
  8
0
 10
277.99291992187506
 20
27
 42
-1
  0
VERTEX
  8
0
 10
277.992919921875
 20
43
 42
-0
  0
SEQEND
  0
POLYLINE
  8
0
 10
0
 20
0
 39
0
 70
1
 66
1
  0
VERTEX
  8
0
 10
299.992919921875
 20
593
 42
-1
  0
VERTEX
  8
0
 10
299.992919921875
 20
577
 42
-0
  0
VERTEX
  8
0
 10
277.992919921875
 20
577
 42
-1
  0
VERTEX
  8
0
 10
277.992919921875
 20
593
 42
-0
  0
SEQEND
  0
POLYLINE
  8
0
 10
0
 20
0
 39
0
 70
1
 66
1
  0
VERTEX
  8
0
 10
528.992919921875
 20
10
 42
0
  0
VERTEX
  8
0
 10
624.992919921875
 20
10
 42
0.41421356797218323
  0
VERTEX
  8
0
 10
634.992919921875
 20
20
 42
0
  0
VERTEX
  8
0
 10
634.992919921875
 20
613
 42
0.41421356797218323
  0
VERTEX
  8
0
 10
624.992919921875
 20
623
 42
0
  0
VERTEX
  8
0
 10
528.992919921875
 20
623
 42
0.41421356797218323
  0
VERTEX
  8
0
 10
518.992919921875
 20
613
 42
0
  0
VERTEX
  8
0
 10
518.992919921875
 20
20
 42
0.41421356797218323
  0
SEQEND
  0
POLYLINE
  8
0
 10
0
 20
0
 39
0
 70
1
 66
1
  0
VERTEX
  8
0
 10
591.992919921875
 20
591
 42
-1
  0
VERTEX
  8
0
 10
591.992919921875
 20
577
 42
-0
  0
VERTEX
  8
0
 10
569.992919921875
 20
577
 42
-1
  0
VERTEX
  8
0
 10
569.992919921875
 20
591
 42
-0
  0
SEQEND
  0
POLYLINE
  8
0
 10
0
 20
0
 39
0
 70
1
 66
1
  0
VERTEX
  8
0
 10
591.992919921875
 20
73
 42
-1
  0
VERTEX
  8
0
 10
591.992919921875
 20
59
 42
-0
  0
VERTEX
  8
0
 10
569.992919921875
 20
59
 42
-1
  0
VERTEX
  8
0
 10
569.992919921875
 20
73
 42
-0
  0
SEQEND
  0
POLYLINE
  8
0
 10
0
 20
0
 39
0
 70
1
 66
1
  0
VERTEX
  8
0
 10
644.992919921875
 20
310
 42
0
  0
VERTEX
  8
0
 10
644.992919921875
 20
70
 42
-0
  0
VERTEX
  8
0
 10
648.992919921875
 20
70
 42
-0
  0
VERTEX
  8
0
 10
648.992919921875
 20
10
 42
0
  0
VERTEX
  8
0
 10
865.992919921875
 20
10
 42
0
  0
VERTEX
  8
0
 10
865.992919921875
 20
70
 42
0
  0
VERTEX
  8
0
 10
869.992919921875
 20
70
 42
0
  0
VERTEX
  8
0
 10
869.992919921875
 20
310
 42
-0
  0
SEQEND
  0
POLYLINE
  8
0
 10
0
 20
0
 39
0
 70
1
 66
1
  0
VERTEX
  8
0
 10
775.992919921875
 20
277
 42
0
  0
VERTEX
  8
0
 10
839.992919921875
 20
277
 42
-0.41421356797218323
  0
VERTEX
  8
0
 10
842.992919921875
 20
274
 42
-0
  0
VERTEX
  8
0
 10
842.992919921875
 20
100
 42
-0.41421356797218323
  0
VERTEX
  8
0
 10
839.992919921875
 20
97
 42
-0
  0
VERTEX
  8
0
 10
775.992919921875
 20
97
 42
-0.41421356797218323
  0
VERTEX
  8
0
 10
772.992919921875
 20
100
 42
0
  0
VERTEX
  8
0
 10
772.992919921875
 20
274
 42
-0.41421356797218323
  0
SEQEND
  0
POLYLINE
  8
0
 10
0
 20
0
 39
0
 70
1
 66
1
  0
VERTEX
  8
0
 10
828.992919921875
 20
763
 42
0
  0
VERTEX
  8
0
 10
828.992919921875
 20
643
 42
0.41421356797218323
  0
VERTEX
  8
0
 10
838.992919921875
 20
633
 42
0
  0
VERTEX
  8
0
 10
1418.992919921875
 20
633
 42
0.41421356797218323
  0
VERTEX
  8
0
 10
1428.992919921875
 20
643
 42
0
  0
VERTEX
  8
0
 10
1428.992919921875
 20
763
 42
0.41421356797218323
  0
VERTEX
  8
0
 10
1418.992919921875
 20
773
 42
0
  0
VERTEX
  8
0
 10
1363.992919921875
 20
773
 42
0.41421356797218323
  0
VERTEX
  8
0
 10
1353.992919921875
 20
763
 42
0
  0
VERTEX
  8
0
 10
1353.992919921875
 20
703
 42
-0.41421356797218323
  0
VERTEX
  8
0
 10
1343.992919921875
 20
693
 42
0
  0
VERTEX
  8
0
 10
933.992919921875
 20
693
 42
-0.41421356797218323
  0
VERTEX
  8
0
 10
923.992919921875
 20
703
 42
0
  0
VERTEX
  8
0
 10
923.992919921875
 20
763
 42
0.41421356797218323
  0
VERTEX
  8
0
 10
913.992919921875
 20
773
 42
0
  0
VERTEX
  8
0
 10
838.992919921875
 20
773
 42
0.41421356797218323
  0
SEQEND
  0
POLYLINE
  8
0
 10
0
 20
0
 39
0
 70
1
 66
1
  0
VERTEX
  8
0
 10
1395.992919921875
 20
714
 42
-1
  0
VERTEX
  8
0
 10
1411.992919921875
 20
714
 42
-0
  0
VERTEX
  8
0
 10
1411.992919921875
 20
692
 42
-1
  0
VERTEX
  8
0
 10
1395.992919921875
 20
692
 42
-0
  0
SEQEND
  0
POLYLINE
  8
0
 10
0
 20
0
 39
0
 70
1
 66
1
  0
VERTEX
  8
0
 10
845.992919921875
 20
714
 42
-1
  0
VERTEX
  8
0
 10
861.992919921875
 20
714
 42
-0
  0
VERTEX
  8
0
 10
861.992919921875
 20
692
 42
-1
  0
VERTEX
  8
0
 10
845.992919921875
 20
692
 42
-0
  0
SEQEND
  0
POLYLINE
  8
0
 10
0
 20
0
 39
0
 70
1
 66
1
  0
VERTEX
  8
0
 10
137.09646034240723
 20
373
 42
0
  0
VERTEX
  8
0
 10
137.09646034240723
 20
376
 42
-0
  0
VERTEX
  8
0
 10
148.89291763305664
 20
376
 42
-0
  0
VERTEX
  8
0
 10
148.89291763305664
 20
373
 42
-0
  0
VERTEX
  8
0
 10
208.992919921875
 20
373
 42
-0
  0
VERTEX
  8
0
 10
208.992919921875
 20
426
 42
0
  0
VERTEX
  8
0
 10
158.992919921875
 20
726
 42
-0
  0
VERTEX
  8
0
 10
60
 20
726
 42
-0
  0
VERTEX
  8
0
 10
10
 20
426
 42
-0
  0
VERTEX
  8
0
 10
10
 20
373
 42
-0
  0
VERTEX
  8
0
 10
70.100002288818359
 20
373
 42
0
  0
VERTEX
  8
0
 10
70.100002288818359
 20
376
 42
-0
  0
VERTEX
  8
0
 10
81.896459579467773
 20
376
 42
-0
  0
VERTEX
  8
0
 10
81.896459579467773
 20
373
 42
-0
  0
SEQEND
  0
POLYLINE
  8
0
 10
0
 20
0
 39
0
 70
1
 66
1
  0
VERTEX
  8
0
 10
98.4964599609375
 20
693
 42
-1
  0
VERTEX
  8
0
 10
120.4964599609375
 20
693
 42
-1
  0
SEQEND
  0
POLYLINE
  8
0
 10
0
 20
0
 39
0
 70
1
 66
1
  0
VERTEX
  8
0
 10
218.992919921875
 20
763
 42
0
  0
VERTEX
  8
0
 10
218.992919921875
 20
643
 42
0.41421356797218323
  0
VERTEX
  8
0
 10
228.99291992187497
 20
633
 42
0
  0
VERTEX
  8
0
 10
808.992919921875
 20
633
 42
0.41421356797218323
  0
VERTEX
  8
0
 10
818.992919921875
 20
643
 42
0
  0
VERTEX
  8
0
 10
818.992919921875
 20
763
 42
0.41421356797218323
  0
VERTEX
  8
0
 10
808.992919921875
 20
773
 42
0
  0
VERTEX
  8
0
 10
753.992919921875
 20
773
 42
0.41421356797218323
  0
VERTEX
  8
0
 10
743.992919921875
 20
763
 42
0
  0
VERTEX
  8
0
 10
743.992919921875
 20
703
 42
-0.41421356797218323
  0
VERTEX
  8
0
 10
733.992919921875
 20
693
 42
0
  0
VERTEX
  8
0
 10
323.992919921875
 20
693
 42
-0.41421356797218323
  0
VERTEX
  8
0
 10
313.992919921875
 20
703
 42
0
  0
VERTEX
  8
0
 10
313.992919921875
 20
763
 42
0.41421356797218323
  0
VERTEX
  8
0
 10
303.992919921875
 20
773
 42
0
  0
VERTEX
  8
0
 10
228.99291992187497
 20
773
 42
0.41421356797218323
  0
SEQEND
  0
POLYLINE
  8
0
 10
0
 20
0
 39
0
 70
1
 66
1
  0
VERTEX
  8
0
 10
785.992919921875
 20
714
 42
-1
  0
VERTEX
  8
0
 10
801.992919921875
 20
714
 42
-0
  0
VERTEX
  8
0
 10
801.992919921875
 20
692
 42
-1
  0
VERTEX
  8
0
 10
785.992919921875
 20
692
 42
-0
  0
SEQEND
  0
POLYLINE
  8
0
 10
0
 20
0
 39
0
 70
1
 66
1
  0
VERTEX
  8
0
 10
235.99291992187497
 20
714
 42
-1
  0
VERTEX
  8
0
 10
251.99291992187497
 20
714
 42
-0
  0
VERTEX
  8
0
 10
251.99291992187497
 20
692
 42
-1
  0
VERTEX
  8
0
 10
235.99291992187497
 20
692
 42
-0
  0
SEQEND
  0
ENDSEC
  0
EOF
